<?xml version="1.0" encoding="utf-8" standalone="no"?>
<!DOCTYPE svg PUBLIC "-//W3C//DTD SVG 1.1//EN"
  "http://www.w3.org/Graphics/SVG/1.1/DTD/svg11.dtd">
<!-- Created with matplotlib (http://matplotlib.org/) -->
<svg height="288pt" version="1.1" viewBox="0 0 432 288" width="432pt" xmlns="http://www.w3.org/2000/svg" xmlns:xlink="http://www.w3.org/1999/xlink">
 <defs>
  <style type="text/css">
*{stroke-linecap:butt;stroke-linejoin:round;stroke-miterlimit:100000;}
  </style>
 </defs>
 <g id="figure_1">
  <g id="patch_1">
   <path d="M 0 288 
L 432 288 
L 432 0 
L 0 0 
z
" style="fill:#ffffff;"/>
  </g>
  <g id="axes_1">
   <g id="patch_2">
    <path d="M 54 252 
L 388.8 252 
L 388.8 28.8 
L 54 28.8 
z
" style="fill:#ffffff;"/>
   </g>
   <g id="line2d_1">
    <path clip-path="url(#pd3d9f3a8d9)" d="M 388.8 218.256374 
L 388.695143 196.540477 
L 388.278027 182.902954 
L 388.062823 182.212456 
L 387.852555 177.108467 
L 387.648802 176.258122 
L 387.623266 175.370123 
L 387.389131 174.572704 
L 387.308406 171.275074 
L 387.214753 170.161971 
L 386.689536 168.8956 
L 386.664827 167.800722 
L 385.709998 166.624742 
L 385.422332 162.666911 
L 384.654615 160.788653 
L 383.185204 159.839447 
L 382.946162 158.300961 
L 380.764123 157.095376 
L 379.742185 155.842417 
L 379.360527 154.104973 
L 378.85128 152.769388 
L 377.258828 151.774051 
L 377.163892 150.152519 
L 376.26334 148.923404 
L 376.040014 147.183375 
L 375.737504 145.860119 
L 374.107513 143.227755 
L 373.110281 142.040732 
L 372.972852 140.707127 
L 372.076612 139.481438 
L 369.476363 138.814909 
L 368.418136 137.378391 
L 368.062988 135.993019 
L 367.034731 134.698716 
L 364.980153 133.531564 
L 364.322341 132.520698 
L 362.467319 131.129336 
L 361.427414 130.524192 
L 358.117447 129.594208 
L 355.869708 127.759871 
L 355.713154 126.925808 
L 353.130582 124.610223 
L 352.762759 123.842297 
L 351.859441 122.784654 
L 350.779318 121.824506 
L 348.080407 121.105064 
L 345.379657 120.920778 
L 342.739172 120.547565 
L 341.847505 119.734746 
L 338.827726 119.026076 
L 336.272836 118.304436 
L 335.655256 116.846716 
L 334.652631 116.41337 
L 329.966363 116.184806 
L 326.167568 115.143831 
L 321.755959 114.767003 
L 320.768126 114.032157 
L 320.034271 113.178602 
L 318.785409 112.841259 
L 317.54416 112.171803 
L 316.836782 111.120198 
L 312.58027 109.135649 
L 311.307675 108.848016 
L 309.903414 107.571087 
L 307.527656 106.70671 
L 306.211567 105.482658 
L 303.886857 105.232399 
L 303.361913 104.223491 
L 298.854057 104.115771 
L 296.12232 103.745943 
L 292.329352 103.882916 
L 289.855358 103.458361 
L 288.42454 102.559708 
L 286.715046 102.031534 
L 283.491762 102.638233 
L 282.570302 102.049449 
L 279.486758 101.559738 
L 276.826259 101.638854 
L 274.567629 101.183533 
L 273.167626 100.62112 
L 272.010769 100.386861 
L 271.278828 100.000224 
L 269.63112 100.092557 
L 267.512605 100.849407 
L 266.764797 99.943505 
L 259.881597 100.632682 
L 259.707594 100.265924 
L 258.383657 100.468091 
L 257.829265 99.740958 
L 256.059287 100.238023 
L 252.803007 100.709588 
L 252.585498 100.201477 
L 250.896669 100.013251 
L 249.869267 99.141611 
L 249.039685 99.503129 
L 247.343215 99.8678 
L 246.179424 99.87445 
L 243.825616 100.72844 
L 240.739536 101.502645 
L 237.347865 102.47748 
L 236.705836 102.799812 
L 236.003866 102.825086 
L 235.023354 102.602131 
L 233.692661 103.014739 
L 231.340621 104.015701 
L 227.106166 105.607511 
L 225.015648 106.250909 
L 223.985505 106.085647 
L 220.88147 106.960269 
L 219.659506 107.512207 
L 217.581305 107.870948 
L 214.296469 109.552835 
L 213.7248 109.563137 
L 213.314976 108.824213 
L 211.933532 108.660248 
L 210.478969 108.796414 
L 207.759137 108.705812 
L 207.261844 108.958479 
L 205.568289 110.226253 
L 202.118225 110.439276 
L 200.682679 110.641592 
L 199.471465 110.624058 
L 199.227373 110.412195 
L 196.353174 112.820489 
L 193.009776 116.716291 
L 189.731169 117.394925 
L 187.202462 117.488309 
L 184.199419 118.119366 
L 181.502312 118.345019 
L 180.892654 119.028319 
L 178.709579 119.50153 
L 176.960444 123.113951 
L 175.941203 123.1098 
L 174.157411 124.016202 
L 171.664181 125.007279 
L 169.425541 126.111045 
L 166.199236 126.426535 
L 165.152634 126.406793 
L 164.628735 126.177232 
L 164.069994 125.543711 
L 160.092405 124.722958 
L 159.393643 124.777823 
L 156.990326 126.392317 
L 156.171213 126.134606 
L 154.798449 126.730963 
L 152.626894 128.019385 
L 150.834668 130.93684 
L 150.226065 131.602686 
L 149.477566 131.97936 
L 148.199937 133.31632 
L 146.228373 137.44542 
L 145.816884 137.48997 
L 143.85861 145.369102 
L 141.801658 145.604213 
L 140.850234 150.46142 
L 138.558841 150.44298 
L 136.42977 149.871386 
L 134.932009 150.198523 
L 130.981152 150.146927 
L 129.18581 152.466512 
L 125.273351 154.371206 
L 122.908568 154.308866 
L 120.773205 153.234268 
L 118.19961 155.248438 
L 116.925396 151.500605 
L 113.17514 162.792057 
L 54.067776 162.72 
L 54.067776 162.72 
" style="fill:none;stroke:#ff0000;stroke-linecap:square;"/>
   </g>
   <g id="line2d_2">
    <path clip-path="url(#pd3d9f3a8d9)" d="M 388.8 218.256374 
L 388.715376 183.702886 
L 388.626939 176.892811 
L 388.465751 163.473606 
L 388.395018 161.508173 
L 388.185463 159.544842 
L 387.963746 153.929031 
L 387.870775 152.124729 
L 387.537151 150.513076 
L 387.053214 144.747062 
L 386.367498 136.083645 
L 385.927094 133.004358 
L 384.438938 118.925661 
L 384.248637 117.674377 
L 383.974491 117.070619 
L 383.287328 114.201609 
L 381.216321 110.001655 
L 380.900299 109.113031 
L 379.22815 106.777578 
L 377.903531 104.880399 
L 376.978313 103.416514 
L 374.858974 100.750977 
L 374.548639 100.28321 
L 373.768873 99.464202 
L 373.431695 99.036572 
L 370.022813 96.766494 
L 367.750047 94.941665 
L 363.606982 92.445817 
L 362.455982 91.981173 
L 361.284254 91.46214 
L 359.459264 90.663535 
L 357.493704 89.795204 
L 349.958313 87.107796 
L 344.281794 85.285389 
L 339.011208 83.583744 
L 337.167772 83.075382 
L 331.690599 82.411364 
L 326.878176 81.968471 
L 325.698186 81.767585 
L 318.654362 81.601459 
L 306.541773 81.761396 
L 301.869936 82.024911 
L 292.572407 83.188058 
L 290.384142 83.242992 
L 285.463554 84.285428 
L 279.36342 85.119709 
L 277.162203 85.193221 
L 274.637499 85.429 
L 271.734842 85.451021 
L 259.6398 87.493734 
L 253.077415 89.047042 
L 242.722643 91.918197 
L 227.291305 96.638125 
L 225.003383 97.08241 
L 222.363971 97.716714 
L 220.24884 98.34169 
L 212.183141 101.907951 
L 207.880142 103.342409 
L 205.454683 103.973391 
L 203.142124 104.917863 
L 201.155785 105.532018 
L 199.279831 105.706869 
L 196.142084 106.254412 
L 191.831861 107.645639 
L 189.994518 108.25133 
L 187.750833 108.696341 
L 185.108048 109.854631 
L 183.292493 110.928337 
L 181.111638 111.559539 
L 178.369053 112.008857 
L 173.946703 111.846425 
L 170.191292 111.549442 
L 168.38112 111.484135 
L 163.826634 110.792727 
L 162.259204 110.352951 
L 153.794477 109.690213 
L 148.823973 109.445461 
L 141.333833 108.846247 
L 134.960637 108.476439 
L 128.983432 108.597647 
L 122.698178 109.298361 
L 112.140273 109.547413 
L 107.958138 109.105379 
L 101.293629 108.036 
L 86.053631 107.265155 
L 77.05735 106.826218 
L 66.585409 118.08 
L 54.545029 118.08 
L 54.545029 118.08 
" style="fill:none;stroke:#0000ff;stroke-linecap:square;"/>
   </g>
   <g id="line2d_3">
    <path clip-path="url(#pd3d9f3a8d9)" d="M 388.8 218.256374 
L 387.581235 146.805025 
L 386.487003 132.277862 
L 386.181385 128.678214 
L 385.189006 123.216182 
L 384.205185 118.902771 
L 382.452434 112.829184 
L 381.686578 110.478933 
L 380.828925 108.648297 
L 380.047856 106.940022 
L 377.119917 102.769444 
L 376.548846 102.188108 
L 375.131111 100.30895 
L 374.025862 99.107767 
L 373.503377 98.57318 
L 371.065623 96.868712 
L 370.390778 96.488461 
L 369.192061 95.674467 
L 367.604849 94.527048 
L 365.415138 92.853416 
L 360.181077 89.547431 
L 358.759209 88.778558 
L 356.900224 88.076792 
L 355.907913 87.809797 
L 353.138905 86.592146 
L 352.190571 86.138364 
L 351.141307 85.811583 
L 348.742401 85.414896 
L 343.605047 84.715239 
L 339.858921 84.154364 
L 331.906114 83.70266 
L 328.459081 83.681752 
L 319.53119 83.471469 
L 318.165226 83.540638 
L 314.506557 83.90458 
L 310.275528 83.707497 
L 309.067005 83.733998 
L 305.030222 84.10501 
L 303.638622 83.944317 
L 293.609633 84.486894 
L 289.450795 84.851896 
L 288.059791 84.710746 
L 285.637855 84.899757 
L 283.842683 84.548194 
L 280.77668 84.916698 
L 269.737147 86.596052 
L 265.884073 87.371781 
L 258.202478 89.250216 
L 252.152114 90.733941 
L 245.409048 92.58522 
L 238.353244 94.296434 
L 228.943621 96.788024 
L 226.511701 97.383655 
L 219.510961 100.086444 
L 217.627439 100.739037 
L 214.130105 101.565086 
L 211.619873 102.387927 
L 208.478646 103.669914 
L 207.449768 104.209624 
L 206.015177 104.451642 
L 203.376005 104.700598 
L 201.219583 104.977295 
L 199.227594 105.207643 
L 197.970795 105.663203 
L 194.809096 107.100661 
L 191.922135 107.660095 
L 190.078488 108.314151 
L 188.530223 108.438272 
L 184.851164 110.295234 
L 183.981379 111.080768 
L 183.013765 111.692121 
L 181.944854 112.146993 
L 180.804676 112.30187 
L 178.196716 112.348148 
L 171.226384 112.017655 
L 170.030845 112.007381 
L 169.309966 111.81674 
L 168.304769 111.804528 
L 165.869885 111.386755 
L 164.018937 110.978182 
L 162.02426 110.654821 
L 159.087507 110.479754 
L 155.024284 109.954628 
L 149.982662 109.778526 
L 147.275774 109.579689 
L 140.516234 109.233481 
L 138.404864 108.99558 
L 134.476248 108.735276 
L 131.644757 108.366975 
L 127.40791 108.284389 
L 124.057792 108.493377 
L 121.629881 108.81218 
L 119.662783 109.233908 
L 115.155056 109.612206 
L 112.277279 109.653573 
L 110.427378 109.303689 
L 108.196219 109.014293 
L 104.526635 109.002786 
L 100.355761 108.098385 
L 92.568951 107.525581 
L 85.290867 107.52 
L 81.473492 106.618378 
L 76.282983 107.115789 
L 74.172067 110.067692 
L 71.431249 118.08 
L 54.18486 118.08 
L 54.18486 118.08 
" style="fill:none;stroke:#000000;stroke-linecap:square;"/>
   </g>
   <g id="line2d_4">
    <path clip-path="url(#pd3d9f3a8d9)" d="M 388.8 218.256374 
L 388.69756 180.390861 
L 388.563943 171.304722 
L 388.2299 162.589596 
L 387.775602 156.138655 
L 387.007646 145.911573 
L 386.710868 137.449789 
L 386.364612 134.831593 
L 385.056167 127.851764 
L 384.604197 126.155271 
L 380.905653 112.607722 
L 380.367702 111.092055 
L 377.628475 103.912176 
L 376.954735 102.696737 
L 376.129783 101.194502 
L 371.366542 95.778202 
L 367.906852 92.99715 
L 367.171675 92.520195 
L 366.116565 91.762068 
L 365.352953 91.323226 
L 364.424218 90.964416 
L 362.635337 90.183636 
L 360.192744 89.239616 
L 359.245611 88.901464 
L 357.630569 88.352771 
L 357.222343 88.149165 
L 354.513893 87.32878 
L 353.492689 86.948766 
L 351.872984 86.516743 
L 350.13716 85.993207 
L 345.66806 84.615716 
L 341.559431 83.619081 
L 327.374959 79.480419 
L 324.921675 78.986691 
L 323.038597 78.59215 
L 321.089458 78.243227 
L 317.795148 77.618988 
L 315.225882 77.361822 
L 308.398139 77.145065 
L 300.977535 77.24076 
L 294.39725 77.554085 
L 287.413156 77.949902 
L 282.181907 78.333828 
L 270.426756 79.347519 
L 264.093165 79.879608 
L 260.523899 80.282146 
L 256.582251 80.594915 
L 252.676583 81.034879 
L 244.772247 82.246637 
L 240.403006 82.317146 
L 236.022442 83.085467 
L 226.522349 85.227075 
L 222.291395 86.431261 
L 217.687404 88.012752 
L 213.220179 89.762981 
L 203.846872 93.924831 
L 200.542056 95.233959 
L 197.027309 96.263374 
L 194.097314 97.25854 
L 191.592068 98.336993 
L 188.133749 99.045305 
L 177.050556 101.878921 
L 172.028452 102.898279 
L 165.805912 104.508765 
L 158.82852 106.768255 
L 153.468609 107.821276 
L 147.34936 109.286284 
L 139.846787 110.230337 
L 128.110744 110.504727 
L 112.590997 110.325167 
L 97.462112 109.73174 
L 70.3486 107.720506 
L 63.759045 106.860321 
L 60.029059 105.607059 
L 56.41203 105.12 
L 55.028968 105.325714 
L 55.028968 105.325714 
" style="fill:none;stroke:#008000;stroke-linecap:square;"/>
   </g>
   <g id="line2d_5">
    <path clip-path="url(#pd3d9f3a8d9)" d="M 388.8 218.256374 
L 387.931489 154.754952 
L 386.219978 137.938788 
L 385.692564 134.994526 
L 384.890446 131.642373 
L 383.685402 127.51756 
L 383.271778 125.615596 
L 382.80213 122.984143 
L 382.041243 119.914013 
L 381.575464 118.209311 
L 380.269161 113.606289 
L 379.798383 111.596357 
L 379.074868 109.378529 
L 377.373856 105.301328 
L 376.141241 102.969754 
L 375.697936 102.281616 
L 375.22445 101.260644 
L 374.559702 100.385706 
L 374.040704 99.804626 
L 373.190203 98.611317 
L 370.397435 95.765813 
L 369.759791 95.243221 
L 369.073159 94.691442 
L 364.830444 92.113131 
L 362.78384 91.148524 
L 360.163945 90.026568 
L 357.323845 88.876191 
L 353.992241 87.417738 
L 352.97679 87.090465 
L 352.073549 86.736036 
L 347.473954 85.34945 
L 345.570876 84.784873 
L 341.624561 83.682136 
L 331.512015 80.811957 
L 324.6151 79.484622 
L 316.191789 78.358147 
L 308.80739 77.716401 
L 304.665915 77.402029 
L 301.519383 77.212442 
L 296.14246 77.087324 
L 277.244531 77.267888 
L 258.943664 77.774046 
L 252.088616 77.874249 
L 240.349048 78.49845 
L 232.431166 78.863185 
L 220.543262 79.483387 
L 197.324523 81.641549 
L 193.109004 81.78142 
L 183.960796 80.812334 
L 178.556736 79.002573 
L 172.560279 79.628352 
L 163.335151 77.428377 
L 141.999725 74.443704 
L 141.999725 74.443704 
" style="fill:none;stroke:#00bfbf;stroke-linecap:square;"/>
   </g>
   <g id="line2d_6">
    <path clip-path="url(#pd3d9f3a8d9)" d="M 388.8 218.256374 
L 388.77261 199.490376 
L 388.380682 196.622322 
L 388.272847 181.900553 
L 387.97757 179.761977 
L 387.630413 169.966116 
L 387.602873 165.108655 
L 387.053285 162.272997 
L 386.977785 160.914881 
L 386.543208 158.152871 
L 386.341426 154.946215 
L 385.551313 153.257684 
L 385.507975 151.466545 
L 385.271778 149.579302 
L 381.836842 147.363151 
L 381.487957 145.001537 
L 380.344585 143.403754 
L 380.17343 142.706254 
L 379.66097 137.76956 
L 379.192999 136.343504 
L 378.371045 130.558369 
L 378.133349 126.966135 
L 378.097973 124.889385 
L 377.845928 123.468727 
L 377.781257 121.657579 
L 377.285107 120.784447 
L 375.972399 120.048916 
L 375.438026 118.6832 
L 375.266857 117.621377 
L 374.452941 116.291276 
L 373.157743 115.902574 
L 371.902552 115.075806 
L 371.165385 113.889464 
L 369.792219 113.185169 
L 367.914361 111.520466 
L 367.199996 111.089657 
L 366.837348 109.841346 
L 362.890067 109.478142 
L 362.63268 108.329219 
L 361.140374 106.025389 
L 360.175745 105.696631 
L 359.653223 104.401165 
L 359.408963 102.847117 
L 359.203397 102.273811 
L 358.881556 100.499579 
L 358.41825 99.979828 
L 357.06965 99.722348 
L 356.130997 99.238322 
L 355.780877 98.581887 
L 353.446746 98.55605 
L 351.946811 97.882256 
L 351.461673 96.307809 
L 351.170362 94.283839 
L 350.79202 94.246317 
L 350.105788 93.774563 
L 349.565906 93.429881 
L 349.120263 92.378899 
L 348.729974 92.211209 
L 348.499813 91.559527 
L 348.038868 91.108999 
L 345.60158 89.378838 
L 343.543426 89.615537 
L 343.357413 88.979686 
L 343.028273 88.813272 
L 342.771253 86.336434 
L 342.257852 86.070143 
L 341.771863 85.994938 
L 341.458304 82.834332 
L 341.18464 82.470635 
L 340.979871 81.08581 
L 338.997552 81.15121 
L 336.830149 81.439098 
L 334.368953 80.640516 
L 332.28832 80.19428 
L 330.220409 78.661781 
L 328.258803 78.33891 
L 326.685518 77.741358 
L 325.455814 77.568898 
L 323.364947 77.527671 
L 322.059904 77.055309 
L 321.131646 76.964581 
L 319.73865 75.611486 
L 319.347453 74.974604 
L 317.460471 73.867194 
L 316.395678 73.105438 
L 311.970886 74.007759 
L 304.462054 74.849672 
L 299.278086 75.624776 
L 298.734399 74.690421 
L 297.609727 74.760451 
L 297.372256 73.760209 
L 296.750747 73.789009 
L 293.339442 73.750521 
L 290.725012 72.933898 
L 290.383259 71.254401 
L 289.638156 70.422374 
L 287.30584 70.965886 
L 285.348287 70.942036 
L 284.993166 70.006508 
L 284.262464 69.456426 
L 282.854576 69.65982 
L 275.605163 69.718831 
L 275.137094 69.044705 
L 272.337953 68.870353 
L 271.799128 67.843533 
L 267.562966 68.993722 
L 264.21948 69.200609 
L 262.980436 68.016198 
L 261.46809 68.155364 
L 258.271362 69.350925 
L 255.749954 69.567862 
L 254.956032 69.214028 
L 248.649524 70.90952 
L 238.98055 69.790359 
L 238.646267 68.284693 
L 238.097481 67.993885 
L 238.077664 65.5506 
L 237.879433 65.476832 
L 237.383053 65.461015 
L 229.45212 65.023457 
L 229.30004 64.779466 
L 227.865613 65.157577 
L 226.248433 63.513418 
L 225.511189 58.106725 
L 224.953309 57.906298 
L 224.492387 56.079647 
L 222.98279 56.188218 
L 219.510732 56.941273 
L 218.571941 56.071048 
L 218.035244 56.13941 
L 217.280756 56.487791 
L 215.430891 57.209808 
L 207.715622 62.930359 
L 201.339716 66.101876 
L 200.956959 65.485165 
L 199.807378 64.788646 
L 197.421825 65.005285 
L 196.30077 64.862576 
L 193.947046 65.092489 
L 192.988038 64.746161 
L 187.845787 65.303135 
L 186.830463 66.720209 
L 184.475664 67.453537 
L 182.754504 68.371477 
L 177.027743 90.726861 
L 176.246753 91.273114 
L 175.349739 92.158062 
L 174.086653 92.174255 
L 172.740807 93.112733 
L 167.985601 93.112101 
L 163.51248 94.379435 
L 161.450594 94.521835 
L 160.557923 94.457057 
L 157.654578 97.832641 
L 156.751987 96.184657 
L 156.425811 96.393751 
L 147.761293 96.87743 
L 145.279259 100.136636 
L 145.03852 100.255881 
L 142.479434 100.220803 
L 141.374877 102.323198 
L 140.69813 102.339488 
L 140.153538 95.918547 
L 139.519602 97.143054 
L 131.111236 97.266344 
L 130.582689 96.842217 
L 127.375856 104.211166 
L 126.261234 104.439598 
L 111.24197 104.454438 
L 109.958065 104.652977 
L 100.622041 104.872449 
L 96.441653 104.873399 
L 81.461994 104.739435 
L 76.153387 105.153626 
L 75.607198 105.790924 
L 68.087054 115.758039 
L 67.886679 117.126045 
L 67.291201 117.991851 
L 66.237679 118.08 
L 54.468794 118.08 
L 54.468794 118.08 
" style="fill:none;stroke:#bfbf00;stroke-linecap:square;"/>
   </g>
   <g id="line2d_7">
    <path clip-path="url(#pd3d9f3a8d9)" d="M 388.8 218.256374 
L 387.964954 186.624304 
L 386.378505 181.980401 
L 385.19822 179.889292 
L 383.421338 174.119189 
L 383.252215 169.308414 
L 382.22303 159.605073 
L 381.318554 153.338148 
L 381.137761 141.227938 
L 380.841033 136.539184 
L 380.608216 125.280694 
L 379.228145 121.903988 
L 379.219015 113.060447 
L 378.166268 111.811873 
L 377.650419 109.530344 
L 377.063623 108.001469 
L 374.216026 108.007009 
L 372.234385 108.198686 
L 370.942479 108.095772 
L 370.163865 104.404356 
L 367.415439 103.989393 
L 365.59746 103.899965 
L 360.061691 104.591883 
L 358.961642 104.52885 
L 356.044855 103.140839 
L 355.98083 102.014398 
L 355.739986 100.096864 
L 353.714112 100.292304 
L 353.014849 98.627311 
L 353.014849 98.486775 
L 350.493565 98.86416 
L 349.958874 96.52105 
L 349.268838 96.51687 
L 349.268838 96.3533 
L 348.596299 95.211129 
L 345.177084 95.874297 
L 345.177084 95.874297 
L 343.374542 95.733734 
L 343.374542 95.407569 
L 339.852469 95.66953 
L 338.582685 95.532248 
L 338.582685 95.532248 
L 338.582685 95.376458 
L 337.640521 94.62752 
L 337.640521 94.407159 
L 335.083851 95.084074 
L 327.315952 96.296237 
L 326.818362 94.234603 
L 318.391315 93.637638 
L 317.729384 93.415723 
L 317.729384 93.415723 
L 315.473745 93.731507 
L 308.381004 93.118393 
L 301.919432 94.096165 
L 300.865517 93.021889 
L 298.594026 92.521037 
L 298.594026 92.521037 
L 296.400498 92.284366 
L 296.400498 92.284366 
L 294.146822 92.567005 
L 292.504223 91.271369 
L 292.504223 91.271369 
L 292.153817 89.309002 
L 292.153817 89.309002 
L 289.743116 90.194813 
L 283.685393 91.186244 
L 282.293056 91.150708 
L 282.293056 91.150708 
L 279.155845 91.685197 
L 277.740683 91.702154 
L 277.740683 91.702154 
L 268.323905 93.550241 
L 265.646219 93.473403 
L 214.948641 93.467808 
L 204.689005 94.861598 
L 198.784811 94.587249 
L 195.254636 94.985597 
L 193.574701 94.916582 
L 188.147375 95.978041 
L 184.900669 98.333628 
L 183.467247 98.18572 
L 180.468245 100.931172 
L 171.151333 113.41647 
L 168.395614 121.102498 
L 168.395614 121.102498 
L 168.364436 117.815383 
L 166.671362 115.534875 
L 163.287902 116.167221 
L 163.287902 116.167221 
L 161.379716 116.17069 
L 161.379716 116.092038 
L 161.379716 116.049456 
L 161.379716 116.049456 
L 158.152233 115.986747 
L 158.103577 116.172185 
L 158.103577 116.13866 
L 155.824542 116.050972 
L 155.824542 116.050972 
L 155.824542 116.015064 
L 155.824542 116.015064 
L 153.219751 115.919501 
L 153.219751 115.919501 
L 153.219751 115.861129 
L 149.915091 116.671493 
L 144.944388 116.611966 
L 144.944388 116.46129 
L 144.944388 116.46129 
L 142.995948 116.46129 
L 140.302762 117.129967 
L 140.302762 117.129967 
L 138.181918 116.956623 
L 134.47546 117.663842 
L 134.47546 117.62044 
L 113.19643 117.435246 
L 113.19643 117.435246 
L 113.171805 117.148692 
L 113.171805 117.148692 
L 112.674383 117.64581 
L 112.674383 117.550699 
L 108.723769 117.562165 
L 105.514547 117.459259 
L 105.514547 116.420941 
L 105.514547 116.420941 
L 99.467879 116.428734 
L 99.467879 116.428734 
L 95.432641 116.32846 
L 84.01283 116.33365 
L 77.730386 118.107014 
L 60.345091 118.08 
L 60.345091 118.08 
" style="fill:none;stroke:#bf00bf;stroke-linecap:square;"/>
   </g>
   <g id="line2d_8">
    <path clip-path="url(#pd3d9f3a8d9)" d="M 388.8 218.256374 
L 388.739905 192.567934 
L 384.291588 172.200079 
L 380.350261 166.588054 
L 370.866753 165.079565 
L 367.343289 159.030163 
L 364.260981 156.107173 
L 361.702223 151.841522 
L 358.865499 145.976475 
L 356.557954 140.584275 
L 355.200023 135.412216 
L 353.788866 132.356312 
L 352.80042 128.227808 
L 351.213521 125.901847 
L 349.599959 121.560475 
L 348.224086 118.988174 
L 346.561772 116.66689 
L 345.103754 115.176191 
L 344.771525 113.193306 
L 343.63512 111.799298 
L 341.541046 110.646018 
L 340.23972 109.457708 
L 338.315268 108.422738 
L 336.963384 106.442528 
L 335.717884 106.244162 
L 335.24084 105.674806 
L 334.177069 104.611174 
L 333.209218 104.449454 
L 332.857648 103.717833 
L 332.289926 103.703578 
L 330.093851 103.070597 
L 329.500582 102.713387 
L 328.342152 102.696072 
L 327.796716 102.562199 
L 325.992065 102.268374 
L 324.81063 102.419504 
L 322.638776 102.81032 
L 317.252886 104.90866 
L 309.365671 111.374091 
L 302.751634 121.981548 
L 299.90312 125.101874 
L 297.931943 123.857618 
L 296.660931 123.736039 
L 296.314733 123.944201 
L 293.857556 123.573279 
L 292.624435 123.311106 
L 291.56864 122.594561 
L 290.143418 122.408637 
L 288.782896 122.267247 
L 285.434973 122.385719 
L 279.191292 123.033385 
L 278.962809 122.675131 
L 278.801765 122.511997 
L 276.390349 121.910163 
L 276.274275 121.661177 
L 274.890524 121.463505 
L 273.986086 121.065432 
L 272.139146 121.037012 
L 264.140246 121.236374 
L 263.390373 120.439726 
L 262.43937 119.850457 
L 261.889331 119.8397 
L 261.076521 119.645504 
L 258.439741 119.747453 
L 258.208038 119.171125 
L 257.182845 118.949879 
L 257.012716 118.567559 
L 256.670449 118.398547 
L 255.493974 118.000357 
L 254.675249 117.705631 
L 253.841312 117.759868 
L 253.01177 117.632352 
L 252.461173 117.313348 
L 251.748736 117.205773 
L 251.330875 116.866232 
L 250.342603 116.852185 
L 249.574282 115.88171 
L 249.012834 115.443418 
L 248.621582 113.110256 
L 247.821422 112.251507 
L 246.907243 112.176242 
L 246.799866 112.179498 
L 242.125362 112.99313 
L 241.879833 113.045934 
L 236.161092 114.454424 
L 234.853456 114.533952 
L 232.342513 115.098411 
L 231.765569 115.090512 
L 230.465487 115.3224 
L 228.770335 115.401886 
L 228.541663 115.315305 
L 227.343882 115.471131 
L 224.938134 115.733677 
L 224.101659 115.873557 
L 222.956958 116.232647 
L 218.001544 116.349022 
L 216.653596 116.348407 
L 216.26721 116.297743 
L 214.344669 116.46006 
L 206.645398 116.426978 
L 205.695869 116.409838 
L 203.348576 116.62066 
L 194.770337 116.626694 
L 192.911669 117.375173 
L 192.322555 117.346176 
L 191.508068 117.681091 
L 190.767686 117.609279 
L 189.986473 117.420272 
L 189.972889 117.210814 
L 189.584519 117.112564 
L 189.470705 116.58401 
L 187.263833 116.172297 
L 186.995074 115.95613 
L 184.173491 115.871034 
L 183.363993 116.044057 
L 147.151752 116.007812 
L 129.739944 116.278709 
L 129.501387 116.395799 
L 128.53201 116.342547 
L 124.563758 116.275402 
L 124.255772 116.163905 
L 121.902352 116.095004 
L 121.37821 116.007832 
L 120.020056 115.956697 
L 119.741193 115.855376 
L 119.207287 115.530871 
L 116.437231 115.470772 
L 115.45736 116.042261 
L 114.178224 115.974151 
L 113.106373 115.527042 
L 112.26964 114.985326 
L 111.236945 114.141436 
L 110.598617 108.861787 
L 107.382723 97.028404 
L 96.953587 97.029206 
L 96.083746 89.388725 
L 93.161233 89.389053 
L 89.76119 92.925738 
L 87.039037 93.286826 
L 84.973796 92.819225 
L 76.033679 92.821553 
L 76.033679 92.821553 
" style="fill:none;stroke:#ff0000;stroke-dasharray:6.000000,6.000000;stroke-dashoffset:0.0;"/>
   </g>
   <g id="line2d_9">
    <path clip-path="url(#pd3d9f3a8d9)" d="M 388.8 218.256374 
L 387.931489 154.754952 
L 386.219978 137.938788 
L 385.692564 134.994526 
L 384.890446 131.642373 
L 383.685402 127.51756 
L 383.271778 125.615596 
L 382.80213 122.984143 
L 382.041243 119.914013 
L 381.575464 118.209311 
L 380.269161 113.606289 
L 379.798383 111.596357 
L 379.074868 109.378529 
L 377.373856 105.300316 
L 376.141241 102.969754 
L 375.697936 102.281616 
L 375.22445 101.260644 
L 374.559702 100.385706 
L 374.040704 99.804626 
L 373.190203 98.611317 
L 370.397435 95.765813 
L 369.759791 95.243221 
L 369.073159 94.691442 
L 364.830444 92.113131 
L 362.78384 91.148524 
L 360.163945 90.026568 
L 357.323845 88.876191 
L 353.992241 87.417738 
L 352.97679 87.090465 
L 352.073549 86.736036 
L 347.473954 85.34945 
L 345.570876 84.784873 
L 341.624561 83.682136 
L 331.512015 80.811957 
L 324.6151 79.484622 
L 316.191789 78.358147 
L 308.80739 77.716401 
L 304.665915 77.402029 
L 301.519383 77.212442 
L 296.14246 77.087324 
L 277.244531 77.267888 
L 258.943664 77.774046 
L 252.088616 77.874249 
L 240.349048 78.49845 
L 232.431166 78.863185 
L 220.543262 79.483387 
L 197.324523 81.641549 
L 193.109004 81.78142 
L 183.960796 80.812334 
L 178.556736 79.002573 
L 172.560279 79.628352 
L 163.335151 77.428377 
L 141.999725 74.443704 
L 141.999725 74.443704 
" style="fill:none;stroke:#0000ff;stroke-dasharray:6.000000,6.000000;stroke-dashoffset:0.0;"/>
   </g>
   <g id="patch_3">
    <path d="M 54 28.8 
L 388.8 28.8 
" style="fill:none;stroke:#000000;stroke-linecap:square;stroke-linejoin:miter;"/>
   </g>
   <g id="patch_4">
    <path d="M 388.8 252 
L 388.8 28.8 
" style="fill:none;stroke:#000000;stroke-linecap:square;stroke-linejoin:miter;"/>
   </g>
   <g id="patch_5">
    <path d="M 54 252 
L 388.8 252 
" style="fill:none;stroke:#000000;stroke-linecap:square;stroke-linejoin:miter;"/>
   </g>
   <g id="patch_6">
    <path d="M 54 252 
L 54 28.8 
" style="fill:none;stroke:#000000;stroke-linecap:square;stroke-linejoin:miter;"/>
   </g>
   <g id="matplotlib.axis_1">
    <g id="xtick_1">
     <g id="line2d_10">
      <path clip-path="url(#pd3d9f3a8d9)" d="M 54 252 
L 54 28.8 
" style="fill:none;stroke:#000000;stroke-dasharray:1.000000,3.000000;stroke-dashoffset:0.0;stroke-width:0.5;"/>
     </g>
     <g id="line2d_11">
      <defs>
       <path d="M 0 0 
L 0 -4 
" id="m291ddbdd55" style="stroke:#000000;stroke-width:0.5;"/>
      </defs>
      <g>
       <use style="stroke:#000000;stroke-width:0.5;" x="54.0" xlink:href="#m291ddbdd55" y="252.0"/>
      </g>
     </g>
     <g id="line2d_12">
      <defs>
       <path d="M 0 0 
L 0 4 
" id="ma9d38fc425" style="stroke:#000000;stroke-width:0.5;"/>
      </defs>
      <g>
       <use style="stroke:#000000;stroke-width:0.5;" x="54.0" xlink:href="#ma9d38fc425" y="28.8"/>
      </g>
     </g>
     <g id="text_1">
      <!-- 0.0 -->
      <defs>
       <path d="M 31.78125 66.40625 
Q 24.171875 66.40625 20.328125 58.90625 
Q 16.5 51.421875 16.5 36.375 
Q 16.5 21.390625 20.328125 13.890625 
Q 24.171875 6.390625 31.78125 6.390625 
Q 39.453125 6.390625 43.28125 13.890625 
Q 47.125 21.390625 47.125 36.375 
Q 47.125 51.421875 43.28125 58.90625 
Q 39.453125 66.40625 31.78125 66.40625 
M 31.78125 74.21875 
Q 44.046875 74.21875 50.515625 64.515625 
Q 56.984375 54.828125 56.984375 36.375 
Q 56.984375 17.96875 50.515625 8.265625 
Q 44.046875 -1.421875 31.78125 -1.421875 
Q 19.53125 -1.421875 13.0625 8.265625 
Q 6.59375 17.96875 6.59375 36.375 
Q 6.59375 54.828125 13.0625 64.515625 
Q 19.53125 74.21875 31.78125 74.21875 
" id="BitstreamVeraSans-Roman-30"/>
       <path d="M 10.6875 12.40625 
L 21 12.40625 
L 21 0 
L 10.6875 0 
z
" id="BitstreamVeraSans-Roman-2e"/>
      </defs>
      <g transform="translate(46.0484375 263.5984375)scale(0.1 -0.1)">
       <use xlink:href="#BitstreamVeraSans-Roman-30"/>
       <use x="63.623046875" xlink:href="#BitstreamVeraSans-Roman-2e"/>
       <use x="95.41015625" xlink:href="#BitstreamVeraSans-Roman-30"/>
      </g>
     </g>
    </g>
    <g id="xtick_2">
     <g id="line2d_13">
      <path clip-path="url(#pd3d9f3a8d9)" d="M 120.96 252 
L 120.96 28.8 
" style="fill:none;stroke:#000000;stroke-dasharray:1.000000,3.000000;stroke-dashoffset:0.0;stroke-width:0.5;"/>
     </g>
     <g id="line2d_14">
      <g>
       <use style="stroke:#000000;stroke-width:0.5;" x="120.96" xlink:href="#m291ddbdd55" y="252.0"/>
      </g>
     </g>
     <g id="line2d_15">
      <g>
       <use style="stroke:#000000;stroke-width:0.5;" x="120.96" xlink:href="#ma9d38fc425" y="28.8"/>
      </g>
     </g>
     <g id="text_2">
      <!-- 0.2 -->
      <defs>
       <path d="M 19.1875 8.296875 
L 53.609375 8.296875 
L 53.609375 0 
L 7.328125 0 
L 7.328125 8.296875 
Q 12.9375 14.109375 22.625 23.890625 
Q 32.328125 33.6875 34.8125 36.53125 
Q 39.546875 41.84375 41.421875 45.53125 
Q 43.3125 49.21875 43.3125 52.78125 
Q 43.3125 58.59375 39.234375 62.25 
Q 35.15625 65.921875 28.609375 65.921875 
Q 23.96875 65.921875 18.8125 64.3125 
Q 13.671875 62.703125 7.8125 59.421875 
L 7.8125 69.390625 
Q 13.765625 71.78125 18.9375 73 
Q 24.125 74.21875 28.421875 74.21875 
Q 39.75 74.21875 46.484375 68.546875 
Q 53.21875 62.890625 53.21875 53.421875 
Q 53.21875 48.921875 51.53125 44.890625 
Q 49.859375 40.875 45.40625 35.40625 
Q 44.1875 33.984375 37.640625 27.21875 
Q 31.109375 20.453125 19.1875 8.296875 
" id="BitstreamVeraSans-Roman-32"/>
      </defs>
      <g transform="translate(113.0084375 263.5984375)scale(0.1 -0.1)">
       <use xlink:href="#BitstreamVeraSans-Roman-30"/>
       <use x="63.623046875" xlink:href="#BitstreamVeraSans-Roman-2e"/>
       <use x="95.41015625" xlink:href="#BitstreamVeraSans-Roman-32"/>
      </g>
     </g>
    </g>
    <g id="xtick_3">
     <g id="line2d_16">
      <path clip-path="url(#pd3d9f3a8d9)" d="M 187.92 252 
L 187.92 28.8 
" style="fill:none;stroke:#000000;stroke-dasharray:1.000000,3.000000;stroke-dashoffset:0.0;stroke-width:0.5;"/>
     </g>
     <g id="line2d_17">
      <g>
       <use style="stroke:#000000;stroke-width:0.5;" x="187.92" xlink:href="#m291ddbdd55" y="252.0"/>
      </g>
     </g>
     <g id="line2d_18">
      <g>
       <use style="stroke:#000000;stroke-width:0.5;" x="187.92" xlink:href="#ma9d38fc425" y="28.8"/>
      </g>
     </g>
     <g id="text_3">
      <!-- 0.4 -->
      <defs>
       <path d="M 37.796875 64.3125 
L 12.890625 25.390625 
L 37.796875 25.390625 
z
M 35.203125 72.90625 
L 47.609375 72.90625 
L 47.609375 25.390625 
L 58.015625 25.390625 
L 58.015625 17.1875 
L 47.609375 17.1875 
L 47.609375 0 
L 37.796875 0 
L 37.796875 17.1875 
L 4.890625 17.1875 
L 4.890625 26.703125 
z
" id="BitstreamVeraSans-Roman-34"/>
      </defs>
      <g transform="translate(179.9684375 263.5984375)scale(0.1 -0.1)">
       <use xlink:href="#BitstreamVeraSans-Roman-30"/>
       <use x="63.623046875" xlink:href="#BitstreamVeraSans-Roman-2e"/>
       <use x="95.41015625" xlink:href="#BitstreamVeraSans-Roman-34"/>
      </g>
     </g>
    </g>
    <g id="xtick_4">
     <g id="line2d_19">
      <path clip-path="url(#pd3d9f3a8d9)" d="M 254.88 252 
L 254.88 28.8 
" style="fill:none;stroke:#000000;stroke-dasharray:1.000000,3.000000;stroke-dashoffset:0.0;stroke-width:0.5;"/>
     </g>
     <g id="line2d_20">
      <g>
       <use style="stroke:#000000;stroke-width:0.5;" x="254.88" xlink:href="#m291ddbdd55" y="252.0"/>
      </g>
     </g>
     <g id="line2d_21">
      <g>
       <use style="stroke:#000000;stroke-width:0.5;" x="254.88" xlink:href="#ma9d38fc425" y="28.8"/>
      </g>
     </g>
     <g id="text_4">
      <!-- 0.6 -->
      <defs>
       <path d="M 33.015625 40.375 
Q 26.375 40.375 22.484375 35.828125 
Q 18.609375 31.296875 18.609375 23.390625 
Q 18.609375 15.53125 22.484375 10.953125 
Q 26.375 6.390625 33.015625 6.390625 
Q 39.65625 6.390625 43.53125 10.953125 
Q 47.40625 15.53125 47.40625 23.390625 
Q 47.40625 31.296875 43.53125 35.828125 
Q 39.65625 40.375 33.015625 40.375 
M 52.59375 71.296875 
L 52.59375 62.3125 
Q 48.875 64.0625 45.09375 64.984375 
Q 41.3125 65.921875 37.59375 65.921875 
Q 27.828125 65.921875 22.671875 59.328125 
Q 17.53125 52.734375 16.796875 39.40625 
Q 19.671875 43.65625 24.015625 45.921875 
Q 28.375 48.1875 33.59375 48.1875 
Q 44.578125 48.1875 50.953125 41.515625 
Q 57.328125 34.859375 57.328125 23.390625 
Q 57.328125 12.15625 50.6875 5.359375 
Q 44.046875 -1.421875 33.015625 -1.421875 
Q 20.359375 -1.421875 13.671875 8.265625 
Q 6.984375 17.96875 6.984375 36.375 
Q 6.984375 53.65625 15.1875 63.9375 
Q 23.390625 74.21875 37.203125 74.21875 
Q 40.921875 74.21875 44.703125 73.484375 
Q 48.484375 72.75 52.59375 71.296875 
" id="BitstreamVeraSans-Roman-36"/>
      </defs>
      <g transform="translate(246.9284375 263.5984375)scale(0.1 -0.1)">
       <use xlink:href="#BitstreamVeraSans-Roman-30"/>
       <use x="63.623046875" xlink:href="#BitstreamVeraSans-Roman-2e"/>
       <use x="95.41015625" xlink:href="#BitstreamVeraSans-Roman-36"/>
      </g>
     </g>
    </g>
    <g id="xtick_5">
     <g id="line2d_22">
      <path clip-path="url(#pd3d9f3a8d9)" d="M 321.84 252 
L 321.84 28.8 
" style="fill:none;stroke:#000000;stroke-dasharray:1.000000,3.000000;stroke-dashoffset:0.0;stroke-width:0.5;"/>
     </g>
     <g id="line2d_23">
      <g>
       <use style="stroke:#000000;stroke-width:0.5;" x="321.84" xlink:href="#m291ddbdd55" y="252.0"/>
      </g>
     </g>
     <g id="line2d_24">
      <g>
       <use style="stroke:#000000;stroke-width:0.5;" x="321.84" xlink:href="#ma9d38fc425" y="28.8"/>
      </g>
     </g>
     <g id="text_5">
      <!-- 0.8 -->
      <defs>
       <path d="M 31.78125 34.625 
Q 24.75 34.625 20.71875 30.859375 
Q 16.703125 27.09375 16.703125 20.515625 
Q 16.703125 13.921875 20.71875 10.15625 
Q 24.75 6.390625 31.78125 6.390625 
Q 38.8125 6.390625 42.859375 10.171875 
Q 46.921875 13.96875 46.921875 20.515625 
Q 46.921875 27.09375 42.890625 30.859375 
Q 38.875 34.625 31.78125 34.625 
M 21.921875 38.8125 
Q 15.578125 40.375 12.03125 44.71875 
Q 8.5 49.078125 8.5 55.328125 
Q 8.5 64.0625 14.71875 69.140625 
Q 20.953125 74.21875 31.78125 74.21875 
Q 42.671875 74.21875 48.875 69.140625 
Q 55.078125 64.0625 55.078125 55.328125 
Q 55.078125 49.078125 51.53125 44.71875 
Q 48 40.375 41.703125 38.8125 
Q 48.828125 37.15625 52.796875 32.3125 
Q 56.78125 27.484375 56.78125 20.515625 
Q 56.78125 9.90625 50.3125 4.234375 
Q 43.84375 -1.421875 31.78125 -1.421875 
Q 19.734375 -1.421875 13.25 4.234375 
Q 6.78125 9.90625 6.78125 20.515625 
Q 6.78125 27.484375 10.78125 32.3125 
Q 14.796875 37.15625 21.921875 38.8125 
M 18.3125 54.390625 
Q 18.3125 48.734375 21.84375 45.5625 
Q 25.390625 42.390625 31.78125 42.390625 
Q 38.140625 42.390625 41.71875 45.5625 
Q 45.3125 48.734375 45.3125 54.390625 
Q 45.3125 60.0625 41.71875 63.234375 
Q 38.140625 66.40625 31.78125 66.40625 
Q 25.390625 66.40625 21.84375 63.234375 
Q 18.3125 60.0625 18.3125 54.390625 
" id="BitstreamVeraSans-Roman-38"/>
      </defs>
      <g transform="translate(313.8884375 263.5984375)scale(0.1 -0.1)">
       <use xlink:href="#BitstreamVeraSans-Roman-30"/>
       <use x="63.623046875" xlink:href="#BitstreamVeraSans-Roman-2e"/>
       <use x="95.41015625" xlink:href="#BitstreamVeraSans-Roman-38"/>
      </g>
     </g>
    </g>
    <g id="xtick_6">
     <g id="line2d_25">
      <path clip-path="url(#pd3d9f3a8d9)" d="M 388.8 252 
L 388.8 28.8 
" style="fill:none;stroke:#000000;stroke-dasharray:1.000000,3.000000;stroke-dashoffset:0.0;stroke-width:0.5;"/>
     </g>
     <g id="line2d_26">
      <g>
       <use style="stroke:#000000;stroke-width:0.5;" x="388.8" xlink:href="#m291ddbdd55" y="252.0"/>
      </g>
     </g>
     <g id="line2d_27">
      <g>
       <use style="stroke:#000000;stroke-width:0.5;" x="388.8" xlink:href="#ma9d38fc425" y="28.8"/>
      </g>
     </g>
     <g id="text_6">
      <!-- 1.0 -->
      <defs>
       <path d="M 12.40625 8.296875 
L 28.515625 8.296875 
L 28.515625 63.921875 
L 10.984375 60.40625 
L 10.984375 69.390625 
L 28.421875 72.90625 
L 38.28125 72.90625 
L 38.28125 8.296875 
L 54.390625 8.296875 
L 54.390625 0 
L 12.40625 0 
z
" id="BitstreamVeraSans-Roman-31"/>
      </defs>
      <g transform="translate(380.8484375 263.5984375)scale(0.1 -0.1)">
       <use xlink:href="#BitstreamVeraSans-Roman-31"/>
       <use x="63.623046875" xlink:href="#BitstreamVeraSans-Roman-2e"/>
       <use x="95.41015625" xlink:href="#BitstreamVeraSans-Roman-30"/>
      </g>
     </g>
    </g>
    <g id="text_7">
     <!-- Recall -->
     <defs>
      <path d="M 56.203125 29.59375 
L 56.203125 25.203125 
L 14.890625 25.203125 
Q 15.484375 15.921875 20.484375 11.0625 
Q 25.484375 6.203125 34.421875 6.203125 
Q 39.59375 6.203125 44.453125 7.46875 
Q 49.3125 8.734375 54.109375 11.28125 
L 54.109375 2.78125 
Q 49.265625 0.734375 44.1875 -0.34375 
Q 39.109375 -1.421875 33.890625 -1.421875 
Q 20.796875 -1.421875 13.15625 6.1875 
Q 5.515625 13.8125 5.515625 26.8125 
Q 5.515625 40.234375 12.765625 48.109375 
Q 20.015625 56 32.328125 56 
Q 43.359375 56 49.78125 48.890625 
Q 56.203125 41.796875 56.203125 29.59375 
M 47.21875 32.234375 
Q 47.125 39.59375 43.09375 43.984375 
Q 39.0625 48.390625 32.421875 48.390625 
Q 24.90625 48.390625 20.390625 44.140625 
Q 15.875 39.890625 15.1875 32.171875 
z
" id="BitstreamVeraSans-Roman-65"/>
      <path d="M 44.390625 34.1875 
Q 47.5625 33.109375 50.5625 29.59375 
Q 53.5625 26.078125 56.59375 19.921875 
L 66.609375 0 
L 56 0 
L 46.6875 18.703125 
Q 43.0625 26.03125 39.671875 28.421875 
Q 36.28125 30.8125 30.421875 30.8125 
L 19.671875 30.8125 
L 19.671875 0 
L 9.8125 0 
L 9.8125 72.90625 
L 32.078125 72.90625 
Q 44.578125 72.90625 50.734375 67.671875 
Q 56.890625 62.453125 56.890625 51.90625 
Q 56.890625 45.015625 53.6875 40.46875 
Q 50.484375 35.9375 44.390625 34.1875 
M 19.671875 64.796875 
L 19.671875 38.921875 
L 32.078125 38.921875 
Q 39.203125 38.921875 42.84375 42.21875 
Q 46.484375 45.515625 46.484375 51.90625 
Q 46.484375 58.296875 42.84375 61.546875 
Q 39.203125 64.796875 32.078125 64.796875 
z
" id="BitstreamVeraSans-Roman-52"/>
      <path d="M 34.28125 27.484375 
Q 23.390625 27.484375 19.1875 25 
Q 14.984375 22.515625 14.984375 16.5 
Q 14.984375 11.71875 18.140625 8.90625 
Q 21.296875 6.109375 26.703125 6.109375 
Q 34.1875 6.109375 38.703125 11.40625 
Q 43.21875 16.703125 43.21875 25.484375 
L 43.21875 27.484375 
z
M 52.203125 31.203125 
L 52.203125 0 
L 43.21875 0 
L 43.21875 8.296875 
Q 40.140625 3.328125 35.546875 0.953125 
Q 30.953125 -1.421875 24.3125 -1.421875 
Q 15.921875 -1.421875 10.953125 3.296875 
Q 6 8.015625 6 15.921875 
Q 6 25.140625 12.171875 29.828125 
Q 18.359375 34.515625 30.609375 34.515625 
L 43.21875 34.515625 
L 43.21875 35.40625 
Q 43.21875 41.609375 39.140625 45 
Q 35.0625 48.390625 27.6875 48.390625 
Q 23 48.390625 18.546875 47.265625 
Q 14.109375 46.140625 10.015625 43.890625 
L 10.015625 52.203125 
Q 14.9375 54.109375 19.578125 55.046875 
Q 24.21875 56 28.609375 56 
Q 40.484375 56 46.34375 49.84375 
Q 52.203125 43.703125 52.203125 31.203125 
" id="BitstreamVeraSans-Roman-61"/>
      <path d="M 9.421875 75.984375 
L 18.40625 75.984375 
L 18.40625 0 
L 9.421875 0 
z
" id="BitstreamVeraSans-Roman-6c"/>
      <path d="M 48.78125 52.59375 
L 48.78125 44.1875 
Q 44.96875 46.296875 41.140625 47.34375 
Q 37.3125 48.390625 33.40625 48.390625 
Q 24.65625 48.390625 19.8125 42.84375 
Q 14.984375 37.3125 14.984375 27.296875 
Q 14.984375 17.28125 19.8125 11.734375 
Q 24.65625 6.203125 33.40625 6.203125 
Q 37.3125 6.203125 41.140625 7.25 
Q 44.96875 8.296875 48.78125 10.40625 
L 48.78125 2.09375 
Q 45.015625 0.34375 40.984375 -0.53125 
Q 36.96875 -1.421875 32.421875 -1.421875 
Q 20.0625 -1.421875 12.78125 6.34375 
Q 5.515625 14.109375 5.515625 27.296875 
Q 5.515625 40.671875 12.859375 48.328125 
Q 20.21875 56 33.015625 56 
Q 37.15625 56 41.109375 55.140625 
Q 45.0625 54.296875 48.78125 52.59375 
" id="BitstreamVeraSans-Roman-63"/>
     </defs>
     <g transform="translate(206.2609375 278.2765625)scale(0.1 -0.1)">
      <use xlink:href="#BitstreamVeraSans-Roman-52"/>
      <use x="69.419921875" xlink:href="#BitstreamVeraSans-Roman-65"/>
      <use x="130.943359375" xlink:href="#BitstreamVeraSans-Roman-63"/>
      <use x="185.923828125" xlink:href="#BitstreamVeraSans-Roman-61"/>
      <use x="247.203125" xlink:href="#BitstreamVeraSans-Roman-6c"/>
      <use x="274.986328125" xlink:href="#BitstreamVeraSans-Roman-6c"/>
     </g>
    </g>
   </g>
   <g id="matplotlib.axis_2">
    <g id="ytick_1">
     <g id="line2d_28">
      <path clip-path="url(#pd3d9f3a8d9)" d="M 54 252 
L 388.8 252 
" style="fill:none;stroke:#000000;stroke-dasharray:1.000000,3.000000;stroke-dashoffset:0.0;stroke-width:0.5;"/>
     </g>
     <g id="line2d_29">
      <defs>
       <path d="M 0 0 
L 4 0 
" id="mab20dc7bc1" style="stroke:#000000;stroke-width:0.5;"/>
      </defs>
      <g>
       <use style="stroke:#000000;stroke-width:0.5;" x="54.0" xlink:href="#mab20dc7bc1" y="252.0"/>
      </g>
     </g>
     <g id="line2d_30">
      <defs>
       <path d="M 0 0 
L -4 0 
" id="m228d99e0a5" style="stroke:#000000;stroke-width:0.5;"/>
      </defs>
      <g>
       <use style="stroke:#000000;stroke-width:0.5;" x="388.8" xlink:href="#m228d99e0a5" y="252.0"/>
      </g>
     </g>
     <g id="text_8">
      <!-- 0.0 -->
      <g transform="translate(34.096875 254.759375)scale(0.1 -0.1)">
       <use xlink:href="#BitstreamVeraSans-Roman-30"/>
       <use x="63.623046875" xlink:href="#BitstreamVeraSans-Roman-2e"/>
       <use x="95.41015625" xlink:href="#BitstreamVeraSans-Roman-30"/>
      </g>
     </g>
    </g>
    <g id="ytick_2">
     <g id="line2d_31">
      <path clip-path="url(#pd3d9f3a8d9)" d="M 54 207.36 
L 388.8 207.36 
" style="fill:none;stroke:#000000;stroke-dasharray:1.000000,3.000000;stroke-dashoffset:0.0;stroke-width:0.5;"/>
     </g>
     <g id="line2d_32">
      <g>
       <use style="stroke:#000000;stroke-width:0.5;" x="54.0" xlink:href="#mab20dc7bc1" y="207.36"/>
      </g>
     </g>
     <g id="line2d_33">
      <g>
       <use style="stroke:#000000;stroke-width:0.5;" x="388.8" xlink:href="#m228d99e0a5" y="207.36"/>
      </g>
     </g>
     <g id="text_9">
      <!-- 0.2 -->
      <g transform="translate(34.096875 210.119375)scale(0.1 -0.1)">
       <use xlink:href="#BitstreamVeraSans-Roman-30"/>
       <use x="63.623046875" xlink:href="#BitstreamVeraSans-Roman-2e"/>
       <use x="95.41015625" xlink:href="#BitstreamVeraSans-Roman-32"/>
      </g>
     </g>
    </g>
    <g id="ytick_3">
     <g id="line2d_34">
      <path clip-path="url(#pd3d9f3a8d9)" d="M 54 162.72 
L 388.8 162.72 
" style="fill:none;stroke:#000000;stroke-dasharray:1.000000,3.000000;stroke-dashoffset:0.0;stroke-width:0.5;"/>
     </g>
     <g id="line2d_35">
      <g>
       <use style="stroke:#000000;stroke-width:0.5;" x="54.0" xlink:href="#mab20dc7bc1" y="162.72"/>
      </g>
     </g>
     <g id="line2d_36">
      <g>
       <use style="stroke:#000000;stroke-width:0.5;" x="388.8" xlink:href="#m228d99e0a5" y="162.72"/>
      </g>
     </g>
     <g id="text_10">
      <!-- 0.4 -->
      <g transform="translate(34.096875 165.479375)scale(0.1 -0.1)">
       <use xlink:href="#BitstreamVeraSans-Roman-30"/>
       <use x="63.623046875" xlink:href="#BitstreamVeraSans-Roman-2e"/>
       <use x="95.41015625" xlink:href="#BitstreamVeraSans-Roman-34"/>
      </g>
     </g>
    </g>
    <g id="ytick_4">
     <g id="line2d_37">
      <path clip-path="url(#pd3d9f3a8d9)" d="M 54 118.08 
L 388.8 118.08 
" style="fill:none;stroke:#000000;stroke-dasharray:1.000000,3.000000;stroke-dashoffset:0.0;stroke-width:0.5;"/>
     </g>
     <g id="line2d_38">
      <g>
       <use style="stroke:#000000;stroke-width:0.5;" x="54.0" xlink:href="#mab20dc7bc1" y="118.08"/>
      </g>
     </g>
     <g id="line2d_39">
      <g>
       <use style="stroke:#000000;stroke-width:0.5;" x="388.8" xlink:href="#m228d99e0a5" y="118.08"/>
      </g>
     </g>
     <g id="text_11">
      <!-- 0.6 -->
      <g transform="translate(34.096875 120.839375)scale(0.1 -0.1)">
       <use xlink:href="#BitstreamVeraSans-Roman-30"/>
       <use x="63.623046875" xlink:href="#BitstreamVeraSans-Roman-2e"/>
       <use x="95.41015625" xlink:href="#BitstreamVeraSans-Roman-36"/>
      </g>
     </g>
    </g>
    <g id="ytick_5">
     <g id="line2d_40">
      <path clip-path="url(#pd3d9f3a8d9)" d="M 54 73.44 
L 388.8 73.44 
" style="fill:none;stroke:#000000;stroke-dasharray:1.000000,3.000000;stroke-dashoffset:0.0;stroke-width:0.5;"/>
     </g>
     <g id="line2d_41">
      <g>
       <use style="stroke:#000000;stroke-width:0.5;" x="54.0" xlink:href="#mab20dc7bc1" y="73.44"/>
      </g>
     </g>
     <g id="line2d_42">
      <g>
       <use style="stroke:#000000;stroke-width:0.5;" x="388.8" xlink:href="#m228d99e0a5" y="73.44"/>
      </g>
     </g>
     <g id="text_12">
      <!-- 0.8 -->
      <g transform="translate(34.096875 76.199375)scale(0.1 -0.1)">
       <use xlink:href="#BitstreamVeraSans-Roman-30"/>
       <use x="63.623046875" xlink:href="#BitstreamVeraSans-Roman-2e"/>
       <use x="95.41015625" xlink:href="#BitstreamVeraSans-Roman-38"/>
      </g>
     </g>
    </g>
    <g id="ytick_6">
     <g id="line2d_43">
      <path clip-path="url(#pd3d9f3a8d9)" d="M 54 28.8 
L 388.8 28.8 
" style="fill:none;stroke:#000000;stroke-dasharray:1.000000,3.000000;stroke-dashoffset:0.0;stroke-width:0.5;"/>
     </g>
     <g id="line2d_44">
      <g>
       <use style="stroke:#000000;stroke-width:0.5;" x="54.0" xlink:href="#mab20dc7bc1" y="28.8"/>
      </g>
     </g>
     <g id="line2d_45">
      <g>
       <use style="stroke:#000000;stroke-width:0.5;" x="388.8" xlink:href="#m228d99e0a5" y="28.8"/>
      </g>
     </g>
     <g id="text_13">
      <!-- 1.0 -->
      <g transform="translate(34.096875 31.559375)scale(0.1 -0.1)">
       <use xlink:href="#BitstreamVeraSans-Roman-31"/>
       <use x="63.623046875" xlink:href="#BitstreamVeraSans-Roman-2e"/>
       <use x="95.41015625" xlink:href="#BitstreamVeraSans-Roman-30"/>
      </g>
     </g>
    </g>
    <g id="text_14">
     <!-- Precision -->
     <defs>
      <path d="M 54.890625 33.015625 
L 54.890625 0 
L 45.90625 0 
L 45.90625 32.71875 
Q 45.90625 40.484375 42.875 44.328125 
Q 39.84375 48.1875 33.796875 48.1875 
Q 26.515625 48.1875 22.3125 43.546875 
Q 18.109375 38.921875 18.109375 30.90625 
L 18.109375 0 
L 9.078125 0 
L 9.078125 54.6875 
L 18.109375 54.6875 
L 18.109375 46.1875 
Q 21.34375 51.125 25.703125 53.5625 
Q 30.078125 56 35.796875 56 
Q 45.21875 56 50.046875 50.171875 
Q 54.890625 44.34375 54.890625 33.015625 
" id="BitstreamVeraSans-Roman-6e"/>
      <path d="M 30.609375 48.390625 
Q 23.390625 48.390625 19.1875 42.75 
Q 14.984375 37.109375 14.984375 27.296875 
Q 14.984375 17.484375 19.15625 11.84375 
Q 23.34375 6.203125 30.609375 6.203125 
Q 37.796875 6.203125 41.984375 11.859375 
Q 46.1875 17.53125 46.1875 27.296875 
Q 46.1875 37.015625 41.984375 42.703125 
Q 37.796875 48.390625 30.609375 48.390625 
M 30.609375 56 
Q 42.328125 56 49.015625 48.375 
Q 55.71875 40.765625 55.71875 27.296875 
Q 55.71875 13.875 49.015625 6.21875 
Q 42.328125 -1.421875 30.609375 -1.421875 
Q 18.84375 -1.421875 12.171875 6.21875 
Q 5.515625 13.875 5.515625 27.296875 
Q 5.515625 40.765625 12.171875 48.375 
Q 18.84375 56 30.609375 56 
" id="BitstreamVeraSans-Roman-6f"/>
      <path d="M 19.671875 64.796875 
L 19.671875 37.40625 
L 32.078125 37.40625 
Q 38.96875 37.40625 42.71875 40.96875 
Q 46.484375 44.53125 46.484375 51.125 
Q 46.484375 57.671875 42.71875 61.234375 
Q 38.96875 64.796875 32.078125 64.796875 
z
M 9.8125 72.90625 
L 32.078125 72.90625 
Q 44.34375 72.90625 50.609375 67.359375 
Q 56.890625 61.8125 56.890625 51.125 
Q 56.890625 40.328125 50.609375 34.8125 
Q 44.34375 29.296875 32.078125 29.296875 
L 19.671875 29.296875 
L 19.671875 0 
L 9.8125 0 
z
" id="BitstreamVeraSans-Roman-50"/>
      <path d="M 9.421875 54.6875 
L 18.40625 54.6875 
L 18.40625 0 
L 9.421875 0 
z
M 9.421875 75.984375 
L 18.40625 75.984375 
L 18.40625 64.59375 
L 9.421875 64.59375 
z
" id="BitstreamVeraSans-Roman-69"/>
      <path d="M 41.109375 46.296875 
Q 39.59375 47.171875 37.8125 47.578125 
Q 36.03125 48 33.890625 48 
Q 26.265625 48 22.1875 43.046875 
Q 18.109375 38.09375 18.109375 28.8125 
L 18.109375 0 
L 9.078125 0 
L 9.078125 54.6875 
L 18.109375 54.6875 
L 18.109375 46.1875 
Q 20.953125 51.171875 25.484375 53.578125 
Q 30.03125 56 36.53125 56 
Q 37.453125 56 38.578125 55.875 
Q 39.703125 55.765625 41.0625 55.515625 
z
" id="BitstreamVeraSans-Roman-72"/>
      <path d="M 44.28125 53.078125 
L 44.28125 44.578125 
Q 40.484375 46.53125 36.375 47.5 
Q 32.28125 48.484375 27.875 48.484375 
Q 21.1875 48.484375 17.84375 46.4375 
Q 14.5 44.390625 14.5 40.28125 
Q 14.5 37.15625 16.890625 35.375 
Q 19.28125 33.59375 26.515625 31.984375 
L 29.59375 31.296875 
Q 39.15625 29.25 43.1875 25.515625 
Q 47.21875 21.78125 47.21875 15.09375 
Q 47.21875 7.46875 41.1875 3.015625 
Q 35.15625 -1.421875 24.609375 -1.421875 
Q 20.21875 -1.421875 15.453125 -0.5625 
Q 10.6875 0.296875 5.421875 2 
L 5.421875 11.28125 
Q 10.40625 8.6875 15.234375 7.390625 
Q 20.0625 6.109375 24.8125 6.109375 
Q 31.15625 6.109375 34.5625 8.28125 
Q 37.984375 10.453125 37.984375 14.40625 
Q 37.984375 18.0625 35.515625 20.015625 
Q 33.0625 21.96875 24.703125 23.78125 
L 21.578125 24.515625 
Q 13.234375 26.265625 9.515625 29.90625 
Q 5.8125 33.546875 5.8125 39.890625 
Q 5.8125 47.609375 11.28125 51.796875 
Q 16.75 56 26.8125 56 
Q 31.78125 56 36.171875 55.265625 
Q 40.578125 54.546875 44.28125 53.078125 
" id="BitstreamVeraSans-Roman-73"/>
     </defs>
     <g transform="translate(27.0171875 162.9046875)rotate(-90.0)scale(0.1 -0.1)">
      <use xlink:href="#BitstreamVeraSans-Roman-50"/>
      <use x="60.287109375" xlink:href="#BitstreamVeraSans-Roman-72"/>
      <use x="101.369140625" xlink:href="#BitstreamVeraSans-Roman-65"/>
      <use x="162.892578125" xlink:href="#BitstreamVeraSans-Roman-63"/>
      <use x="217.873046875" xlink:href="#BitstreamVeraSans-Roman-69"/>
      <use x="245.65625" xlink:href="#BitstreamVeraSans-Roman-73"/>
      <use x="297.755859375" xlink:href="#BitstreamVeraSans-Roman-69"/>
      <use x="325.5390625" xlink:href="#BitstreamVeraSans-Roman-6f"/>
      <use x="386.720703125" xlink:href="#BitstreamVeraSans-Roman-6e"/>
     </g>
    </g>
   </g>
   <g id="text_15">
    <!-- Avg of 9 line's AUC=0.74 -->
    <defs>
     <path id="BitstreamVeraSans-Roman-20"/>
     <path d="M 10.59375 45.40625 
L 73.1875 45.40625 
L 73.1875 37.203125 
L 10.59375 37.203125 
z
M 10.59375 25.484375 
L 73.1875 25.484375 
L 73.1875 17.1875 
L 10.59375 17.1875 
z
" id="BitstreamVeraSans-Roman-3d"/>
     <path d="M 17.921875 72.90625 
L 17.921875 45.796875 
L 9.625 45.796875 
L 9.625 72.90625 
z
" id="BitstreamVeraSans-Roman-27"/>
     <path d="M 10.984375 1.515625 
L 10.984375 10.5 
Q 14.703125 8.734375 18.5 7.8125 
Q 22.3125 6.890625 25.984375 6.890625 
Q 35.75 6.890625 40.890625 13.453125 
Q 46.046875 20.015625 46.78125 33.40625 
Q 43.953125 29.203125 39.59375 26.953125 
Q 35.25 24.703125 29.984375 24.703125 
Q 19.046875 24.703125 12.671875 31.3125 
Q 6.296875 37.9375 6.296875 49.421875 
Q 6.296875 60.640625 12.9375 67.421875 
Q 19.578125 74.21875 30.609375 74.21875 
Q 43.265625 74.21875 49.921875 64.515625 
Q 56.59375 54.828125 56.59375 36.375 
Q 56.59375 19.140625 48.40625 8.859375 
Q 40.234375 -1.421875 26.421875 -1.421875 
Q 22.703125 -1.421875 18.890625 -0.6875 
Q 15.09375 0.046875 10.984375 1.515625 
M 30.609375 32.421875 
Q 37.25 32.421875 41.125 36.953125 
Q 45.015625 41.5 45.015625 49.421875 
Q 45.015625 57.28125 41.125 61.84375 
Q 37.25 66.40625 30.609375 66.40625 
Q 23.96875 66.40625 20.09375 61.84375 
Q 16.21875 57.28125 16.21875 49.421875 
Q 16.21875 41.5 20.09375 36.953125 
Q 23.96875 32.421875 30.609375 32.421875 
" id="BitstreamVeraSans-Roman-39"/>
     <path d="M 64.40625 67.28125 
L 64.40625 56.890625 
Q 59.421875 61.53125 53.78125 63.8125 
Q 48.140625 66.109375 41.796875 66.109375 
Q 29.296875 66.109375 22.65625 58.46875 
Q 16.015625 50.828125 16.015625 36.375 
Q 16.015625 21.96875 22.65625 14.328125 
Q 29.296875 6.6875 41.796875 6.6875 
Q 48.140625 6.6875 53.78125 8.984375 
Q 59.421875 11.28125 64.40625 15.921875 
L 64.40625 5.609375 
Q 59.234375 2.09375 53.4375 0.328125 
Q 47.65625 -1.421875 41.21875 -1.421875 
Q 24.65625 -1.421875 15.125 8.703125 
Q 5.609375 18.84375 5.609375 36.375 
Q 5.609375 53.953125 15.125 64.078125 
Q 24.65625 74.21875 41.21875 74.21875 
Q 47.75 74.21875 53.53125 72.484375 
Q 59.328125 70.75 64.40625 67.28125 
" id="BitstreamVeraSans-Roman-43"/>
     <path d="M 8.6875 72.90625 
L 18.609375 72.90625 
L 18.609375 28.609375 
Q 18.609375 16.890625 22.84375 11.734375 
Q 27.09375 6.59375 36.625 6.59375 
Q 46.09375 6.59375 50.34375 11.734375 
Q 54.59375 16.890625 54.59375 28.609375 
L 54.59375 72.90625 
L 64.5 72.90625 
L 64.5 27.390625 
Q 64.5 13.140625 57.4375 5.859375 
Q 50.390625 -1.421875 36.625 -1.421875 
Q 22.796875 -1.421875 15.734375 5.859375 
Q 8.6875 13.140625 8.6875 27.390625 
z
" id="BitstreamVeraSans-Roman-55"/>
     <path d="M 34.1875 63.1875 
L 20.796875 26.90625 
L 47.609375 26.90625 
z
M 28.609375 72.90625 
L 39.796875 72.90625 
L 67.578125 0 
L 57.328125 0 
L 50.6875 18.703125 
L 17.828125 18.703125 
L 11.1875 0 
L 0.78125 0 
z
" id="BitstreamVeraSans-Roman-41"/>
     <path d="M 2.984375 54.6875 
L 12.5 54.6875 
L 29.59375 8.796875 
L 46.6875 54.6875 
L 56.203125 54.6875 
L 35.6875 0 
L 23.484375 0 
z
" id="BitstreamVeraSans-Roman-76"/>
     <path d="M 45.40625 27.984375 
Q 45.40625 37.75 41.375 43.109375 
Q 37.359375 48.484375 30.078125 48.484375 
Q 22.859375 48.484375 18.828125 43.109375 
Q 14.796875 37.75 14.796875 27.984375 
Q 14.796875 18.265625 18.828125 12.890625 
Q 22.859375 7.515625 30.078125 7.515625 
Q 37.359375 7.515625 41.375 12.890625 
Q 45.40625 18.265625 45.40625 27.984375 
M 54.390625 6.78125 
Q 54.390625 -7.171875 48.1875 -13.984375 
Q 42 -20.796875 29.203125 -20.796875 
Q 24.46875 -20.796875 20.265625 -20.09375 
Q 16.0625 -19.390625 12.109375 -17.921875 
L 12.109375 -9.1875 
Q 16.0625 -11.328125 19.921875 -12.34375 
Q 23.78125 -13.375 27.78125 -13.375 
Q 36.625 -13.375 41.015625 -8.765625 
Q 45.40625 -4.15625 45.40625 5.171875 
L 45.40625 9.625 
Q 42.625 4.78125 38.28125 2.390625 
Q 33.9375 0 27.875 0 
Q 17.828125 0 11.671875 7.65625 
Q 5.515625 15.328125 5.515625 27.984375 
Q 5.515625 40.671875 11.671875 48.328125 
Q 17.828125 56 27.875 56 
Q 33.9375 56 38.28125 53.609375 
Q 42.625 51.21875 45.40625 46.390625 
L 45.40625 54.6875 
L 54.390625 54.6875 
z
" id="BitstreamVeraSans-Roman-67"/>
     <path d="M 37.109375 75.984375 
L 37.109375 68.5 
L 28.515625 68.5 
Q 23.6875 68.5 21.796875 66.546875 
Q 19.921875 64.59375 19.921875 59.515625 
L 19.921875 54.6875 
L 34.71875 54.6875 
L 34.71875 47.703125 
L 19.921875 47.703125 
L 19.921875 0 
L 10.890625 0 
L 10.890625 47.703125 
L 2.296875 47.703125 
L 2.296875 54.6875 
L 10.890625 54.6875 
L 10.890625 58.5 
Q 10.890625 67.625 15.140625 71.796875 
Q 19.390625 75.984375 28.609375 75.984375 
z
" id="BitstreamVeraSans-Roman-66"/>
     <path d="M 8.203125 72.90625 
L 55.078125 72.90625 
L 55.078125 68.703125 
L 28.609375 0 
L 18.3125 0 
L 43.21875 64.59375 
L 8.203125 64.59375 
z
" id="BitstreamVeraSans-Roman-37"/>
    </defs>
    <g transform="translate(146.03625 23.8)scale(0.12 -0.12)">
     <use xlink:href="#BitstreamVeraSans-Roman-41"/>
     <use x="68.330078125" xlink:href="#BitstreamVeraSans-Roman-76"/>
     <use x="127.509765625" xlink:href="#BitstreamVeraSans-Roman-67"/>
     <use x="190.986328125" xlink:href="#BitstreamVeraSans-Roman-20"/>
     <use x="222.7734375" xlink:href="#BitstreamVeraSans-Roman-6f"/>
     <use x="283.955078125" xlink:href="#BitstreamVeraSans-Roman-66"/>
     <use x="319.16015625" xlink:href="#BitstreamVeraSans-Roman-20"/>
     <use x="350.947265625" xlink:href="#BitstreamVeraSans-Roman-39"/>
     <use x="414.5703125" xlink:href="#BitstreamVeraSans-Roman-20"/>
     <use x="446.357421875" xlink:href="#BitstreamVeraSans-Roman-6c"/>
     <use x="474.140625" xlink:href="#BitstreamVeraSans-Roman-69"/>
     <use x="501.923828125" xlink:href="#BitstreamVeraSans-Roman-6e"/>
     <use x="565.302734375" xlink:href="#BitstreamVeraSans-Roman-65"/>
     <use x="626.826171875" xlink:href="#BitstreamVeraSans-Roman-27"/>
     <use x="654.31640625" xlink:href="#BitstreamVeraSans-Roman-73"/>
     <use x="706.416015625" xlink:href="#BitstreamVeraSans-Roman-20"/>
     <use x="738.203125" xlink:href="#BitstreamVeraSans-Roman-41"/>
     <use x="806.611328125" xlink:href="#BitstreamVeraSans-Roman-55"/>
     <use x="879.8046875" xlink:href="#BitstreamVeraSans-Roman-43"/>
     <use x="949.62890625" xlink:href="#BitstreamVeraSans-Roman-3d"/>
     <use x="1033.41796875" xlink:href="#BitstreamVeraSans-Roman-30"/>
     <use x="1097.04101562" xlink:href="#BitstreamVeraSans-Roman-2e"/>
     <use x="1128.828125" xlink:href="#BitstreamVeraSans-Roman-37"/>
     <use x="1192.45117188" xlink:href="#BitstreamVeraSans-Roman-34"/>
    </g>
   </g>
   <g id="legend_1">
    <g id="patch_7">
     <path d="M 54 252 
L 321.84 252 
L 321.84 195.55875 
L 54 195.55875 
z
" style="fill:#ffffff;stroke:#000000;stroke-linejoin:miter;"/>
    </g>
    <g id="line2d_46">
     <path d="M 62.4 205.276875 
L 79.2 205.276875 
" style="fill:none;stroke:#ff0000;stroke-linecap:square;"/>
    </g>
    <g id="line2d_47"/>
    <g id="text_16">
     <!-- MY4 -->
     <defs>
      <path d="M -0.203125 72.90625 
L 10.40625 72.90625 
L 30.609375 42.921875 
L 50.6875 72.90625 
L 61.28125 72.90625 
L 35.5 34.71875 
L 35.5 0 
L 25.59375 0 
L 25.59375 34.71875 
z
" id="BitstreamVeraSans-Roman-59"/>
      <path d="M 9.8125 72.90625 
L 24.515625 72.90625 
L 43.109375 23.296875 
L 61.8125 72.90625 
L 76.515625 72.90625 
L 76.515625 0 
L 66.890625 0 
L 66.890625 64.015625 
L 48.09375 14.015625 
L 38.1875 14.015625 
L 19.390625 64.015625 
L 19.390625 0 
L 9.8125 0 
z
" id="BitstreamVeraSans-Roman-4d"/>
     </defs>
     <g transform="translate(92.4 209.476875)scale(0.12 -0.12)">
      <use xlink:href="#BitstreamVeraSans-Roman-4d"/>
      <use x="86.279296875" xlink:href="#BitstreamVeraSans-Roman-59"/>
      <use x="147.36328125" xlink:href="#BitstreamVeraSans-Roman-34"/>
     </g>
    </g>
    <g id="line2d_48">
     <path d="M 62.4 222.890625 
L 79.2 222.890625 
" style="fill:none;stroke:#0000ff;stroke-linecap:square;"/>
    </g>
    <g id="line2d_49"/>
    <g id="text_17">
     <!-- ME1 -->
     <defs>
      <path d="M 9.8125 72.90625 
L 55.90625 72.90625 
L 55.90625 64.59375 
L 19.671875 64.59375 
L 19.671875 43.015625 
L 54.390625 43.015625 
L 54.390625 34.71875 
L 19.671875 34.71875 
L 19.671875 8.296875 
L 56.78125 8.296875 
L 56.78125 0 
L 9.8125 0 
z
" id="BitstreamVeraSans-Roman-45"/>
     </defs>
     <g transform="translate(92.4 227.090625)scale(0.12 -0.12)">
      <use xlink:href="#BitstreamVeraSans-Roman-4d"/>
      <use x="86.279296875" xlink:href="#BitstreamVeraSans-Roman-45"/>
      <use x="149.462890625" xlink:href="#BitstreamVeraSans-Roman-31"/>
     </g>
    </g>
    <g id="line2d_50">
     <path d="M 62.4 240.504375 
L 79.2 240.504375 
" style="fill:none;stroke:#000000;stroke-linecap:square;"/>
    </g>
    <g id="line2d_51"/>
    <g id="text_18">
     <!-- ME2 -->
     <g transform="translate(92.4 244.704375)scale(0.12 -0.12)">
      <use xlink:href="#BitstreamVeraSans-Roman-4d"/>
      <use x="86.279296875" xlink:href="#BitstreamVeraSans-Roman-45"/>
      <use x="149.462890625" xlink:href="#BitstreamVeraSans-Roman-32"/>
     </g>
    </g>
    <g id="line2d_52">
     <path d="M 151.738125 205.276875 
L 168.538125 205.276875 
" style="fill:none;stroke:#008000;stroke-linecap:square;"/>
    </g>
    <g id="line2d_53"/>
    <g id="text_19">
     <!-- ME3 -->
     <defs>
      <path d="M 40.578125 39.3125 
Q 47.65625 37.796875 51.625 33 
Q 55.609375 28.21875 55.609375 21.1875 
Q 55.609375 10.40625 48.1875 4.484375 
Q 40.765625 -1.421875 27.09375 -1.421875 
Q 22.515625 -1.421875 17.65625 -0.515625 
Q 12.796875 0.390625 7.625 2.203125 
L 7.625 11.71875 
Q 11.71875 9.328125 16.59375 8.109375 
Q 21.484375 6.890625 26.8125 6.890625 
Q 36.078125 6.890625 40.9375 10.546875 
Q 45.796875 14.203125 45.796875 21.1875 
Q 45.796875 27.640625 41.28125 31.265625 
Q 36.765625 34.90625 28.71875 34.90625 
L 20.21875 34.90625 
L 20.21875 43.015625 
L 29.109375 43.015625 
Q 36.375 43.015625 40.234375 45.921875 
Q 44.09375 48.828125 44.09375 54.296875 
Q 44.09375 59.90625 40.109375 62.90625 
Q 36.140625 65.921875 28.71875 65.921875 
Q 24.65625 65.921875 20.015625 65.03125 
Q 15.375 64.15625 9.8125 62.3125 
L 9.8125 71.09375 
Q 15.4375 72.65625 20.34375 73.4375 
Q 25.25 74.21875 29.59375 74.21875 
Q 40.828125 74.21875 47.359375 69.109375 
Q 53.90625 64.015625 53.90625 55.328125 
Q 53.90625 49.265625 50.4375 45.09375 
Q 46.96875 40.921875 40.578125 39.3125 
" id="BitstreamVeraSans-Roman-33"/>
     </defs>
     <g transform="translate(181.738125 209.476875)scale(0.12 -0.12)">
      <use xlink:href="#BitstreamVeraSans-Roman-4d"/>
      <use x="86.279296875" xlink:href="#BitstreamVeraSans-Roman-45"/>
      <use x="149.462890625" xlink:href="#BitstreamVeraSans-Roman-33"/>
     </g>
    </g>
    <g id="line2d_54">
     <path d="M 151.738125 222.890625 
L 168.538125 222.890625 
" style="fill:none;stroke:#00bfbf;stroke-linecap:square;"/>
    </g>
    <g id="line2d_55"/>
    <g id="text_20">
     <!-- MEAN -->
     <defs>
      <path d="M 9.8125 72.90625 
L 23.09375 72.90625 
L 55.421875 11.921875 
L 55.421875 72.90625 
L 64.984375 72.90625 
L 64.984375 0 
L 51.703125 0 
L 19.390625 60.984375 
L 19.390625 0 
L 9.8125 0 
z
" id="BitstreamVeraSans-Roman-4e"/>
     </defs>
     <g transform="translate(181.738125 227.090625)scale(0.12 -0.12)">
      <use xlink:href="#BitstreamVeraSans-Roman-4d"/>
      <use x="86.279296875" xlink:href="#BitstreamVeraSans-Roman-45"/>
      <use x="149.462890625" xlink:href="#BitstreamVeraSans-Roman-41"/>
      <use x="217.87109375" xlink:href="#BitstreamVeraSans-Roman-4e"/>
     </g>
    </g>
    <g id="line2d_56">
     <path d="M 151.738125 240.504375 
L 168.538125 240.504375 
" style="fill:none;stroke:#bfbf00;stroke-linecap:square;"/>
    </g>
    <g id="line2d_57"/>
    <g id="text_21">
     <!-- DRFI -->
     <defs>
      <path d="M 9.8125 72.90625 
L 51.703125 72.90625 
L 51.703125 64.59375 
L 19.671875 64.59375 
L 19.671875 43.109375 
L 48.578125 43.109375 
L 48.578125 34.8125 
L 19.671875 34.8125 
L 19.671875 0 
L 9.8125 0 
z
" id="BitstreamVeraSans-Roman-46"/>
      <path d="M 19.671875 64.796875 
L 19.671875 8.109375 
L 31.59375 8.109375 
Q 46.6875 8.109375 53.6875 14.9375 
Q 60.6875 21.78125 60.6875 36.53125 
Q 60.6875 51.171875 53.6875 57.984375 
Q 46.6875 64.796875 31.59375 64.796875 
z
M 9.8125 72.90625 
L 30.078125 72.90625 
Q 51.265625 72.90625 61.171875 64.09375 
Q 71.09375 55.28125 71.09375 36.53125 
Q 71.09375 17.671875 61.125 8.828125 
Q 51.171875 0 30.078125 0 
L 9.8125 0 
z
" id="BitstreamVeraSans-Roman-44"/>
      <path d="M 9.8125 72.90625 
L 19.671875 72.90625 
L 19.671875 0 
L 9.8125 0 
z
" id="BitstreamVeraSans-Roman-49"/>
     </defs>
     <g transform="translate(181.738125 244.704375)scale(0.12 -0.12)">
      <use xlink:href="#BitstreamVeraSans-Roman-44"/>
      <use x="77.001953125" xlink:href="#BitstreamVeraSans-Roman-52"/>
      <use x="146.484375" xlink:href="#BitstreamVeraSans-Roman-46"/>
      <use x="204.00390625" xlink:href="#BitstreamVeraSans-Roman-49"/>
     </g>
    </g>
    <g id="line2d_58">
     <path d="M 250.6275 205.276875 
L 267.4275 205.276875 
" style="fill:none;stroke:#bf00bf;stroke-linecap:square;"/>
    </g>
    <g id="line2d_59"/>
    <g id="text_22">
     <!-- GMR -->
     <defs>
      <path d="M 59.515625 10.40625 
L 59.515625 29.984375 
L 43.40625 29.984375 
L 43.40625 38.09375 
L 69.28125 38.09375 
L 69.28125 6.78125 
Q 63.578125 2.734375 56.6875 0.65625 
Q 49.8125 -1.421875 42 -1.421875 
Q 24.90625 -1.421875 15.25 8.5625 
Q 5.609375 18.5625 5.609375 36.375 
Q 5.609375 54.25 15.25 64.234375 
Q 24.90625 74.21875 42 74.21875 
Q 49.125 74.21875 55.546875 72.453125 
Q 61.96875 70.703125 67.390625 67.28125 
L 67.390625 56.78125 
Q 61.921875 61.421875 55.765625 63.765625 
Q 49.609375 66.109375 42.828125 66.109375 
Q 29.4375 66.109375 22.71875 58.640625 
Q 16.015625 51.171875 16.015625 36.375 
Q 16.015625 21.625 22.71875 14.15625 
Q 29.4375 6.6875 42.828125 6.6875 
Q 48.046875 6.6875 52.140625 7.59375 
Q 56.25 8.5 59.515625 10.40625 
" id="BitstreamVeraSans-Roman-47"/>
     </defs>
     <g transform="translate(280.6275 209.476875)scale(0.12 -0.12)">
      <use xlink:href="#BitstreamVeraSans-Roman-47"/>
      <use x="77.490234375" xlink:href="#BitstreamVeraSans-Roman-4d"/>
      <use x="163.76953125" xlink:href="#BitstreamVeraSans-Roman-52"/>
     </g>
    </g>
    <g id="line2d_60">
     <path d="M 250.6275 222.890625 
L 267.4275 222.890625 
" style="fill:none;stroke:#ff0000;stroke-dasharray:6.000000,6.000000;stroke-dashoffset:0.0;"/>
    </g>
    <g id="line2d_61"/>
    <g id="text_23">
     <!-- QCUT -->
     <defs>
      <path d="M 39.40625 66.21875 
Q 28.65625 66.21875 22.328125 58.203125 
Q 16.015625 50.203125 16.015625 36.375 
Q 16.015625 22.609375 22.328125 14.59375 
Q 28.65625 6.59375 39.40625 6.59375 
Q 50.140625 6.59375 56.421875 14.59375 
Q 62.703125 22.609375 62.703125 36.375 
Q 62.703125 50.203125 56.421875 58.203125 
Q 50.140625 66.21875 39.40625 66.21875 
M 53.21875 1.3125 
L 66.21875 -12.890625 
L 54.296875 -12.890625 
L 43.5 -1.21875 
Q 41.890625 -1.3125 41.03125 -1.359375 
Q 40.1875 -1.421875 39.40625 -1.421875 
Q 24.03125 -1.421875 14.8125 8.859375 
Q 5.609375 19.140625 5.609375 36.375 
Q 5.609375 53.65625 14.8125 63.9375 
Q 24.03125 74.21875 39.40625 74.21875 
Q 54.734375 74.21875 63.90625 63.9375 
Q 73.09375 53.65625 73.09375 36.375 
Q 73.09375 23.6875 67.984375 14.640625 
Q 62.890625 5.609375 53.21875 1.3125 
" id="BitstreamVeraSans-Roman-51"/>
      <path d="M -0.296875 72.90625 
L 61.375 72.90625 
L 61.375 64.59375 
L 35.5 64.59375 
L 35.5 0 
L 25.59375 0 
L 25.59375 64.59375 
L -0.296875 64.59375 
z
" id="BitstreamVeraSans-Roman-54"/>
     </defs>
     <g transform="translate(280.6275 227.090625)scale(0.12 -0.12)">
      <use xlink:href="#BitstreamVeraSans-Roman-51"/>
      <use x="78.7109375" xlink:href="#BitstreamVeraSans-Roman-43"/>
      <use x="148.53515625" xlink:href="#BitstreamVeraSans-Roman-55"/>
      <use x="221.728515625" xlink:href="#BitstreamVeraSans-Roman-54"/>
     </g>
    </g>
    <g id="line2d_62">
     <path d="M 250.6275 240.504375 
L 267.4275 240.504375 
" style="fill:none;stroke:#0000ff;stroke-dasharray:6.000000,6.000000;stroke-dashoffset:0.0;"/>
    </g>
    <g id="line2d_63"/>
    <g id="text_24">
     <!-- DISC2 -->
     <defs>
      <path d="M 53.515625 70.515625 
L 53.515625 60.890625 
Q 47.90625 63.578125 42.921875 64.890625 
Q 37.9375 66.21875 33.296875 66.21875 
Q 25.25 66.21875 20.875 63.09375 
Q 16.5 59.96875 16.5 54.203125 
Q 16.5 49.359375 19.40625 46.890625 
Q 22.3125 44.4375 30.421875 42.921875 
L 36.375 41.703125 
Q 47.40625 39.59375 52.65625 34.296875 
Q 57.90625 29 57.90625 20.125 
Q 57.90625 9.515625 50.796875 4.046875 
Q 43.703125 -1.421875 29.984375 -1.421875 
Q 24.8125 -1.421875 18.96875 -0.25 
Q 13.140625 0.921875 6.890625 3.21875 
L 6.890625 13.375 
Q 12.890625 10.015625 18.65625 8.296875 
Q 24.421875 6.59375 29.984375 6.59375 
Q 38.421875 6.59375 43.015625 9.90625 
Q 47.609375 13.234375 47.609375 19.390625 
Q 47.609375 24.75 44.3125 27.78125 
Q 41.015625 30.8125 33.5 32.328125 
L 27.484375 33.5 
Q 16.453125 35.6875 11.515625 40.375 
Q 6.59375 45.0625 6.59375 53.421875 
Q 6.59375 63.09375 13.40625 68.65625 
Q 20.21875 74.21875 32.171875 74.21875 
Q 37.3125 74.21875 42.625 73.28125 
Q 47.953125 72.359375 53.515625 70.515625 
" id="BitstreamVeraSans-Roman-53"/>
     </defs>
     <g transform="translate(280.6275 244.704375)scale(0.12 -0.12)">
      <use xlink:href="#BitstreamVeraSans-Roman-44"/>
      <use x="77.001953125" xlink:href="#BitstreamVeraSans-Roman-49"/>
      <use x="106.494140625" xlink:href="#BitstreamVeraSans-Roman-53"/>
      <use x="169.970703125" xlink:href="#BitstreamVeraSans-Roman-43"/>
      <use x="239.794921875" xlink:href="#BitstreamVeraSans-Roman-32"/>
     </g>
    </g>
   </g>
  </g>
 </g>
 <defs>
  <clipPath id="pd3d9f3a8d9">
   <rect height="223.2" width="334.8" x="54.0" y="28.8"/>
  </clipPath>
 </defs>
</svg>
