<?xml version="1.0" encoding="utf-8" standalone="no"?>
<!DOCTYPE svg PUBLIC "-//W3C//DTD SVG 1.1//EN"
  "http://www.w3.org/Graphics/SVG/1.1/DTD/svg11.dtd">
<!-- Created with matplotlib (http://matplotlib.org/) -->
<svg height="288pt" version="1.1" viewBox="0 0 432 288" width="432pt" xmlns="http://www.w3.org/2000/svg" xmlns:xlink="http://www.w3.org/1999/xlink">
 <defs>
  <style type="text/css">
*{stroke-linecap:butt;stroke-linejoin:round;stroke-miterlimit:100000;}
  </style>
 </defs>
 <g id="figure_1">
  <g id="patch_1">
   <path d="M 0 288 
L 432 288 
L 432 0 
L 0 0 
z
" style="fill:#ffffff;"/>
  </g>
  <g id="axes_1">
   <g id="patch_2">
    <path d="M 54 252 
L 388.8 252 
L 388.8 28.8 
L 54 28.8 
z
" style="fill:#ffffff;"/>
   </g>
   <g id="line2d_1">
    <path clip-path="url(#pb54b6c58ad)" d="M 388.8 205.40491 
L 388.758912 205.283127 
L 388.647158 204.33164 
L 388.551546 203.735529 
L 387.968418 203.395361 
L 387.564997 201.978957 
L 387.171283 201.378482 
L 387.016898 199.905151 
L 386.789525 199.068428 
L 386.403261 198.079293 
L 386.160644 195.941699 
L 385.604051 192.181468 
L 385.335682 190.794025 
L 383.83364 186.378047 
L 383.387889 183.208633 
L 382.6621 181.637253 
L 382.241083 180.174155 
L 381.384932 178.718005 
L 380.320742 177.33291 
L 379.454193 175.981116 
L 378.86966 174.620694 
L 377.152326 173.323889 
L 376.058187 171.794352 
L 375.306409 170.175547 
L 374.149337 168.589595 
L 373.845068 167.024099 
L 373.101816 165.436583 
L 372.013579 162.320246 
L 371.305532 160.81543 
L 369.201124 155.216275 
L 368.94003 153.487357 
L 368.347899 151.760874 
L 367.081671 145.475099 
L 366.588385 143.708904 
L 365.994952 139.276924 
L 365.3746 136.764828 
L 365.127231 134.889112 
L 364.103994 131.5599 
L 363.612537 129.967237 
L 363.339263 128.340283 
L 362.537828 126.813396 
L 361.159515 121.299897 
L 360.403777 119.476436 
L 360.148991 117.636657 
L 359.521524 115.946138 
L 358.408949 114.612035 
L 357.345493 110.85183 
L 356.129822 109.324221 
L 355.343075 107.974873 
L 352.974318 105.244758 
L 352.00525 103.753634 
L 349.59022 102.435138 
L 348.105647 99.850129 
L 346.370717 97.724615 
L 344.712345 95.416842 
L 344.222519 93.936867 
L 343.920174 92.431391 
L 342.891096 91.225983 
L 342.079315 89.879423 
L 341.175768 88.872204 
L 340.556247 87.576777 
L 340.242129 86.250793 
L 339.784022 85.195917 
L 339.011313 83.922165 
L 338.071209 82.851883 
L 337.156747 81.590717 
L 335.73273 80.647738 
L 335.242583 79.734976 
L 334.060097 78.928017 
L 333.313167 77.991784 
L 332.322839 76.524149 
L 331.655736 75.815214 
L 331.34937 74.806658 
L 330.752823 74.190972 
L 329.611991 72.395676 
L 328.867581 71.750179 
L 328.160142 70.760396 
L 327.271303 69.827595 
L 326.304982 69.27867 
L 325.452768 68.515868 
L 321.72242 67.050767 
L 321.231559 66.64357 
L 320.34942 66.139063 
L 319.065626 65.55466 
L 317.399122 65.106789 
L 316.409878 64.674123 
L 315.257132 64.342571 
L 314.448618 63.643779 
L 313.018696 63.379863 
L 311.415457 61.889701 
L 309.717864 61.487567 
L 308.650286 60.600623 
L 306.073897 59.594295 
L 305.333596 59.014793 
L 303.928532 58.678904 
L 302.67578 58.185422 
L 300.366912 57.828307 
L 299.510839 57.596856 
L 298.36424 57.10491 
L 296.509351 56.998559 
L 293.216119 56.433315 
L 287.425975 55.897368 
L 285.047949 55.737565 
L 279.677162 54.590586 
L 274.34152 54.053149 
L 272.125371 54.002452 
L 267.414624 53.318244 
L 265.971273 52.893881 
L 262.322663 52.49552 
L 258.947327 51.737286 
L 257.153795 51.709116 
L 255.579683 51.292099 
L 251.709131 51.171698 
L 249.952447 51.10906 
L 242.801412 50.243631 
L 234.025862 49.752503 
L 232.696252 49.417785 
L 229.352691 49.302352 
L 227.714718 49.232781 
L 226.514243 48.793983 
L 220.667348 48.791266 
L 218.397575 48.942635 
L 215.572854 48.642369 
L 213.49819 48.654686 
L 211.527797 48.805313 
L 209.349202 48.760586 
L 207.573932 48.438853 
L 205.412917 48.627672 
L 204.188008 48.459524 
L 202.732403 48.403119 
L 198.313142 48.409116 
L 196.721928 48.137396 
L 195.397448 47.599302 
L 193.860421 47.398588 
L 191.689153 46.982423 
L 188.89407 47.224541 
L 184.356816 45.992168 
L 181.595167 45.794844 
L 179.326762 45.93663 
L 176.201935 46.007718 
L 174.376785 46.21001 
L 172.197855 45.920217 
L 165.228483 46.138215 
L 162.10889 46.337514 
L 160.203506 45.776406 
L 151.162909 45.673658 
L 147.658984 46.037235 
L 145.144156 45.535697 
L 139.577337 45.365763 
L 130.358725 45.550001 
L 123.226096 45.375046 
L 120.702034 45.049012 
L 117.030888 45.974784 
L 110.113304 46.9954 
L 106.346424 47.774697 
L 103.343015 47.419499 
L 100.86787 47.308718 
L 96.345548 47.438403 
L 94.274876 47.173011 
L 91.193177 47.080371 
L 88.42894 46.689455 
L 85.482385 44.505975 
L 81.996549 42.600333 
L 79.414503 42.144145 
L 76.120555 42.046278 
L 73.492471 41.832475 
L 70.869258 41.505151 
L 68.609999 39.021046 
L 66.561974 35.80105 
L 64.514206 36.314664 
L 62.533757 32.514427 
L 61.139808 32.248423 
L 60.032264 32.42491 
L 59.063615 32.792753 
L 57.087167 31.265429 
L 55.980243 41.621969 
L 55.506538 41.297638 
L 55.506538 41.297638 
" style="fill:none;stroke:#ff0000;stroke-linecap:square;"/>
   </g>
   <g id="line2d_2">
    <path clip-path="url(#pb54b6c58ad)" d="M 388.8 205.40491 
L 388.703219 202.705836 
L 388.483569 200.041331 
L 388.308668 199.30805 
L 388.073451 196.47696 
L 387.814836 194.004695 
L 387.488315 191.536895 
L 387.255922 190.028935 
L 386.790515 188.647547 
L 383.145626 180.477006 
L 382.482535 177.605878 
L 381.997864 176.146025 
L 381.259385 174.898746 
L 380.196826 173.342011 
L 378.207301 172.133664 
L 377.347598 170.662285 
L 376.786535 169.32182 
L 375.255682 168.115439 
L 374.71168 166.476073 
L 373.740073 165.136379 
L 372.569792 163.820855 
L 372.251262 162.358525 
L 371.5452 161.076177 
L 370.354743 158.136666 
L 369.718254 156.572567 
L 369.484622 154.989861 
L 369.015469 153.405903 
L 368.725359 151.727464 
L 368.283892 150.014395 
L 368.151401 147.95304 
L 367.407376 143.074226 
L 366.144819 139.927243 
L 364.609705 134.421418 
L 364.396776 132.882426 
L 363.620858 131.266879 
L 363.164391 129.697297 
L 362.966334 128.379497 
L 362.228744 127.040563 
L 361.653959 125.546831 
L 360.601853 124.06865 
L 360.136267 122.376154 
L 358.394897 119.176484 
L 357.02472 117.696245 
L 355.594246 116.480903 
L 354.67047 115.273683 
L 352.028749 112.596344 
L 351.397512 111.38128 
L 348.499822 109.465469 
L 347.557789 106.525184 
L 346.373587 105.477825 
L 345.765783 104.122513 
L 343.96402 101.674984 
L 343.348045 100.400512 
L 342.969078 99.349667 
L 341.947424 98.218297 
L 341.318643 96.748743 
L 339.536018 93.351879 
L 339.167006 92.367153 
L 337.335945 90.186882 
L 336.192115 87.88333 
L 335.463203 87.047079 
L 334.815966 85.772575 
L 334.361902 84.618152 
L 331.842973 79.50918 
L 331.033144 78.778847 
L 330.290641 77.923834 
L 329.666146 76.917619 
L 328.62576 76.144516 
L 328.049751 75.393415 
L 326.378215 74.119104 
L 325.557517 72.77654 
L 324.175779 72.153519 
L 322.753173 71.086191 
L 321.433203 69.885357 
L 320.721357 68.986336 
L 319.425633 68.519826 
L 317.227813 67.27499 
L 316.581018 66.383392 
L 314.345188 64.380514 
L 312.673195 63.642437 
L 310.912351 62.412857 
L 309.824367 62.107912 
L 306.549725 60.257941 
L 305.618687 59.541134 
L 303.803641 58.501966 
L 298.869767 57.460086 
L 294.325388 56.664639 
L 290.46717 55.830048 
L 289.297987 55.616806 
L 287.991424 55.259113 
L 286.402059 55.151554 
L 285.404791 54.90198 
L 280.941983 54.10164 
L 279.641808 53.679481 
L 277.590003 53.371343 
L 269.045014 51.421916 
L 260.917083 50.773247 
L 258.058391 50.752498 
L 256.659668 50.414955 
L 247.213685 49.418651 
L 243.924631 49.237735 
L 240.431464 48.747407 
L 234.070684 48.499721 
L 232.912486 48.196882 
L 230.279349 48.250555 
L 228.727463 48.345958 
L 221.990557 48.345105 
L 220.083304 48.458727 
L 218.72448 48.379705 
L 217.364179 48.132361 
L 212.32688 47.809563 
L 209.789912 47.303196 
L 207.783745 47.361935 
L 206.381601 47.02673 
L 204.703314 46.885553 
L 202.710394 47.02111 
L 198.884318 46.962753 
L 196.699486 47.012955 
L 190.7578 46.795279 
L 186.950146 46.93926 
L 182.043891 47.387797 
L 180.110199 46.496149 
L 177.573553 46.845979 
L 167.116933 47.407948 
L 165.137796 47.28318 
L 162.639147 47.399376 
L 159.464221 47.144457 
L 157.026929 47.377018 
L 154.683761 47.34306 
L 148.914325 47.910258 
L 142.501268 48.080111 
L 139.297728 48.685751 
L 135.780284 49.64969 
L 132.762231 49.695677 
L 128.751845 50.298443 
L 125.875524 49.208377 
L 122.37259 49.975481 
L 116.615869 50.340731 
L 113.665118 49.771027 
L 110.188625 49.457209 
L 107.490194 49.561515 
L 101.354682 49.446227 
L 97.620485 50.252681 
L 94.494883 50.135282 
L 90.286313 51.069665 
L 86.132241 53.462246 
L 82.607089 54.906353 
L 77.929986 58.756411 
L 75.262167 59.31035 
L 72.73181 62.928641 
L 67.823991 63.298287 
L 66.205681 62.937879 
L 64.582694 62.213512 
L 63.140776 61.783381 
L 61.770518 63.118267 
L 60.594019 62.433642 
L 59.110677 61.934466 
L 58.338148 61.344939 
L 56.346396 66.484477 
L 55.561997 66.159383 
L 55.561997 66.159383 
" style="fill:none;stroke:#0000ff;stroke-linecap:square;"/>
   </g>
   <g id="line2d_3">
    <path clip-path="url(#pb54b6c58ad)" d="M 388.8 205.40491 
L 388.703294 205.020501 
L 388.235854 201.006342 
L 387.648882 198.809353 
L 386.147077 196.573868 
L 385.670608 193.563213 
L 385.507798 192.2147 
L 384.224245 189.258743 
L 382.613245 187.75255 
L 381.435526 186.147103 
L 380.194911 182.99072 
L 379.329663 179.09275 
L 378.931951 175.494086 
L 378.154424 173.85186 
L 377.933746 172.482867 
L 377.553223 171.346807 
L 377.293754 169.786838 
L 376.978463 168.687134 
L 376.613656 166.612599 
L 375.507149 163.217159 
L 374.50295 161.081274 
L 372.196683 153.231523 
L 371.846758 151.257118 
L 371.053416 149.215717 
L 370.695608 147.161763 
L 370.20295 145.544965 
L 368.745681 143.191884 
L 367.119221 141.134412 
L 366.726197 139.720792 
L 365.553565 138.831351 
L 364.900989 137.837364 
L 363.934037 136.703751 
L 363.377101 135.453596 
L 362.031838 134.611569 
L 359.766451 132.61879 
L 357.651155 130.238612 
L 357.012211 129.151916 
L 356.09124 128.310222 
L 354.385023 127.701131 
L 352.102145 126.289896 
L 349.946964 125.048362 
L 346.38223 123.85726 
L 345.402484 123.232852 
L 343.35145 122.336639 
L 341.597984 121.951452 
L 340.531635 121.400229 
L 338.816625 120.212591 
L 336.76219 118.228566 
L 336.147877 117.394431 
L 335.824491 116.736243 
L 332.66075 114.241203 
L 331.57254 111.791669 
L 331.006354 109.499943 
L 330.342775 107.833501 
L 329.628493 105.660349 
L 328.99637 104.268167 
L 328.693025 102.675359 
L 327.983218 101.605403 
L 326.42929 98.46731 
L 326.105569 97.324664 
L 325.20637 96.345433 
L 324.176369 95.71182 
L 322.503966 94.250234 
L 320.883877 92.190116 
L 320.026748 91.725907 
L 319.099642 90.844832 
L 317.434872 88.343138 
L 317.06764 87.314576 
L 316.701531 86.905396 
L 315.928363 86.255571 
L 315.526653 85.402167 
L 315.161041 84.991286 
L 314.188554 84.467504 
L 312.231179 82.723041 
L 311.945458 81.587078 
L 311.659485 81.053294 
L 310.834789 80.75212 
L 307.604881 78.776309 
L 305.834884 78.015268 
L 304.909486 76.753456 
L 304.526893 75.973798 
L 303.860809 75.47864 
L 301.983099 73.304134 
L 301.16987 72.774611 
L 300.108304 72.523193 
L 298.88584 71.650465 
L 298.350653 70.945714 
L 297.407021 70.235833 
L 296.088814 69.61061 
L 293.855016 68.054331 
L 292.786326 66.904525 
L 291.359305 66.604641 
L 290.789551 65.843053 
L 289.518748 65.066185 
L 288.830683 63.964199 
L 288.146871 63.306802 
L 286.941409 62.862437 
L 283.54152 62.279876 
L 281.580486 62.03346 
L 280.586871 61.928849 
L 279.970211 61.46854 
L 277.399307 60.568348 
L 273.97054 60.319569 
L 273.117324 59.81463 
L 271.884161 59.338327 
L 266.882491 58.822505 
L 265.080721 58.733267 
L 263.747916 58.504194 
L 262.485219 58.052303 
L 256.154151 57.79427 
L 253.841902 57.888143 
L 248.907565 57.494701 
L 246.737509 57.555541 
L 244.438298 57.751107 
L 242.682609 57.500985 
L 238.567756 57.323652 
L 236.895805 57.460573 
L 232.303067 56.992076 
L 229.06865 56.988527 
L 227.683941 57.272638 
L 221.655599 57.021188 
L 219.914617 56.751687 
L 218.026212 56.68036 
L 216.497242 56.419435 
L 214.867274 56.344244 
L 213.190256 56.084948 
L 207.909994 55.867705 
L 203.602291 55.9378 
L 199.865732 55.774382 
L 197.448133 55.953133 
L 196.019021 55.937532 
L 193.959578 56.033698 
L 191.771662 55.63441 
L 190.407171 55.080454 
L 188.495237 55.029386 
L 184.138706 53.961466 
L 180.560167 53.284764 
L 174.560055 52.635073 
L 172.656349 50.880102 
L 170.660996 50.271495 
L 168.108549 50.148242 
L 166.475567 49.417566 
L 163.674629 48.949 
L 160.549182 48.294324 
L 157.589007 48.256544 
L 153.463975 47.753528 
L 150.418454 46.485626 
L 148.054026 46.112779 
L 146.09421 45.677922 
L 140.780701 44.727668 
L 132.787024 45.294812 
L 130.247081 45.201556 
L 125.549995 45.745786 
L 117.054427 46.339071 
L 114.176958 45.72349 
L 107.560722 45.708874 
L 104.59804 46.283889 
L 102.702584 45.401447 
L 99.660342 44.33733 
L 97.007384 44.212723 
L 94.015712 42.621003 
L 87.733264 41.261376 
L 83.775924 41.638386 
L 67.687305 42.322928 
L 61.22021 43.459789 
L 60.019026 40.516364 
L 58.345449 42.642909 
L 57.651706 40.033449 
L 56.911113 41.790476 
L 55.609325 41.790476 
L 55.609325 41.790476 
" style="fill:none;stroke:#000000;stroke-linecap:square;"/>
   </g>
   <g id="line2d_4">
    <path clip-path="url(#pb54b6c58ad)" d="M 388.8 205.40491 
L 388.713439 204.20191 
L 388.609693 203.66624 
L 388.426544 200.182897 
L 388.208488 197.620624 
L 388.016702 196.593634 
L 387.824916 194.216286 
L 387.410022 191.60455 
L 387.06435 188.654172 
L 386.589147 184.384482 
L 385.641184 181.559302 
L 385.514434 180.147066 
L 385.165408 178.814668 
L 384.950743 177.4465 
L 384.325929 176.203005 
L 383.859143 174.731116 
L 383.132141 173.426772 
L 381.524425 169.231807 
L 381.166432 167.452282 
L 380.066301 165.804807 
L 379.526158 164.165524 
L 378.426466 162.480988 
L 377.277168 158.863096 
L 376.309602 157.095736 
L 375.898959 155.187463 
L 373.791085 151.350823 
L 373.366591 149.379954 
L 372.807713 147.533748 
L 370.808518 137.866143 
L 370.046776 135.846788 
L 369.061942 129.963774 
L 367.861465 126.065707 
L 366.983525 124.066282 
L 366.588843 121.989003 
L 364.252845 116.285557 
L 362.881067 114.401409 
L 361.559456 112.8502 
L 360.54718 110.834468 
L 359.940034 109.053201 
L 358.317894 107.557058 
L 357.554957 106.107136 
L 356.263677 104.616883 
L 354.833691 103.208535 
L 353.334168 101.902656 
L 352.316525 100.319381 
L 345.887759 91.401909 
L 345.172926 89.831292 
L 344.651783 87.792764 
L 342.902435 85.521376 
L 341.633728 83.811394 
L 341.072493 82.655058 
L 338.588154 79.482608 
L 337.221555 76.435272 
L 336.581126 75.868504 
L 335.594176 75.191617 
L 334.630494 74.703679 
L 333.901485 74.132707 
L 332.704971 73.573191 
L 332.199793 72.936757 
L 331.727469 71.941704 
L 330.063763 70.549692 
L 329.727145 69.939765 
L 328.686548 68.451972 
L 327.843744 67.60864 
L 323.387128 64.990777 
L 322.510694 64.331105 
L 321.058701 63.493077 
L 320.386919 62.400199 
L 318.990131 62.300865 
L 317.795969 62.042774 
L 317.267888 61.449033 
L 316.482026 60.948339 
L 313.998659 60.454991 
L 309.565462 59.326901 
L 307.301756 58.34706 
L 303.017034 57.608937 
L 299.383081 57.336658 
L 298.272468 57.10663 
L 293.443119 56.716735 
L 292.018585 56.498464 
L 288.704442 56.276116 
L 285.153796 55.832436 
L 283.227509 55.788544 
L 281.059031 55.565042 
L 276.00267 55.404689 
L 270.03907 54.629805 
L 266.148267 54.355877 
L 264.285056 54.028256 
L 261.706333 54.061515 
L 253.972738 53.196532 
L 247.721702 52.705434 
L 245.638837 52.535211 
L 243.81514 52.224882 
L 236.941907 51.930046 
L 235.653424 51.688419 
L 233.804511 51.648561 
L 232.477972 51.277962 
L 229.715213 51.201256 
L 227.641858 51.280153 
L 222.93907 50.963926 
L 221.293583 50.629788 
L 219.521252 50.519093 
L 217.947145 49.966947 
L 214.726761 49.630569 
L 212.377881 49.54533 
L 208.709255 49.207048 
L 205.924805 49.339575 
L 201.433802 49.070922 
L 197.783397 49.023378 
L 196.089677 48.96112 
L 193.541867 49.200515 
L 191.565827 49.167702 
L 189.626555 48.500653 
L 187.292708 48.663802 
L 185.631634 48.544639 
L 183.869103 48.582469 
L 181.76249 48.473372 
L 179.786389 48.518214 
L 177.002174 48.951649 
L 166.706933 48.83388 
L 165.429902 48.397917 
L 163.23071 47.824871 
L 161.317317 47.799241 
L 159.730901 47.337623 
L 151.789823 47.191614 
L 149.570206 47.484658 
L 147.043639 47.598738 
L 144.844747 47.530116 
L 142.502535 48.087032 
L 139.614011 48.306078 
L 133.897005 48.125022 
L 130.483631 48.392171 
L 127.41897 48.875373 
L 124.715233 48.571287 
L 121.521339 48.628735 
L 118.052075 48.247823 
L 114.512229 48.340047 
L 111.551181 48.577196 
L 108.173239 48.279702 
L 104.864971 47.535439 
L 101.194768 48.302465 
L 98.153398 49.10806 
L 94.567739 50.623245 
L 91.556046 52.591873 
L 88.561504 52.864176 
L 85.908671 53.408121 
L 83.543203 53.093801 
L 80.323183 53.873116 
L 77.952066 52.789312 
L 75.658616 52.794075 
L 72.939541 52.627781 
L 71.02716 52.765627 
L 69.303911 52.468501 
L 67.616687 51.443852 
L 65.107064 51.302554 
L 63.865027 51.116687 
L 62.268565 47.522485 
L 61.441301 47.82056 
L 60.504826 44.627969 
L 59.523015 43.771003 
L 58.496904 43.898121 
L 57.857157 41.582768 
L 56.352961 41.582768 
L 55.770921 41.257674 
L 55.770921 41.257674 
" style="fill:none;stroke:#008000;stroke-linecap:square;"/>
   </g>
   <g id="line2d_5">
    <path clip-path="url(#pb54b6c58ad)" d="M 388.8 205.40491 
L 388.689062 200.337451 
L 388.547224 199.133256 
L 388.212544 194.354735 
L 388.01055 191.155355 
L 387.912137 188.7862 
L 387.593647 183.147647 
L 386.766557 177.28664 
L 385.526324 171.11117 
L 384.701195 166.267139 
L 384.29448 164.507374 
L 384.016848 162.681611 
L 383.844046 160.649712 
L 383.193438 158.878509 
L 382.903432 156.959475 
L 382.315695 155.147691 
L 381.087639 150.018972 
L 380.309828 148.252525 
L 380.069445 146.239995 
L 379.421421 144.438156 
L 378.56162 142.582549 
L 378.246441 140.937484 
L 377.245318 139.34251 
L 376.301566 136.27469 
L 374.943514 134.688983 
L 373.554282 131.908952 
L 372.619725 130.29536 
L 372.12372 128.744117 
L 370.66831 125.531846 
L 369.625172 124.14949 
L 369.179292 122.751393 
L 368.861991 121.227476 
L 368.410359 119.675666 
L 367.870131 118.265532 
L 367.223532 117.017048 
L 366.331381 114.192567 
L 365.428217 112.86216 
L 364.957767 110.664983 
L 364.264278 109.49073 
L 363.844058 108.080288 
L 360.027999 100.221247 
L 358.125478 98.860283 
L 357.489465 97.818004 
L 356.368914 97.136191 
L 355.576964 96.274505 
L 354.585396 95.539763 
L 352.940428 93.734851 
L 351.363337 90.917598 
L 349.352503 88.946678 
L 347.624438 88.385293 
L 346.854988 87.553184 
L 345.089913 85.363358 
L 343.8011 84.570868 
L 343.008866 83.765855 
L 342.111774 83.255958 
L 341.510356 81.942139 
L 339.590501 79.859236 
L 338.424999 79.187443 
L 337.661783 78.203 
L 334.797556 76.607173 
L 333.702226 75.507565 
L 332.334343 74.903423 
L 329.318487 74.061288 
L 324.805269 72.358903 
L 323.111325 71.297165 
L 321.848663 70.717646 
L 320.139678 70.238711 
L 318.741048 69.535016 
L 317.546885 68.577047 
L 315.385509 67.975775 
L 314.090017 67.344518 
L 312.541565 66.842438 
L 311.213344 66.135541 
L 309.514319 65.985362 
L 306.67728 64.45054 
L 301.281105 62.624367 
L 299.7701 62.450094 
L 298.193265 61.96149 
L 295.8157 61.787137 
L 294.102214 61.181304 
L 291.922537 60.098608 
L 290.40339 59.751219 
L 288.49606 58.859825 
L 286.127287 58.501135 
L 284.445275 58.039113 
L 279.827561 57.653166 
L 278.192749 57.268775 
L 270.844109 56.099721 
L 267.093205 55.209572 
L 265.122675 54.924474 
L 262.609634 54.839409 
L 260.364784 54.617941 
L 254.579232 53.61 
L 252.432064 52.921539 
L 250.540241 52.746972 
L 246.006727 51.531365 
L 244.14916 51.218026 
L 242.181219 51.013543 
L 240.139801 50.610398 
L 238.07929 50.485948 
L 233.100134 49.822899 
L 227.757557 49.643241 
L 223.966206 49.091518 
L 221.541033 49.219056 
L 219.45736 49.153911 
L 215.894151 48.874719 
L 214.121707 48.559199 
L 209.359358 48.341398 
L 207.220463 48.051279 
L 204.415864 48.083944 
L 198.745336 47.311279 
L 195.829417 47.25689 
L 188.137783 46.688296 
L 182.999056 46.583435 
L 180.792806 46.720209 
L 168.711113 46.451465 
L 166.487005 46.261071 
L 163.27166 46.302739 
L 157.463791 46.768622 
L 154.94353 46.81417 
L 152.517024 45.688037 
L 150.114439 45.845282 
L 147.928891 45.858205 
L 146.190205 45.402522 
L 141.506272 44.973099 
L 139.12445 44.960612 
L 136.267542 45.379695 
L 134.418947 45.256957 
L 132.412226 44.953638 
L 130.390645 45.123702 
L 127.710223 45.159848 
L 125.148984 44.776958 
L 123.276861 44.793993 
L 121.530462 44.487549 
L 119.354825 44.230978 
L 114.050801 43.169659 
L 111.462931 43.098689 
L 109.3999 43.421673 
L 106.795581 43.322271 
L 104.139458 43.626784 
L 99.939081 43.921719 
L 97.708359 43.596462 
L 95.699881 43.472057 
L 92.914352 43.876049 
L 90.361626 44.094697 
L 88.123445 44.058272 
L 83.330657 43.514328 
L 81.173543 43.287276 
L 78.630611 43.962881 
L 75.617649 44.054692 
L 73.395247 42.807659 
L 71.590982 45.351216 
L 69.479198 49.582083 
L 67.702915 49.897433 
L 66.02229 48.903259 
L 63.574983 53.306594 
L 62.739673 53.515545 
L 60.736282 53.467942 
L 59.492441 52.690565 
L 57.787622 52.979468 
L 57.106897 54.376003 
L 56.303444 54.384353 
L 55.283201 54.22 
L 55.283201 54.22 
" style="fill:none;stroke:#00bfbf;stroke-linecap:square;"/>
   </g>
   <g id="line2d_6">
    <path clip-path="url(#pb54b6c58ad)" d="M 388.8 205.40491 
L 388.757567 204.631749 
L 388.67577 204.171387 
L 388.566913 200.042951 
L 388.170707 190.518777 
L 388.094881 187.890024 
L 387.615984 182.620708 
L 387.261356 180.161393 
L 387.092144 177.404894 
L 386.761769 174.910145 
L 385.611991 169.638973 
L 384.922576 167.00346 
L 383.095835 155.695738 
L 382.76311 152.673415 
L 382.110513 149.80988 
L 381.647015 146.880406 
L 380.43586 141.472275 
L 379.240291 138.794461 
L 377.660392 133.147016 
L 377.022654 130.205188 
L 375.781744 127.635411 
L 375.244315 125.440686 
L 373.683767 121.524102 
L 372.793112 119.065881 
L 371.696738 116.627111 
L 371.052908 114.475325 
L 369.605887 110.531231 
L 368.857736 108.411579 
L 367.924004 106.824511 
L 366.393184 103.838574 
L 365.493793 102.665544 
L 364.789164 101.028785 
L 364.003014 99.84913 
L 362.668886 97.187634 
L 360.354589 93.147109 
L 359.217319 92.036016 
L 357.563004 90.12056 
L 354.831154 88.010802 
L 352.688019 87.136099 
L 349.316386 83.860206 
L 347.759408 81.619203 
L 347.053794 80.158459 
L 346.168359 79.007072 
L 345.006451 76.363025 
L 344.391901 75.278726 
L 341.923719 73.587062 
L 340.972391 72.646078 
L 339.257166 70.494633 
L 337.968066 68.682194 
L 334.697371 66.101797 
L 333.478884 65.451682 
L 332.879478 64.59212 
L 332.088461 63.94158 
L 331.331914 63.148773 
L 329.502757 61.940359 
L 328.702419 61.160063 
L 327.216919 60.21824 
L 326.514698 59.502687 
L 325.709347 58.980358 
L 325.009468 58.135332 
L 323.468876 57.319248 
L 322.786324 56.954356 
L 321.405062 55.760932 
L 320.057137 54.916263 
L 315.807656 52.774662 
L 314.868817 52.50761 
L 314.149421 51.943065 
L 312.739878 51.414009 
L 311.372436 50.775216 
L 309.166463 50.048239 
L 307.181998 49.856253 
L 306.287485 49.711659 
L 304.342575 49.125916 
L 298.54389 48.209043 
L 297.907672 47.970074 
L 293.368321 47.33805 
L 291.728041 47.16464 
L 289.808697 46.818381 
L 285.63863 46.435628 
L 283.408095 46.198962 
L 279.182325 46.160953 
L 277.03562 46.062697 
L 275.44939 45.765247 
L 273.457909 45.611245 
L 269.388711 45.251603 
L 268.50252 45.080969 
L 267.031352 44.934951 
L 265.989083 44.666834 
L 257.497327 43.61214 
L 255.82781 43.17637 
L 252.387336 42.490656 
L 250.758146 42.114066 
L 249.224734 41.49334 
L 242.840672 40.572954 
L 241.722181 40.159547 
L 237.206527 39.785011 
L 226.308575 38.449006 
L 224.384338 38.14808 
L 222.600283 37.716661 
L 216.598084 36.876328 
L 198.809444 35.737707 
L 187.095789 35.319693 
L 181.720904 34.970971 
L 168.901011 34.457334 
L 145.999662 33.943469 
L 143.780537 33.72691 
L 130.086656 33.7881 
L 127.032209 33.904579 
L 124.611001 33.847049 
L 121.523602 34.013933 
L 118.587281 34.022146 
L 113.055174 33.757528 
L 111.029146 33.388214 
L 105.355584 32.984062 
L 102.531402 32.878041 
L 91.958381 32.012902 
L 86.517408 31.927332 
L 80.548664 31.485455 
L 77.278084 31.186915 
L 74.265353 31.273307 
L 70.788193 30.528581 
L 67.466135 30.049781 
L 62.18107 28.832461 
L 55.236885 28.8 
L 55.236885 28.8 
" style="fill:none;stroke:#bfbf00;stroke-linecap:square;"/>
   </g>
   <g id="line2d_7">
    <path clip-path="url(#pb54b6c58ad)" d="M 388.8 205.40491 
L 332.869714 67.865885 
L 326.199883 60.836838 
L 316.572777 54.041998 
L 312.583875 52.092532 
L 303.663387 49.257791 
L 300.767433 48.579471 
L 298.525326 48.263176 
L 296.408497 47.7049 
L 293.175149 46.631436 
L 289.621438 46.034823 
L 278.240627 45.48073 
L 269.413052 43.826364 
L 266.265656 43.483392 
L 264.90326 43.208618 
L 262.520838 42.21262 
L 261.158067 42.160134 
L 259.973729 42.316198 
L 258.706633 42.13583 
L 256.369471 42.451495 
L 255.235548 41.793073 
L 253.617302 41.021244 
L 247.922832 40.482912 
L 244.811156 40.321187 
L 243.566821 39.874309 
L 239.90152 39.752978 
L 233.47886 39.432516 
L 232.766341 39.340004 
L 231.909717 38.962549 
L 230.997289 38.749271 
L 227.980769 38.384 
L 223.245753 37.233408 
L 218.916273 36.815792 
L 212.918168 36.414118 
L 192.213344 35.812655 
L 189.492616 35.576278 
L 176.365662 34.733208 
L 173.346423 34.65333 
L 168.661531 34.461617 
L 165.366833 34.342137 
L 159.282475 34.189971 
L 155.358231 34.193323 
L 153.01681 34.118066 
L 149.367227 33.941396 
L 147.158271 33.858835 
L 141.619299 33.77607 
L 137.940807 33.861416 
L 135.911553 33.865043 
L 133.913506 33.889682 
L 130.727707 33.807168 
L 128.394973 33.887708 
L 127.213792 33.98125 
L 125.522967 33.941132 
L 123.360764 34.065211 
L 119.408698 33.983842 
L 116.631733 33.89376 
L 110.468047 33.620948 
L 109.299951 33.368717 
L 107.656779 33.308628 
L 107.106298 33.140394 
L 105.322688 33.066774 
L 104.801612 32.965027 
L 100.072883 32.843764 
L 98.11222 32.456776 
L 96.56983 32.434822 
L 95.67186 32.212637 
L 86.827209 31.920633 
L 83.717313 31.896568 
L 82.753112 31.582754 
L 77.59992 31.289251 
L 74.26591 31.346663 
L 73.516901 31.32497 
L 72.395033 31.13952 
L 71.671058 30.644737 
L 70.697982 30.591839 
L 69.792102 30.096045 
L 67.632483 30.116814 
L 66.913355 30.071506 
L 66.236775 29.502584 
L 64.623998 29.488889 
L 63.763263 28.865035 
L 60.610534 28.8 
L 54.635247 28.8 
L 54.635247 28.8 
" style="fill:none;stroke:#bf00bf;stroke-linecap:square;"/>
   </g>
   <g id="line2d_8">
    <path clip-path="url(#pb54b6c58ad)" d="M 388.8 205.40491 
L 385.31386 171.735737 
L 384.0271 164.644069 
L 382.735353 153.292054 
L 382.288308 149.222432 
L 379.948166 145.720882 
L 378.305904 139.225287 
L 376.302501 131.91637 
L 374.840795 128.462068 
L 373.907084 124.736004 
L 373.41133 121.388454 
L 372.729034 118.435662 
L 372.32537 114.931544 
L 371.69899 112.710042 
L 370.085248 110.480736 
L 369.315391 108.49678 
L 367.839281 106.819481 
L 366.992002 104.768234 
L 364.768573 103.421022 
L 362.906276 101.530766 
L 360.803095 98.555024 
L 359.030189 97.02557 
L 354.166795 95.479092 
L 351.964429 93.269946 
L 351.079554 92.086266 
L 350.178052 91.264662 
L 349.52981 90.386079 
L 348.120474 89.477897 
L 346.614593 88.865873 
L 345.415575 88.000678 
L 343.907241 86.143547 
L 342.659306 84.968299 
L 341.050713 82.135131 
L 340.167013 80.889507 
L 338.856527 79.722482 
L 338.367682 78.076736 
L 337.05209 76.619669 
L 336.040004 76.105249 
L 335.449928 75.372495 
L 329.697487 70.801625 
L 329.196516 69.951071 
L 328.037085 68.265594 
L 327.186773 67.809805 
L 326.602667 67.197677 
L 326.111752 66.859678 
L 324.825136 64.884559 
L 324.217673 64.305079 
L 323.373407 62.963195 
L 321.926143 62.0084 
L 321.057071 61.79274 
L 320.430934 61.331449 
L 319.713932 60.654286 
L 318.349835 60.31082 
L 317.615621 59.596599 
L 315.788983 58.430976 
L 315.037719 57.628473 
L 314.143465 57.247541 
L 313.586443 56.423065 
L 312.8843 55.898484 
L 311.819923 55.655381 
L 311.185476 55.155287 
L 310.521225 53.959003 
L 308.925467 52.441493 
L 307.775977 51.897927 
L 305.845348 51.175034 
L 305.476917 50.946759 
L 304.604921 50.759786 
L 303.538524 50.16408 
L 302.811857 49.978557 
L 302.616437 49.678939 
L 301.480598 48.811331 
L 300.595982 47.748739 
L 299.581125 47.29572 
L 298.741129 46.470994 
L 297.853906 46.262014 
L 296.996866 45.705243 
L 295.562816 45.352428 
L 293.640993 44.652499 
L 292.516799 44.295737 
L 290.37716 43.963933 
L 287.985166 43.082352 
L 279.367133 42.010134 
L 277.288642 41.842732 
L 274.344417 41.7903 
L 267.328103 41.361559 
L 266.426082 40.939606 
L 261.682239 40.796758 
L 260.845945 40.645844 
L 258.853065 40.60704 
L 256.235341 40.175349 
L 255.290202 39.962383 
L 252.372217 39.495842 
L 250.950316 39.130419 
L 243.978747 38.911166 
L 242.517099 38.746363 
L 240.741225 38.718377 
L 238.365482 38.698653 
L 233.826047 38.619025 
L 232.380042 38.686281 
L 227.279668 38.698846 
L 223.448359 38.637816 
L 221.368043 38.347096 
L 219.344045 38.435901 
L 214.056525 38.221036 
L 207.220057 37.875279 
L 205.882253 37.428274 
L 203.071474 37.27048 
L 201.202936 36.889129 
L 197.369908 36.829584 
L 187.39248 36.756463 
L 185.154547 36.732402 
L 179.927404 36.310387 
L 175.586696 36.151488 
L 173.764726 36.296238 
L 171.83525 36.133108 
L 169.715676 36.196329 
L 166.972724 38.061305 
L 165.437543 38.862725 
L 163.682197 39.473086 
L 162.1076 40.164256 
L 160.426893 40.199404 
L 158.55761 39.925096 
L 156.209545 39.94109 
L 154.084268 40.107055 
L 152.558267 40.019144 
L 151.068053 39.758103 
L 150.086873 40.057049 
L 147.869252 40.101908 
L 146.858253 39.923974 
L 144.982892 39.754958 
L 141.08484 39.936616 
L 139.296581 39.808666 
L 132.725325 39.960438 
L 131.332234 36.985513 
L 129.473868 34.592137 
L 123.220043 34.65579 
L 120.526336 34.698806 
L 118.67647 35.895237 
L 116.805206 36.50977 
L 115.374028 36.050733 
L 113.784823 32.774786 
L 112.061587 32.065865 
L 109.282807 31.614221 
L 106.835585 30.811336 
L 103.917312 30.660232 
L 101.451332 30.161773 
L 94.945282 29.877288 
L 91.28473 29.721094 
L 87.307922 29.727103 
L 83.592303 29.959449 
L 76.319442 28.8 
L 58.680212 28.8 
L 58.680212 28.8 
" style="fill:none;stroke:#ff0000;stroke-dasharray:6.000000,6.000000;stroke-dashoffset:0.0;"/>
   </g>
   <g id="line2d_9">
    <path clip-path="url(#pb54b6c58ad)" d="M 388.8 205.40491 
L 388.373587 199.473527 
L 384.695744 185.244454 
L 383.955956 181.498757 
L 383.374133 176.746291 
L 382.795057 170.708155 
L 380.885784 163.112198 
L 380.226179 156.249523 
L 378.787631 147.466698 
L 378.021657 144.550571 
L 377.637384 142.037964 
L 376.383332 136.990457 
L 371.998609 129.121341 
L 369.607888 125.877151 
L 364.350919 124.192472 
L 363.762819 121.718757 
L 362.120771 118.951466 
L 360.805747 115.517668 
L 359.879289 110.906096 
L 359.597247 109.916059 
L 358.771311 108.022663 
L 357.994506 107.177514 
L 357.106005 106.027171 
L 354.331983 104.913949 
L 353.028748 104.192774 
L 352.514847 103.62062 
L 352.301083 102.78107 
L 351.932622 101.992301 
L 351.525875 100.578827 
L 350.871964 100.220046 
L 350.637466 99.728499 
L 350.204349 99.144715 
L 349.468982 98.494515 
L 348.942028 97.852184 
L 347.644234 97.063334 
L 346.869665 96.191733 
L 346.228927 95.11823 
L 345.55067 94.437006 
L 345.215941 93.17483 
L 344.486356 92.777425 
L 344.035117 91.949278 
L 342.603931 91.645506 
L 341.619054 90.900248 
L 340.650562 90.465443 
L 339.531018 88.277438 
L 338.541557 87.124475 
L 338.107561 86.726305 
L 335.907662 83.711072 
L 335.174211 83.322076 
L 334.901975 83.034012 
L 334.354288 82.15939 
L 333.756619 81.671827 
L 333.178675 77.382988 
L 332.566124 75.592255 
L 331.450231 74.713457 
L 330.300964 74.592553 
L 329.505978 73.940941 
L 328.362798 72.480088 
L 328.182872 72.106161 
L 327.738508 71.834437 
L 326.445362 71.795672 
L 325.562503 70.57569 
L 325.096755 70.299911 
L 324.762077 69.88876 
L 322.131239 68.941922 
L 321.836096 67.637265 
L 321.194578 66.833311 
L 319.355158 66.467549 
L 318.647515 65.721406 
L 318.036351 65.614783 
L 314.477767 65.445297 
L 313.554288 64.932481 
L 311.745437 64.629514 
L 310.375668 64.239661 
L 308.320822 63.481054 
L 308.010558 62.896573 
L 306.936797 62.437877 
L 306.028647 61.487085 
L 305.03972 59.555547 
L 304.599877 58.389955 
L 303.450722 57.560602 
L 302.846034 56.568636 
L 302.085168 56.302739 
L 300.624563 55.916445 
L 299.29246 55.419266 
L 298.466447 55.222303 
L 297.925691 54.77247 
L 296.354256 54.543031 
L 292.27854 54.119789 
L 290.350853 53.297551 
L 285.990572 52.632789 
L 285.114726 52.115485 
L 283.532165 52.137819 
L 281.525829 51.639557 
L 279.864475 51.528561 
L 278.860765 51.263237 
L 276.75105 50.914734 
L 273.010461 50.558105 
L 270.313207 49.803022 
L 267.939692 49.436715 
L 265.17151 49.475276 
L 260.766785 49.105778 
L 257.071075 48.136101 
L 255.643563 47.65903 
L 255.216652 47.357626 
L 252.307618 47.16235 
L 251.616014 46.864777 
L 249.390122 46.879166 
L 247.866493 46.711946 
L 244.004969 46.427807 
L 242.689856 46.604021 
L 238.154855 46.679342 
L 237.161457 46.534353 
L 236.177827 45.596204 
L 234.900881 45.231849 
L 234.415376 44.912561 
L 232.619481 44.237695 
L 231.679666 43.033196 
L 231.230368 43.032332 
L 230.743502 42.907951 
L 229.77385 42.847005 
L 228.238034 42.270569 
L 224.622677 42.017692 
L 223.657881 41.797841 
L 221.238883 41.521003 
L 219.854042 41.265295 
L 219.149401 41.287251 
L 217.987363 40.836053 
L 217.646624 40.523245 
L 215.684028 40.581944 
L 215.003763 39.172677 
L 207.836603 39.123622 
L 206.500523 38.723913 
L 204.182402 38.73489 
L 203.525458 38.517808 
L 195.343605 38.559038 
L 185.602045 39.104735 
L 183.185475 40.174214 
L 173.518178 40.742722 
L 170.526343 41.126747 
L 168.909695 39.279812 
L 168.280333 39.626788 
L 166.203324 39.744515 
L 165.258456 40.159584 
L 163.839242 40.19509 
L 158.880639 49.641295 
L 157.440082 50.172562 
L 155.882505 50.200922 
L 153.994839 49.208758 
L 152.646521 49.201635 
L 151.451231 48.988235 
L 150.436653 48.941622 
L 147.634417 49.060456 
L 147.15676 47.127889 
L 135.498239 47.188687 
L 132.144793 48.314851 
L 113.54715 48.49338 
L 110.671951 42.050357 
L 96.896735 42.049355 
L 93.382173 41.211734 
L 64.212415 41.2 
L 64.212415 41.2 
" style="fill:none;stroke:#0000ff;stroke-dasharray:6.000000,6.000000;stroke-dashoffset:0.0;"/>
   </g>
   <g id="line2d_10">
    <path clip-path="url(#pb54b6c58ad)" d="M 388.8 205.40491 
L 387.59673 199.212125 
L 383.659439 174.590671 
L 379.456392 164.800256 
L 376.547738 156.442356 
L 372.279212 150.348664 
L 367.879384 145.637935 
L 365.149472 140.110759 
L 363.647312 131.285877 
L 362.370816 127.519899 
L 361.737075 125.228059 
L 359.255269 118.325536 
L 358.340647 116.389278 
L 357.746181 114.301107 
L 353.489833 112.828218 
L 351.7259 109.796059 
L 350.613489 108.263617 
L 350.368776 106.444692 
L 349.488505 106.038921 
L 348.391667 104.216222 
L 346.35871 103.740886 
L 344.691303 102.021634 
L 344.220038 99.779051 
L 343.786181 99.008198 
L 343.786181 97.688236 
L 342.236613 96.646948 
L 341.769956 95.172754 
L 341.448682 94.614303 
L 341.307603 93.871321 
L 339.659608 92.215516 
L 339.048471 92.011626 
L 339.048471 90.811227 
L 337.48891 90.599847 
L 334.464729 89.123231 
L 334.464729 88.291921 
L 333.675811 86.429644 
L 333.629763 85.55172 
L 333.024346 85.080858 
L 331.792231 83.343277 
L 331.167368 82.828375 
L 330.51059 81.322576 
L 327.321771 80.620602 
L 325.702692 80.603949 
L 324.743008 79.405085 
L 322.411221 78.946613 
L 319.768514 77.804542 
L 318.578594 77.715261 
L 318.574858 77.501681 
L 318.127025 77.003743 
L 317.391112 76.888121 
L 317.182171 76.486833 
L 314.350748 75.610019 
L 312.509723 75.211076 
L 310.750355 75.096989 
L 309.628913 74.882448 
L 308.934455 74.47545 
L 308.866609 74.241049 
L 308.353982 71.82657 
L 308.03404 70.72131 
L 307.260166 70.411539 
L 307.120437 68.528993 
L 306.90368 68.080368 
L 304.955577 68.33425 
L 304.691582 67.816236 
L 304.437359 67.727007 
L 303.99567 66.724708 
L 303.16751 66.776 
L 303.165963 66.332472 
L 302.825294 65.791613 
L 302.825294 65.63844 
L 301.943994 65.715825 
L 301.89288 65.020118 
L 300.606196 63.880618 
L 299.418835 63.430487 
L 298.073239 63.655095 
L 297.352946 63.356109 
L 296.755434 62.257261 
L 295.980193 61.924934 
L 294.376372 62.057466 
L 293.1349 61.784111 
L 292.84118 61.579792 
L 292.802309 61.194473 
L 290.108884 61.172844 
L 288.828073 61.359225 
L 288.828073 61.219813 
L 288.583231 61.221501 
L 287.497638 60.560248 
L 284.174316 60.552773 
L 283.325556 60.91359 
L 283.032071 60.790944 
L 281.466942 60.929376 
L 281.466942 60.929376 
L 280.775823 61.139725 
L 280.027088 60.816051 
L 278.354058 61.041569 
L 276.785822 61.510496 
L 274.305284 62.0498 
L 273.503759 62.656262 
L 272.915266 62.774628 
L 271.560106 63.600837 
L 271.560106 63.600837 
L 271.30061 63.131036 
L 270.729943 63.128759 
L 269.719944 62.919087 
L 269.075795 62.24453 
L 268.161298 61.749625 
L 267.094772 61.866171 
L 264.002266 61.376462 
L 261.685844 61.215182 
L 260.730866 61.303644 
L 260.116111 61.30474 
L 259.722422 60.946442 
L 258.546481 60.762942 
L 257.404979 60.934351 
L 256.765318 60.704926 
L 256.58833 60.453627 
L 253.302127 60.546837 
L 253.003254 60.3179 
L 251.81877 60.037769 
L 251.373271 59.372968 
L 250.468102 59.135019 
L 246.54343 59.448575 
L 242.439129 59.558892 
L 239.320283 59.876798 
L 229.507534 60.118733 
L 227.756678 59.979241 
L 225.95049 59.485362 
L 225.95049 59.485362 
L 225.497132 59.582604 
L 225.474431 59.016605 
L 223.775473 59.270381 
L 223.620022 58.011861 
L 222.954556 58.012113 
L 222.227165 57.082772 
L 219.880937 56.971722 
L 218.059817 56.300973 
L 217.063338 56.303645 
L 215.608182 55.883477 
L 214.778617 55.868485 
L 214.562378 55.68385 
L 213.100587 55.217313 
L 212.536991 55.254115 
L 208.707817 55.091338 
L 207.549657 54.369712 
L 205.654687 54.374033 
L 205.340774 53.079012 
L 203.502197 52.958211 
L 200.48978 53.247117 
L 199.812221 52.753658 
L 198.063729 52.778904 
L 195.985418 53.006612 
L 193.582647 52.875691 
L 190.696434 51.141826 
L 186.338184 51.550441 
L 185.585562 51.374905 
L 184.692711 51.370456 
L 183.692668 50.250785 
L 182.984568 49.718511 
L 181.690105 49.720999 
L 180.216016 49.44087 
L 178.890163 49.446609 
L 177.798556 47.243486 
L 171.215455 47.186756 
L 168.557298 46.890398 
L 166.786345 46.742161 
L 165.134414 46.752931 
L 160.9989 47.232321 
L 159.238815 46.571908 
L 156.023428 46.58181 
L 155.789969 46.198144 
L 153.702976 47.353908 
L 140.776602 47.36365 
L 138.847174 47.305042 
L 121.243344 47.371713 
L 116.684983 46.655076 
L 114.28117 45.3127 
L 109.758113 44.667339 
L 105.232423 45.27163 
L 94.279929 45.224376 
L 90.516355 43.818692 
L 85.335091 43.772979 
L 80.092453 43.328624 
L 71.592855 43.910612 
L 69.16203 43.901762 
L 69.16203 43.901762 
" style="fill:none;stroke:#000000;stroke-dasharray:6.000000,6.000000;stroke-dashoffset:0.0;"/>
   </g>
   <g id="line2d_11">
    <path clip-path="url(#pb54b6c58ad)" d="M 388.8 205.40491 
L 380.913858 187.044732 
L 372.96846 171.923077 
L 369.72695 163.473059 
L 367.646868 154.136574 
L 366.138185 145.978021 
L 364.930473 140.387531 
L 361.810688 130.488113 
L 360.09882 125.760162 
L 358.030254 122.004205 
L 355.431648 113.036692 
L 353.728654 109.26092 
L 352.619791 105.965387 
L 350.860165 103.31195 
L 348.702422 100.345381 
L 347.565534 98.104418 
L 344.864222 95.365554 
L 342.254854 93.232165 
L 341.196011 90.508592 
L 338.395419 88.510609 
L 335.238652 86.757393 
L 331.540098 85.118791 
L 329.000226 83.733382 
L 328.136342 82.153838 
L 326.523925 80.46262 
L 325.331411 79.487971 
L 323.697334 78.641473 
L 321.681106 78.451327 
L 318.990854 79.126262 
L 318.279558 78.524784 
L 317.535725 77.625454 
L 316.721526 76.93555 
L 316.164535 76.268255 
L 315.140137 75.351475 
L 314.548582 73.463966 
L 313.808581 71.59179 
L 313.169379 68.971356 
L 312.038542 65.27392 
L 310.184053 64.435476 
L 308.989824 63.261782 
L 307.903529 61.658305 
L 307.346692 61.221858 
L 306.347309 60.813738 
L 305.920931 60.213446 
L 305.065904 59.51824 
L 304.380608 58.770265 
L 301.080922 57.322445 
L 300.317379 55.369844 
L 300.004027 54.3744 
L 299.641677 53.694306 
L 298.344953 52.229453 
L 298.174331 51.777227 
L 297.857229 51.420904 
L 297.293714 51.132597 
L 296.279829 50.916678 
L 295.884456 50.72992 
L 294.962 49.741556 
L 294.085207 49.369692 
L 293.664927 49.21219 
L 293.316124 48.606166 
L 292.565729 48.216665 
L 290.363564 47.613634 
L 289.842624 47.36869 
L 289.333809 46.769126 
L 288.432051 46.358033 
L 287.458848 46.146708 
L 286.760271 45.833742 
L 286.031625 45.782834 
L 284.452525 44.977389 
L 279.688203 44.012771 
L 278.646197 43.887169 
L 278.507365 43.605007 
L 278.096915 43.56203 
L 277.603593 43.357473 
L 273.819056 43.108647 
L 273.083406 43.023841 
L 271.918094 42.717251 
L 269.944947 42.394259 
L 267.185074 42.279935 
L 265.036475 42.158401 
L 264.203901 41.530687 
L 263.621006 41.332699 
L 262.04752 41.408025 
L 260.937131 41.189754 
L 259.998224 41.126158 
L 258.565116 40.791241 
L 255.495438 40.38799 
L 251.108689 40.035549 
L 244.874388 39.176776 
L 243.90655 38.785108 
L 240.695055 38.51059 
L 240.314574 38.178923 
L 234.382362 37.854349 
L 232.702654 37.785376 
L 232.200507 37.646742 
L 231.141711 37.637083 
L 217.271533 36.893715 
L 214.599912 36.49653 
L 211.518486 36.487388 
L 209.67355 36.216228 
L 206.230245 36.133097 
L 198.417953 35.628799 
L 193.582224 35.532446 
L 191.52077 35.338584 
L 186.982687 35.320309 
L 184.058577 35.247155 
L 182.37414 35.107716 
L 177.437184 35.065666 
L 173.507534 34.742835 
L 166.664741 34.606943 
L 164.001604 34.441423 
L 151.522885 34.396877 
L 148.211906 34.383438 
L 146.648977 34.474463 
L 142.819172 34.321387 
L 139.536036 34.368815 
L 136.988128 34.246171 
L 131.161493 32.871538 
L 128.377141 31.768064 
L 125.661653 31.69115 
L 121.593316 31.210505 
L 119.575312 30.655407 
L 116.646685 30.534139 
L 113.242732 30.527378 
L 111.388423 30.405979 
L 108.523114 30.060382 
L 98.311854 29.597688 
L 95.334782 29.753138 
L 90.86722 28.871873 
L 57.447384 28.8 
L 57.447384 28.8 
" style="fill:none;stroke:#008000;stroke-dasharray:6.000000,6.000000;stroke-dashoffset:0.0;"/>
   </g>
   <g id="patch_3">
    <path d="M 54 28.8 
L 388.8 28.8 
" style="fill:none;stroke:#000000;stroke-linecap:square;stroke-linejoin:miter;"/>
   </g>
   <g id="patch_4">
    <path d="M 388.8 252 
L 388.8 28.8 
" style="fill:none;stroke:#000000;stroke-linecap:square;stroke-linejoin:miter;"/>
   </g>
   <g id="patch_5">
    <path d="M 54 252 
L 388.8 252 
" style="fill:none;stroke:#000000;stroke-linecap:square;stroke-linejoin:miter;"/>
   </g>
   <g id="patch_6">
    <path d="M 54 252 
L 54 28.8 
" style="fill:none;stroke:#000000;stroke-linecap:square;stroke-linejoin:miter;"/>
   </g>
   <g id="matplotlib.axis_1">
    <g id="xtick_1">
     <g id="line2d_12">
      <path clip-path="url(#pb54b6c58ad)" d="M 54 252 
L 54 28.8 
" style="fill:none;stroke:#000000;stroke-dasharray:1.000000,3.000000;stroke-dashoffset:0.0;stroke-width:0.5;"/>
     </g>
     <g id="line2d_13">
      <defs>
       <path d="M 0 0 
L 0 -4 
" id="mf1879151c9" style="stroke:#000000;stroke-width:0.5;"/>
      </defs>
      <g>
       <use style="stroke:#000000;stroke-width:0.5;" x="54.0" xlink:href="#mf1879151c9" y="252.0"/>
      </g>
     </g>
     <g id="line2d_14">
      <defs>
       <path d="M 0 0 
L 0 4 
" id="mea593e3bf5" style="stroke:#000000;stroke-width:0.5;"/>
      </defs>
      <g>
       <use style="stroke:#000000;stroke-width:0.5;" x="54.0" xlink:href="#mea593e3bf5" y="28.8"/>
      </g>
     </g>
     <g id="text_1">
      <!-- 0.0 -->
      <defs>
       <path d="M 31.78125 66.40625 
Q 24.171875 66.40625 20.328125 58.90625 
Q 16.5 51.421875 16.5 36.375 
Q 16.5 21.390625 20.328125 13.890625 
Q 24.171875 6.390625 31.78125 6.390625 
Q 39.453125 6.390625 43.28125 13.890625 
Q 47.125 21.390625 47.125 36.375 
Q 47.125 51.421875 43.28125 58.90625 
Q 39.453125 66.40625 31.78125 66.40625 
M 31.78125 74.21875 
Q 44.046875 74.21875 50.515625 64.515625 
Q 56.984375 54.828125 56.984375 36.375 
Q 56.984375 17.96875 50.515625 8.265625 
Q 44.046875 -1.421875 31.78125 -1.421875 
Q 19.53125 -1.421875 13.0625 8.265625 
Q 6.59375 17.96875 6.59375 36.375 
Q 6.59375 54.828125 13.0625 64.515625 
Q 19.53125 74.21875 31.78125 74.21875 
" id="BitstreamVeraSans-Roman-30"/>
       <path d="M 10.6875 12.40625 
L 21 12.40625 
L 21 0 
L 10.6875 0 
z
" id="BitstreamVeraSans-Roman-2e"/>
      </defs>
      <g transform="translate(46.0484375 263.5984375)scale(0.1 -0.1)">
       <use xlink:href="#BitstreamVeraSans-Roman-30"/>
       <use x="63.623046875" xlink:href="#BitstreamVeraSans-Roman-2e"/>
       <use x="95.41015625" xlink:href="#BitstreamVeraSans-Roman-30"/>
      </g>
     </g>
    </g>
    <g id="xtick_2">
     <g id="line2d_15">
      <path clip-path="url(#pb54b6c58ad)" d="M 120.96 252 
L 120.96 28.8 
" style="fill:none;stroke:#000000;stroke-dasharray:1.000000,3.000000;stroke-dashoffset:0.0;stroke-width:0.5;"/>
     </g>
     <g id="line2d_16">
      <g>
       <use style="stroke:#000000;stroke-width:0.5;" x="120.96" xlink:href="#mf1879151c9" y="252.0"/>
      </g>
     </g>
     <g id="line2d_17">
      <g>
       <use style="stroke:#000000;stroke-width:0.5;" x="120.96" xlink:href="#mea593e3bf5" y="28.8"/>
      </g>
     </g>
     <g id="text_2">
      <!-- 0.2 -->
      <defs>
       <path d="M 19.1875 8.296875 
L 53.609375 8.296875 
L 53.609375 0 
L 7.328125 0 
L 7.328125 8.296875 
Q 12.9375 14.109375 22.625 23.890625 
Q 32.328125 33.6875 34.8125 36.53125 
Q 39.546875 41.84375 41.421875 45.53125 
Q 43.3125 49.21875 43.3125 52.78125 
Q 43.3125 58.59375 39.234375 62.25 
Q 35.15625 65.921875 28.609375 65.921875 
Q 23.96875 65.921875 18.8125 64.3125 
Q 13.671875 62.703125 7.8125 59.421875 
L 7.8125 69.390625 
Q 13.765625 71.78125 18.9375 73 
Q 24.125 74.21875 28.421875 74.21875 
Q 39.75 74.21875 46.484375 68.546875 
Q 53.21875 62.890625 53.21875 53.421875 
Q 53.21875 48.921875 51.53125 44.890625 
Q 49.859375 40.875 45.40625 35.40625 
Q 44.1875 33.984375 37.640625 27.21875 
Q 31.109375 20.453125 19.1875 8.296875 
" id="BitstreamVeraSans-Roman-32"/>
      </defs>
      <g transform="translate(113.0084375 263.5984375)scale(0.1 -0.1)">
       <use xlink:href="#BitstreamVeraSans-Roman-30"/>
       <use x="63.623046875" xlink:href="#BitstreamVeraSans-Roman-2e"/>
       <use x="95.41015625" xlink:href="#BitstreamVeraSans-Roman-32"/>
      </g>
     </g>
    </g>
    <g id="xtick_3">
     <g id="line2d_18">
      <path clip-path="url(#pb54b6c58ad)" d="M 187.92 252 
L 187.92 28.8 
" style="fill:none;stroke:#000000;stroke-dasharray:1.000000,3.000000;stroke-dashoffset:0.0;stroke-width:0.5;"/>
     </g>
     <g id="line2d_19">
      <g>
       <use style="stroke:#000000;stroke-width:0.5;" x="187.92" xlink:href="#mf1879151c9" y="252.0"/>
      </g>
     </g>
     <g id="line2d_20">
      <g>
       <use style="stroke:#000000;stroke-width:0.5;" x="187.92" xlink:href="#mea593e3bf5" y="28.8"/>
      </g>
     </g>
     <g id="text_3">
      <!-- 0.4 -->
      <defs>
       <path d="M 37.796875 64.3125 
L 12.890625 25.390625 
L 37.796875 25.390625 
z
M 35.203125 72.90625 
L 47.609375 72.90625 
L 47.609375 25.390625 
L 58.015625 25.390625 
L 58.015625 17.1875 
L 47.609375 17.1875 
L 47.609375 0 
L 37.796875 0 
L 37.796875 17.1875 
L 4.890625 17.1875 
L 4.890625 26.703125 
z
" id="BitstreamVeraSans-Roman-34"/>
      </defs>
      <g transform="translate(179.9684375 263.5984375)scale(0.1 -0.1)">
       <use xlink:href="#BitstreamVeraSans-Roman-30"/>
       <use x="63.623046875" xlink:href="#BitstreamVeraSans-Roman-2e"/>
       <use x="95.41015625" xlink:href="#BitstreamVeraSans-Roman-34"/>
      </g>
     </g>
    </g>
    <g id="xtick_4">
     <g id="line2d_21">
      <path clip-path="url(#pb54b6c58ad)" d="M 254.88 252 
L 254.88 28.8 
" style="fill:none;stroke:#000000;stroke-dasharray:1.000000,3.000000;stroke-dashoffset:0.0;stroke-width:0.5;"/>
     </g>
     <g id="line2d_22">
      <g>
       <use style="stroke:#000000;stroke-width:0.5;" x="254.88" xlink:href="#mf1879151c9" y="252.0"/>
      </g>
     </g>
     <g id="line2d_23">
      <g>
       <use style="stroke:#000000;stroke-width:0.5;" x="254.88" xlink:href="#mea593e3bf5" y="28.8"/>
      </g>
     </g>
     <g id="text_4">
      <!-- 0.6 -->
      <defs>
       <path d="M 33.015625 40.375 
Q 26.375 40.375 22.484375 35.828125 
Q 18.609375 31.296875 18.609375 23.390625 
Q 18.609375 15.53125 22.484375 10.953125 
Q 26.375 6.390625 33.015625 6.390625 
Q 39.65625 6.390625 43.53125 10.953125 
Q 47.40625 15.53125 47.40625 23.390625 
Q 47.40625 31.296875 43.53125 35.828125 
Q 39.65625 40.375 33.015625 40.375 
M 52.59375 71.296875 
L 52.59375 62.3125 
Q 48.875 64.0625 45.09375 64.984375 
Q 41.3125 65.921875 37.59375 65.921875 
Q 27.828125 65.921875 22.671875 59.328125 
Q 17.53125 52.734375 16.796875 39.40625 
Q 19.671875 43.65625 24.015625 45.921875 
Q 28.375 48.1875 33.59375 48.1875 
Q 44.578125 48.1875 50.953125 41.515625 
Q 57.328125 34.859375 57.328125 23.390625 
Q 57.328125 12.15625 50.6875 5.359375 
Q 44.046875 -1.421875 33.015625 -1.421875 
Q 20.359375 -1.421875 13.671875 8.265625 
Q 6.984375 17.96875 6.984375 36.375 
Q 6.984375 53.65625 15.1875 63.9375 
Q 23.390625 74.21875 37.203125 74.21875 
Q 40.921875 74.21875 44.703125 73.484375 
Q 48.484375 72.75 52.59375 71.296875 
" id="BitstreamVeraSans-Roman-36"/>
      </defs>
      <g transform="translate(246.9284375 263.5984375)scale(0.1 -0.1)">
       <use xlink:href="#BitstreamVeraSans-Roman-30"/>
       <use x="63.623046875" xlink:href="#BitstreamVeraSans-Roman-2e"/>
       <use x="95.41015625" xlink:href="#BitstreamVeraSans-Roman-36"/>
      </g>
     </g>
    </g>
    <g id="xtick_5">
     <g id="line2d_24">
      <path clip-path="url(#pb54b6c58ad)" d="M 321.84 252 
L 321.84 28.8 
" style="fill:none;stroke:#000000;stroke-dasharray:1.000000,3.000000;stroke-dashoffset:0.0;stroke-width:0.5;"/>
     </g>
     <g id="line2d_25">
      <g>
       <use style="stroke:#000000;stroke-width:0.5;" x="321.84" xlink:href="#mf1879151c9" y="252.0"/>
      </g>
     </g>
     <g id="line2d_26">
      <g>
       <use style="stroke:#000000;stroke-width:0.5;" x="321.84" xlink:href="#mea593e3bf5" y="28.8"/>
      </g>
     </g>
     <g id="text_5">
      <!-- 0.8 -->
      <defs>
       <path d="M 31.78125 34.625 
Q 24.75 34.625 20.71875 30.859375 
Q 16.703125 27.09375 16.703125 20.515625 
Q 16.703125 13.921875 20.71875 10.15625 
Q 24.75 6.390625 31.78125 6.390625 
Q 38.8125 6.390625 42.859375 10.171875 
Q 46.921875 13.96875 46.921875 20.515625 
Q 46.921875 27.09375 42.890625 30.859375 
Q 38.875 34.625 31.78125 34.625 
M 21.921875 38.8125 
Q 15.578125 40.375 12.03125 44.71875 
Q 8.5 49.078125 8.5 55.328125 
Q 8.5 64.0625 14.71875 69.140625 
Q 20.953125 74.21875 31.78125 74.21875 
Q 42.671875 74.21875 48.875 69.140625 
Q 55.078125 64.0625 55.078125 55.328125 
Q 55.078125 49.078125 51.53125 44.71875 
Q 48 40.375 41.703125 38.8125 
Q 48.828125 37.15625 52.796875 32.3125 
Q 56.78125 27.484375 56.78125 20.515625 
Q 56.78125 9.90625 50.3125 4.234375 
Q 43.84375 -1.421875 31.78125 -1.421875 
Q 19.734375 -1.421875 13.25 4.234375 
Q 6.78125 9.90625 6.78125 20.515625 
Q 6.78125 27.484375 10.78125 32.3125 
Q 14.796875 37.15625 21.921875 38.8125 
M 18.3125 54.390625 
Q 18.3125 48.734375 21.84375 45.5625 
Q 25.390625 42.390625 31.78125 42.390625 
Q 38.140625 42.390625 41.71875 45.5625 
Q 45.3125 48.734375 45.3125 54.390625 
Q 45.3125 60.0625 41.71875 63.234375 
Q 38.140625 66.40625 31.78125 66.40625 
Q 25.390625 66.40625 21.84375 63.234375 
Q 18.3125 60.0625 18.3125 54.390625 
" id="BitstreamVeraSans-Roman-38"/>
      </defs>
      <g transform="translate(313.8884375 263.5984375)scale(0.1 -0.1)">
       <use xlink:href="#BitstreamVeraSans-Roman-30"/>
       <use x="63.623046875" xlink:href="#BitstreamVeraSans-Roman-2e"/>
       <use x="95.41015625" xlink:href="#BitstreamVeraSans-Roman-38"/>
      </g>
     </g>
    </g>
    <g id="xtick_6">
     <g id="line2d_27">
      <path clip-path="url(#pb54b6c58ad)" d="M 388.8 252 
L 388.8 28.8 
" style="fill:none;stroke:#000000;stroke-dasharray:1.000000,3.000000;stroke-dashoffset:0.0;stroke-width:0.5;"/>
     </g>
     <g id="line2d_28">
      <g>
       <use style="stroke:#000000;stroke-width:0.5;" x="388.8" xlink:href="#mf1879151c9" y="252.0"/>
      </g>
     </g>
     <g id="line2d_29">
      <g>
       <use style="stroke:#000000;stroke-width:0.5;" x="388.8" xlink:href="#mea593e3bf5" y="28.8"/>
      </g>
     </g>
     <g id="text_6">
      <!-- 1.0 -->
      <defs>
       <path d="M 12.40625 8.296875 
L 28.515625 8.296875 
L 28.515625 63.921875 
L 10.984375 60.40625 
L 10.984375 69.390625 
L 28.421875 72.90625 
L 38.28125 72.90625 
L 38.28125 8.296875 
L 54.390625 8.296875 
L 54.390625 0 
L 12.40625 0 
z
" id="BitstreamVeraSans-Roman-31"/>
      </defs>
      <g transform="translate(380.8484375 263.5984375)scale(0.1 -0.1)">
       <use xlink:href="#BitstreamVeraSans-Roman-31"/>
       <use x="63.623046875" xlink:href="#BitstreamVeraSans-Roman-2e"/>
       <use x="95.41015625" xlink:href="#BitstreamVeraSans-Roman-30"/>
      </g>
     </g>
    </g>
    <g id="text_7">
     <!-- Recall -->
     <defs>
      <path d="M 56.203125 29.59375 
L 56.203125 25.203125 
L 14.890625 25.203125 
Q 15.484375 15.921875 20.484375 11.0625 
Q 25.484375 6.203125 34.421875 6.203125 
Q 39.59375 6.203125 44.453125 7.46875 
Q 49.3125 8.734375 54.109375 11.28125 
L 54.109375 2.78125 
Q 49.265625 0.734375 44.1875 -0.34375 
Q 39.109375 -1.421875 33.890625 -1.421875 
Q 20.796875 -1.421875 13.15625 6.1875 
Q 5.515625 13.8125 5.515625 26.8125 
Q 5.515625 40.234375 12.765625 48.109375 
Q 20.015625 56 32.328125 56 
Q 43.359375 56 49.78125 48.890625 
Q 56.203125 41.796875 56.203125 29.59375 
M 47.21875 32.234375 
Q 47.125 39.59375 43.09375 43.984375 
Q 39.0625 48.390625 32.421875 48.390625 
Q 24.90625 48.390625 20.390625 44.140625 
Q 15.875 39.890625 15.1875 32.171875 
z
" id="BitstreamVeraSans-Roman-65"/>
      <path d="M 44.390625 34.1875 
Q 47.5625 33.109375 50.5625 29.59375 
Q 53.5625 26.078125 56.59375 19.921875 
L 66.609375 0 
L 56 0 
L 46.6875 18.703125 
Q 43.0625 26.03125 39.671875 28.421875 
Q 36.28125 30.8125 30.421875 30.8125 
L 19.671875 30.8125 
L 19.671875 0 
L 9.8125 0 
L 9.8125 72.90625 
L 32.078125 72.90625 
Q 44.578125 72.90625 50.734375 67.671875 
Q 56.890625 62.453125 56.890625 51.90625 
Q 56.890625 45.015625 53.6875 40.46875 
Q 50.484375 35.9375 44.390625 34.1875 
M 19.671875 64.796875 
L 19.671875 38.921875 
L 32.078125 38.921875 
Q 39.203125 38.921875 42.84375 42.21875 
Q 46.484375 45.515625 46.484375 51.90625 
Q 46.484375 58.296875 42.84375 61.546875 
Q 39.203125 64.796875 32.078125 64.796875 
z
" id="BitstreamVeraSans-Roman-52"/>
      <path d="M 34.28125 27.484375 
Q 23.390625 27.484375 19.1875 25 
Q 14.984375 22.515625 14.984375 16.5 
Q 14.984375 11.71875 18.140625 8.90625 
Q 21.296875 6.109375 26.703125 6.109375 
Q 34.1875 6.109375 38.703125 11.40625 
Q 43.21875 16.703125 43.21875 25.484375 
L 43.21875 27.484375 
z
M 52.203125 31.203125 
L 52.203125 0 
L 43.21875 0 
L 43.21875 8.296875 
Q 40.140625 3.328125 35.546875 0.953125 
Q 30.953125 -1.421875 24.3125 -1.421875 
Q 15.921875 -1.421875 10.953125 3.296875 
Q 6 8.015625 6 15.921875 
Q 6 25.140625 12.171875 29.828125 
Q 18.359375 34.515625 30.609375 34.515625 
L 43.21875 34.515625 
L 43.21875 35.40625 
Q 43.21875 41.609375 39.140625 45 
Q 35.0625 48.390625 27.6875 48.390625 
Q 23 48.390625 18.546875 47.265625 
Q 14.109375 46.140625 10.015625 43.890625 
L 10.015625 52.203125 
Q 14.9375 54.109375 19.578125 55.046875 
Q 24.21875 56 28.609375 56 
Q 40.484375 56 46.34375 49.84375 
Q 52.203125 43.703125 52.203125 31.203125 
" id="BitstreamVeraSans-Roman-61"/>
      <path d="M 9.421875 75.984375 
L 18.40625 75.984375 
L 18.40625 0 
L 9.421875 0 
z
" id="BitstreamVeraSans-Roman-6c"/>
      <path d="M 48.78125 52.59375 
L 48.78125 44.1875 
Q 44.96875 46.296875 41.140625 47.34375 
Q 37.3125 48.390625 33.40625 48.390625 
Q 24.65625 48.390625 19.8125 42.84375 
Q 14.984375 37.3125 14.984375 27.296875 
Q 14.984375 17.28125 19.8125 11.734375 
Q 24.65625 6.203125 33.40625 6.203125 
Q 37.3125 6.203125 41.140625 7.25 
Q 44.96875 8.296875 48.78125 10.40625 
L 48.78125 2.09375 
Q 45.015625 0.34375 40.984375 -0.53125 
Q 36.96875 -1.421875 32.421875 -1.421875 
Q 20.0625 -1.421875 12.78125 6.34375 
Q 5.515625 14.109375 5.515625 27.296875 
Q 5.515625 40.671875 12.859375 48.328125 
Q 20.21875 56 33.015625 56 
Q 37.15625 56 41.109375 55.140625 
Q 45.0625 54.296875 48.78125 52.59375 
" id="BitstreamVeraSans-Roman-63"/>
     </defs>
     <g transform="translate(206.2609375 278.2765625)scale(0.1 -0.1)">
      <use xlink:href="#BitstreamVeraSans-Roman-52"/>
      <use x="69.419921875" xlink:href="#BitstreamVeraSans-Roman-65"/>
      <use x="130.943359375" xlink:href="#BitstreamVeraSans-Roman-63"/>
      <use x="185.923828125" xlink:href="#BitstreamVeraSans-Roman-61"/>
      <use x="247.203125" xlink:href="#BitstreamVeraSans-Roman-6c"/>
      <use x="274.986328125" xlink:href="#BitstreamVeraSans-Roman-6c"/>
     </g>
    </g>
   </g>
   <g id="matplotlib.axis_2">
    <g id="ytick_1">
     <g id="line2d_30">
      <path clip-path="url(#pb54b6c58ad)" d="M 54 252 
L 388.8 252 
" style="fill:none;stroke:#000000;stroke-dasharray:1.000000,3.000000;stroke-dashoffset:0.0;stroke-width:0.5;"/>
     </g>
     <g id="line2d_31">
      <defs>
       <path d="M 0 0 
L 4 0 
" id="mc38c65619a" style="stroke:#000000;stroke-width:0.5;"/>
      </defs>
      <g>
       <use style="stroke:#000000;stroke-width:0.5;" x="54.0" xlink:href="#mc38c65619a" y="252.0"/>
      </g>
     </g>
     <g id="line2d_32">
      <defs>
       <path d="M 0 0 
L -4 0 
" id="mba5c02aad9" style="stroke:#000000;stroke-width:0.5;"/>
      </defs>
      <g>
       <use style="stroke:#000000;stroke-width:0.5;" x="388.8" xlink:href="#mba5c02aad9" y="252.0"/>
      </g>
     </g>
     <g id="text_8">
      <!-- 0.0 -->
      <g transform="translate(34.096875 254.759375)scale(0.1 -0.1)">
       <use xlink:href="#BitstreamVeraSans-Roman-30"/>
       <use x="63.623046875" xlink:href="#BitstreamVeraSans-Roman-2e"/>
       <use x="95.41015625" xlink:href="#BitstreamVeraSans-Roman-30"/>
      </g>
     </g>
    </g>
    <g id="ytick_2">
     <g id="line2d_33">
      <path clip-path="url(#pb54b6c58ad)" d="M 54 207.36 
L 388.8 207.36 
" style="fill:none;stroke:#000000;stroke-dasharray:1.000000,3.000000;stroke-dashoffset:0.0;stroke-width:0.5;"/>
     </g>
     <g id="line2d_34">
      <g>
       <use style="stroke:#000000;stroke-width:0.5;" x="54.0" xlink:href="#mc38c65619a" y="207.36"/>
      </g>
     </g>
     <g id="line2d_35">
      <g>
       <use style="stroke:#000000;stroke-width:0.5;" x="388.8" xlink:href="#mba5c02aad9" y="207.36"/>
      </g>
     </g>
     <g id="text_9">
      <!-- 0.2 -->
      <g transform="translate(34.096875 210.119375)scale(0.1 -0.1)">
       <use xlink:href="#BitstreamVeraSans-Roman-30"/>
       <use x="63.623046875" xlink:href="#BitstreamVeraSans-Roman-2e"/>
       <use x="95.41015625" xlink:href="#BitstreamVeraSans-Roman-32"/>
      </g>
     </g>
    </g>
    <g id="ytick_3">
     <g id="line2d_36">
      <path clip-path="url(#pb54b6c58ad)" d="M 54 162.72 
L 388.8 162.72 
" style="fill:none;stroke:#000000;stroke-dasharray:1.000000,3.000000;stroke-dashoffset:0.0;stroke-width:0.5;"/>
     </g>
     <g id="line2d_37">
      <g>
       <use style="stroke:#000000;stroke-width:0.5;" x="54.0" xlink:href="#mc38c65619a" y="162.72"/>
      </g>
     </g>
     <g id="line2d_38">
      <g>
       <use style="stroke:#000000;stroke-width:0.5;" x="388.8" xlink:href="#mba5c02aad9" y="162.72"/>
      </g>
     </g>
     <g id="text_10">
      <!-- 0.4 -->
      <g transform="translate(34.096875 165.479375)scale(0.1 -0.1)">
       <use xlink:href="#BitstreamVeraSans-Roman-30"/>
       <use x="63.623046875" xlink:href="#BitstreamVeraSans-Roman-2e"/>
       <use x="95.41015625" xlink:href="#BitstreamVeraSans-Roman-34"/>
      </g>
     </g>
    </g>
    <g id="ytick_4">
     <g id="line2d_39">
      <path clip-path="url(#pb54b6c58ad)" d="M 54 118.08 
L 388.8 118.08 
" style="fill:none;stroke:#000000;stroke-dasharray:1.000000,3.000000;stroke-dashoffset:0.0;stroke-width:0.5;"/>
     </g>
     <g id="line2d_40">
      <g>
       <use style="stroke:#000000;stroke-width:0.5;" x="54.0" xlink:href="#mc38c65619a" y="118.08"/>
      </g>
     </g>
     <g id="line2d_41">
      <g>
       <use style="stroke:#000000;stroke-width:0.5;" x="388.8" xlink:href="#mba5c02aad9" y="118.08"/>
      </g>
     </g>
     <g id="text_11">
      <!-- 0.6 -->
      <g transform="translate(34.096875 120.839375)scale(0.1 -0.1)">
       <use xlink:href="#BitstreamVeraSans-Roman-30"/>
       <use x="63.623046875" xlink:href="#BitstreamVeraSans-Roman-2e"/>
       <use x="95.41015625" xlink:href="#BitstreamVeraSans-Roman-36"/>
      </g>
     </g>
    </g>
    <g id="ytick_5">
     <g id="line2d_42">
      <path clip-path="url(#pb54b6c58ad)" d="M 54 73.44 
L 388.8 73.44 
" style="fill:none;stroke:#000000;stroke-dasharray:1.000000,3.000000;stroke-dashoffset:0.0;stroke-width:0.5;"/>
     </g>
     <g id="line2d_43">
      <g>
       <use style="stroke:#000000;stroke-width:0.5;" x="54.0" xlink:href="#mc38c65619a" y="73.44"/>
      </g>
     </g>
     <g id="line2d_44">
      <g>
       <use style="stroke:#000000;stroke-width:0.5;" x="388.8" xlink:href="#mba5c02aad9" y="73.44"/>
      </g>
     </g>
     <g id="text_12">
      <!-- 0.8 -->
      <g transform="translate(34.096875 76.199375)scale(0.1 -0.1)">
       <use xlink:href="#BitstreamVeraSans-Roman-30"/>
       <use x="63.623046875" xlink:href="#BitstreamVeraSans-Roman-2e"/>
       <use x="95.41015625" xlink:href="#BitstreamVeraSans-Roman-38"/>
      </g>
     </g>
    </g>
    <g id="ytick_6">
     <g id="line2d_45">
      <path clip-path="url(#pb54b6c58ad)" d="M 54 28.8 
L 388.8 28.8 
" style="fill:none;stroke:#000000;stroke-dasharray:1.000000,3.000000;stroke-dashoffset:0.0;stroke-width:0.5;"/>
     </g>
     <g id="line2d_46">
      <g>
       <use style="stroke:#000000;stroke-width:0.5;" x="54.0" xlink:href="#mc38c65619a" y="28.8"/>
      </g>
     </g>
     <g id="line2d_47">
      <g>
       <use style="stroke:#000000;stroke-width:0.5;" x="388.8" xlink:href="#mba5c02aad9" y="28.8"/>
      </g>
     </g>
     <g id="text_13">
      <!-- 1.0 -->
      <g transform="translate(34.096875 31.559375)scale(0.1 -0.1)">
       <use xlink:href="#BitstreamVeraSans-Roman-31"/>
       <use x="63.623046875" xlink:href="#BitstreamVeraSans-Roman-2e"/>
       <use x="95.41015625" xlink:href="#BitstreamVeraSans-Roman-30"/>
      </g>
     </g>
    </g>
    <g id="text_14">
     <!-- Precision -->
     <defs>
      <path d="M 54.890625 33.015625 
L 54.890625 0 
L 45.90625 0 
L 45.90625 32.71875 
Q 45.90625 40.484375 42.875 44.328125 
Q 39.84375 48.1875 33.796875 48.1875 
Q 26.515625 48.1875 22.3125 43.546875 
Q 18.109375 38.921875 18.109375 30.90625 
L 18.109375 0 
L 9.078125 0 
L 9.078125 54.6875 
L 18.109375 54.6875 
L 18.109375 46.1875 
Q 21.34375 51.125 25.703125 53.5625 
Q 30.078125 56 35.796875 56 
Q 45.21875 56 50.046875 50.171875 
Q 54.890625 44.34375 54.890625 33.015625 
" id="BitstreamVeraSans-Roman-6e"/>
      <path d="M 30.609375 48.390625 
Q 23.390625 48.390625 19.1875 42.75 
Q 14.984375 37.109375 14.984375 27.296875 
Q 14.984375 17.484375 19.15625 11.84375 
Q 23.34375 6.203125 30.609375 6.203125 
Q 37.796875 6.203125 41.984375 11.859375 
Q 46.1875 17.53125 46.1875 27.296875 
Q 46.1875 37.015625 41.984375 42.703125 
Q 37.796875 48.390625 30.609375 48.390625 
M 30.609375 56 
Q 42.328125 56 49.015625 48.375 
Q 55.71875 40.765625 55.71875 27.296875 
Q 55.71875 13.875 49.015625 6.21875 
Q 42.328125 -1.421875 30.609375 -1.421875 
Q 18.84375 -1.421875 12.171875 6.21875 
Q 5.515625 13.875 5.515625 27.296875 
Q 5.515625 40.765625 12.171875 48.375 
Q 18.84375 56 30.609375 56 
" id="BitstreamVeraSans-Roman-6f"/>
      <path d="M 19.671875 64.796875 
L 19.671875 37.40625 
L 32.078125 37.40625 
Q 38.96875 37.40625 42.71875 40.96875 
Q 46.484375 44.53125 46.484375 51.125 
Q 46.484375 57.671875 42.71875 61.234375 
Q 38.96875 64.796875 32.078125 64.796875 
z
M 9.8125 72.90625 
L 32.078125 72.90625 
Q 44.34375 72.90625 50.609375 67.359375 
Q 56.890625 61.8125 56.890625 51.125 
Q 56.890625 40.328125 50.609375 34.8125 
Q 44.34375 29.296875 32.078125 29.296875 
L 19.671875 29.296875 
L 19.671875 0 
L 9.8125 0 
z
" id="BitstreamVeraSans-Roman-50"/>
      <path d="M 9.421875 54.6875 
L 18.40625 54.6875 
L 18.40625 0 
L 9.421875 0 
z
M 9.421875 75.984375 
L 18.40625 75.984375 
L 18.40625 64.59375 
L 9.421875 64.59375 
z
" id="BitstreamVeraSans-Roman-69"/>
      <path d="M 41.109375 46.296875 
Q 39.59375 47.171875 37.8125 47.578125 
Q 36.03125 48 33.890625 48 
Q 26.265625 48 22.1875 43.046875 
Q 18.109375 38.09375 18.109375 28.8125 
L 18.109375 0 
L 9.078125 0 
L 9.078125 54.6875 
L 18.109375 54.6875 
L 18.109375 46.1875 
Q 20.953125 51.171875 25.484375 53.578125 
Q 30.03125 56 36.53125 56 
Q 37.453125 56 38.578125 55.875 
Q 39.703125 55.765625 41.0625 55.515625 
z
" id="BitstreamVeraSans-Roman-72"/>
      <path d="M 44.28125 53.078125 
L 44.28125 44.578125 
Q 40.484375 46.53125 36.375 47.5 
Q 32.28125 48.484375 27.875 48.484375 
Q 21.1875 48.484375 17.84375 46.4375 
Q 14.5 44.390625 14.5 40.28125 
Q 14.5 37.15625 16.890625 35.375 
Q 19.28125 33.59375 26.515625 31.984375 
L 29.59375 31.296875 
Q 39.15625 29.25 43.1875 25.515625 
Q 47.21875 21.78125 47.21875 15.09375 
Q 47.21875 7.46875 41.1875 3.015625 
Q 35.15625 -1.421875 24.609375 -1.421875 
Q 20.21875 -1.421875 15.453125 -0.5625 
Q 10.6875 0.296875 5.421875 2 
L 5.421875 11.28125 
Q 10.40625 8.6875 15.234375 7.390625 
Q 20.0625 6.109375 24.8125 6.109375 
Q 31.15625 6.109375 34.5625 8.28125 
Q 37.984375 10.453125 37.984375 14.40625 
Q 37.984375 18.0625 35.515625 20.015625 
Q 33.0625 21.96875 24.703125 23.78125 
L 21.578125 24.515625 
Q 13.234375 26.265625 9.515625 29.90625 
Q 5.8125 33.546875 5.8125 39.890625 
Q 5.8125 47.609375 11.28125 51.796875 
Q 16.75 56 26.8125 56 
Q 31.78125 56 36.171875 55.265625 
Q 40.578125 54.546875 44.28125 53.078125 
" id="BitstreamVeraSans-Roman-73"/>
     </defs>
     <g transform="translate(27.0171875 162.9046875)rotate(-90.0)scale(0.1 -0.1)">
      <use xlink:href="#BitstreamVeraSans-Roman-50"/>
      <use x="60.287109375" xlink:href="#BitstreamVeraSans-Roman-72"/>
      <use x="101.369140625" xlink:href="#BitstreamVeraSans-Roman-65"/>
      <use x="162.892578125" xlink:href="#BitstreamVeraSans-Roman-63"/>
      <use x="217.873046875" xlink:href="#BitstreamVeraSans-Roman-69"/>
      <use x="245.65625" xlink:href="#BitstreamVeraSans-Roman-73"/>
      <use x="297.755859375" xlink:href="#BitstreamVeraSans-Roman-69"/>
      <use x="325.5390625" xlink:href="#BitstreamVeraSans-Roman-6f"/>
      <use x="386.720703125" xlink:href="#BitstreamVeraSans-Roman-6e"/>
     </g>
    </g>
   </g>
   <g id="text_15">
    <!-- Avg of 11 line's AUC=0.86 -->
    <defs>
     <path id="BitstreamVeraSans-Roman-20"/>
     <path d="M 10.59375 45.40625 
L 73.1875 45.40625 
L 73.1875 37.203125 
L 10.59375 37.203125 
z
M 10.59375 25.484375 
L 73.1875 25.484375 
L 73.1875 17.1875 
L 10.59375 17.1875 
z
" id="BitstreamVeraSans-Roman-3d"/>
     <path d="M 17.921875 72.90625 
L 17.921875 45.796875 
L 9.625 45.796875 
L 9.625 72.90625 
z
" id="BitstreamVeraSans-Roman-27"/>
     <path d="M 64.40625 67.28125 
L 64.40625 56.890625 
Q 59.421875 61.53125 53.78125 63.8125 
Q 48.140625 66.109375 41.796875 66.109375 
Q 29.296875 66.109375 22.65625 58.46875 
Q 16.015625 50.828125 16.015625 36.375 
Q 16.015625 21.96875 22.65625 14.328125 
Q 29.296875 6.6875 41.796875 6.6875 
Q 48.140625 6.6875 53.78125 8.984375 
Q 59.421875 11.28125 64.40625 15.921875 
L 64.40625 5.609375 
Q 59.234375 2.09375 53.4375 0.328125 
Q 47.65625 -1.421875 41.21875 -1.421875 
Q 24.65625 -1.421875 15.125 8.703125 
Q 5.609375 18.84375 5.609375 36.375 
Q 5.609375 53.953125 15.125 64.078125 
Q 24.65625 74.21875 41.21875 74.21875 
Q 47.75 74.21875 53.53125 72.484375 
Q 59.328125 70.75 64.40625 67.28125 
" id="BitstreamVeraSans-Roman-43"/>
     <path d="M 8.6875 72.90625 
L 18.609375 72.90625 
L 18.609375 28.609375 
Q 18.609375 16.890625 22.84375 11.734375 
Q 27.09375 6.59375 36.625 6.59375 
Q 46.09375 6.59375 50.34375 11.734375 
Q 54.59375 16.890625 54.59375 28.609375 
L 54.59375 72.90625 
L 64.5 72.90625 
L 64.5 27.390625 
Q 64.5 13.140625 57.4375 5.859375 
Q 50.390625 -1.421875 36.625 -1.421875 
Q 22.796875 -1.421875 15.734375 5.859375 
Q 8.6875 13.140625 8.6875 27.390625 
z
" id="BitstreamVeraSans-Roman-55"/>
     <path d="M 34.1875 63.1875 
L 20.796875 26.90625 
L 47.609375 26.90625 
z
M 28.609375 72.90625 
L 39.796875 72.90625 
L 67.578125 0 
L 57.328125 0 
L 50.6875 18.703125 
L 17.828125 18.703125 
L 11.1875 0 
L 0.78125 0 
z
" id="BitstreamVeraSans-Roman-41"/>
     <path d="M 2.984375 54.6875 
L 12.5 54.6875 
L 29.59375 8.796875 
L 46.6875 54.6875 
L 56.203125 54.6875 
L 35.6875 0 
L 23.484375 0 
z
" id="BitstreamVeraSans-Roman-76"/>
     <path d="M 45.40625 27.984375 
Q 45.40625 37.75 41.375 43.109375 
Q 37.359375 48.484375 30.078125 48.484375 
Q 22.859375 48.484375 18.828125 43.109375 
Q 14.796875 37.75 14.796875 27.984375 
Q 14.796875 18.265625 18.828125 12.890625 
Q 22.859375 7.515625 30.078125 7.515625 
Q 37.359375 7.515625 41.375 12.890625 
Q 45.40625 18.265625 45.40625 27.984375 
M 54.390625 6.78125 
Q 54.390625 -7.171875 48.1875 -13.984375 
Q 42 -20.796875 29.203125 -20.796875 
Q 24.46875 -20.796875 20.265625 -20.09375 
Q 16.0625 -19.390625 12.109375 -17.921875 
L 12.109375 -9.1875 
Q 16.0625 -11.328125 19.921875 -12.34375 
Q 23.78125 -13.375 27.78125 -13.375 
Q 36.625 -13.375 41.015625 -8.765625 
Q 45.40625 -4.15625 45.40625 5.171875 
L 45.40625 9.625 
Q 42.625 4.78125 38.28125 2.390625 
Q 33.9375 0 27.875 0 
Q 17.828125 0 11.671875 7.65625 
Q 5.515625 15.328125 5.515625 27.984375 
Q 5.515625 40.671875 11.671875 48.328125 
Q 17.828125 56 27.875 56 
Q 33.9375 56 38.28125 53.609375 
Q 42.625 51.21875 45.40625 46.390625 
L 45.40625 54.6875 
L 54.390625 54.6875 
z
" id="BitstreamVeraSans-Roman-67"/>
     <path d="M 37.109375 75.984375 
L 37.109375 68.5 
L 28.515625 68.5 
Q 23.6875 68.5 21.796875 66.546875 
Q 19.921875 64.59375 19.921875 59.515625 
L 19.921875 54.6875 
L 34.71875 54.6875 
L 34.71875 47.703125 
L 19.921875 47.703125 
L 19.921875 0 
L 10.890625 0 
L 10.890625 47.703125 
L 2.296875 47.703125 
L 2.296875 54.6875 
L 10.890625 54.6875 
L 10.890625 58.5 
Q 10.890625 67.625 15.140625 71.796875 
Q 19.390625 75.984375 28.609375 75.984375 
z
" id="BitstreamVeraSans-Roman-66"/>
    </defs>
    <g transform="translate(142.21875 23.8)scale(0.12 -0.12)">
     <use xlink:href="#BitstreamVeraSans-Roman-41"/>
     <use x="68.330078125" xlink:href="#BitstreamVeraSans-Roman-76"/>
     <use x="127.509765625" xlink:href="#BitstreamVeraSans-Roman-67"/>
     <use x="190.986328125" xlink:href="#BitstreamVeraSans-Roman-20"/>
     <use x="222.7734375" xlink:href="#BitstreamVeraSans-Roman-6f"/>
     <use x="283.955078125" xlink:href="#BitstreamVeraSans-Roman-66"/>
     <use x="319.16015625" xlink:href="#BitstreamVeraSans-Roman-20"/>
     <use x="350.947265625" xlink:href="#BitstreamVeraSans-Roman-31"/>
     <use x="414.5703125" xlink:href="#BitstreamVeraSans-Roman-31"/>
     <use x="478.193359375" xlink:href="#BitstreamVeraSans-Roman-20"/>
     <use x="509.98046875" xlink:href="#BitstreamVeraSans-Roman-6c"/>
     <use x="537.763671875" xlink:href="#BitstreamVeraSans-Roman-69"/>
     <use x="565.546875" xlink:href="#BitstreamVeraSans-Roman-6e"/>
     <use x="628.92578125" xlink:href="#BitstreamVeraSans-Roman-65"/>
     <use x="690.44921875" xlink:href="#BitstreamVeraSans-Roman-27"/>
     <use x="717.939453125" xlink:href="#BitstreamVeraSans-Roman-73"/>
     <use x="770.0390625" xlink:href="#BitstreamVeraSans-Roman-20"/>
     <use x="801.826171875" xlink:href="#BitstreamVeraSans-Roman-41"/>
     <use x="870.234375" xlink:href="#BitstreamVeraSans-Roman-55"/>
     <use x="943.427734375" xlink:href="#BitstreamVeraSans-Roman-43"/>
     <use x="1013.25195312" xlink:href="#BitstreamVeraSans-Roman-3d"/>
     <use x="1097.04101562" xlink:href="#BitstreamVeraSans-Roman-30"/>
     <use x="1160.6640625" xlink:href="#BitstreamVeraSans-Roman-2e"/>
     <use x="1192.45117188" xlink:href="#BitstreamVeraSans-Roman-38"/>
     <use x="1256.07421875" xlink:href="#BitstreamVeraSans-Roman-36"/>
    </g>
   </g>
   <g id="legend_1">
    <g id="patch_7">
     <path d="M 54 252 
L 321.84 252 
L 321.84 177.945 
L 54 177.945 
z
" style="fill:#ffffff;stroke:#000000;stroke-linejoin:miter;"/>
    </g>
    <g id="line2d_48">
     <path d="M 62.4 187.663125 
L 79.2 187.663125 
" style="fill:none;stroke:#ff0000;stroke-linecap:square;"/>
    </g>
    <g id="line2d_49"/>
    <g id="text_16">
     <!-- MY1 -->
     <defs>
      <path d="M -0.203125 72.90625 
L 10.40625 72.90625 
L 30.609375 42.921875 
L 50.6875 72.90625 
L 61.28125 72.90625 
L 35.5 34.71875 
L 35.5 0 
L 25.59375 0 
L 25.59375 34.71875 
z
" id="BitstreamVeraSans-Roman-59"/>
      <path d="M 9.8125 72.90625 
L 24.515625 72.90625 
L 43.109375 23.296875 
L 61.8125 72.90625 
L 76.515625 72.90625 
L 76.515625 0 
L 66.890625 0 
L 66.890625 64.015625 
L 48.09375 14.015625 
L 38.1875 14.015625 
L 19.390625 64.015625 
L 19.390625 0 
L 9.8125 0 
z
" id="BitstreamVeraSans-Roman-4d"/>
     </defs>
     <g transform="translate(92.4 191.863125)scale(0.12 -0.12)">
      <use xlink:href="#BitstreamVeraSans-Roman-4d"/>
      <use x="86.279296875" xlink:href="#BitstreamVeraSans-Roman-59"/>
      <use x="147.36328125" xlink:href="#BitstreamVeraSans-Roman-31"/>
     </g>
    </g>
    <g id="line2d_50">
     <path d="M 62.4 205.276875 
L 79.2 205.276875 
" style="fill:none;stroke:#0000ff;stroke-linecap:square;"/>
    </g>
    <g id="line2d_51"/>
    <g id="text_17">
     <!-- MY2 -->
     <g transform="translate(92.4 209.476875)scale(0.12 -0.12)">
      <use xlink:href="#BitstreamVeraSans-Roman-4d"/>
      <use x="86.279296875" xlink:href="#BitstreamVeraSans-Roman-59"/>
      <use x="147.36328125" xlink:href="#BitstreamVeraSans-Roman-32"/>
     </g>
    </g>
    <g id="line2d_52">
     <path d="M 62.4 222.890625 
L 79.2 222.890625 
" style="fill:none;stroke:#000000;stroke-linecap:square;"/>
    </g>
    <g id="line2d_53"/>
    <g id="text_18">
     <!-- MY3 -->
     <defs>
      <path d="M 40.578125 39.3125 
Q 47.65625 37.796875 51.625 33 
Q 55.609375 28.21875 55.609375 21.1875 
Q 55.609375 10.40625 48.1875 4.484375 
Q 40.765625 -1.421875 27.09375 -1.421875 
Q 22.515625 -1.421875 17.65625 -0.515625 
Q 12.796875 0.390625 7.625 2.203125 
L 7.625 11.71875 
Q 11.71875 9.328125 16.59375 8.109375 
Q 21.484375 6.890625 26.8125 6.890625 
Q 36.078125 6.890625 40.9375 10.546875 
Q 45.796875 14.203125 45.796875 21.1875 
Q 45.796875 27.640625 41.28125 31.265625 
Q 36.765625 34.90625 28.71875 34.90625 
L 20.21875 34.90625 
L 20.21875 43.015625 
L 29.109375 43.015625 
Q 36.375 43.015625 40.234375 45.921875 
Q 44.09375 48.828125 44.09375 54.296875 
Q 44.09375 59.90625 40.109375 62.90625 
Q 36.140625 65.921875 28.71875 65.921875 
Q 24.65625 65.921875 20.015625 65.03125 
Q 15.375 64.15625 9.8125 62.3125 
L 9.8125 71.09375 
Q 15.4375 72.65625 20.34375 73.4375 
Q 25.25 74.21875 29.59375 74.21875 
Q 40.828125 74.21875 47.359375 69.109375 
Q 53.90625 64.015625 53.90625 55.328125 
Q 53.90625 49.265625 50.4375 45.09375 
Q 46.96875 40.921875 40.578125 39.3125 
" id="BitstreamVeraSans-Roman-33"/>
     </defs>
     <g transform="translate(92.4 227.090625)scale(0.12 -0.12)">
      <use xlink:href="#BitstreamVeraSans-Roman-4d"/>
      <use x="86.279296875" xlink:href="#BitstreamVeraSans-Roman-59"/>
      <use x="147.36328125" xlink:href="#BitstreamVeraSans-Roman-33"/>
     </g>
    </g>
    <g id="line2d_54">
     <path d="M 62.4 240.504375 
L 79.2 240.504375 
" style="fill:none;stroke:#008000;stroke-linecap:square;"/>
    </g>
    <g id="line2d_55"/>
    <g id="text_19">
     <!-- MY4 -->
     <g transform="translate(92.4 244.704375)scale(0.12 -0.12)">
      <use xlink:href="#BitstreamVeraSans-Roman-4d"/>
      <use x="86.279296875" xlink:href="#BitstreamVeraSans-Roman-59"/>
      <use x="147.36328125" xlink:href="#BitstreamVeraSans-Roman-34"/>
     </g>
    </g>
    <g id="line2d_56">
     <path d="M 152.849062 187.663125 
L 169.649062 187.663125 
" style="fill:none;stroke:#00bfbf;stroke-linecap:square;"/>
    </g>
    <g id="line2d_57"/>
    <g id="text_20">
     <!-- MY5 -->
     <defs>
      <path d="M 10.796875 72.90625 
L 49.515625 72.90625 
L 49.515625 64.59375 
L 19.828125 64.59375 
L 19.828125 46.734375 
Q 21.96875 47.46875 24.109375 47.828125 
Q 26.265625 48.1875 28.421875 48.1875 
Q 40.625 48.1875 47.75 41.5 
Q 54.890625 34.8125 54.890625 23.390625 
Q 54.890625 11.625 47.5625 5.09375 
Q 40.234375 -1.421875 26.90625 -1.421875 
Q 22.3125 -1.421875 17.546875 -0.640625 
Q 12.796875 0.140625 7.71875 1.703125 
L 7.71875 11.625 
Q 12.109375 9.234375 16.796875 8.0625 
Q 21.484375 6.890625 26.703125 6.890625 
Q 35.15625 6.890625 40.078125 11.328125 
Q 45.015625 15.765625 45.015625 23.390625 
Q 45.015625 31 40.078125 35.4375 
Q 35.15625 39.890625 26.703125 39.890625 
Q 22.75 39.890625 18.8125 39.015625 
Q 14.890625 38.140625 10.796875 36.28125 
z
" id="BitstreamVeraSans-Roman-35"/>
     </defs>
     <g transform="translate(182.8490625 191.863125)scale(0.12 -0.12)">
      <use xlink:href="#BitstreamVeraSans-Roman-4d"/>
      <use x="86.279296875" xlink:href="#BitstreamVeraSans-Roman-59"/>
      <use x="147.36328125" xlink:href="#BitstreamVeraSans-Roman-35"/>
     </g>
    </g>
    <g id="line2d_58">
     <path d="M 152.849062 205.276875 
L 169.649062 205.276875 
" style="fill:none;stroke:#bfbf00;stroke-linecap:square;"/>
    </g>
    <g id="line2d_59"/>
    <g id="text_21">
     <!-- ME1 -->
     <defs>
      <path d="M 9.8125 72.90625 
L 55.90625 72.90625 
L 55.90625 64.59375 
L 19.671875 64.59375 
L 19.671875 43.015625 
L 54.390625 43.015625 
L 54.390625 34.71875 
L 19.671875 34.71875 
L 19.671875 8.296875 
L 56.78125 8.296875 
L 56.78125 0 
L 9.8125 0 
z
" id="BitstreamVeraSans-Roman-45"/>
     </defs>
     <g transform="translate(182.8490625 209.476875)scale(0.12 -0.12)">
      <use xlink:href="#BitstreamVeraSans-Roman-4d"/>
      <use x="86.279296875" xlink:href="#BitstreamVeraSans-Roman-45"/>
      <use x="149.462890625" xlink:href="#BitstreamVeraSans-Roman-31"/>
     </g>
    </g>
    <g id="line2d_60">
     <path d="M 152.849062 222.890625 
L 169.649062 222.890625 
" style="fill:none;stroke:#bf00bf;stroke-linecap:square;"/>
    </g>
    <g id="line2d_61"/>
    <g id="text_22">
     <!-- ME2 -->
     <g transform="translate(182.8490625 227.090625)scale(0.12 -0.12)">
      <use xlink:href="#BitstreamVeraSans-Roman-4d"/>
      <use x="86.279296875" xlink:href="#BitstreamVeraSans-Roman-45"/>
      <use x="149.462890625" xlink:href="#BitstreamVeraSans-Roman-32"/>
     </g>
    </g>
    <g id="line2d_62">
     <path d="M 152.849062 240.504375 
L 169.649062 240.504375 
" style="fill:none;stroke:#ff0000;stroke-dasharray:6.000000,6.000000;stroke-dashoffset:0.0;"/>
    </g>
    <g id="line2d_63"/>
    <g id="text_23">
     <!-- MEAN -->
     <defs>
      <path d="M 9.8125 72.90625 
L 23.09375 72.90625 
L 55.421875 11.921875 
L 55.421875 72.90625 
L 64.984375 72.90625 
L 64.984375 0 
L 51.703125 0 
L 19.390625 60.984375 
L 19.390625 0 
L 9.8125 0 
z
" id="BitstreamVeraSans-Roman-4e"/>
     </defs>
     <g transform="translate(182.8490625 244.704375)scale(0.12 -0.12)">
      <use xlink:href="#BitstreamVeraSans-Roman-4d"/>
      <use x="86.279296875" xlink:href="#BitstreamVeraSans-Roman-45"/>
      <use x="149.462890625" xlink:href="#BitstreamVeraSans-Roman-41"/>
      <use x="217.87109375" xlink:href="#BitstreamVeraSans-Roman-4e"/>
     </g>
    </g>
    <g id="line2d_64">
     <path d="M 253.1025 187.663125 
L 269.9025 187.663125 
" style="fill:none;stroke:#0000ff;stroke-dasharray:6.000000,6.000000;stroke-dashoffset:0.0;"/>
    </g>
    <g id="line2d_65"/>
    <g id="text_24">
     <!-- DRFI -->
     <defs>
      <path d="M 9.8125 72.90625 
L 51.703125 72.90625 
L 51.703125 64.59375 
L 19.671875 64.59375 
L 19.671875 43.109375 
L 48.578125 43.109375 
L 48.578125 34.8125 
L 19.671875 34.8125 
L 19.671875 0 
L 9.8125 0 
z
" id="BitstreamVeraSans-Roman-46"/>
      <path d="M 19.671875 64.796875 
L 19.671875 8.109375 
L 31.59375 8.109375 
Q 46.6875 8.109375 53.6875 14.9375 
Q 60.6875 21.78125 60.6875 36.53125 
Q 60.6875 51.171875 53.6875 57.984375 
Q 46.6875 64.796875 31.59375 64.796875 
z
M 9.8125 72.90625 
L 30.078125 72.90625 
Q 51.265625 72.90625 61.171875 64.09375 
Q 71.09375 55.28125 71.09375 36.53125 
Q 71.09375 17.671875 61.125 8.828125 
Q 51.171875 0 30.078125 0 
L 9.8125 0 
z
" id="BitstreamVeraSans-Roman-44"/>
      <path d="M 9.8125 72.90625 
L 19.671875 72.90625 
L 19.671875 0 
L 9.8125 0 
z
" id="BitstreamVeraSans-Roman-49"/>
     </defs>
     <g transform="translate(283.1025 191.863125)scale(0.12 -0.12)">
      <use xlink:href="#BitstreamVeraSans-Roman-44"/>
      <use x="77.001953125" xlink:href="#BitstreamVeraSans-Roman-52"/>
      <use x="146.484375" xlink:href="#BitstreamVeraSans-Roman-46"/>
      <use x="204.00390625" xlink:href="#BitstreamVeraSans-Roman-49"/>
     </g>
    </g>
    <g id="line2d_66">
     <path d="M 253.1025 205.276875 
L 269.9025 205.276875 
" style="fill:none;stroke:#000000;stroke-dasharray:6.000000,6.000000;stroke-dashoffset:0.0;"/>
    </g>
    <g id="line2d_67"/>
    <g id="text_25">
     <!-- GMR -->
     <defs>
      <path d="M 59.515625 10.40625 
L 59.515625 29.984375 
L 43.40625 29.984375 
L 43.40625 38.09375 
L 69.28125 38.09375 
L 69.28125 6.78125 
Q 63.578125 2.734375 56.6875 0.65625 
Q 49.8125 -1.421875 42 -1.421875 
Q 24.90625 -1.421875 15.25 8.5625 
Q 5.609375 18.5625 5.609375 36.375 
Q 5.609375 54.25 15.25 64.234375 
Q 24.90625 74.21875 42 74.21875 
Q 49.125 74.21875 55.546875 72.453125 
Q 61.96875 70.703125 67.390625 67.28125 
L 67.390625 56.78125 
Q 61.921875 61.421875 55.765625 63.765625 
Q 49.609375 66.109375 42.828125 66.109375 
Q 29.4375 66.109375 22.71875 58.640625 
Q 16.015625 51.171875 16.015625 36.375 
Q 16.015625 21.625 22.71875 14.15625 
Q 29.4375 6.6875 42.828125 6.6875 
Q 48.046875 6.6875 52.140625 7.59375 
Q 56.25 8.5 59.515625 10.40625 
" id="BitstreamVeraSans-Roman-47"/>
     </defs>
     <g transform="translate(283.1025 209.476875)scale(0.12 -0.12)">
      <use xlink:href="#BitstreamVeraSans-Roman-47"/>
      <use x="77.490234375" xlink:href="#BitstreamVeraSans-Roman-4d"/>
      <use x="163.76953125" xlink:href="#BitstreamVeraSans-Roman-52"/>
     </g>
    </g>
    <g id="line2d_68">
     <path d="M 253.1025 222.890625 
L 269.9025 222.890625 
" style="fill:none;stroke:#008000;stroke-dasharray:6.000000,6.000000;stroke-dashoffset:0.0;"/>
    </g>
    <g id="line2d_69"/>
    <g id="text_26">
     <!-- QCUT -->
     <defs>
      <path d="M 39.40625 66.21875 
Q 28.65625 66.21875 22.328125 58.203125 
Q 16.015625 50.203125 16.015625 36.375 
Q 16.015625 22.609375 22.328125 14.59375 
Q 28.65625 6.59375 39.40625 6.59375 
Q 50.140625 6.59375 56.421875 14.59375 
Q 62.703125 22.609375 62.703125 36.375 
Q 62.703125 50.203125 56.421875 58.203125 
Q 50.140625 66.21875 39.40625 66.21875 
M 53.21875 1.3125 
L 66.21875 -12.890625 
L 54.296875 -12.890625 
L 43.5 -1.21875 
Q 41.890625 -1.3125 41.03125 -1.359375 
Q 40.1875 -1.421875 39.40625 -1.421875 
Q 24.03125 -1.421875 14.8125 8.859375 
Q 5.609375 19.140625 5.609375 36.375 
Q 5.609375 53.65625 14.8125 63.9375 
Q 24.03125 74.21875 39.40625 74.21875 
Q 54.734375 74.21875 63.90625 63.9375 
Q 73.09375 53.65625 73.09375 36.375 
Q 73.09375 23.6875 67.984375 14.640625 
Q 62.890625 5.609375 53.21875 1.3125 
" id="BitstreamVeraSans-Roman-51"/>
      <path d="M -0.296875 72.90625 
L 61.375 72.90625 
L 61.375 64.59375 
L 35.5 64.59375 
L 35.5 0 
L 25.59375 0 
L 25.59375 64.59375 
L -0.296875 64.59375 
z
" id="BitstreamVeraSans-Roman-54"/>
     </defs>
     <g transform="translate(283.1025 227.090625)scale(0.12 -0.12)">
      <use xlink:href="#BitstreamVeraSans-Roman-51"/>
      <use x="78.7109375" xlink:href="#BitstreamVeraSans-Roman-43"/>
      <use x="148.53515625" xlink:href="#BitstreamVeraSans-Roman-55"/>
      <use x="221.728515625" xlink:href="#BitstreamVeraSans-Roman-54"/>
     </g>
    </g>
   </g>
  </g>
 </g>
 <defs>
  <clipPath id="pb54b6c58ad">
   <rect height="223.2" width="334.8" x="54.0" y="28.8"/>
  </clipPath>
 </defs>
</svg>
