<?xml version="1.0" encoding="utf-8" standalone="no"?>
<!DOCTYPE svg PUBLIC "-//W3C//DTD SVG 1.1//EN"
  "http://www.w3.org/Graphics/SVG/1.1/DTD/svg11.dtd">
<!-- Created with matplotlib (http://matplotlib.org/) -->
<svg height="288pt" version="1.1" viewBox="0 0 432 288" width="432pt" xmlns="http://www.w3.org/2000/svg" xmlns:xlink="http://www.w3.org/1999/xlink">
 <defs>
  <style type="text/css">
*{stroke-linecap:butt;stroke-linejoin:round;stroke-miterlimit:100000;}
  </style>
 </defs>
 <g id="figure_1">
  <g id="patch_1">
   <path d="M 0 288 
L 432 288 
L 432 0 
L 0 0 
z
" style="fill:#ffffff;"/>
  </g>
  <g id="axes_1">
   <g id="patch_2">
    <path d="M 54 252 
L 388.8 252 
L 388.8 28.8 
L 54 28.8 
z
" style="fill:#ffffff;"/>
   </g>
   <g id="line2d_1">
    <path clip-path="url(#pf914ba6d36)" d="M 388.8 210.691184 
L 387.349398 203.952377 
L 387.34607 203.427269 
L 386.99017 194.592367 
L 386.707945 189.890271 
L 386.509709 187.792641 
L 385.425903 177.162972 
L 384.173212 167.550111 
L 383.615009 165.095116 
L 381.69815 155.422584 
L 380.3707 149.45989 
L 379.358912 144.604285 
L 378.934643 143.498104 
L 378.374786 141.199592 
L 378.007322 140.025051 
L 376.424122 132.83868 
L 375.505956 130.064257 
L 374.576165 126.509272 
L 372.833196 121.768773 
L 372.478792 120.632592 
L 371.131351 117.248031 
L 370.28683 114.851441 
L 369.666694 113.875827 
L 368.482667 110.657146 
L 364.949715 104.055013 
L 364.312294 102.861626 
L 363.013874 101.023974 
L 361.778487 99.278704 
L 359.528536 96.824443 
L 358.220068 95.172175 
L 357.474088 94.320823 
L 356.815341 93.373097 
L 348.864089 84.90413 
L 346.928603 83.360225 
L 346.040665 82.511847 
L 340.453442 78.842608 
L 336.004363 75.878894 
L 335.060004 75.324659 
L 332.521365 74.083327 
L 329.950638 72.328703 
L 328.677049 71.601159 
L 327.363539 71.001977 
L 324.604775 69.911105 
L 323.10638 69.205608 
L 320.008857 68.251468 
L 318.639598 67.56023 
L 317.10387 67.034779 
L 313.996059 65.815167 
L 309.006117 64.045553 
L 307.536577 63.308971 
L 301.281044 61.239095 
L 299.627521 60.529284 
L 295.962838 59.494984 
L 294.216251 59.1299 
L 292.362151 58.567205 
L 290.374194 58.129594 
L 288.44895 57.459501 
L 282.354233 56.23266 
L 278.620806 55.155626 
L 276.336367 54.74601 
L 271.647494 54.052817 
L 269.558408 53.766422 
L 262.853009 52.604818 
L 258.182619 52.006219 
L 250.502128 51.251576 
L 245.536226 50.774393 
L 230.797934 49.362062 
L 228.28706 49.289717 
L 225.871137 49.04344 
L 223.309459 48.58393 
L 218.110057 48.186168 
L 215.417151 47.805335 
L 209.848365 47.383282 
L 206.861132 47.366396 
L 204.231603 47.219497 
L 201.448018 46.784923 
L 189.367383 45.469995 
L 183.14006 45.32745 
L 180.048772 45.061514 
L 173.787328 44.99779 
L 164.112952 44.512537 
L 154.595752 44.315375 
L 144.759213 43.562931 
L 137.805884 43.439174 
L 134.398603 43.083304 
L 127.868958 43.017947 
L 124.161558 42.668638 
L 117.100583 42.64337 
L 113.946989 43.08777 
L 110.887859 43.095765 
L 107.804237 42.763477 
L 104.346064 42.917061 
L 98.155528 42.667446 
L 95.27436 42.905949 
L 92.746111 42.890321 
L 90.293389 42.293791 
L 87.809514 42.405263 
L 85.359028 42.700762 
L 83.101917 42.559629 
L 80.275747 42.85409 
L 78.154223 42.915699 
L 75.943913 42.543098 
L 71.900556 42.59459 
L 69.943898 42.260755 
L 68.028151 42.061359 
L 66.237926 42.330312 
L 64.789165 42.04002 
L 63.43798 42.2363 
L 61.683942 41.446988 
L 60.565605 41.179305 
L 59.375448 40.633452 
L 58.434942 41.34894 
L 57.815705 41.3112 
L 57.094047 40.976568 
L 56.182549 42.256494 
L 56.182549 42.256494 
" style="fill:none;stroke:#ff0000;stroke-linecap:square;"/>
   </g>
   <g id="line2d_2">
    <path clip-path="url(#pf914ba6d36)" d="M 388.8 210.691184 
L 387.825476 204.898864 
L 387.774189 204.221404 
L 386.969278 182.215568 
L 385.976373 169.887233 
L 385.313908 163.769201 
L 383.013919 142.153602 
L 380.560639 125.461908 
L 378.391756 114.486078 
L 377.680552 112.010789 
L 376.505871 108.376788 
L 375.315516 104.985647 
L 374.447846 102.949986 
L 372.315474 98.226612 
L 369.383165 93.036133 
L 368.254094 91.416729 
L 364.132912 86.336478 
L 361.175392 83.153121 
L 357.12163 79.175901 
L 352.830825 75.622936 
L 348.910403 72.837343 
L 343.205497 69.346858 
L 338.781185 66.833669 
L 331.615868 63.199762 
L 319.466053 57.774417 
L 313.832843 55.313464 
L 306.871946 52.411477 
L 301.492376 50.499978 
L 298.077893 49.305815 
L 292.04319 47.531476 
L 286.711158 46.253062 
L 278.011306 44.46437 
L 268.145218 42.754701 
L 256.653036 41.186591 
L 250.414075 40.528808 
L 235.939435 39.176698 
L 216.476843 37.706254 
L 210.437093 37.346325 
L 204.183654 36.7926 
L 194.380034 36.264915 
L 161.185392 34.942971 
L 148.518826 34.339128 
L 139.831156 33.963818 
L 116.248739 33.503325 
L 96.819689 33.735142 
L 87.877771 33.576601 
L 83.810943 33.732558 
L 76.58996 33.671053 
L 73.254259 33.389789 
L 69.985768 33.567626 
L 66.86294 33.472238 
L 62.096909 32.876036 
L 59.886191 32.734023 
L 58.13674 33.26773 
L 56.731666 33.302029 
L 55.444955 33.503143 
L 55.444955 33.503143 
" style="fill:none;stroke:#0000ff;stroke-linecap:square;"/>
   </g>
   <g id="line2d_3">
    <path clip-path="url(#pf914ba6d36)" d="M 388.8 210.691184 
L 388.048439 210.492271 
L 383.169134 208.718085 
L 380.247661 207.028702 
L 374.000892 204.585353 
L 339.444852 189.828775 
L 323.731117 184.244483 
L 314.548953 180.746975 
L 305.366073 177.508368 
L 289.983238 172.290176 
L 277.894476 168.140272 
L 269.192152 164.965996 
L 263.502103 162.760816 
L 255.19752 159.760594 
L 236.805994 152.940031 
L 229.424775 149.627755 
L 224.664573 147.759708 
L 220.117353 145.159216 
L 215.70048 143.480365 
L 207.329421 139.717865 
L 205.341794 138.993813 
L 203.390632 138.161165 
L 199.533448 136.881168 
L 182.813185 131.954883 
L 175.888022 129.597699 
L 172.489115 128.489171 
L 169.197749 127.573839 
L 164.390194 126.36234 
L 162.842627 125.90793 
L 159.782693 125.165364 
L 158.269849 124.795151 
L 156.744895 124.05247 
L 155.260763 123.00199 
L 149.534906 121.580217 
L 142.668705 119.663441 
L 137.441537 118.509146 
L 134.936211 117.943833 
L 132.501662 117.318044 
L 131.3274 116.914593 
L 130.134099 116.371219 
L 128.96228 116.000273 
L 127.833919 115.14234 
L 122.359617 113.704668 
L 121.299729 113.140039 
L 118.21963 112.133643 
L 116.300779 111.145701 
L 113.494471 110.114091 
L 111.648357 109.65467 
L 109.877286 108.153738 
L 107.242334 107.292217 
L 106.381102 105.918348 
L 105.527351 105.50103 
L 98.826892 104.098044 
L 93.664239 102.975706 
L 90.867304 102.115695 
L 90.155041 101.989188 
L 88.754478 102.264473 
L 86.606992 101.391667 
L 84.743748 100.271893 
L 84.132889 99.923189 
L 82.357499 99.344542 
L 81.787153 98.977037 
L 80.636052 98.664761 
L 79.516977 97.891491 
L 78.975299 96.735157 
L 78.427718 95.834668 
L 77.885541 95.639638 
L 76.131993 95.578836 
L 75.629224 95.428429 
L 74.594245 95.473292 
L 72.68004 96.189181 
L 67.870377 96.669003 
L 67.479268 97.004674 
L 67.093608 97.085415 
L 65.960101 99.02129 
L 65.603311 99.178225 
L 64.906465 99.689788 
L 64.214725 99.877368 
L 63.879802 99.844083 
L 63.539268 99.97166 
L 62.888532 99.89586 
L 62.580461 100.004194 
L 62.280051 99.983164 
L 61.701602 100.094729 
L 60.592932 99.782231 
L 60.324886 99.01069 
L 60.060718 98.610697 
L 59.800164 98.417851 
L 59.540102 98.469581 
L 59.0373 98.231604 
L 58.571392 97.400179 
L 58.339972 96.807889 
L 58.113895 96.662441 
L 57.682864 95.937012 
L 57.474048 96.259987 
L 57.255583 96.367749 
L 57.052021 97.150493 
L 56.854981 96.985559 
L 56.665815 96.592256 
L 56.276025 96.267049 
L 55.901005 95.901789 
L 55.725327 95.538154 
L 55.553295 94.636829 
L 55.22127 95.879914 
L 54.889908 95.826991 
L 54.74024 96.053541 
L 54.595779 96.031498 
L 54.461231 95.758967 
L 54.334463 96.4575 
L 54.207487 95.8995 
L 54.035483 95.76 
L 54.035483 95.76 
" style="fill:none;stroke:#000000;stroke-linecap:square;"/>
   </g>
   <g id="line2d_4">
    <path clip-path="url(#pf914ba6d36)" d="M 388.8 210.691184 
L 372.392623 197.174039 
L 360.908984 186.716231 
L 345.719707 176.642926 
L 340.919167 172.263367 
L 333.344169 165.827492 
L 329.709279 163.03222 
L 325.934244 160.375208 
L 322.66147 157.352098 
L 320.111416 155.711713 
L 317.820746 154.471264 
L 315.504106 152.997758 
L 310.643006 150.181301 
L 308.989213 148.615026 
L 306.571944 147.431394 
L 304.168793 146.627215 
L 302.755782 145.656825 
L 301.226999 145.03422 
L 299.620632 144.128622 
L 296.197536 142.660551 
L 293.013559 141.181595 
L 291.886432 140.526766 
L 288.406641 138.109079 
L 286.734531 137.050003 
L 285.512507 136.013531 
L 284.365163 135.268385 
L 283.117828 133.908436 
L 280.875922 132.456783 
L 277.648313 130.65702 
L 275.469238 128.296267 
L 274.539775 127.945292 
L 272.145983 126.72408 
L 267.968547 124.961016 
L 266.712435 124.692339 
L 264.919507 123.879967 
L 264.118681 123.234564 
L 260.389176 121.318456 
L 259.255592 120.447942 
L 257.40484 119.427289 
L 255.546716 118.605031 
L 253.99316 117.754172 
L 252.409859 117.080219 
L 248.714048 115.47256 
L 246.132198 114.522372 
L 245.428142 114.187105 
L 244.004603 113.733379 
L 242.949017 113.462406 
L 241.666169 112.95783 
L 240.310986 112.504867 
L 234.254606 109.611518 
L 228.746498 107.362132 
L 227.587192 106.868876 
L 226.914483 106.510207 
L 225.885432 106.347372 
L 225.078517 105.79163 
L 223.270594 105.223911 
L 222.119825 105.117026 
L 221.176777 105.526965 
L 219.824712 105.07727 
L 218.718724 104.774253 
L 217.027659 104.660303 
L 214.337754 103.949685 
L 208.271462 102.237769 
L 198.682755 100.181115 
L 198.068228 99.858849 
L 196.919949 99.412539 
L 195.185254 99.076559 
L 191.765089 98.105526 
L 186.332515 97.546953 
L 184.523765 97.284571 
L 182.026543 96.916281 
L 176.994648 96.157547 
L 175.969985 95.616095 
L 169.759133 94.295135 
L 168.380578 94.02092 
L 167.551601 94.012746 
L 166.27272 94.304262 
L 165.00705 94.167785 
L 163.283489 93.818711 
L 162.102177 93.582628 
L 160.873485 93.393199 
L 160.298121 92.623853 
L 158.530848 92.268695 
L 149.613427 90.397257 
L 149.111083 89.958135 
L 148.605616 89.858959 
L 148.060245 89.398755 
L 147.49736 89.141854 
L 146.970778 88.550557 
L 144.931988 88.383287 
L 144.392738 88.191276 
L 141.657414 87.868176 
L 140.024363 87.683377 
L 135.835768 87.2093 
L 134.702367 87.096972 
L 133.831975 86.512569 
L 133.048914 86.345757 
L 132.115458 86.336039 
L 131.456533 85.833981 
L 130.851084 85.689934 
L 128.88651 86.035988 
L 128.168072 85.12408 
L 127.201548 84.83306 
L 125.271315 84.600522 
L 124.317451 84.623955 
L 123.592271 84.513422 
L 121.770138 84.573575 
L 118.091284 84.285342 
L 116.217548 84.323428 
L 114.44969 83.375596 
L 112.58847 83.442696 
L 110.465847 83.103508 
L 107.4194 83.119559 
L 105.472614 83.265644 
L 103.168662 82.788072 
L 99.954812 81.795043 
L 94.706268 79.603165 
L 94.706268 79.603165 
" style="fill:none;stroke:#008000;stroke-linecap:square;"/>
   </g>
   <g id="line2d_5">
    <path clip-path="url(#pf914ba6d36)" d="M 385.452 211.124581 
L 357.869646 174.053235 
L 355.022105 174.015743 
L 350.020614 174.338044 
L 348.403475 174.171272 
L 346.639215 174.233835 
L 345.829214 174.065023 
L 341.866606 174.197217 
L 338.439997 173.832006 
L 337.410581 173.760369 
L 336.827306 173.561444 
L 332.625622 173.116532 
L 330.639409 173.114268 
L 329.455527 172.879936 
L 326.580591 172.681926 
L 320.548468 172.82192 
L 317.261521 172.800247 
L 315.61141 172.922465 
L 314.530977 172.87521 
L 305.991064 173.234681 
L 305.058419 173.252499 
L 301.227481 172.952088 
L 299.888755 172.949983 
L 298.896413 172.696762 
L 295.864642 172.81815 
L 294.610616 172.48219 
L 293.035742 172.491571 
L 289.410804 172.784022 
L 287.18304 172.528739 
L 283.880095 172.834174 
L 281.511925 173.564161 
L 280.422802 173.454899 
L 279.361942 173.601926 
L 277.71579 174.178816 
L 274.361356 174.442559 
L 271.032937 174.588093 
L 269.32159 174.770532 
L 266.349033 174.700365 
L 264.492237 174.901063 
L 262.206077 175.384062 
L 259.215143 175.545234 
L 253.946058 176.395861 
L 251.356246 177.112865 
L 249.667722 177.224282 
L 248.503697 177.418977 
L 247.056564 177.796522 
L 245.835999 177.765086 
L 242.970286 177.853396 
L 240.732739 177.945502 
L 236.549913 178.52115 
L 235.613661 178.462915 
L 229.254479 179.325991 
L 227.933302 179.367368 
L 225.687039 179.717401 
L 224.547688 179.691122 
L 223.191094 179.802186 
L 219.903268 180.426491 
L 218.473092 180.529382 
L 217.547055 180.347165 
L 216.727846 180.861595 
L 216.209607 180.754932 
L 214.026951 180.852993 
L 213.187252 181.086847 
L 210.349159 181.218234 
L 209.727586 181.12728 
L 208.812797 181.177549 
L 207.464391 182.044817 
L 206.828507 181.957699 
L 205.296243 182.740544 
L 200.165717 183.694907 
L 199.59021 183.622315 
L 199.02242 183.803745 
L 198.38857 183.762046 
L 196.822582 184.175459 
L 196.090869 184.190987 
L 194.681472 184.522478 
L 193.726542 184.885691 
L 192.95101 185.009618 
L 191.41173 184.340928 
L 190.516345 184.539287 
L 189.513789 185.26843 
L 188.141604 185.593997 
L 187.842198 185.542742 
L 186.812168 185.493792 
L 185.543856 185.595367 
L 185.017844 185.304984 
L 183.150619 185.803726 
L 182.790978 185.664419 
L 181.420318 185.692418 
L 180.958623 185.572952 
L 180.357428 185.298002 
L 179.725803 185.135943 
L 178.835265 185.429356 
L 178.564344 185.350362 
L 177.983815 185.450871 
L 177.439587 184.997423 
L 176.182816 185.425249 
L 175.509589 185.745288 
L 174.714294 185.459943 
L 174.107864 185.388439 
L 173.835735 185.131186 
L 173.096107 185.182389 
L 172.335586 185.444421 
L 171.638637 184.822157 
L 170.704261 184.612616 
L 170.268006 184.632408 
L 169.036316 185.44215 
L 167.881497 185.446719 
L 167.294669 185.279544 
L 166.445455 185.607072 
L 165.935968 185.424691 
L 165.262562 184.879841 
L 164.659868 185.069115 
L 164.400954 184.62274 
L 164.002502 184.426355 
L 163.454688 184.352094 
L 163.103322 184.436934 
L 162.651742 184.286968 
L 161.754618 184.768438 
L 161.574143 184.68986 
L 161.329178 183.706063 
L 160.454052 184.314859 
L 159.939387 184.405301 
L 158.643838 184.864354 
L 155.646978 184.887117 
L 154.760001 185.740764 
L 154.26334 185.803261 
L 154.078714 185.681438 
L 152.521438 185.582112 
L 151.591101 185.974214 
L 151.363832 185.873921 
L 150.831919 186.064276 
L 150.7021 185.371783 
L 150.191908 185.263422 
L 150.025466 184.94305 
L 149.763553 184.767354 
L 149.307865 184.977267 
L 148.78691 184.916117 
L 148.275235 185.428772 
L 147.795394 185.478796 
L 147.603501 185.357264 
L 146.325403 185.403875 
L 145.886166 185.32064 
L 145.748837 185.098119 
L 144.640184 185.32776 
L 143.939764 185.676644 
L 143.475365 185.583177 
L 142.606659 185.657505 
L 142.318757 185.190862 
L 141.946274 185.124778 
L 141.824568 184.739762 
L 140.90059 184.89773 
L 140.473401 184.671262 
L 140.24681 184.458615 
L 139.415637 184.356317 
L 138.833608 184.511141 
L 137.680083 183.878698 
L 137.276511 183.925617 
L 137.015167 183.827858 
L 136.776437 184.464609 
L 136.354531 184.607522 
L 135.88057 184.216828 
L 135.417865 184.329222 
L 135.008829 184.919828 
L 134.817333 184.926116 
L 134.599663 184.449649 
L 134.182934 185.245947 
L 133.506744 184.230758 
L 132.926806 185.318763 
L 132.25428 185.637626 
L 131.972105 184.978018 
L 131.628483 184.825065 
L 130.913907 186.162461 
L 129.997718 186.223709 
L 129.905876 185.754288 
L 129.688057 185.572797 
L 128.67976 186.822307 
L 128.164867 187.231229 
L 127.840589 187.089809 
L 127.172122 187.645671 
L 126.385063 187.93246 
L 125.66207 188.363984 
L 125.309708 187.363772 
L 124.178004 188.605962 
L 122.656759 188.011425 
L 122.656759 188.011425 
" style="fill:none;stroke:#00bfbf;stroke-linecap:square;"/>
   </g>
   <g id="line2d_6">
    <path clip-path="url(#pf914ba6d36)" d="M 388.8 210.691184 
L 388.602628 203.450172 
L 387.907769 196.223302 
L 387.145852 189.529926 
L 385.520917 180.331183 
L 384.48252 175.790405 
L 383.811938 171.394388 
L 382.390585 167.10523 
L 381.677501 162.83564 
L 379.678371 155.697477 
L 378.542083 152.68487 
L 376.927607 146.072904 
L 376.420664 142.821317 
L 375.447577 140.113351 
L 373.470437 135.245601 
L 372.685737 132.990298 
L 371.976606 130.340196 
L 371.05017 128.252638 
L 370.442499 126.210275 
L 369.548601 124.291286 
L 368.813659 122.421302 
L 366.700235 118.464793 
L 365.218836 116.817449 
L 364.060334 114.447025 
L 362.797831 112.999133 
L 360.66783 109.802615 
L 359.703304 107.754614 
L 357.8591 104.870946 
L 357.048325 103.763093 
L 355.864283 102.662004 
L 354.736187 101.3884 
L 352.143472 99.136432 
L 351.159947 98.175117 
L 349.146123 95.703271 
L 344.414555 90.658373 
L 341.917297 89.044896 
L 340.281171 88.533437 
L 339.478394 87.265378 
L 336.987194 86.023164 
L 335.809556 84.827599 
L 334.846952 84.236699 
L 333.46532 83.724697 
L 331.422642 82.417604 
L 329.899623 80.760605 
L 329.166738 80.10975 
L 327.927712 79.59954 
L 323.894379 76.545095 
L 323.060349 76.034994 
L 320.285053 75.148341 
L 319.436746 74.329556 
L 317.322034 72.832886 
L 316.546249 72.060443 
L 315.045372 71.692979 
L 313.015133 70.633746 
L 312.276718 69.980625 
L 311.195116 69.324779 
L 308.900328 68.458831 
L 308.092181 67.9315 
L 301.701431 65.47934 
L 300.87527 65.002295 
L 300.036915 64.714379 
L 299.011111 64.195986 
L 297.836697 63.962775 
L 296.972593 63.492509 
L 295.509147 63.144044 
L 294.485392 62.691856 
L 293.497404 62.560147 
L 291.020069 61.615624 
L 290.109301 61.217453 
L 289.257594 60.537861 
L 288.196857 60.121586 
L 287.449892 59.950961 
L 286.444018 59.446352 
L 285.50622 59.200294 
L 284.770109 58.8594 
L 282.613429 58.477302 
L 281.503449 58.138242 
L 280.531192 57.61122 
L 278.079178 56.787363 
L 275.792449 56.078805 
L 274.675263 55.400935 
L 272.657343 54.640203 
L 270.292655 54.323378 
L 269.332131 53.976831 
L 267.773695 53.90388 
L 265.768237 53.482293 
L 264.431813 53.304538 
L 263.244179 52.988213 
L 262.075882 52.822061 
L 260.861966 52.457146 
L 256.0858 51.994149 
L 250.816706 51.015029 
L 249.917583 50.804334 
L 248.732598 50.68351 
L 247.071765 50.63637 
L 244.455336 50.090902 
L 242.228342 49.490041 
L 241.463037 49.350803 
L 240.488878 48.990307 
L 232.421569 47.855054 
L 231.347982 47.460472 
L 230.151707 47.170756 
L 228.746935 47.144859 
L 225.237239 46.614934 
L 223.782856 46.232303 
L 222.322433 45.696153 
L 215.643825 44.960575 
L 214.795867 44.65999 
L 213.81643 44.740148 
L 212.624983 44.710446 
L 211.623579 44.486542 
L 208.40716 44.205519 
L 207.054504 43.98944 
L 205.807233 44.136804 
L 202.989656 43.96812 
L 201.397248 43.834004 
L 197.023856 42.988351 
L 195.874152 42.67457 
L 194.596401 42.471209 
L 192.432022 42.409868 
L 190.367351 42.469418 
L 188.858874 42.31922 
L 186.757754 42.419168 
L 182.311167 42.211264 
L 179.058298 42.056705 
L 177.529973 42.141018 
L 176.271064 41.964328 
L 173.814645 42.012118 
L 167.1296 41.546826 
L 162.500623 40.934119 
L 159.110214 40.946385 
L 156.638256 40.623735 
L 155.153631 40.698728 
L 153.549657 40.983969 
L 152.614849 40.851059 
L 151.01507 40.800955 
L 149.974608 41.104486 
L 148.227117 41.237574 
L 144.366054 41.959246 
L 143.365809 41.84372 
L 142.014218 42.005358 
L 138.599898 42.008939 
L 136.870055 41.768751 
L 135.684305 41.867154 
L 134.197782 40.898209 
L 132.777666 40.723052 
L 131.274922 39.942566 
L 129.731293 39.996597 
L 127.667301 39.898381 
L 125.375523 39.676899 
L 123.211559 39.796371 
L 120.526272 40.437642 
L 118.464441 40.467976 
L 116.903489 40.714137 
L 115.605175 40.720593 
L 113.047001 41.023855 
L 111.024386 40.316197 
L 108.678778 40.190265 
L 100.903318 39.087012 
L 99.054138 39.782023 
L 97.365182 40.05177 
L 93.774695 40.110845 
L 92.069988 39.376979 
L 90.286467 38.900685 
L 86.607797 39.197278 
L 84.824471 39.299977 
L 82.234386 38.663586 
L 75.856352 38.454479 
L 72.646281 38.578962 
L 69.176254 38.289929 
L 65.871903 37.476927 
L 65.871903 37.476927 
" style="fill:none;stroke:#bfbf00;stroke-linecap:square;"/>
   </g>
   <g id="line2d_7">
    <path clip-path="url(#pf914ba6d36)" d="M 388.8 210.691184 
L 383.691981 202.205104 
L 373.603605 183.215629 
L 370.694861 177.929741 
L 368.690113 173.852755 
L 366.457775 169.657548 
L 363.929761 166.885619 
L 358.983765 158.94119 
L 357.260863 157.071682 
L 355.921272 154.841143 
L 353.861272 153.106319 
L 352.265609 151.548012 
L 350.858615 149.914599 
L 348.316011 147.153789 
L 346.832764 145.567647 
L 345.809964 144.07606 
L 343.86331 140.558475 
L 342.258991 138.920343 
L 338.769057 134.247287 
L 337.119385 132.845905 
L 335.793418 131.955856 
L 334.973083 130.799277 
L 333.872254 129.475694 
L 330.763607 124.886043 
L 329.587539 123.939908 
L 326.623315 120.944418 
L 325.979984 120.017105 
L 325.15394 119.031496 
L 324.598074 117.897584 
L 323.830265 116.915432 
L 323.049577 116.217442 
L 322.080447 115.198042 
L 321.051446 114.283266 
L 320.215822 113.384638 
L 319.745581 112.665592 
L 318.787493 112.010236 
L 317.319845 110.38514 
L 316.181832 109.697152 
L 315.552691 108.674067 
L 313.926922 108.04111 
L 312.999321 107.262625 
L 312.09532 106.321665 
L 311.278142 105.744182 
L 310.348298 104.874049 
L 309.280422 104.125271 
L 307.726335 102.563592 
L 307.094942 101.926989 
L 305.62868 99.892184 
L 304.784085 99.104369 
L 303.95186 98.59032 
L 302.309961 97.077253 
L 298.564275 94.134377 
L 297.059852 93.487781 
L 295.925832 92.841831 
L 295.169593 92.197177 
L 294.089321 91.457104 
L 292.180977 89.931345 
L 291.346484 89.456448 
L 290.730388 88.764453 
L 289.428939 88.114998 
L 288.764323 87.380891 
L 287.353694 86.199546 
L 286.577025 85.456503 
L 285.145986 84.67489 
L 283.236943 82.83248 
L 278.395753 81.138303 
L 277.425593 81.05781 
L 275.828971 80.716057 
L 275.187431 80.31853 
L 274.184301 80.003624 
L 273.251963 79.889503 
L 270.506409 79.134716 
L 269.60332 78.985922 
L 268.990813 78.588222 
L 267.824451 78.651955 
L 267.195362 78.528816 
L 265.885329 78.456964 
L 265.234129 78.177306 
L 264.340044 78.01737 
L 263.676169 77.672571 
L 262.276809 77.505178 
L 261.038601 77.228823 
L 259.748226 77.106583 
L 259.269272 76.685003 
L 258.460686 76.377203 
L 257.547551 75.589446 
L 254.722476 74.596688 
L 252.287525 74.283877 
L 251.604782 73.918273 
L 250.555107 73.833475 
L 249.45384 73.369863 
L 247.450802 72.933542 
L 246.56037 72.65462 
L 245.382966 72.162749 
L 243.621794 71.924954 
L 242.395719 71.375273 
L 239.152588 70.690508 
L 238.579204 70.343698 
L 237.673023 70.23394 
L 236.874862 69.789996 
L 235.374781 69.559688 
L 232.605174 69.539639 
L 231.691133 68.99272 
L 230.787174 68.855863 
L 229.279522 68.188596 
L 227.081795 67.621171 
L 225.941131 67.298186 
L 223.755416 66.865423 
L 221.922446 67.008276 
L 220.266636 66.622394 
L 219.219629 66.558661 
L 218.034719 66.781671 
L 212.353045 66.652318 
L 210.117874 66.484687 
L 207.885301 65.886398 
L 207.028545 66.023904 
L 204.965814 65.768835 
L 203.307911 65.421025 
L 202.160235 65.44717 
L 201.117427 64.89358 
L 200.292857 64.780846 
L 199.487866 64.370793 
L 198.757372 64.206951 
L 194.437924 63.698186 
L 193.494289 63.424402 
L 191.96199 63.500701 
L 190.698324 63.446388 
L 189.681298 63.148773 
L 188.54276 62.489642 
L 185.696457 62.046553 
L 184.611984 61.751151 
L 182.476413 61.735727 
L 180.135022 61.285507 
L 178.962372 61.458477 
L 177.9451 61.474488 
L 175.714745 61.053504 
L 174.848519 60.734196 
L 173.609991 60.92502 
L 172.25621 60.308757 
L 170.661579 60.294576 
L 169.853461 60.071659 
L 168.591093 59.986587 
L 167.33174 60.056961 
L 166.669977 59.759863 
L 164.757727 59.786209 
L 163.382177 59.571643 
L 159.136553 60.034833 
L 157.199745 59.801279 
L 154.346222 60.341731 
L 152.07394 59.998137 
L 145.462264 60.14638 
L 144.638084 59.703965 
L 143.343475 59.846395 
L 142.200022 59.035943 
L 140.704021 58.639373 
L 139.527597 58.582663 
L 138.225392 58.386007 
L 137.064788 58.727966 
L 135.840809 58.580867 
L 132.491093 58.97479 
L 127.756657 58.667991 
L 124.421911 58.11951 
L 123.071792 57.666819 
L 119.919698 57.173877 
L 117.934709 57.181334 
L 116.067204 56.980001 
L 113.792221 56.419483 
L 111.795748 56.32961 
L 109.276465 56.570869 
L 105.279177 57.181253 
L 103.588489 57.065357 
L 100.483246 58.163692 
L 97.778475 57.491184 
L 94.602507 57.437446 
L 91.722647 56.439809 
L 88.443293 55.897574 
L 85.20913 55.080599 
L 80.829955 55.447134 
L 68.615778 54.911306 
L 68.615778 54.911306 
" style="fill:none;stroke:#bf00bf;stroke-linecap:square;"/>
   </g>
   <g id="line2d_8">
    <path clip-path="url(#pf914ba6d36)" d="M 388.8 210.691184 
L 385.541726 192.824727 
L 381.533122 178.7071 
L 376.829107 169.185776 
L 372.06761 160.931844 
L 367.517229 153.92375 
L 360.503604 142.397749 
L 353.176491 129.191662 
L 350.816878 125.403328 
L 345.048134 118.983622 
L 342.810168 115.975873 
L 340.404523 113.334128 
L 338.49115 110.7653 
L 336.418042 108.7129 
L 334.471226 106.553226 
L 332.446754 104.605317 
L 329.099044 100.838538 
L 325.199152 97.310609 
L 323.483429 95.60681 
L 321.294919 94.024663 
L 317.980215 91.382607 
L 315.847314 90.290695 
L 312.49392 87.77675 
L 309.637927 84.890666 
L 308.113245 83.644692 
L 306.790039 82.062422 
L 305.611769 81.048631 
L 301.642944 76.961111 
L 300.804551 75.701966 
L 297.475714 73.320059 
L 296.460486 72.517474 
L 295.373878 71.827594 
L 294.213651 70.794285 
L 293.12351 69.976208 
L 292.116885 69.365191 
L 290.749383 68.793425 
L 284.971665 65.478353 
L 283.78767 64.877005 
L 282.022765 63.676776 
L 278.203723 61.377861 
L 276.938971 61.07047 
L 275.606786 60.615651 
L 274.15419 60.370529 
L 271.942399 59.481113 
L 269.776961 58.917463 
L 266.047668 58.231586 
L 263.442375 57.906907 
L 257.593856 56.460362 
L 255.12644 56.088276 
L 251.915242 55.413694 
L 249.642903 55.130272 
L 247.343566 54.840464 
L 243.653908 53.876109 
L 241.331219 53.007815 
L 240.430585 52.844687 
L 239.505678 52.383221 
L 238.696593 52.120754 
L 237.746495 52.0415 
L 236.834402 51.75636 
L 233.675575 51.411218 
L 232.546861 51.523098 
L 229.620572 51.129125 
L 225.999301 50.503987 
L 225.068416 50.465856 
L 223.184768 50.176843 
L 222.297203 50.09368 
L 220.609807 49.733462 
L 215.987316 49.19417 
L 214.137113 48.969119 
L 209.98535 48.506837 
L 208.037048 48.134694 
L 205.628563 47.958605 
L 202.74015 47.584642 
L 197.841967 47.191265 
L 194.002922 46.554853 
L 191.412652 46.211285 
L 188.272417 45.871142 
L 186.75093 45.552959 
L 183.61001 45.267127 
L 182.027447 45.167208 
L 180.457478 44.972902 
L 179.594162 45.029312 
L 177.720203 44.837325 
L 176.82579 44.990569 
L 172.291303 44.404075 
L 170.185893 44.268981 
L 157.296323 43.245614 
L 152.890454 43.221466 
L 136.528225 42.326101 
L 135.379312 42.127047 
L 125.511382 41.859364 
L 124.434043 41.44048 
L 118.524779 41.318197 
L 115.839253 41.181234 
L 113.544785 41.129143 
L 110.912232 41.285788 
L 105.526653 40.989975 
L 103.626448 40.822047 
L 102.0844 40.561621 
L 99.056622 40.654714 
L 95.060454 40.787252 
L 93.489397 40.841296 
L 91.874826 40.760331 
L 90.183396 40.846567 
L 88.182682 40.821334 
L 85.014582 40.936213 
L 82.691619 40.761343 
L 80.879996 40.745717 
L 77.001032 40.028412 
L 73.471353 40.04549 
L 71.377996 39.525627 
L 68.968886 39.554551 
L 66.652534 39.874275 
L 61.116659 40.026888 
L 57.955277 41.084618 
L 57.955277 41.084618 
" style="fill:none;stroke:#ff0000;stroke-dasharray:6.000000,6.000000;stroke-dashoffset:0.0;"/>
   </g>
   <g id="line2d_9">
    <path clip-path="url(#pf914ba6d36)" d="M 388.8 210.691184 
L 379.214187 136.268168 
L 377.492143 130.667303 
L 375.381572 124.71808 
L 372.8236 118.60071 
L 370.501088 113.772299 
L 368.354215 109.781031 
L 365.825728 105.650423 
L 362.928506 101.516602 
L 360.657161 98.544476 
L 358.425361 95.865475 
L 355.387431 92.489679 
L 351.46884 88.706033 
L 348.027071 85.669075 
L 344.110598 82.522956 
L 336.995623 77.632818 
L 333.374214 75.448072 
L 330.078088 73.635334 
L 326.250446 71.646976 
L 322.809633 69.991363 
L 317.272736 67.547652 
L 309.92794 64.603025 
L 304.92611 62.84988 
L 300.271083 61.382084 
L 293.353654 59.436857 
L 281.703471 56.477193 
L 265.919574 52.81279 
L 259.141067 51.326596 
L 251.451233 49.834189 
L 237.822708 47.525609 
L 228.598239 46.15398 
L 212.593704 44.096782 
L 194.019712 42.217553 
L 173.100647 40.459124 
L 162.292024 39.844898 
L 128.204906 37.976974 
L 113.432892 36.691145 
L 113.432892 36.691145 
" style="fill:none;stroke:#0000ff;stroke-dasharray:6.000000,6.000000;stroke-dashoffset:0.0;"/>
   </g>
   <g id="patch_3">
    <path d="M 54 28.8 
L 388.8 28.8 
" style="fill:none;stroke:#000000;stroke-linecap:square;stroke-linejoin:miter;"/>
   </g>
   <g id="patch_4">
    <path d="M 388.8 252 
L 388.8 28.8 
" style="fill:none;stroke:#000000;stroke-linecap:square;stroke-linejoin:miter;"/>
   </g>
   <g id="patch_5">
    <path d="M 54 252 
L 388.8 252 
" style="fill:none;stroke:#000000;stroke-linecap:square;stroke-linejoin:miter;"/>
   </g>
   <g id="patch_6">
    <path d="M 54 252 
L 54 28.8 
" style="fill:none;stroke:#000000;stroke-linecap:square;stroke-linejoin:miter;"/>
   </g>
   <g id="matplotlib.axis_1">
    <g id="xtick_1">
     <g id="line2d_10">
      <path clip-path="url(#pf914ba6d36)" d="M 54 252 
L 54 28.8 
" style="fill:none;stroke:#000000;stroke-dasharray:1.000000,3.000000;stroke-dashoffset:0.0;stroke-width:0.5;"/>
     </g>
     <g id="line2d_11">
      <defs>
       <path d="M 0 0 
L 0 -4 
" id="mf5250737fd" style="stroke:#000000;stroke-width:0.5;"/>
      </defs>
      <g>
       <use style="stroke:#000000;stroke-width:0.5;" x="54.0" xlink:href="#mf5250737fd" y="252.0"/>
      </g>
     </g>
     <g id="line2d_12">
      <defs>
       <path d="M 0 0 
L 0 4 
" id="m90ede6ae60" style="stroke:#000000;stroke-width:0.5;"/>
      </defs>
      <g>
       <use style="stroke:#000000;stroke-width:0.5;" x="54.0" xlink:href="#m90ede6ae60" y="28.8"/>
      </g>
     </g>
     <g id="text_1">
      <!-- 0.0 -->
      <defs>
       <path d="M 31.78125 66.40625 
Q 24.171875 66.40625 20.328125 58.90625 
Q 16.5 51.421875 16.5 36.375 
Q 16.5 21.390625 20.328125 13.890625 
Q 24.171875 6.390625 31.78125 6.390625 
Q 39.453125 6.390625 43.28125 13.890625 
Q 47.125 21.390625 47.125 36.375 
Q 47.125 51.421875 43.28125 58.90625 
Q 39.453125 66.40625 31.78125 66.40625 
M 31.78125 74.21875 
Q 44.046875 74.21875 50.515625 64.515625 
Q 56.984375 54.828125 56.984375 36.375 
Q 56.984375 17.96875 50.515625 8.265625 
Q 44.046875 -1.421875 31.78125 -1.421875 
Q 19.53125 -1.421875 13.0625 8.265625 
Q 6.59375 17.96875 6.59375 36.375 
Q 6.59375 54.828125 13.0625 64.515625 
Q 19.53125 74.21875 31.78125 74.21875 
" id="BitstreamVeraSans-Roman-30"/>
       <path d="M 10.6875 12.40625 
L 21 12.40625 
L 21 0 
L 10.6875 0 
z
" id="BitstreamVeraSans-Roman-2e"/>
      </defs>
      <g transform="translate(46.0484375 263.5984375)scale(0.1 -0.1)">
       <use xlink:href="#BitstreamVeraSans-Roman-30"/>
       <use x="63.623046875" xlink:href="#BitstreamVeraSans-Roman-2e"/>
       <use x="95.41015625" xlink:href="#BitstreamVeraSans-Roman-30"/>
      </g>
     </g>
    </g>
    <g id="xtick_2">
     <g id="line2d_13">
      <path clip-path="url(#pf914ba6d36)" d="M 120.96 252 
L 120.96 28.8 
" style="fill:none;stroke:#000000;stroke-dasharray:1.000000,3.000000;stroke-dashoffset:0.0;stroke-width:0.5;"/>
     </g>
     <g id="line2d_14">
      <g>
       <use style="stroke:#000000;stroke-width:0.5;" x="120.96" xlink:href="#mf5250737fd" y="252.0"/>
      </g>
     </g>
     <g id="line2d_15">
      <g>
       <use style="stroke:#000000;stroke-width:0.5;" x="120.96" xlink:href="#m90ede6ae60" y="28.8"/>
      </g>
     </g>
     <g id="text_2">
      <!-- 0.2 -->
      <defs>
       <path d="M 19.1875 8.296875 
L 53.609375 8.296875 
L 53.609375 0 
L 7.328125 0 
L 7.328125 8.296875 
Q 12.9375 14.109375 22.625 23.890625 
Q 32.328125 33.6875 34.8125 36.53125 
Q 39.546875 41.84375 41.421875 45.53125 
Q 43.3125 49.21875 43.3125 52.78125 
Q 43.3125 58.59375 39.234375 62.25 
Q 35.15625 65.921875 28.609375 65.921875 
Q 23.96875 65.921875 18.8125 64.3125 
Q 13.671875 62.703125 7.8125 59.421875 
L 7.8125 69.390625 
Q 13.765625 71.78125 18.9375 73 
Q 24.125 74.21875 28.421875 74.21875 
Q 39.75 74.21875 46.484375 68.546875 
Q 53.21875 62.890625 53.21875 53.421875 
Q 53.21875 48.921875 51.53125 44.890625 
Q 49.859375 40.875 45.40625 35.40625 
Q 44.1875 33.984375 37.640625 27.21875 
Q 31.109375 20.453125 19.1875 8.296875 
" id="BitstreamVeraSans-Roman-32"/>
      </defs>
      <g transform="translate(113.0084375 263.5984375)scale(0.1 -0.1)">
       <use xlink:href="#BitstreamVeraSans-Roman-30"/>
       <use x="63.623046875" xlink:href="#BitstreamVeraSans-Roman-2e"/>
       <use x="95.41015625" xlink:href="#BitstreamVeraSans-Roman-32"/>
      </g>
     </g>
    </g>
    <g id="xtick_3">
     <g id="line2d_16">
      <path clip-path="url(#pf914ba6d36)" d="M 187.92 252 
L 187.92 28.8 
" style="fill:none;stroke:#000000;stroke-dasharray:1.000000,3.000000;stroke-dashoffset:0.0;stroke-width:0.5;"/>
     </g>
     <g id="line2d_17">
      <g>
       <use style="stroke:#000000;stroke-width:0.5;" x="187.92" xlink:href="#mf5250737fd" y="252.0"/>
      </g>
     </g>
     <g id="line2d_18">
      <g>
       <use style="stroke:#000000;stroke-width:0.5;" x="187.92" xlink:href="#m90ede6ae60" y="28.8"/>
      </g>
     </g>
     <g id="text_3">
      <!-- 0.4 -->
      <defs>
       <path d="M 37.796875 64.3125 
L 12.890625 25.390625 
L 37.796875 25.390625 
z
M 35.203125 72.90625 
L 47.609375 72.90625 
L 47.609375 25.390625 
L 58.015625 25.390625 
L 58.015625 17.1875 
L 47.609375 17.1875 
L 47.609375 0 
L 37.796875 0 
L 37.796875 17.1875 
L 4.890625 17.1875 
L 4.890625 26.703125 
z
" id="BitstreamVeraSans-Roman-34"/>
      </defs>
      <g transform="translate(179.9684375 263.5984375)scale(0.1 -0.1)">
       <use xlink:href="#BitstreamVeraSans-Roman-30"/>
       <use x="63.623046875" xlink:href="#BitstreamVeraSans-Roman-2e"/>
       <use x="95.41015625" xlink:href="#BitstreamVeraSans-Roman-34"/>
      </g>
     </g>
    </g>
    <g id="xtick_4">
     <g id="line2d_19">
      <path clip-path="url(#pf914ba6d36)" d="M 254.88 252 
L 254.88 28.8 
" style="fill:none;stroke:#000000;stroke-dasharray:1.000000,3.000000;stroke-dashoffset:0.0;stroke-width:0.5;"/>
     </g>
     <g id="line2d_20">
      <g>
       <use style="stroke:#000000;stroke-width:0.5;" x="254.88" xlink:href="#mf5250737fd" y="252.0"/>
      </g>
     </g>
     <g id="line2d_21">
      <g>
       <use style="stroke:#000000;stroke-width:0.5;" x="254.88" xlink:href="#m90ede6ae60" y="28.8"/>
      </g>
     </g>
     <g id="text_4">
      <!-- 0.6 -->
      <defs>
       <path d="M 33.015625 40.375 
Q 26.375 40.375 22.484375 35.828125 
Q 18.609375 31.296875 18.609375 23.390625 
Q 18.609375 15.53125 22.484375 10.953125 
Q 26.375 6.390625 33.015625 6.390625 
Q 39.65625 6.390625 43.53125 10.953125 
Q 47.40625 15.53125 47.40625 23.390625 
Q 47.40625 31.296875 43.53125 35.828125 
Q 39.65625 40.375 33.015625 40.375 
M 52.59375 71.296875 
L 52.59375 62.3125 
Q 48.875 64.0625 45.09375 64.984375 
Q 41.3125 65.921875 37.59375 65.921875 
Q 27.828125 65.921875 22.671875 59.328125 
Q 17.53125 52.734375 16.796875 39.40625 
Q 19.671875 43.65625 24.015625 45.921875 
Q 28.375 48.1875 33.59375 48.1875 
Q 44.578125 48.1875 50.953125 41.515625 
Q 57.328125 34.859375 57.328125 23.390625 
Q 57.328125 12.15625 50.6875 5.359375 
Q 44.046875 -1.421875 33.015625 -1.421875 
Q 20.359375 -1.421875 13.671875 8.265625 
Q 6.984375 17.96875 6.984375 36.375 
Q 6.984375 53.65625 15.1875 63.9375 
Q 23.390625 74.21875 37.203125 74.21875 
Q 40.921875 74.21875 44.703125 73.484375 
Q 48.484375 72.75 52.59375 71.296875 
" id="BitstreamVeraSans-Roman-36"/>
      </defs>
      <g transform="translate(246.9284375 263.5984375)scale(0.1 -0.1)">
       <use xlink:href="#BitstreamVeraSans-Roman-30"/>
       <use x="63.623046875" xlink:href="#BitstreamVeraSans-Roman-2e"/>
       <use x="95.41015625" xlink:href="#BitstreamVeraSans-Roman-36"/>
      </g>
     </g>
    </g>
    <g id="xtick_5">
     <g id="line2d_22">
      <path clip-path="url(#pf914ba6d36)" d="M 321.84 252 
L 321.84 28.8 
" style="fill:none;stroke:#000000;stroke-dasharray:1.000000,3.000000;stroke-dashoffset:0.0;stroke-width:0.5;"/>
     </g>
     <g id="line2d_23">
      <g>
       <use style="stroke:#000000;stroke-width:0.5;" x="321.84" xlink:href="#mf5250737fd" y="252.0"/>
      </g>
     </g>
     <g id="line2d_24">
      <g>
       <use style="stroke:#000000;stroke-width:0.5;" x="321.84" xlink:href="#m90ede6ae60" y="28.8"/>
      </g>
     </g>
     <g id="text_5">
      <!-- 0.8 -->
      <defs>
       <path d="M 31.78125 34.625 
Q 24.75 34.625 20.71875 30.859375 
Q 16.703125 27.09375 16.703125 20.515625 
Q 16.703125 13.921875 20.71875 10.15625 
Q 24.75 6.390625 31.78125 6.390625 
Q 38.8125 6.390625 42.859375 10.171875 
Q 46.921875 13.96875 46.921875 20.515625 
Q 46.921875 27.09375 42.890625 30.859375 
Q 38.875 34.625 31.78125 34.625 
M 21.921875 38.8125 
Q 15.578125 40.375 12.03125 44.71875 
Q 8.5 49.078125 8.5 55.328125 
Q 8.5 64.0625 14.71875 69.140625 
Q 20.953125 74.21875 31.78125 74.21875 
Q 42.671875 74.21875 48.875 69.140625 
Q 55.078125 64.0625 55.078125 55.328125 
Q 55.078125 49.078125 51.53125 44.71875 
Q 48 40.375 41.703125 38.8125 
Q 48.828125 37.15625 52.796875 32.3125 
Q 56.78125 27.484375 56.78125 20.515625 
Q 56.78125 9.90625 50.3125 4.234375 
Q 43.84375 -1.421875 31.78125 -1.421875 
Q 19.734375 -1.421875 13.25 4.234375 
Q 6.78125 9.90625 6.78125 20.515625 
Q 6.78125 27.484375 10.78125 32.3125 
Q 14.796875 37.15625 21.921875 38.8125 
M 18.3125 54.390625 
Q 18.3125 48.734375 21.84375 45.5625 
Q 25.390625 42.390625 31.78125 42.390625 
Q 38.140625 42.390625 41.71875 45.5625 
Q 45.3125 48.734375 45.3125 54.390625 
Q 45.3125 60.0625 41.71875 63.234375 
Q 38.140625 66.40625 31.78125 66.40625 
Q 25.390625 66.40625 21.84375 63.234375 
Q 18.3125 60.0625 18.3125 54.390625 
" id="BitstreamVeraSans-Roman-38"/>
      </defs>
      <g transform="translate(313.8884375 263.5984375)scale(0.1 -0.1)">
       <use xlink:href="#BitstreamVeraSans-Roman-30"/>
       <use x="63.623046875" xlink:href="#BitstreamVeraSans-Roman-2e"/>
       <use x="95.41015625" xlink:href="#BitstreamVeraSans-Roman-38"/>
      </g>
     </g>
    </g>
    <g id="xtick_6">
     <g id="line2d_25">
      <path clip-path="url(#pf914ba6d36)" d="M 388.8 252 
L 388.8 28.8 
" style="fill:none;stroke:#000000;stroke-dasharray:1.000000,3.000000;stroke-dashoffset:0.0;stroke-width:0.5;"/>
     </g>
     <g id="line2d_26">
      <g>
       <use style="stroke:#000000;stroke-width:0.5;" x="388.8" xlink:href="#mf5250737fd" y="252.0"/>
      </g>
     </g>
     <g id="line2d_27">
      <g>
       <use style="stroke:#000000;stroke-width:0.5;" x="388.8" xlink:href="#m90ede6ae60" y="28.8"/>
      </g>
     </g>
     <g id="text_6">
      <!-- 1.0 -->
      <defs>
       <path d="M 12.40625 8.296875 
L 28.515625 8.296875 
L 28.515625 63.921875 
L 10.984375 60.40625 
L 10.984375 69.390625 
L 28.421875 72.90625 
L 38.28125 72.90625 
L 38.28125 8.296875 
L 54.390625 8.296875 
L 54.390625 0 
L 12.40625 0 
z
" id="BitstreamVeraSans-Roman-31"/>
      </defs>
      <g transform="translate(380.8484375 263.5984375)scale(0.1 -0.1)">
       <use xlink:href="#BitstreamVeraSans-Roman-31"/>
       <use x="63.623046875" xlink:href="#BitstreamVeraSans-Roman-2e"/>
       <use x="95.41015625" xlink:href="#BitstreamVeraSans-Roman-30"/>
      </g>
     </g>
    </g>
    <g id="text_7">
     <!-- Recall -->
     <defs>
      <path d="M 56.203125 29.59375 
L 56.203125 25.203125 
L 14.890625 25.203125 
Q 15.484375 15.921875 20.484375 11.0625 
Q 25.484375 6.203125 34.421875 6.203125 
Q 39.59375 6.203125 44.453125 7.46875 
Q 49.3125 8.734375 54.109375 11.28125 
L 54.109375 2.78125 
Q 49.265625 0.734375 44.1875 -0.34375 
Q 39.109375 -1.421875 33.890625 -1.421875 
Q 20.796875 -1.421875 13.15625 6.1875 
Q 5.515625 13.8125 5.515625 26.8125 
Q 5.515625 40.234375 12.765625 48.109375 
Q 20.015625 56 32.328125 56 
Q 43.359375 56 49.78125 48.890625 
Q 56.203125 41.796875 56.203125 29.59375 
M 47.21875 32.234375 
Q 47.125 39.59375 43.09375 43.984375 
Q 39.0625 48.390625 32.421875 48.390625 
Q 24.90625 48.390625 20.390625 44.140625 
Q 15.875 39.890625 15.1875 32.171875 
z
" id="BitstreamVeraSans-Roman-65"/>
      <path d="M 44.390625 34.1875 
Q 47.5625 33.109375 50.5625 29.59375 
Q 53.5625 26.078125 56.59375 19.921875 
L 66.609375 0 
L 56 0 
L 46.6875 18.703125 
Q 43.0625 26.03125 39.671875 28.421875 
Q 36.28125 30.8125 30.421875 30.8125 
L 19.671875 30.8125 
L 19.671875 0 
L 9.8125 0 
L 9.8125 72.90625 
L 32.078125 72.90625 
Q 44.578125 72.90625 50.734375 67.671875 
Q 56.890625 62.453125 56.890625 51.90625 
Q 56.890625 45.015625 53.6875 40.46875 
Q 50.484375 35.9375 44.390625 34.1875 
M 19.671875 64.796875 
L 19.671875 38.921875 
L 32.078125 38.921875 
Q 39.203125 38.921875 42.84375 42.21875 
Q 46.484375 45.515625 46.484375 51.90625 
Q 46.484375 58.296875 42.84375 61.546875 
Q 39.203125 64.796875 32.078125 64.796875 
z
" id="BitstreamVeraSans-Roman-52"/>
      <path d="M 34.28125 27.484375 
Q 23.390625 27.484375 19.1875 25 
Q 14.984375 22.515625 14.984375 16.5 
Q 14.984375 11.71875 18.140625 8.90625 
Q 21.296875 6.109375 26.703125 6.109375 
Q 34.1875 6.109375 38.703125 11.40625 
Q 43.21875 16.703125 43.21875 25.484375 
L 43.21875 27.484375 
z
M 52.203125 31.203125 
L 52.203125 0 
L 43.21875 0 
L 43.21875 8.296875 
Q 40.140625 3.328125 35.546875 0.953125 
Q 30.953125 -1.421875 24.3125 -1.421875 
Q 15.921875 -1.421875 10.953125 3.296875 
Q 6 8.015625 6 15.921875 
Q 6 25.140625 12.171875 29.828125 
Q 18.359375 34.515625 30.609375 34.515625 
L 43.21875 34.515625 
L 43.21875 35.40625 
Q 43.21875 41.609375 39.140625 45 
Q 35.0625 48.390625 27.6875 48.390625 
Q 23 48.390625 18.546875 47.265625 
Q 14.109375 46.140625 10.015625 43.890625 
L 10.015625 52.203125 
Q 14.9375 54.109375 19.578125 55.046875 
Q 24.21875 56 28.609375 56 
Q 40.484375 56 46.34375 49.84375 
Q 52.203125 43.703125 52.203125 31.203125 
" id="BitstreamVeraSans-Roman-61"/>
      <path d="M 9.421875 75.984375 
L 18.40625 75.984375 
L 18.40625 0 
L 9.421875 0 
z
" id="BitstreamVeraSans-Roman-6c"/>
      <path d="M 48.78125 52.59375 
L 48.78125 44.1875 
Q 44.96875 46.296875 41.140625 47.34375 
Q 37.3125 48.390625 33.40625 48.390625 
Q 24.65625 48.390625 19.8125 42.84375 
Q 14.984375 37.3125 14.984375 27.296875 
Q 14.984375 17.28125 19.8125 11.734375 
Q 24.65625 6.203125 33.40625 6.203125 
Q 37.3125 6.203125 41.140625 7.25 
Q 44.96875 8.296875 48.78125 10.40625 
L 48.78125 2.09375 
Q 45.015625 0.34375 40.984375 -0.53125 
Q 36.96875 -1.421875 32.421875 -1.421875 
Q 20.0625 -1.421875 12.78125 6.34375 
Q 5.515625 14.109375 5.515625 27.296875 
Q 5.515625 40.671875 12.859375 48.328125 
Q 20.21875 56 33.015625 56 
Q 37.15625 56 41.109375 55.140625 
Q 45.0625 54.296875 48.78125 52.59375 
" id="BitstreamVeraSans-Roman-63"/>
     </defs>
     <g transform="translate(206.2609375 278.2765625)scale(0.1 -0.1)">
      <use xlink:href="#BitstreamVeraSans-Roman-52"/>
      <use x="69.419921875" xlink:href="#BitstreamVeraSans-Roman-65"/>
      <use x="130.943359375" xlink:href="#BitstreamVeraSans-Roman-63"/>
      <use x="185.923828125" xlink:href="#BitstreamVeraSans-Roman-61"/>
      <use x="247.203125" xlink:href="#BitstreamVeraSans-Roman-6c"/>
      <use x="274.986328125" xlink:href="#BitstreamVeraSans-Roman-6c"/>
     </g>
    </g>
   </g>
   <g id="matplotlib.axis_2">
    <g id="ytick_1">
     <g id="line2d_28">
      <path clip-path="url(#pf914ba6d36)" d="M 54 252 
L 388.8 252 
" style="fill:none;stroke:#000000;stroke-dasharray:1.000000,3.000000;stroke-dashoffset:0.0;stroke-width:0.5;"/>
     </g>
     <g id="line2d_29">
      <defs>
       <path d="M 0 0 
L 4 0 
" id="m90f30b9370" style="stroke:#000000;stroke-width:0.5;"/>
      </defs>
      <g>
       <use style="stroke:#000000;stroke-width:0.5;" x="54.0" xlink:href="#m90f30b9370" y="252.0"/>
      </g>
     </g>
     <g id="line2d_30">
      <defs>
       <path d="M 0 0 
L -4 0 
" id="m080da993e6" style="stroke:#000000;stroke-width:0.5;"/>
      </defs>
      <g>
       <use style="stroke:#000000;stroke-width:0.5;" x="388.8" xlink:href="#m080da993e6" y="252.0"/>
      </g>
     </g>
     <g id="text_8">
      <!-- 0.0 -->
      <g transform="translate(34.096875 254.759375)scale(0.1 -0.1)">
       <use xlink:href="#BitstreamVeraSans-Roman-30"/>
       <use x="63.623046875" xlink:href="#BitstreamVeraSans-Roman-2e"/>
       <use x="95.41015625" xlink:href="#BitstreamVeraSans-Roman-30"/>
      </g>
     </g>
    </g>
    <g id="ytick_2">
     <g id="line2d_31">
      <path clip-path="url(#pf914ba6d36)" d="M 54 207.36 
L 388.8 207.36 
" style="fill:none;stroke:#000000;stroke-dasharray:1.000000,3.000000;stroke-dashoffset:0.0;stroke-width:0.5;"/>
     </g>
     <g id="line2d_32">
      <g>
       <use style="stroke:#000000;stroke-width:0.5;" x="54.0" xlink:href="#m90f30b9370" y="207.36"/>
      </g>
     </g>
     <g id="line2d_33">
      <g>
       <use style="stroke:#000000;stroke-width:0.5;" x="388.8" xlink:href="#m080da993e6" y="207.36"/>
      </g>
     </g>
     <g id="text_9">
      <!-- 0.2 -->
      <g transform="translate(34.096875 210.119375)scale(0.1 -0.1)">
       <use xlink:href="#BitstreamVeraSans-Roman-30"/>
       <use x="63.623046875" xlink:href="#BitstreamVeraSans-Roman-2e"/>
       <use x="95.41015625" xlink:href="#BitstreamVeraSans-Roman-32"/>
      </g>
     </g>
    </g>
    <g id="ytick_3">
     <g id="line2d_34">
      <path clip-path="url(#pf914ba6d36)" d="M 54 162.72 
L 388.8 162.72 
" style="fill:none;stroke:#000000;stroke-dasharray:1.000000,3.000000;stroke-dashoffset:0.0;stroke-width:0.5;"/>
     </g>
     <g id="line2d_35">
      <g>
       <use style="stroke:#000000;stroke-width:0.5;" x="54.0" xlink:href="#m90f30b9370" y="162.72"/>
      </g>
     </g>
     <g id="line2d_36">
      <g>
       <use style="stroke:#000000;stroke-width:0.5;" x="388.8" xlink:href="#m080da993e6" y="162.72"/>
      </g>
     </g>
     <g id="text_10">
      <!-- 0.4 -->
      <g transform="translate(34.096875 165.479375)scale(0.1 -0.1)">
       <use xlink:href="#BitstreamVeraSans-Roman-30"/>
       <use x="63.623046875" xlink:href="#BitstreamVeraSans-Roman-2e"/>
       <use x="95.41015625" xlink:href="#BitstreamVeraSans-Roman-34"/>
      </g>
     </g>
    </g>
    <g id="ytick_4">
     <g id="line2d_37">
      <path clip-path="url(#pf914ba6d36)" d="M 54 118.08 
L 388.8 118.08 
" style="fill:none;stroke:#000000;stroke-dasharray:1.000000,3.000000;stroke-dashoffset:0.0;stroke-width:0.5;"/>
     </g>
     <g id="line2d_38">
      <g>
       <use style="stroke:#000000;stroke-width:0.5;" x="54.0" xlink:href="#m90f30b9370" y="118.08"/>
      </g>
     </g>
     <g id="line2d_39">
      <g>
       <use style="stroke:#000000;stroke-width:0.5;" x="388.8" xlink:href="#m080da993e6" y="118.08"/>
      </g>
     </g>
     <g id="text_11">
      <!-- 0.6 -->
      <g transform="translate(34.096875 120.839375)scale(0.1 -0.1)">
       <use xlink:href="#BitstreamVeraSans-Roman-30"/>
       <use x="63.623046875" xlink:href="#BitstreamVeraSans-Roman-2e"/>
       <use x="95.41015625" xlink:href="#BitstreamVeraSans-Roman-36"/>
      </g>
     </g>
    </g>
    <g id="ytick_5">
     <g id="line2d_40">
      <path clip-path="url(#pf914ba6d36)" d="M 54 73.44 
L 388.8 73.44 
" style="fill:none;stroke:#000000;stroke-dasharray:1.000000,3.000000;stroke-dashoffset:0.0;stroke-width:0.5;"/>
     </g>
     <g id="line2d_41">
      <g>
       <use style="stroke:#000000;stroke-width:0.5;" x="54.0" xlink:href="#m90f30b9370" y="73.44"/>
      </g>
     </g>
     <g id="line2d_42">
      <g>
       <use style="stroke:#000000;stroke-width:0.5;" x="388.8" xlink:href="#m080da993e6" y="73.44"/>
      </g>
     </g>
     <g id="text_12">
      <!-- 0.8 -->
      <g transform="translate(34.096875 76.199375)scale(0.1 -0.1)">
       <use xlink:href="#BitstreamVeraSans-Roman-30"/>
       <use x="63.623046875" xlink:href="#BitstreamVeraSans-Roman-2e"/>
       <use x="95.41015625" xlink:href="#BitstreamVeraSans-Roman-38"/>
      </g>
     </g>
    </g>
    <g id="ytick_6">
     <g id="line2d_43">
      <path clip-path="url(#pf914ba6d36)" d="M 54 28.8 
L 388.8 28.8 
" style="fill:none;stroke:#000000;stroke-dasharray:1.000000,3.000000;stroke-dashoffset:0.0;stroke-width:0.5;"/>
     </g>
     <g id="line2d_44">
      <g>
       <use style="stroke:#000000;stroke-width:0.5;" x="54.0" xlink:href="#m90f30b9370" y="28.8"/>
      </g>
     </g>
     <g id="line2d_45">
      <g>
       <use style="stroke:#000000;stroke-width:0.5;" x="388.8" xlink:href="#m080da993e6" y="28.8"/>
      </g>
     </g>
     <g id="text_13">
      <!-- 1.0 -->
      <g transform="translate(34.096875 31.559375)scale(0.1 -0.1)">
       <use xlink:href="#BitstreamVeraSans-Roman-31"/>
       <use x="63.623046875" xlink:href="#BitstreamVeraSans-Roman-2e"/>
       <use x="95.41015625" xlink:href="#BitstreamVeraSans-Roman-30"/>
      </g>
     </g>
    </g>
    <g id="text_14">
     <!-- Precision -->
     <defs>
      <path d="M 54.890625 33.015625 
L 54.890625 0 
L 45.90625 0 
L 45.90625 32.71875 
Q 45.90625 40.484375 42.875 44.328125 
Q 39.84375 48.1875 33.796875 48.1875 
Q 26.515625 48.1875 22.3125 43.546875 
Q 18.109375 38.921875 18.109375 30.90625 
L 18.109375 0 
L 9.078125 0 
L 9.078125 54.6875 
L 18.109375 54.6875 
L 18.109375 46.1875 
Q 21.34375 51.125 25.703125 53.5625 
Q 30.078125 56 35.796875 56 
Q 45.21875 56 50.046875 50.171875 
Q 54.890625 44.34375 54.890625 33.015625 
" id="BitstreamVeraSans-Roman-6e"/>
      <path d="M 30.609375 48.390625 
Q 23.390625 48.390625 19.1875 42.75 
Q 14.984375 37.109375 14.984375 27.296875 
Q 14.984375 17.484375 19.15625 11.84375 
Q 23.34375 6.203125 30.609375 6.203125 
Q 37.796875 6.203125 41.984375 11.859375 
Q 46.1875 17.53125 46.1875 27.296875 
Q 46.1875 37.015625 41.984375 42.703125 
Q 37.796875 48.390625 30.609375 48.390625 
M 30.609375 56 
Q 42.328125 56 49.015625 48.375 
Q 55.71875 40.765625 55.71875 27.296875 
Q 55.71875 13.875 49.015625 6.21875 
Q 42.328125 -1.421875 30.609375 -1.421875 
Q 18.84375 -1.421875 12.171875 6.21875 
Q 5.515625 13.875 5.515625 27.296875 
Q 5.515625 40.765625 12.171875 48.375 
Q 18.84375 56 30.609375 56 
" id="BitstreamVeraSans-Roman-6f"/>
      <path d="M 19.671875 64.796875 
L 19.671875 37.40625 
L 32.078125 37.40625 
Q 38.96875 37.40625 42.71875 40.96875 
Q 46.484375 44.53125 46.484375 51.125 
Q 46.484375 57.671875 42.71875 61.234375 
Q 38.96875 64.796875 32.078125 64.796875 
z
M 9.8125 72.90625 
L 32.078125 72.90625 
Q 44.34375 72.90625 50.609375 67.359375 
Q 56.890625 61.8125 56.890625 51.125 
Q 56.890625 40.328125 50.609375 34.8125 
Q 44.34375 29.296875 32.078125 29.296875 
L 19.671875 29.296875 
L 19.671875 0 
L 9.8125 0 
z
" id="BitstreamVeraSans-Roman-50"/>
      <path d="M 9.421875 54.6875 
L 18.40625 54.6875 
L 18.40625 0 
L 9.421875 0 
z
M 9.421875 75.984375 
L 18.40625 75.984375 
L 18.40625 64.59375 
L 9.421875 64.59375 
z
" id="BitstreamVeraSans-Roman-69"/>
      <path d="M 41.109375 46.296875 
Q 39.59375 47.171875 37.8125 47.578125 
Q 36.03125 48 33.890625 48 
Q 26.265625 48 22.1875 43.046875 
Q 18.109375 38.09375 18.109375 28.8125 
L 18.109375 0 
L 9.078125 0 
L 9.078125 54.6875 
L 18.109375 54.6875 
L 18.109375 46.1875 
Q 20.953125 51.171875 25.484375 53.578125 
Q 30.03125 56 36.53125 56 
Q 37.453125 56 38.578125 55.875 
Q 39.703125 55.765625 41.0625 55.515625 
z
" id="BitstreamVeraSans-Roman-72"/>
      <path d="M 44.28125 53.078125 
L 44.28125 44.578125 
Q 40.484375 46.53125 36.375 47.5 
Q 32.28125 48.484375 27.875 48.484375 
Q 21.1875 48.484375 17.84375 46.4375 
Q 14.5 44.390625 14.5 40.28125 
Q 14.5 37.15625 16.890625 35.375 
Q 19.28125 33.59375 26.515625 31.984375 
L 29.59375 31.296875 
Q 39.15625 29.25 43.1875 25.515625 
Q 47.21875 21.78125 47.21875 15.09375 
Q 47.21875 7.46875 41.1875 3.015625 
Q 35.15625 -1.421875 24.609375 -1.421875 
Q 20.21875 -1.421875 15.453125 -0.5625 
Q 10.6875 0.296875 5.421875 2 
L 5.421875 11.28125 
Q 10.40625 8.6875 15.234375 7.390625 
Q 20.0625 6.109375 24.8125 6.109375 
Q 31.15625 6.109375 34.5625 8.28125 
Q 37.984375 10.453125 37.984375 14.40625 
Q 37.984375 18.0625 35.515625 20.015625 
Q 33.0625 21.96875 24.703125 23.78125 
L 21.578125 24.515625 
Q 13.234375 26.265625 9.515625 29.90625 
Q 5.8125 33.546875 5.8125 39.890625 
Q 5.8125 47.609375 11.28125 51.796875 
Q 16.75 56 26.8125 56 
Q 31.78125 56 36.171875 55.265625 
Q 40.578125 54.546875 44.28125 53.078125 
" id="BitstreamVeraSans-Roman-73"/>
     </defs>
     <g transform="translate(27.0171875 162.9046875)rotate(-90.0)scale(0.1 -0.1)">
      <use xlink:href="#BitstreamVeraSans-Roman-50"/>
      <use x="60.287109375" xlink:href="#BitstreamVeraSans-Roman-72"/>
      <use x="101.369140625" xlink:href="#BitstreamVeraSans-Roman-65"/>
      <use x="162.892578125" xlink:href="#BitstreamVeraSans-Roman-63"/>
      <use x="217.873046875" xlink:href="#BitstreamVeraSans-Roman-69"/>
      <use x="245.65625" xlink:href="#BitstreamVeraSans-Roman-73"/>
      <use x="297.755859375" xlink:href="#BitstreamVeraSans-Roman-69"/>
      <use x="325.5390625" xlink:href="#BitstreamVeraSans-Roman-6f"/>
      <use x="386.720703125" xlink:href="#BitstreamVeraSans-Roman-6e"/>
     </g>
    </g>
   </g>
   <g id="text_15">
    <!-- Avg of 9 line's AUC=0.67 -->
    <defs>
     <path id="BitstreamVeraSans-Roman-20"/>
     <path d="M 10.59375 45.40625 
L 73.1875 45.40625 
L 73.1875 37.203125 
L 10.59375 37.203125 
z
M 10.59375 25.484375 
L 73.1875 25.484375 
L 73.1875 17.1875 
L 10.59375 17.1875 
z
" id="BitstreamVeraSans-Roman-3d"/>
     <path d="M 17.921875 72.90625 
L 17.921875 45.796875 
L 9.625 45.796875 
L 9.625 72.90625 
z
" id="BitstreamVeraSans-Roman-27"/>
     <path d="M 10.984375 1.515625 
L 10.984375 10.5 
Q 14.703125 8.734375 18.5 7.8125 
Q 22.3125 6.890625 25.984375 6.890625 
Q 35.75 6.890625 40.890625 13.453125 
Q 46.046875 20.015625 46.78125 33.40625 
Q 43.953125 29.203125 39.59375 26.953125 
Q 35.25 24.703125 29.984375 24.703125 
Q 19.046875 24.703125 12.671875 31.3125 
Q 6.296875 37.9375 6.296875 49.421875 
Q 6.296875 60.640625 12.9375 67.421875 
Q 19.578125 74.21875 30.609375 74.21875 
Q 43.265625 74.21875 49.921875 64.515625 
Q 56.59375 54.828125 56.59375 36.375 
Q 56.59375 19.140625 48.40625 8.859375 
Q 40.234375 -1.421875 26.421875 -1.421875 
Q 22.703125 -1.421875 18.890625 -0.6875 
Q 15.09375 0.046875 10.984375 1.515625 
M 30.609375 32.421875 
Q 37.25 32.421875 41.125 36.953125 
Q 45.015625 41.5 45.015625 49.421875 
Q 45.015625 57.28125 41.125 61.84375 
Q 37.25 66.40625 30.609375 66.40625 
Q 23.96875 66.40625 20.09375 61.84375 
Q 16.21875 57.28125 16.21875 49.421875 
Q 16.21875 41.5 20.09375 36.953125 
Q 23.96875 32.421875 30.609375 32.421875 
" id="BitstreamVeraSans-Roman-39"/>
     <path d="M 64.40625 67.28125 
L 64.40625 56.890625 
Q 59.421875 61.53125 53.78125 63.8125 
Q 48.140625 66.109375 41.796875 66.109375 
Q 29.296875 66.109375 22.65625 58.46875 
Q 16.015625 50.828125 16.015625 36.375 
Q 16.015625 21.96875 22.65625 14.328125 
Q 29.296875 6.6875 41.796875 6.6875 
Q 48.140625 6.6875 53.78125 8.984375 
Q 59.421875 11.28125 64.40625 15.921875 
L 64.40625 5.609375 
Q 59.234375 2.09375 53.4375 0.328125 
Q 47.65625 -1.421875 41.21875 -1.421875 
Q 24.65625 -1.421875 15.125 8.703125 
Q 5.609375 18.84375 5.609375 36.375 
Q 5.609375 53.953125 15.125 64.078125 
Q 24.65625 74.21875 41.21875 74.21875 
Q 47.75 74.21875 53.53125 72.484375 
Q 59.328125 70.75 64.40625 67.28125 
" id="BitstreamVeraSans-Roman-43"/>
     <path d="M 8.6875 72.90625 
L 18.609375 72.90625 
L 18.609375 28.609375 
Q 18.609375 16.890625 22.84375 11.734375 
Q 27.09375 6.59375 36.625 6.59375 
Q 46.09375 6.59375 50.34375 11.734375 
Q 54.59375 16.890625 54.59375 28.609375 
L 54.59375 72.90625 
L 64.5 72.90625 
L 64.5 27.390625 
Q 64.5 13.140625 57.4375 5.859375 
Q 50.390625 -1.421875 36.625 -1.421875 
Q 22.796875 -1.421875 15.734375 5.859375 
Q 8.6875 13.140625 8.6875 27.390625 
z
" id="BitstreamVeraSans-Roman-55"/>
     <path d="M 34.1875 63.1875 
L 20.796875 26.90625 
L 47.609375 26.90625 
z
M 28.609375 72.90625 
L 39.796875 72.90625 
L 67.578125 0 
L 57.328125 0 
L 50.6875 18.703125 
L 17.828125 18.703125 
L 11.1875 0 
L 0.78125 0 
z
" id="BitstreamVeraSans-Roman-41"/>
     <path d="M 2.984375 54.6875 
L 12.5 54.6875 
L 29.59375 8.796875 
L 46.6875 54.6875 
L 56.203125 54.6875 
L 35.6875 0 
L 23.484375 0 
z
" id="BitstreamVeraSans-Roman-76"/>
     <path d="M 45.40625 27.984375 
Q 45.40625 37.75 41.375 43.109375 
Q 37.359375 48.484375 30.078125 48.484375 
Q 22.859375 48.484375 18.828125 43.109375 
Q 14.796875 37.75 14.796875 27.984375 
Q 14.796875 18.265625 18.828125 12.890625 
Q 22.859375 7.515625 30.078125 7.515625 
Q 37.359375 7.515625 41.375 12.890625 
Q 45.40625 18.265625 45.40625 27.984375 
M 54.390625 6.78125 
Q 54.390625 -7.171875 48.1875 -13.984375 
Q 42 -20.796875 29.203125 -20.796875 
Q 24.46875 -20.796875 20.265625 -20.09375 
Q 16.0625 -19.390625 12.109375 -17.921875 
L 12.109375 -9.1875 
Q 16.0625 -11.328125 19.921875 -12.34375 
Q 23.78125 -13.375 27.78125 -13.375 
Q 36.625 -13.375 41.015625 -8.765625 
Q 45.40625 -4.15625 45.40625 5.171875 
L 45.40625 9.625 
Q 42.625 4.78125 38.28125 2.390625 
Q 33.9375 0 27.875 0 
Q 17.828125 0 11.671875 7.65625 
Q 5.515625 15.328125 5.515625 27.984375 
Q 5.515625 40.671875 11.671875 48.328125 
Q 17.828125 56 27.875 56 
Q 33.9375 56 38.28125 53.609375 
Q 42.625 51.21875 45.40625 46.390625 
L 45.40625 54.6875 
L 54.390625 54.6875 
z
" id="BitstreamVeraSans-Roman-67"/>
     <path d="M 37.109375 75.984375 
L 37.109375 68.5 
L 28.515625 68.5 
Q 23.6875 68.5 21.796875 66.546875 
Q 19.921875 64.59375 19.921875 59.515625 
L 19.921875 54.6875 
L 34.71875 54.6875 
L 34.71875 47.703125 
L 19.921875 47.703125 
L 19.921875 0 
L 10.890625 0 
L 10.890625 47.703125 
L 2.296875 47.703125 
L 2.296875 54.6875 
L 10.890625 54.6875 
L 10.890625 58.5 
Q 10.890625 67.625 15.140625 71.796875 
Q 19.390625 75.984375 28.609375 75.984375 
z
" id="BitstreamVeraSans-Roman-66"/>
     <path d="M 8.203125 72.90625 
L 55.078125 72.90625 
L 55.078125 68.703125 
L 28.609375 0 
L 18.3125 0 
L 43.21875 64.59375 
L 8.203125 64.59375 
z
" id="BitstreamVeraSans-Roman-37"/>
    </defs>
    <g transform="translate(146.03625 23.8)scale(0.12 -0.12)">
     <use xlink:href="#BitstreamVeraSans-Roman-41"/>
     <use x="68.330078125" xlink:href="#BitstreamVeraSans-Roman-76"/>
     <use x="127.509765625" xlink:href="#BitstreamVeraSans-Roman-67"/>
     <use x="190.986328125" xlink:href="#BitstreamVeraSans-Roman-20"/>
     <use x="222.7734375" xlink:href="#BitstreamVeraSans-Roman-6f"/>
     <use x="283.955078125" xlink:href="#BitstreamVeraSans-Roman-66"/>
     <use x="319.16015625" xlink:href="#BitstreamVeraSans-Roman-20"/>
     <use x="350.947265625" xlink:href="#BitstreamVeraSans-Roman-39"/>
     <use x="414.5703125" xlink:href="#BitstreamVeraSans-Roman-20"/>
     <use x="446.357421875" xlink:href="#BitstreamVeraSans-Roman-6c"/>
     <use x="474.140625" xlink:href="#BitstreamVeraSans-Roman-69"/>
     <use x="501.923828125" xlink:href="#BitstreamVeraSans-Roman-6e"/>
     <use x="565.302734375" xlink:href="#BitstreamVeraSans-Roman-65"/>
     <use x="626.826171875" xlink:href="#BitstreamVeraSans-Roman-27"/>
     <use x="654.31640625" xlink:href="#BitstreamVeraSans-Roman-73"/>
     <use x="706.416015625" xlink:href="#BitstreamVeraSans-Roman-20"/>
     <use x="738.203125" xlink:href="#BitstreamVeraSans-Roman-41"/>
     <use x="806.611328125" xlink:href="#BitstreamVeraSans-Roman-55"/>
     <use x="879.8046875" xlink:href="#BitstreamVeraSans-Roman-43"/>
     <use x="949.62890625" xlink:href="#BitstreamVeraSans-Roman-3d"/>
     <use x="1033.41796875" xlink:href="#BitstreamVeraSans-Roman-30"/>
     <use x="1097.04101562" xlink:href="#BitstreamVeraSans-Roman-2e"/>
     <use x="1128.828125" xlink:href="#BitstreamVeraSans-Roman-36"/>
     <use x="1192.45117188" xlink:href="#BitstreamVeraSans-Roman-37"/>
    </g>
   </g>
   <g id="legend_1">
    <g id="patch_7">
     <path d="M 54 252 
L 321.84 252 
L 321.84 195.55875 
L 54 195.55875 
z
" style="fill:#ffffff;stroke:#000000;stroke-linejoin:miter;"/>
    </g>
    <g id="line2d_46">
     <path d="M 62.4 205.276875 
L 79.2 205.276875 
" style="fill:none;stroke:#ff0000;stroke-linecap:square;"/>
    </g>
    <g id="line2d_47"/>
    <g id="text_16">
     <!-- MY4 -->
     <defs>
      <path d="M -0.203125 72.90625 
L 10.40625 72.90625 
L 30.609375 42.921875 
L 50.6875 72.90625 
L 61.28125 72.90625 
L 35.5 34.71875 
L 35.5 0 
L 25.59375 0 
L 25.59375 34.71875 
z
" id="BitstreamVeraSans-Roman-59"/>
      <path d="M 9.8125 72.90625 
L 24.515625 72.90625 
L 43.109375 23.296875 
L 61.8125 72.90625 
L 76.515625 72.90625 
L 76.515625 0 
L 66.890625 0 
L 66.890625 64.015625 
L 48.09375 14.015625 
L 38.1875 14.015625 
L 19.390625 64.015625 
L 19.390625 0 
L 9.8125 0 
z
" id="BitstreamVeraSans-Roman-4d"/>
     </defs>
     <g transform="translate(92.4 209.476875)scale(0.12 -0.12)">
      <use xlink:href="#BitstreamVeraSans-Roman-4d"/>
      <use x="86.279296875" xlink:href="#BitstreamVeraSans-Roman-59"/>
      <use x="147.36328125" xlink:href="#BitstreamVeraSans-Roman-34"/>
     </g>
    </g>
    <g id="line2d_48">
     <path d="M 62.4 222.890625 
L 79.2 222.890625 
" style="fill:none;stroke:#0000ff;stroke-linecap:square;"/>
    </g>
    <g id="line2d_49"/>
    <g id="text_17">
     <!-- ME1 -->
     <defs>
      <path d="M 9.8125 72.90625 
L 55.90625 72.90625 
L 55.90625 64.59375 
L 19.671875 64.59375 
L 19.671875 43.015625 
L 54.390625 43.015625 
L 54.390625 34.71875 
L 19.671875 34.71875 
L 19.671875 8.296875 
L 56.78125 8.296875 
L 56.78125 0 
L 9.8125 0 
z
" id="BitstreamVeraSans-Roman-45"/>
     </defs>
     <g transform="translate(92.4 227.090625)scale(0.12 -0.12)">
      <use xlink:href="#BitstreamVeraSans-Roman-4d"/>
      <use x="86.279296875" xlink:href="#BitstreamVeraSans-Roman-45"/>
      <use x="149.462890625" xlink:href="#BitstreamVeraSans-Roman-31"/>
     </g>
    </g>
    <g id="line2d_50">
     <path d="M 62.4 240.504375 
L 79.2 240.504375 
" style="fill:none;stroke:#000000;stroke-linecap:square;"/>
    </g>
    <g id="line2d_51"/>
    <g id="text_18">
     <!-- FT -->
     <defs>
      <path d="M 9.8125 72.90625 
L 51.703125 72.90625 
L 51.703125 64.59375 
L 19.671875 64.59375 
L 19.671875 43.109375 
L 48.578125 43.109375 
L 48.578125 34.8125 
L 19.671875 34.8125 
L 19.671875 0 
L 9.8125 0 
z
" id="BitstreamVeraSans-Roman-46"/>
      <path d="M -0.296875 72.90625 
L 61.375 72.90625 
L 61.375 64.59375 
L 35.5 64.59375 
L 35.5 0 
L 25.59375 0 
L 25.59375 64.59375 
L -0.296875 64.59375 
z
" id="BitstreamVeraSans-Roman-54"/>
     </defs>
     <g transform="translate(92.4 244.704375)scale(0.12 -0.12)">
      <use xlink:href="#BitstreamVeraSans-Roman-46"/>
      <use x="57.50390625" xlink:href="#BitstreamVeraSans-Roman-54"/>
     </g>
    </g>
    <g id="line2d_52">
     <path d="M 155.289375 205.276875 
L 172.089375 205.276875 
" style="fill:none;stroke:#008000;stroke-linecap:square;"/>
    </g>
    <g id="line2d_53"/>
    <g id="text_19">
     <!-- GC -->
     <defs>
      <path d="M 59.515625 10.40625 
L 59.515625 29.984375 
L 43.40625 29.984375 
L 43.40625 38.09375 
L 69.28125 38.09375 
L 69.28125 6.78125 
Q 63.578125 2.734375 56.6875 0.65625 
Q 49.8125 -1.421875 42 -1.421875 
Q 24.90625 -1.421875 15.25 8.5625 
Q 5.609375 18.5625 5.609375 36.375 
Q 5.609375 54.25 15.25 64.234375 
Q 24.90625 74.21875 42 74.21875 
Q 49.125 74.21875 55.546875 72.453125 
Q 61.96875 70.703125 67.390625 67.28125 
L 67.390625 56.78125 
Q 61.921875 61.421875 55.765625 63.765625 
Q 49.609375 66.109375 42.828125 66.109375 
Q 29.4375 66.109375 22.71875 58.640625 
Q 16.015625 51.171875 16.015625 36.375 
Q 16.015625 21.625 22.71875 14.15625 
Q 29.4375 6.6875 42.828125 6.6875 
Q 48.046875 6.6875 52.140625 7.59375 
Q 56.25 8.5 59.515625 10.40625 
" id="BitstreamVeraSans-Roman-47"/>
     </defs>
     <g transform="translate(185.289375 209.476875)scale(0.12 -0.12)">
      <use xlink:href="#BitstreamVeraSans-Roman-47"/>
      <use x="77.490234375" xlink:href="#BitstreamVeraSans-Roman-43"/>
     </g>
    </g>
    <g id="line2d_54">
     <path d="M 155.289375 222.890625 
L 172.089375 222.890625 
" style="fill:none;stroke:#00bfbf;stroke-linecap:square;"/>
    </g>
    <g id="line2d_55"/>
    <g id="text_20">
     <!-- RC -->
     <g transform="translate(185.289375 227.090625)scale(0.12 -0.12)">
      <use xlink:href="#BitstreamVeraSans-Roman-52"/>
      <use x="69.404296875" xlink:href="#BitstreamVeraSans-Roman-43"/>
     </g>
    </g>
    <g id="line2d_56">
     <path d="M 155.289375 240.504375 
L 172.089375 240.504375 
" style="fill:none;stroke:#bfbf00;stroke-linecap:square;"/>
    </g>
    <g id="line2d_57"/>
    <g id="text_21">
     <!-- DRFI -->
     <defs>
      <path d="M 19.671875 64.796875 
L 19.671875 8.109375 
L 31.59375 8.109375 
Q 46.6875 8.109375 53.6875 14.9375 
Q 60.6875 21.78125 60.6875 36.53125 
Q 60.6875 51.171875 53.6875 57.984375 
Q 46.6875 64.796875 31.59375 64.796875 
z
M 9.8125 72.90625 
L 30.078125 72.90625 
Q 51.265625 72.90625 61.171875 64.09375 
Q 71.09375 55.28125 71.09375 36.53125 
Q 71.09375 17.671875 61.125 8.828125 
Q 51.171875 0 30.078125 0 
L 9.8125 0 
z
" id="BitstreamVeraSans-Roman-44"/>
      <path d="M 9.8125 72.90625 
L 19.671875 72.90625 
L 19.671875 0 
L 9.8125 0 
z
" id="BitstreamVeraSans-Roman-49"/>
     </defs>
     <g transform="translate(185.289375 244.704375)scale(0.12 -0.12)">
      <use xlink:href="#BitstreamVeraSans-Roman-44"/>
      <use x="77.001953125" xlink:href="#BitstreamVeraSans-Roman-52"/>
      <use x="146.484375" xlink:href="#BitstreamVeraSans-Roman-46"/>
      <use x="204.00390625" xlink:href="#BitstreamVeraSans-Roman-49"/>
     </g>
    </g>
    <g id="line2d_58">
     <path d="M 250.6275 205.276875 
L 267.4275 205.276875 
" style="fill:none;stroke:#bf00bf;stroke-linecap:square;"/>
    </g>
    <g id="line2d_59"/>
    <g id="text_22">
     <!-- GMR -->
     <g transform="translate(280.6275 209.476875)scale(0.12 -0.12)">
      <use xlink:href="#BitstreamVeraSans-Roman-47"/>
      <use x="77.490234375" xlink:href="#BitstreamVeraSans-Roman-4d"/>
      <use x="163.76953125" xlink:href="#BitstreamVeraSans-Roman-52"/>
     </g>
    </g>
    <g id="line2d_60">
     <path d="M 250.6275 222.890625 
L 267.4275 222.890625 
" style="fill:none;stroke:#ff0000;stroke-dasharray:6.000000,6.000000;stroke-dashoffset:0.0;"/>
    </g>
    <g id="line2d_61"/>
    <g id="text_23">
     <!-- QCUT -->
     <defs>
      <path d="M 39.40625 66.21875 
Q 28.65625 66.21875 22.328125 58.203125 
Q 16.015625 50.203125 16.015625 36.375 
Q 16.015625 22.609375 22.328125 14.59375 
Q 28.65625 6.59375 39.40625 6.59375 
Q 50.140625 6.59375 56.421875 14.59375 
Q 62.703125 22.609375 62.703125 36.375 
Q 62.703125 50.203125 56.421875 58.203125 
Q 50.140625 66.21875 39.40625 66.21875 
M 53.21875 1.3125 
L 66.21875 -12.890625 
L 54.296875 -12.890625 
L 43.5 -1.21875 
Q 41.890625 -1.3125 41.03125 -1.359375 
Q 40.1875 -1.421875 39.40625 -1.421875 
Q 24.03125 -1.421875 14.8125 8.859375 
Q 5.609375 19.140625 5.609375 36.375 
Q 5.609375 53.65625 14.8125 63.9375 
Q 24.03125 74.21875 39.40625 74.21875 
Q 54.734375 74.21875 63.90625 63.9375 
Q 73.09375 53.65625 73.09375 36.375 
Q 73.09375 23.6875 67.984375 14.640625 
Q 62.890625 5.609375 53.21875 1.3125 
" id="BitstreamVeraSans-Roman-51"/>
     </defs>
     <g transform="translate(280.6275 227.090625)scale(0.12 -0.12)">
      <use xlink:href="#BitstreamVeraSans-Roman-51"/>
      <use x="78.7109375" xlink:href="#BitstreamVeraSans-Roman-43"/>
      <use x="148.53515625" xlink:href="#BitstreamVeraSans-Roman-55"/>
      <use x="221.728515625" xlink:href="#BitstreamVeraSans-Roman-54"/>
     </g>
    </g>
    <g id="line2d_62">
     <path d="M 250.6275 240.504375 
L 267.4275 240.504375 
" style="fill:none;stroke:#0000ff;stroke-dasharray:6.000000,6.000000;stroke-dashoffset:0.0;"/>
    </g>
    <g id="line2d_63"/>
    <g id="text_24">
     <!-- DISC2 -->
     <defs>
      <path d="M 53.515625 70.515625 
L 53.515625 60.890625 
Q 47.90625 63.578125 42.921875 64.890625 
Q 37.9375 66.21875 33.296875 66.21875 
Q 25.25 66.21875 20.875 63.09375 
Q 16.5 59.96875 16.5 54.203125 
Q 16.5 49.359375 19.40625 46.890625 
Q 22.3125 44.4375 30.421875 42.921875 
L 36.375 41.703125 
Q 47.40625 39.59375 52.65625 34.296875 
Q 57.90625 29 57.90625 20.125 
Q 57.90625 9.515625 50.796875 4.046875 
Q 43.703125 -1.421875 29.984375 -1.421875 
Q 24.8125 -1.421875 18.96875 -0.25 
Q 13.140625 0.921875 6.890625 3.21875 
L 6.890625 13.375 
Q 12.890625 10.015625 18.65625 8.296875 
Q 24.421875 6.59375 29.984375 6.59375 
Q 38.421875 6.59375 43.015625 9.90625 
Q 47.609375 13.234375 47.609375 19.390625 
Q 47.609375 24.75 44.3125 27.78125 
Q 41.015625 30.8125 33.5 32.328125 
L 27.484375 33.5 
Q 16.453125 35.6875 11.515625 40.375 
Q 6.59375 45.0625 6.59375 53.421875 
Q 6.59375 63.09375 13.40625 68.65625 
Q 20.21875 74.21875 32.171875 74.21875 
Q 37.3125 74.21875 42.625 73.28125 
Q 47.953125 72.359375 53.515625 70.515625 
" id="BitstreamVeraSans-Roman-53"/>
     </defs>
     <g transform="translate(280.6275 244.704375)scale(0.12 -0.12)">
      <use xlink:href="#BitstreamVeraSans-Roman-44"/>
      <use x="77.001953125" xlink:href="#BitstreamVeraSans-Roman-49"/>
      <use x="106.494140625" xlink:href="#BitstreamVeraSans-Roman-53"/>
      <use x="169.970703125" xlink:href="#BitstreamVeraSans-Roman-43"/>
      <use x="239.794921875" xlink:href="#BitstreamVeraSans-Roman-32"/>
     </g>
    </g>
   </g>
  </g>
 </g>
 <defs>
  <clipPath id="pf914ba6d36">
   <rect height="223.2" width="334.8" x="54.0" y="28.8"/>
  </clipPath>
 </defs>
</svg>
