<?xml version="1.0" encoding="utf-8" standalone="no"?>
<!DOCTYPE svg PUBLIC "-//W3C//DTD SVG 1.1//EN"
  "http://www.w3.org/Graphics/SVG/1.1/DTD/svg11.dtd">
<!-- Created with matplotlib (http://matplotlib.org/) -->
<svg height="288pt" version="1.1" viewBox="0 0 432 288" width="432pt" xmlns="http://www.w3.org/2000/svg" xmlns:xlink="http://www.w3.org/1999/xlink">
 <defs>
  <style type="text/css">
*{stroke-linecap:butt;stroke-linejoin:round;stroke-miterlimit:100000;}
  </style>
 </defs>
 <g id="figure_1">
  <g id="patch_1">
   <path d="M 0 288 
L 432 288 
L 432 0 
L 0 0 
z
" style="fill:#ffffff;"/>
  </g>
  <g id="axes_1">
   <g id="patch_2">
    <path d="M 54 252 
L 388.8 252 
L 388.8 28.8 
L 54 28.8 
z
" style="fill:#ffffff;"/>
   </g>
   <g id="line2d_1">
    <path clip-path="url(#p0309a5166b)" d="M 388.8 197.113344 
L 388.695873 170.129647 
L 388.432019 158.803111 
L 388.312223 156.330797 
L 388.306519 154.492015 
L 387.981359 152.699155 
L 387.887919 139.282633 
L 387.665441 137.174198 
L 387.568464 125.593627 
L 387.437259 123.767113 
L 387.361655 115.357351 
L 387.109933 108.825567 
L 386.12875 108.380567 
L 386.111636 106.908298 
L 385.820704 106.631163 
L 385.797886 106.113306 
L 385.010658 105.923288 
L 384.714022 105.001741 
L 384.694741 104.03998 
L 384.53855 103.403958 
L 384.53855 102.878209 
L 384.363078 100.135658 
L 383.695646 99.39683 
L 383.187941 97.74972 
L 383.182237 96.657177 
L 382.988282 96.064852 
L 382.699442 93.298412 
L 382.343516 91.590108 
L 381.12202 90.872066 
L 380.915934 90.25184 
L 380.915934 89.713971 
L 378.67778 89.354412 
L 378.377531 88.074855 
L 377.504735 87.106726 
L 376.548311 86.494563 
L 376.548311 85.322705 
L 375.713244 85.085897 
L 374.053038 85.192294 
L 374.053038 84.273036 
L 373.706203 81.024103 
L 372.075273 80.123261 
L 370.813845 79.721002 
L 370.606313 79.372668 
L 370.569196 78.143263 
L 370.361665 77.668517 
L 369.806156 75.102206 
L 369.770483 73.734308 
L 368.452732 73.106846 
L 368.29639 71.96305 
L 368.262163 71.764846 
L 367.611122 69.81769 
L 366.498012 68.759088 
L 365.95608 68.766167 
L 365.790648 68.530407 
L 365.564558 67.922469 
L 363.358535 66.490956 
L 363.049044 65.255065 
L 362.807209 62.676539 
L 362.684524 60.710959 
L 362.062576 59.26664 
L 361.707869 56.790268 
L 361.408989 52.750741 
L 360.548971 51.38008 
L 360.387723 49.861558 
L 359.83233 49.413413 
L 358.991594 48.223934 
L 357.780597 41.854107 
L 354.607918 40.023476 
L 353.775054 39.283536 
L 352.291492 39.297474 
L 352.027638 38.550315 
L 351.668251 37.759262 
L 351.462013 35.69186 
L 350.457371 34.652207 
L 347.854965 34.428557 
L 347.252264 33.454005 
L 346.15699 33.280306 
L 345.644991 32.410563 
L 345.183569 32.293596 
L 344.28651 31.588351 
L 343.419989 31.595966 
L 343.407135 31.257529 
L 343.037405 30.560065 
L 329.699816 30.536993 
L 328.109319 30.158123 
L 303.929893 30.109068 
L 299.759488 29.925159 
L 293.761354 29.939791 
L 287.606914 29.712501 
L 271.782082 29.693489 
L 184.747971 29.762198 
L 174.547859 29.654234 
L 133.413719 29.50135 
L 115.020501 29.671843 
L 110.425132 29.335113 
L 88.043738 29.74456 
L 85.058905 29.829 
L 83.973601 29.47819 
L 79.146856 29.52605 
L 77.173739 29.065241 
L 66.673354 28.92352 
L 65.593602 28.8 
L 54.744557 28.8 
L 54.744557 28.8 
" style="fill:none;stroke:#ff0000;stroke-linecap:square;"/>
   </g>
   <g id="line2d_2">
    <path clip-path="url(#p0309a5166b)" d="M 388.8 197.113344 
L 388.703023 158.116067 
L 388.560409 148.540182 
L 388.332227 119.267894 
L 387.134272 101.32586 
L 387.014476 100.854453 
L 386.894681 99.625958 
L 386.278589 97.458623 
L 386.038998 96.994088 
L 385.816521 95.854396 
L 385.114139 93.846472 
L 384.361138 91.573461 
L 383.753566 89.84901 
L 383.262252 87.033418 
L 381.257712 81.716565 
L 380.76849 79.581959 
L 379.892728 74.985713 
L 379.63956 74.016481 
L 378.964902 71.919645 
L 378.563416 70.87591 
L 377.758923 69.002732 
L 374.912621 63.699704 
L 371.996838 59.830932 
L 369.290755 56.930964 
L 367.881428 55.923766 
L 365.781624 54.274518 
L 365.391471 54.053512 
L 364.766633 53.394484 
L 362.746541 51.252979 
L 362.394152 50.858699 
L 361.528127 50.166448 
L 359.667115 48.52253 
L 358.576293 47.600033 
L 357.770623 47.139951 
L 356.624317 46.724582 
L 355.025108 45.864113 
L 353.970226 45.417969 
L 353.225442 44.933959 
L 352.204216 44.472412 
L 350.801165 43.509286 
L 347.848265 41.799533 
L 345.178425 39.515227 
L 342.880825 38.136846 
L 341.696715 37.552828 
L 337.968835 35.340826 
L 333.921541 33.262327 
L 332.40554 32.629411 
L 325.689437 30.592022 
L 322.867211 29.871835 
L 318.109092 29.412493 
L 311.277068 28.985975 
L 270.197415 28.871872 
L 226.174482 28.838714 
L 54.134171 28.8 
L 54.134171 28.8 
" style="fill:none;stroke:#0000ff;stroke-linecap:square;"/>
   </g>
   <g id="line2d_3">
    <path clip-path="url(#p0309a5166b)" d="M 388.8 197.113344 
L 388.610952 195.801686 
L 387.84544 192.108561 
L 386.470078 188.682009 
L 381.622597 179.82037 
L 377.957699 174.254982 
L 375.951148 171.561398 
L 373.851652 169.031142 
L 371.507204 166.668411 
L 368.725067 164.401414 
L 366.613858 162.21216 
L 363.801981 160.270622 
L 361.419617 158.242922 
L 358.569823 156.35246 
L 355.456443 154.57641 
L 352.599349 152.807748 
L 350.213448 150.980945 
L 347.665425 149.279108 
L 344.91375 147.672492 
L 339.025954 144.725688 
L 335.748628 143.352079 
L 325.830126 138.027112 
L 323.394748 136.869267 
L 318.687637 134.432627 
L 311.619156 131.23942 
L 307.37723 128.889331 
L 298.926388 123.922011 
L 295.187297 121.372756 
L 293.570252 120.048701 
L 291.804813 118.849222 
L 285.52606 113.549925 
L 281.095157 110.008827 
L 279.815857 108.909024 
L 278.407369 107.991293 
L 273.71866 105.316209 
L 269.268323 102.414979 
L 262.714267 97.626466 
L 261.233065 96.801138 
L 255.587896 93.253393 
L 252.223702 91.542869 
L 241.133251 86.298518 
L 237.208532 84.603842 
L 235.253968 83.577836 
L 231.052733 81.861503 
L 225.080469 79.11656 
L 214.546902 74.734301 
L 210.213208 73.200877 
L 208.371063 72.270411 
L 206.444225 71.552261 
L 201.630778 68.966525 
L 193.131516 63.308844 
L 187.003779 58.929731 
L 185.391297 57.882878 
L 183.608325 56.903818 
L 181.788387 55.689884 
L 179.92403 54.66891 
L 176.124123 52.043906 
L 174.19348 50.471422 
L 172.239219 49.494235 
L 168.433684 46.575119 
L 166.802148 44.799839 
L 163.114543 41.512728 
L 159.810321 38.162754 
L 158.096106 36.775531 
L 156.411708 35.231185 
L 153.19644 32.629006 
L 151.445108 31.675889 
L 149.820948 31.042696 
L 147.953358 30.173988 
L 144.709869 29.107682 
L 142.94728 28.813142 
L 124.604325 28.8 
L 54.062826 28.8 
L 54.062826 28.8 
" style="fill:none;stroke:#000000;stroke-linecap:square;"/>
   </g>
   <g id="line2d_4">
    <path clip-path="url(#p0309a5166b)" d="M 388.8 197.113344 
L 381.333513 154.894883 
L 377.307628 138.648906 
L 373.934759 126.985266 
L 371.68462 120.594738 
L 366.453169 114.071163 
L 364.829884 109.850748 
L 362.060631 105.770166 
L 357.945827 88.802694 
L 357.172443 87.077019 
L 355.853364 85.215852 
L 353.540025 82.330371 
L 350.081295 80.207936 
L 318.401782 48.113512 
L 315.884555 47.162073 
L 312.133478 47.190892 
L 311.059578 47.020123 
L 309.858732 46.708238 
L 308.233582 46.470886 
L 307.613156 46.245135 
L 306.510505 45.995688 
L 304.890949 45.925235 
L 302.641037 45.566965 
L 301.736525 44.303615 
L 295.842822 43.930724 
L 295.494769 43.808436 
L 294.915416 42.829921 
L 291.651545 42.560953 
L 290.682459 41.566049 
L 290.418528 41.504521 
L 288.518045 41.386311 
L 288.025134 41.093976 
L 287.399423 40.977258 
L 285.808884 40.882284 
L 285.31373 40.184089 
L 285.03976 40.173519 
L 284.521788 39.462379 
L 282.613165 39.413299 
L 282.01879 39.361087 
L 281.81761 39.100417 
L 278.554507 39.249689 
L 277.848058 39.072486 
L 277.610483 38.908734 
L 277.109053 38.849191 
L 276.573472 38.4779 
L 275.565025 38.350653 
L 275.217467 37.775705 
L 274.959889 37.719528 
L 251.619157 37.384073 
L 251.18892 37.282592 
L 250.819343 37.249039 
L 250.306352 37.083122 
L 249.794959 37.056203 
L 248.971185 36.654006 
L 244.50373 36.236846 
L 244.243983 35.805332 
L 242.825834 35.634885 
L 242.554603 35.301876 
L 240.401785 35.111677 
L 239.757515 34.997456 
L 238.28521 34.888268 
L 236.329884 34.525316 
L 235.938135 34.237485 
L 231.112703 33.910672 
L 230.794466 33.703598 
L 228.718091 33.47827 
L 228.104511 33.17074 
L 225.942946 33.064885 
L 225.494227 32.823928 
L 223.941756 32.755761 
L 220.824683 32.571942 
L 203.257986 32.514362 
L 202.618621 32.308322 
L 200.770656 32.227518 
L 193.376969 31.967872 
L 192.93156 31.630383 
L 189.559348 31.616774 
L 167.913018 32.373146 
L 167.336252 32.292206 
L 162.663752 32.461287 
L 159.101467 32.407314 
L 154.704725 32.618182 
L 151.668627 29.621106 
L 148.544485 29.601567 
L 147.557755 29.380478 
L 143.377175 29.350205 
L 141.938532 29.175848 
L 137.846067 29.099005 
L 132.987065 28.999094 
L 115.006142 28.981132 
L 111.014913 28.950269 
L 79.072704 29.033375 
L 79.072704 29.033375 
" style="fill:none;stroke:#008000;stroke-linecap:square;"/>
   </g>
   <g id="line2d_5">
    <path clip-path="url(#p0309a5166b)" d="M 388.8 197.113344 
L 373.664251 161.131873 
L 373.601501 161.125371 
L 373.053981 161.03659 
L 372.827092 160.873483 
L 372.524524 160.830719 
L 368.823565 161.303417 
L 367.016597 161.340952 
L 366.637929 160.837617 
L 365.728931 160.814939 
L 359.374558 161.716353 
L 358.841069 161.702127 
L 357.50621 161.817294 
L 357.412769 161.776471 
L 356.732902 161.824682 
L 352.325656 162.477906 
L 352.062943 161.93987 
L 351.968705 161.903813 
L 351.619055 161.280808 
L 351.092033 161.285579 
L 343.746894 162.348259 
L 343.631207 162.222133 
L 342.386175 162.199672 
L 342.180508 162.162032 
L 341.584234 162.233053 
L 341.470714 161.450907 
L 341.228157 160.71773 
L 316.805289 165.072837 
L 315.370031 164.795479 
L 315.128692 164.592264 
L 313.187216 164.873336 
L 308.5348 165.752921 
L 307.555371 165.111306 
L 305.316005 165.340168 
L 305.108969 164.869869 
L 267.547187 174.527256 
L 267.035188 173.948403 
L 266.188333 174.044316 
L 265.953496 173.77074 
L 264.738205 173.835879 
L 264.394184 173.786935 
L 261.756338 174.551772 
L 261.347172 169.963898 
L 259.931995 169.916108 
L 259.901304 169.35394 
L 259.702064 169.368076 
L 258.936897 169.160522 
L 258.451328 169.202476 
L 258.336363 169.073537 
L 257.782987 169.142222 
L 257.589527 165.993603 
L 256.031584 166.151403 
L 256.006598 165.744091 
L 255.818121 165.743618 
L 209.431792 191.412653 
L 208.779195 191.606496 
L 208.503704 191.607123 
L 208.452288 191.611895 
L 206.975502 189.911325 
L 206.931235 189.94301 
L 206.895562 189.791269 
L 206.344808 189.728947 
L 206.269926 189.637388 
L 206.224937 189.682746 
L 205.690003 189.78709 
L 205.596562 187.567013 
L 205.440372 187.555322 
L 205.330465 187.104274 
L 205.079313 186.807851 
L 205.073608 186.634908 
L 204.911713 186.244881 
L 204.69494 186.225314 
L 204.515209 159.331216 
L 204.444511 159.532438 
L 204.392448 159.078303 
L 204.266948 158.456314 
L 203.95917 138.54418 
L 203.862193 138.563162 
L 203.83367 138.541947 
L 171.129488 145.563156 
L 170.988168 142.40747 
L 170.548918 142.179125 
L 170.49115 128.450064 
L 170.368388 128.678421 
L 170.050798 129.244943 
L 169.725639 129.324408 
L 169.577245 129.499669 
L 169.428927 126.155224 
L 168.516199 126.380749 
L 168.249378 126.640241 
L 168.10106 126.676608 
L 167.880599 126.949903 
L 167.686644 124.655698 
L 167.656676 124.695573 
L 167.445608 124.748897 
L 167.263062 124.02002 
L 167.188181 124.040515 
L 166.739461 124.495462 
L 166.733757 124.496915 
L 166.54391 124.84619 
L 166.29485 124.789073 
L 166.29485 124.789073 
L 166.066668 124.847339 
L 166.038146 124.736022 
L 165.809964 124.789581 
L 158.495935 207.363899 
L 143.567129 211.399611 
L 143.019492 210.975807 
L 143.019492 210.975807 
L 136.944147 212.74928 
L 133.099281 213.650378 
L 133.099281 213.650378 
" style="fill:none;stroke:#00bfbf;stroke-linecap:square;"/>
   </g>
   <g id="line2d_6">
    <path clip-path="url(#p0309a5166b)" d="M 388.8 197.113344 
L 388.8 188.601985 
L 388.365732 173.463955 
L 388.223118 163.451812 
L 388.079782 117.434563 
L 387.811365 113.842537 
L 383.75543 108.744128 
L 379.82492 104.81233 
L 379.534559 102.310336 
L 378.663703 100.708837 
L 378.449022 95.532797 
L 378.203004 93.480651 
L 378.156645 90.943788 
L 377.036881 88.996888 
L 376.634521 86.279757 
L 376.605998 84.906496 
L 375.873764 83.633965 
L 375.523543 83.24 
L 374.28745 82.473097 
L 373.385793 80.658899 
L 370.232982 78.732152 
L 369.218451 78.490358 
L 368.964334 76.528103 
L 368.318542 75.549866 
L 368.190152 74.984037 
L 367.928162 74.682743 
L 367.75406 71.232967 
L 367.522685 70.838397 
L 367.282219 69.617833 
L 365.378583 69.76952 
L 363.674717 69.216424 
L 363.454978 68.959751 
L 362.946323 68.57461 
L 362.689962 68.19705 
L 361.388643 67.764308 
L 361.365824 67.606047 
L 360.657738 67.533536 
L 360.598525 66.915411 
L 360.296184 66.888351 
L 359.816279 66.310599 
L 359.816279 64.712085 
L 358.969383 64.473585 
L 358.962956 64.357266 
L 358.766758 64.232009 
L 358.676855 63.362172 
L 358.527015 45.045517 
L 358.259548 45.016697 
L 358.073239 44.791733 
L 357.720698 44.677842 
L 357.675709 44.5263 
L 357.38649 44.494184 
L 356.83954 44.2302 
L 316.471859 44.69611 
L 313.178748 43.674547 
L 306.458098 43.571093 
L 305.813751 43.528865 
L 304.91932 42.988435 
L 302.121706 42.530426 
L 297.296233 42.817194 
L 296.554263 42.667774 
L 296.254585 42.09548 
L 295.781678 41.926108 
L 295.246365 41.749391 
L 293.625172 41.747418 
L 293.106705 40.973037 
L 291.222304 40.917475 
L 283.233428 41.332541 
L 281.507805 41.334771 
L 270.058471 42.072554 
L 268.811121 42.090842 
L 268.342322 41.659916 
L 268.169664 41.55417 
L 268.111896 29.730192 
L 261.195325 29.462868 
L 259.616534 29.427664 
L 226.978712 29.340744 
L 120.416292 29.10627 
L 108.327459 29.100693 
L 107.156663 29.004422 
L 107.034548 29.004932 
L 106.359966 28.858644 
L 72.366381 28.956577 
L 72.366381 28.956577 
" style="fill:none;stroke:#bfbf00;stroke-linecap:square;"/>
   </g>
   <g id="line2d_7">
    <path clip-path="url(#p0309a5166b)" d="M 388.8 197.113344 
L 383.972506 168.753365 
L 383.665602 147.494733 
L 381.648208 123.32826 
L 381.299432 114.786074 
L 381.114567 100.923476 
L 379.722657 97.56484 
L 379.601265 92.209706 
L 374.091268 88.453644 
L 374.091268 88.453644 
L 374.06556 86.067872 
L 374.06556 86.067872 
L 361.153535 88.117732 
L 354.321537 89.325198 
L 350.27247 86.224566 
L 346.082007 85.408888 
L 337.233929 86.066465 
L 333.069174 85.772957 
L 333.069174 85.772957 
L 329.084378 86.614114 
L 329.084378 86.614114 
L 322.977717 86.105656 
L 322.958436 85.256173 
L 322.675644 79.803626 
L 308.52319 80.805491 
L 308.388944 69.603417 
L 305.627942 69.825821 
L 305.467265 57.223221 
L 305.467265 57.223221 
L 303.074891 47.134774 
L 302.766845 46.432156 
L 302.766845 46.432156 
L 292.237905 47.112328 
L 292.237905 47.112328 
L 291.03995 46.752115 
L 291.03995 46.752115 
L 291.03995 44.041968 
L 290.053063 39.170017 
L 289.819176 33.813729 
L 289.819176 33.813729 
L 286.413561 33.822509 
L 286.413561 33.822509 
L 285.169969 30.316012 
L 285.169969 30.316012 
L 238.759939 30.343936 
L 238.759939 30.343936 
L 208.176773 30.245286 
L 188.400615 30.508105 
L 188.400615 30.508105 
L 183.562981 30.583293 
L 166.798308 30.874606 
L 152.08027 31.719444 
L 142.108718 31.673569 
L 130.839607 29.221321 
L 121.592533 29.134299 
L 89.252933 29.199761 
L 78.486282 28.8 
L 65.985403 28.8 
L 65.985403 28.8 
" style="fill:none;stroke:#bf00bf;stroke-linecap:square;"/>
   </g>
   <g id="line2d_8">
    <path clip-path="url(#p0309a5166b)" d="M 388.8 197.113344 
L 388.417795 168.184248 
L 388.086931 144.06835 
L 384.413202 130.749774 
L 384.227766 122.81724 
L 383.431943 114.06451 
L 379.783124 111.243577 
L 379.736765 107.863158 
L 379.274696 103.148295 
L 379.203351 98.374305 
L 377.790715 95.795989 
L 377.026305 93.129462 
L 376.855017 90.959453 
L 375.032149 83.157277 
L 374.613473 82.703459 
L 372.993078 81.597261 
L 371.097647 79.927499 
L 370.086653 79.415547 
L 357.77303 80.024272 
L 338.614888 78.018841 
L 325.650835 74.372315 
L 318.508392 71.250829 
L 316.659633 60.851832 
L 315.813005 57.339916 
L 305.865764 55.860144 
L 299.139258 53.345809 
L 294.416962 50.282891 
L 293.535571 48.070449 
L 291.222339 45.698759 
L 289.367638 43.59819 
L 286.429911 41.022671 
L 282.201395 38.686586 
L 273.747253 38.486281 
L 265.495584 37.826402 
L 265.096266 37.552626 
L 263.834838 36.268378 
L 262.607637 35.576075 
L 262.442205 35.100771 
L 262.362342 34.292481 
L 261.62075 33.694 
L 260.439909 31.076265 
L 259.869454 30.941988 
L 259.642641 30.336055 
L 255.538104 30.15194 
L 253.02738 29.971624 
L 252.778471 29.624608 
L 251.410673 29.501679 
L 251.213828 29.473517 
L 251.122556 29.473656 
L 250.693916 29.259697 
L 246.396223 29.22569 
L 245.785836 29.136996 
L 238.809592 29.045542 
L 236.059049 29.002873 
L 228.845533 28.959232 
L 158.025757 28.885482 
L 147.038398 28.844086 
L 57.815232 28.8 
L 57.815232 28.8 
" style="fill:none;stroke:#ff0000;stroke-dasharray:6.000000,6.000000;stroke-dashoffset:0.0;"/>
   </g>
   <g id="line2d_9">
    <path clip-path="url(#p0309a5166b)" d="M 388.8 197.113344 
L 388.377863 114.431429 
L 386.980249 107.764097 
L 385.89068 102.827939 
L 383.148161 90.687141 
L 382.687462 88.991349 
L 382.462817 88.050525 
L 382.140472 87.121331 
L 381.505746 85.450828 
L 380.085086 81.950558 
L 378.781407 79.781834 
L 378.180908 78.916263 
L 377.592541 78.124729 
L 376.645435 76.150477 
L 375.872279 74.684035 
L 375.632612 74.226261 
L 373.504133 70.361842 
L 372.266514 68.71765 
L 371.981933 68.259483 
L 371.178087 67.168532 
L 370.4484 66.242862 
L 368.334144 64.217041 
L 367.839864 63.875096 
L 367.391868 63.54668 
L 366.605858 63.054826 
L 366.142193 62.736885 
L 365.377556 62.253344 
L 362.852345 60.889442 
L 359.294081 59.484083 
L 354.294051 57.186032 
L 352.332222 56.554747 
L 351.543969 56.191005 
L 348.808337 55.31191 
L 341.888997 52.73821 
L 340.019011 52.083662 
L 338.841025 51.535028 
L 325.983719 46.912569 
L 318.662287 44.770279 
L 311.127391 42.392624 
L 308.539699 41.077622 
L 300.882118 37.165256 
L 299.445031 36.592724 
L 296.403334 35.162495 
L 293.16449 33.723601 
L 291.579732 33.112753 
L 289.824181 32.577935 
L 287.736968 32.083086 
L 283.388859 31.499631 
L 273.254266 30.451776 
L 270.526436 30.130955 
L 262.73618 29.58678 
L 251.154582 29.042027 
L 226.96282 28.8 
L 211.244141 28.8 
L 211.244141 28.8 
" style="fill:none;stroke:#0000ff;stroke-dasharray:6.000000,6.000000;stroke-dashoffset:0.0;"/>
   </g>
   <g id="patch_3">
    <path d="M 54 28.8 
L 388.8 28.8 
" style="fill:none;stroke:#000000;stroke-linecap:square;stroke-linejoin:miter;"/>
   </g>
   <g id="patch_4">
    <path d="M 388.8 252 
L 388.8 28.8 
" style="fill:none;stroke:#000000;stroke-linecap:square;stroke-linejoin:miter;"/>
   </g>
   <g id="patch_5">
    <path d="M 54 252 
L 388.8 252 
" style="fill:none;stroke:#000000;stroke-linecap:square;stroke-linejoin:miter;"/>
   </g>
   <g id="patch_6">
    <path d="M 54 252 
L 54 28.8 
" style="fill:none;stroke:#000000;stroke-linecap:square;stroke-linejoin:miter;"/>
   </g>
   <g id="matplotlib.axis_1">
    <g id="xtick_1">
     <g id="line2d_10">
      <path clip-path="url(#p0309a5166b)" d="M 54 252 
L 54 28.8 
" style="fill:none;stroke:#000000;stroke-dasharray:1.000000,3.000000;stroke-dashoffset:0.0;stroke-width:0.5;"/>
     </g>
     <g id="line2d_11">
      <defs>
       <path d="M 0 0 
L 0 -4 
" id="m0f9535202c" style="stroke:#000000;stroke-width:0.5;"/>
      </defs>
      <g>
       <use style="stroke:#000000;stroke-width:0.5;" x="54.0" xlink:href="#m0f9535202c" y="252.0"/>
      </g>
     </g>
     <g id="line2d_12">
      <defs>
       <path d="M 0 0 
L 0 4 
" id="mf7ccfe7081" style="stroke:#000000;stroke-width:0.5;"/>
      </defs>
      <g>
       <use style="stroke:#000000;stroke-width:0.5;" x="54.0" xlink:href="#mf7ccfe7081" y="28.8"/>
      </g>
     </g>
     <g id="text_1">
      <!-- 0.0 -->
      <defs>
       <path d="M 31.78125 66.40625 
Q 24.171875 66.40625 20.328125 58.90625 
Q 16.5 51.421875 16.5 36.375 
Q 16.5 21.390625 20.328125 13.890625 
Q 24.171875 6.390625 31.78125 6.390625 
Q 39.453125 6.390625 43.28125 13.890625 
Q 47.125 21.390625 47.125 36.375 
Q 47.125 51.421875 43.28125 58.90625 
Q 39.453125 66.40625 31.78125 66.40625 
M 31.78125 74.21875 
Q 44.046875 74.21875 50.515625 64.515625 
Q 56.984375 54.828125 56.984375 36.375 
Q 56.984375 17.96875 50.515625 8.265625 
Q 44.046875 -1.421875 31.78125 -1.421875 
Q 19.53125 -1.421875 13.0625 8.265625 
Q 6.59375 17.96875 6.59375 36.375 
Q 6.59375 54.828125 13.0625 64.515625 
Q 19.53125 74.21875 31.78125 74.21875 
" id="BitstreamVeraSans-Roman-30"/>
       <path d="M 10.6875 12.40625 
L 21 12.40625 
L 21 0 
L 10.6875 0 
z
" id="BitstreamVeraSans-Roman-2e"/>
      </defs>
      <g transform="translate(46.0484375 263.5984375)scale(0.1 -0.1)">
       <use xlink:href="#BitstreamVeraSans-Roman-30"/>
       <use x="63.623046875" xlink:href="#BitstreamVeraSans-Roman-2e"/>
       <use x="95.41015625" xlink:href="#BitstreamVeraSans-Roman-30"/>
      </g>
     </g>
    </g>
    <g id="xtick_2">
     <g id="line2d_13">
      <path clip-path="url(#p0309a5166b)" d="M 120.96 252 
L 120.96 28.8 
" style="fill:none;stroke:#000000;stroke-dasharray:1.000000,3.000000;stroke-dashoffset:0.0;stroke-width:0.5;"/>
     </g>
     <g id="line2d_14">
      <g>
       <use style="stroke:#000000;stroke-width:0.5;" x="120.96" xlink:href="#m0f9535202c" y="252.0"/>
      </g>
     </g>
     <g id="line2d_15">
      <g>
       <use style="stroke:#000000;stroke-width:0.5;" x="120.96" xlink:href="#mf7ccfe7081" y="28.8"/>
      </g>
     </g>
     <g id="text_2">
      <!-- 0.2 -->
      <defs>
       <path d="M 19.1875 8.296875 
L 53.609375 8.296875 
L 53.609375 0 
L 7.328125 0 
L 7.328125 8.296875 
Q 12.9375 14.109375 22.625 23.890625 
Q 32.328125 33.6875 34.8125 36.53125 
Q 39.546875 41.84375 41.421875 45.53125 
Q 43.3125 49.21875 43.3125 52.78125 
Q 43.3125 58.59375 39.234375 62.25 
Q 35.15625 65.921875 28.609375 65.921875 
Q 23.96875 65.921875 18.8125 64.3125 
Q 13.671875 62.703125 7.8125 59.421875 
L 7.8125 69.390625 
Q 13.765625 71.78125 18.9375 73 
Q 24.125 74.21875 28.421875 74.21875 
Q 39.75 74.21875 46.484375 68.546875 
Q 53.21875 62.890625 53.21875 53.421875 
Q 53.21875 48.921875 51.53125 44.890625 
Q 49.859375 40.875 45.40625 35.40625 
Q 44.1875 33.984375 37.640625 27.21875 
Q 31.109375 20.453125 19.1875 8.296875 
" id="BitstreamVeraSans-Roman-32"/>
      </defs>
      <g transform="translate(113.0084375 263.5984375)scale(0.1 -0.1)">
       <use xlink:href="#BitstreamVeraSans-Roman-30"/>
       <use x="63.623046875" xlink:href="#BitstreamVeraSans-Roman-2e"/>
       <use x="95.41015625" xlink:href="#BitstreamVeraSans-Roman-32"/>
      </g>
     </g>
    </g>
    <g id="xtick_3">
     <g id="line2d_16">
      <path clip-path="url(#p0309a5166b)" d="M 187.92 252 
L 187.92 28.8 
" style="fill:none;stroke:#000000;stroke-dasharray:1.000000,3.000000;stroke-dashoffset:0.0;stroke-width:0.5;"/>
     </g>
     <g id="line2d_17">
      <g>
       <use style="stroke:#000000;stroke-width:0.5;" x="187.92" xlink:href="#m0f9535202c" y="252.0"/>
      </g>
     </g>
     <g id="line2d_18">
      <g>
       <use style="stroke:#000000;stroke-width:0.5;" x="187.92" xlink:href="#mf7ccfe7081" y="28.8"/>
      </g>
     </g>
     <g id="text_3">
      <!-- 0.4 -->
      <defs>
       <path d="M 37.796875 64.3125 
L 12.890625 25.390625 
L 37.796875 25.390625 
z
M 35.203125 72.90625 
L 47.609375 72.90625 
L 47.609375 25.390625 
L 58.015625 25.390625 
L 58.015625 17.1875 
L 47.609375 17.1875 
L 47.609375 0 
L 37.796875 0 
L 37.796875 17.1875 
L 4.890625 17.1875 
L 4.890625 26.703125 
z
" id="BitstreamVeraSans-Roman-34"/>
      </defs>
      <g transform="translate(179.9684375 263.5984375)scale(0.1 -0.1)">
       <use xlink:href="#BitstreamVeraSans-Roman-30"/>
       <use x="63.623046875" xlink:href="#BitstreamVeraSans-Roman-2e"/>
       <use x="95.41015625" xlink:href="#BitstreamVeraSans-Roman-34"/>
      </g>
     </g>
    </g>
    <g id="xtick_4">
     <g id="line2d_19">
      <path clip-path="url(#p0309a5166b)" d="M 254.88 252 
L 254.88 28.8 
" style="fill:none;stroke:#000000;stroke-dasharray:1.000000,3.000000;stroke-dashoffset:0.0;stroke-width:0.5;"/>
     </g>
     <g id="line2d_20">
      <g>
       <use style="stroke:#000000;stroke-width:0.5;" x="254.88" xlink:href="#m0f9535202c" y="252.0"/>
      </g>
     </g>
     <g id="line2d_21">
      <g>
       <use style="stroke:#000000;stroke-width:0.5;" x="254.88" xlink:href="#mf7ccfe7081" y="28.8"/>
      </g>
     </g>
     <g id="text_4">
      <!-- 0.6 -->
      <defs>
       <path d="M 33.015625 40.375 
Q 26.375 40.375 22.484375 35.828125 
Q 18.609375 31.296875 18.609375 23.390625 
Q 18.609375 15.53125 22.484375 10.953125 
Q 26.375 6.390625 33.015625 6.390625 
Q 39.65625 6.390625 43.53125 10.953125 
Q 47.40625 15.53125 47.40625 23.390625 
Q 47.40625 31.296875 43.53125 35.828125 
Q 39.65625 40.375 33.015625 40.375 
M 52.59375 71.296875 
L 52.59375 62.3125 
Q 48.875 64.0625 45.09375 64.984375 
Q 41.3125 65.921875 37.59375 65.921875 
Q 27.828125 65.921875 22.671875 59.328125 
Q 17.53125 52.734375 16.796875 39.40625 
Q 19.671875 43.65625 24.015625 45.921875 
Q 28.375 48.1875 33.59375 48.1875 
Q 44.578125 48.1875 50.953125 41.515625 
Q 57.328125 34.859375 57.328125 23.390625 
Q 57.328125 12.15625 50.6875 5.359375 
Q 44.046875 -1.421875 33.015625 -1.421875 
Q 20.359375 -1.421875 13.671875 8.265625 
Q 6.984375 17.96875 6.984375 36.375 
Q 6.984375 53.65625 15.1875 63.9375 
Q 23.390625 74.21875 37.203125 74.21875 
Q 40.921875 74.21875 44.703125 73.484375 
Q 48.484375 72.75 52.59375 71.296875 
" id="BitstreamVeraSans-Roman-36"/>
      </defs>
      <g transform="translate(246.9284375 263.5984375)scale(0.1 -0.1)">
       <use xlink:href="#BitstreamVeraSans-Roman-30"/>
       <use x="63.623046875" xlink:href="#BitstreamVeraSans-Roman-2e"/>
       <use x="95.41015625" xlink:href="#BitstreamVeraSans-Roman-36"/>
      </g>
     </g>
    </g>
    <g id="xtick_5">
     <g id="line2d_22">
      <path clip-path="url(#p0309a5166b)" d="M 321.84 252 
L 321.84 28.8 
" style="fill:none;stroke:#000000;stroke-dasharray:1.000000,3.000000;stroke-dashoffset:0.0;stroke-width:0.5;"/>
     </g>
     <g id="line2d_23">
      <g>
       <use style="stroke:#000000;stroke-width:0.5;" x="321.84" xlink:href="#m0f9535202c" y="252.0"/>
      </g>
     </g>
     <g id="line2d_24">
      <g>
       <use style="stroke:#000000;stroke-width:0.5;" x="321.84" xlink:href="#mf7ccfe7081" y="28.8"/>
      </g>
     </g>
     <g id="text_5">
      <!-- 0.8 -->
      <defs>
       <path d="M 31.78125 34.625 
Q 24.75 34.625 20.71875 30.859375 
Q 16.703125 27.09375 16.703125 20.515625 
Q 16.703125 13.921875 20.71875 10.15625 
Q 24.75 6.390625 31.78125 6.390625 
Q 38.8125 6.390625 42.859375 10.171875 
Q 46.921875 13.96875 46.921875 20.515625 
Q 46.921875 27.09375 42.890625 30.859375 
Q 38.875 34.625 31.78125 34.625 
M 21.921875 38.8125 
Q 15.578125 40.375 12.03125 44.71875 
Q 8.5 49.078125 8.5 55.328125 
Q 8.5 64.0625 14.71875 69.140625 
Q 20.953125 74.21875 31.78125 74.21875 
Q 42.671875 74.21875 48.875 69.140625 
Q 55.078125 64.0625 55.078125 55.328125 
Q 55.078125 49.078125 51.53125 44.71875 
Q 48 40.375 41.703125 38.8125 
Q 48.828125 37.15625 52.796875 32.3125 
Q 56.78125 27.484375 56.78125 20.515625 
Q 56.78125 9.90625 50.3125 4.234375 
Q 43.84375 -1.421875 31.78125 -1.421875 
Q 19.734375 -1.421875 13.25 4.234375 
Q 6.78125 9.90625 6.78125 20.515625 
Q 6.78125 27.484375 10.78125 32.3125 
Q 14.796875 37.15625 21.921875 38.8125 
M 18.3125 54.390625 
Q 18.3125 48.734375 21.84375 45.5625 
Q 25.390625 42.390625 31.78125 42.390625 
Q 38.140625 42.390625 41.71875 45.5625 
Q 45.3125 48.734375 45.3125 54.390625 
Q 45.3125 60.0625 41.71875 63.234375 
Q 38.140625 66.40625 31.78125 66.40625 
Q 25.390625 66.40625 21.84375 63.234375 
Q 18.3125 60.0625 18.3125 54.390625 
" id="BitstreamVeraSans-Roman-38"/>
      </defs>
      <g transform="translate(313.8884375 263.5984375)scale(0.1 -0.1)">
       <use xlink:href="#BitstreamVeraSans-Roman-30"/>
       <use x="63.623046875" xlink:href="#BitstreamVeraSans-Roman-2e"/>
       <use x="95.41015625" xlink:href="#BitstreamVeraSans-Roman-38"/>
      </g>
     </g>
    </g>
    <g id="xtick_6">
     <g id="line2d_25">
      <path clip-path="url(#p0309a5166b)" d="M 388.8 252 
L 388.8 28.8 
" style="fill:none;stroke:#000000;stroke-dasharray:1.000000,3.000000;stroke-dashoffset:0.0;stroke-width:0.5;"/>
     </g>
     <g id="line2d_26">
      <g>
       <use style="stroke:#000000;stroke-width:0.5;" x="388.8" xlink:href="#m0f9535202c" y="252.0"/>
      </g>
     </g>
     <g id="line2d_27">
      <g>
       <use style="stroke:#000000;stroke-width:0.5;" x="388.8" xlink:href="#mf7ccfe7081" y="28.8"/>
      </g>
     </g>
     <g id="text_6">
      <!-- 1.0 -->
      <defs>
       <path d="M 12.40625 8.296875 
L 28.515625 8.296875 
L 28.515625 63.921875 
L 10.984375 60.40625 
L 10.984375 69.390625 
L 28.421875 72.90625 
L 38.28125 72.90625 
L 38.28125 8.296875 
L 54.390625 8.296875 
L 54.390625 0 
L 12.40625 0 
z
" id="BitstreamVeraSans-Roman-31"/>
      </defs>
      <g transform="translate(380.8484375 263.5984375)scale(0.1 -0.1)">
       <use xlink:href="#BitstreamVeraSans-Roman-31"/>
       <use x="63.623046875" xlink:href="#BitstreamVeraSans-Roman-2e"/>
       <use x="95.41015625" xlink:href="#BitstreamVeraSans-Roman-30"/>
      </g>
     </g>
    </g>
    <g id="text_7">
     <!-- Recall -->
     <defs>
      <path d="M 56.203125 29.59375 
L 56.203125 25.203125 
L 14.890625 25.203125 
Q 15.484375 15.921875 20.484375 11.0625 
Q 25.484375 6.203125 34.421875 6.203125 
Q 39.59375 6.203125 44.453125 7.46875 
Q 49.3125 8.734375 54.109375 11.28125 
L 54.109375 2.78125 
Q 49.265625 0.734375 44.1875 -0.34375 
Q 39.109375 -1.421875 33.890625 -1.421875 
Q 20.796875 -1.421875 13.15625 6.1875 
Q 5.515625 13.8125 5.515625 26.8125 
Q 5.515625 40.234375 12.765625 48.109375 
Q 20.015625 56 32.328125 56 
Q 43.359375 56 49.78125 48.890625 
Q 56.203125 41.796875 56.203125 29.59375 
M 47.21875 32.234375 
Q 47.125 39.59375 43.09375 43.984375 
Q 39.0625 48.390625 32.421875 48.390625 
Q 24.90625 48.390625 20.390625 44.140625 
Q 15.875 39.890625 15.1875 32.171875 
z
" id="BitstreamVeraSans-Roman-65"/>
      <path d="M 44.390625 34.1875 
Q 47.5625 33.109375 50.5625 29.59375 
Q 53.5625 26.078125 56.59375 19.921875 
L 66.609375 0 
L 56 0 
L 46.6875 18.703125 
Q 43.0625 26.03125 39.671875 28.421875 
Q 36.28125 30.8125 30.421875 30.8125 
L 19.671875 30.8125 
L 19.671875 0 
L 9.8125 0 
L 9.8125 72.90625 
L 32.078125 72.90625 
Q 44.578125 72.90625 50.734375 67.671875 
Q 56.890625 62.453125 56.890625 51.90625 
Q 56.890625 45.015625 53.6875 40.46875 
Q 50.484375 35.9375 44.390625 34.1875 
M 19.671875 64.796875 
L 19.671875 38.921875 
L 32.078125 38.921875 
Q 39.203125 38.921875 42.84375 42.21875 
Q 46.484375 45.515625 46.484375 51.90625 
Q 46.484375 58.296875 42.84375 61.546875 
Q 39.203125 64.796875 32.078125 64.796875 
z
" id="BitstreamVeraSans-Roman-52"/>
      <path d="M 34.28125 27.484375 
Q 23.390625 27.484375 19.1875 25 
Q 14.984375 22.515625 14.984375 16.5 
Q 14.984375 11.71875 18.140625 8.90625 
Q 21.296875 6.109375 26.703125 6.109375 
Q 34.1875 6.109375 38.703125 11.40625 
Q 43.21875 16.703125 43.21875 25.484375 
L 43.21875 27.484375 
z
M 52.203125 31.203125 
L 52.203125 0 
L 43.21875 0 
L 43.21875 8.296875 
Q 40.140625 3.328125 35.546875 0.953125 
Q 30.953125 -1.421875 24.3125 -1.421875 
Q 15.921875 -1.421875 10.953125 3.296875 
Q 6 8.015625 6 15.921875 
Q 6 25.140625 12.171875 29.828125 
Q 18.359375 34.515625 30.609375 34.515625 
L 43.21875 34.515625 
L 43.21875 35.40625 
Q 43.21875 41.609375 39.140625 45 
Q 35.0625 48.390625 27.6875 48.390625 
Q 23 48.390625 18.546875 47.265625 
Q 14.109375 46.140625 10.015625 43.890625 
L 10.015625 52.203125 
Q 14.9375 54.109375 19.578125 55.046875 
Q 24.21875 56 28.609375 56 
Q 40.484375 56 46.34375 49.84375 
Q 52.203125 43.703125 52.203125 31.203125 
" id="BitstreamVeraSans-Roman-61"/>
      <path d="M 9.421875 75.984375 
L 18.40625 75.984375 
L 18.40625 0 
L 9.421875 0 
z
" id="BitstreamVeraSans-Roman-6c"/>
      <path d="M 48.78125 52.59375 
L 48.78125 44.1875 
Q 44.96875 46.296875 41.140625 47.34375 
Q 37.3125 48.390625 33.40625 48.390625 
Q 24.65625 48.390625 19.8125 42.84375 
Q 14.984375 37.3125 14.984375 27.296875 
Q 14.984375 17.28125 19.8125 11.734375 
Q 24.65625 6.203125 33.40625 6.203125 
Q 37.3125 6.203125 41.140625 7.25 
Q 44.96875 8.296875 48.78125 10.40625 
L 48.78125 2.09375 
Q 45.015625 0.34375 40.984375 -0.53125 
Q 36.96875 -1.421875 32.421875 -1.421875 
Q 20.0625 -1.421875 12.78125 6.34375 
Q 5.515625 14.109375 5.515625 27.296875 
Q 5.515625 40.671875 12.859375 48.328125 
Q 20.21875 56 33.015625 56 
Q 37.15625 56 41.109375 55.140625 
Q 45.0625 54.296875 48.78125 52.59375 
" id="BitstreamVeraSans-Roman-63"/>
     </defs>
     <g transform="translate(206.2609375 278.2765625)scale(0.1 -0.1)">
      <use xlink:href="#BitstreamVeraSans-Roman-52"/>
      <use x="69.419921875" xlink:href="#BitstreamVeraSans-Roman-65"/>
      <use x="130.943359375" xlink:href="#BitstreamVeraSans-Roman-63"/>
      <use x="185.923828125" xlink:href="#BitstreamVeraSans-Roman-61"/>
      <use x="247.203125" xlink:href="#BitstreamVeraSans-Roman-6c"/>
      <use x="274.986328125" xlink:href="#BitstreamVeraSans-Roman-6c"/>
     </g>
    </g>
   </g>
   <g id="matplotlib.axis_2">
    <g id="ytick_1">
     <g id="line2d_28">
      <path clip-path="url(#p0309a5166b)" d="M 54 252 
L 388.8 252 
" style="fill:none;stroke:#000000;stroke-dasharray:1.000000,3.000000;stroke-dashoffset:0.0;stroke-width:0.5;"/>
     </g>
     <g id="line2d_29">
      <defs>
       <path d="M 0 0 
L 4 0 
" id="m28406b8bf7" style="stroke:#000000;stroke-width:0.5;"/>
      </defs>
      <g>
       <use style="stroke:#000000;stroke-width:0.5;" x="54.0" xlink:href="#m28406b8bf7" y="252.0"/>
      </g>
     </g>
     <g id="line2d_30">
      <defs>
       <path d="M 0 0 
L -4 0 
" id="macea6b5711" style="stroke:#000000;stroke-width:0.5;"/>
      </defs>
      <g>
       <use style="stroke:#000000;stroke-width:0.5;" x="388.8" xlink:href="#macea6b5711" y="252.0"/>
      </g>
     </g>
     <g id="text_8">
      <!-- 0.0 -->
      <g transform="translate(34.096875 254.759375)scale(0.1 -0.1)">
       <use xlink:href="#BitstreamVeraSans-Roman-30"/>
       <use x="63.623046875" xlink:href="#BitstreamVeraSans-Roman-2e"/>
       <use x="95.41015625" xlink:href="#BitstreamVeraSans-Roman-30"/>
      </g>
     </g>
    </g>
    <g id="ytick_2">
     <g id="line2d_31">
      <path clip-path="url(#p0309a5166b)" d="M 54 207.36 
L 388.8 207.36 
" style="fill:none;stroke:#000000;stroke-dasharray:1.000000,3.000000;stroke-dashoffset:0.0;stroke-width:0.5;"/>
     </g>
     <g id="line2d_32">
      <g>
       <use style="stroke:#000000;stroke-width:0.5;" x="54.0" xlink:href="#m28406b8bf7" y="207.36"/>
      </g>
     </g>
     <g id="line2d_33">
      <g>
       <use style="stroke:#000000;stroke-width:0.5;" x="388.8" xlink:href="#macea6b5711" y="207.36"/>
      </g>
     </g>
     <g id="text_9">
      <!-- 0.2 -->
      <g transform="translate(34.096875 210.119375)scale(0.1 -0.1)">
       <use xlink:href="#BitstreamVeraSans-Roman-30"/>
       <use x="63.623046875" xlink:href="#BitstreamVeraSans-Roman-2e"/>
       <use x="95.41015625" xlink:href="#BitstreamVeraSans-Roman-32"/>
      </g>
     </g>
    </g>
    <g id="ytick_3">
     <g id="line2d_34">
      <path clip-path="url(#p0309a5166b)" d="M 54 162.72 
L 388.8 162.72 
" style="fill:none;stroke:#000000;stroke-dasharray:1.000000,3.000000;stroke-dashoffset:0.0;stroke-width:0.5;"/>
     </g>
     <g id="line2d_35">
      <g>
       <use style="stroke:#000000;stroke-width:0.5;" x="54.0" xlink:href="#m28406b8bf7" y="162.72"/>
      </g>
     </g>
     <g id="line2d_36">
      <g>
       <use style="stroke:#000000;stroke-width:0.5;" x="388.8" xlink:href="#macea6b5711" y="162.72"/>
      </g>
     </g>
     <g id="text_10">
      <!-- 0.4 -->
      <g transform="translate(34.096875 165.479375)scale(0.1 -0.1)">
       <use xlink:href="#BitstreamVeraSans-Roman-30"/>
       <use x="63.623046875" xlink:href="#BitstreamVeraSans-Roman-2e"/>
       <use x="95.41015625" xlink:href="#BitstreamVeraSans-Roman-34"/>
      </g>
     </g>
    </g>
    <g id="ytick_4">
     <g id="line2d_37">
      <path clip-path="url(#p0309a5166b)" d="M 54 118.08 
L 388.8 118.08 
" style="fill:none;stroke:#000000;stroke-dasharray:1.000000,3.000000;stroke-dashoffset:0.0;stroke-width:0.5;"/>
     </g>
     <g id="line2d_38">
      <g>
       <use style="stroke:#000000;stroke-width:0.5;" x="54.0" xlink:href="#m28406b8bf7" y="118.08"/>
      </g>
     </g>
     <g id="line2d_39">
      <g>
       <use style="stroke:#000000;stroke-width:0.5;" x="388.8" xlink:href="#macea6b5711" y="118.08"/>
      </g>
     </g>
     <g id="text_11">
      <!-- 0.6 -->
      <g transform="translate(34.096875 120.839375)scale(0.1 -0.1)">
       <use xlink:href="#BitstreamVeraSans-Roman-30"/>
       <use x="63.623046875" xlink:href="#BitstreamVeraSans-Roman-2e"/>
       <use x="95.41015625" xlink:href="#BitstreamVeraSans-Roman-36"/>
      </g>
     </g>
    </g>
    <g id="ytick_5">
     <g id="line2d_40">
      <path clip-path="url(#p0309a5166b)" d="M 54 73.44 
L 388.8 73.44 
" style="fill:none;stroke:#000000;stroke-dasharray:1.000000,3.000000;stroke-dashoffset:0.0;stroke-width:0.5;"/>
     </g>
     <g id="line2d_41">
      <g>
       <use style="stroke:#000000;stroke-width:0.5;" x="54.0" xlink:href="#m28406b8bf7" y="73.44"/>
      </g>
     </g>
     <g id="line2d_42">
      <g>
       <use style="stroke:#000000;stroke-width:0.5;" x="388.8" xlink:href="#macea6b5711" y="73.44"/>
      </g>
     </g>
     <g id="text_12">
      <!-- 0.8 -->
      <g transform="translate(34.096875 76.199375)scale(0.1 -0.1)">
       <use xlink:href="#BitstreamVeraSans-Roman-30"/>
       <use x="63.623046875" xlink:href="#BitstreamVeraSans-Roman-2e"/>
       <use x="95.41015625" xlink:href="#BitstreamVeraSans-Roman-38"/>
      </g>
     </g>
    </g>
    <g id="ytick_6">
     <g id="line2d_43">
      <path clip-path="url(#p0309a5166b)" d="M 54 28.8 
L 388.8 28.8 
" style="fill:none;stroke:#000000;stroke-dasharray:1.000000,3.000000;stroke-dashoffset:0.0;stroke-width:0.5;"/>
     </g>
     <g id="line2d_44">
      <g>
       <use style="stroke:#000000;stroke-width:0.5;" x="54.0" xlink:href="#m28406b8bf7" y="28.8"/>
      </g>
     </g>
     <g id="line2d_45">
      <g>
       <use style="stroke:#000000;stroke-width:0.5;" x="388.8" xlink:href="#macea6b5711" y="28.8"/>
      </g>
     </g>
     <g id="text_13">
      <!-- 1.0 -->
      <g transform="translate(34.096875 31.559375)scale(0.1 -0.1)">
       <use xlink:href="#BitstreamVeraSans-Roman-31"/>
       <use x="63.623046875" xlink:href="#BitstreamVeraSans-Roman-2e"/>
       <use x="95.41015625" xlink:href="#BitstreamVeraSans-Roman-30"/>
      </g>
     </g>
    </g>
    <g id="text_14">
     <!-- Precision -->
     <defs>
      <path d="M 54.890625 33.015625 
L 54.890625 0 
L 45.90625 0 
L 45.90625 32.71875 
Q 45.90625 40.484375 42.875 44.328125 
Q 39.84375 48.1875 33.796875 48.1875 
Q 26.515625 48.1875 22.3125 43.546875 
Q 18.109375 38.921875 18.109375 30.90625 
L 18.109375 0 
L 9.078125 0 
L 9.078125 54.6875 
L 18.109375 54.6875 
L 18.109375 46.1875 
Q 21.34375 51.125 25.703125 53.5625 
Q 30.078125 56 35.796875 56 
Q 45.21875 56 50.046875 50.171875 
Q 54.890625 44.34375 54.890625 33.015625 
" id="BitstreamVeraSans-Roman-6e"/>
      <path d="M 30.609375 48.390625 
Q 23.390625 48.390625 19.1875 42.75 
Q 14.984375 37.109375 14.984375 27.296875 
Q 14.984375 17.484375 19.15625 11.84375 
Q 23.34375 6.203125 30.609375 6.203125 
Q 37.796875 6.203125 41.984375 11.859375 
Q 46.1875 17.53125 46.1875 27.296875 
Q 46.1875 37.015625 41.984375 42.703125 
Q 37.796875 48.390625 30.609375 48.390625 
M 30.609375 56 
Q 42.328125 56 49.015625 48.375 
Q 55.71875 40.765625 55.71875 27.296875 
Q 55.71875 13.875 49.015625 6.21875 
Q 42.328125 -1.421875 30.609375 -1.421875 
Q 18.84375 -1.421875 12.171875 6.21875 
Q 5.515625 13.875 5.515625 27.296875 
Q 5.515625 40.765625 12.171875 48.375 
Q 18.84375 56 30.609375 56 
" id="BitstreamVeraSans-Roman-6f"/>
      <path d="M 19.671875 64.796875 
L 19.671875 37.40625 
L 32.078125 37.40625 
Q 38.96875 37.40625 42.71875 40.96875 
Q 46.484375 44.53125 46.484375 51.125 
Q 46.484375 57.671875 42.71875 61.234375 
Q 38.96875 64.796875 32.078125 64.796875 
z
M 9.8125 72.90625 
L 32.078125 72.90625 
Q 44.34375 72.90625 50.609375 67.359375 
Q 56.890625 61.8125 56.890625 51.125 
Q 56.890625 40.328125 50.609375 34.8125 
Q 44.34375 29.296875 32.078125 29.296875 
L 19.671875 29.296875 
L 19.671875 0 
L 9.8125 0 
z
" id="BitstreamVeraSans-Roman-50"/>
      <path d="M 9.421875 54.6875 
L 18.40625 54.6875 
L 18.40625 0 
L 9.421875 0 
z
M 9.421875 75.984375 
L 18.40625 75.984375 
L 18.40625 64.59375 
L 9.421875 64.59375 
z
" id="BitstreamVeraSans-Roman-69"/>
      <path d="M 41.109375 46.296875 
Q 39.59375 47.171875 37.8125 47.578125 
Q 36.03125 48 33.890625 48 
Q 26.265625 48 22.1875 43.046875 
Q 18.109375 38.09375 18.109375 28.8125 
L 18.109375 0 
L 9.078125 0 
L 9.078125 54.6875 
L 18.109375 54.6875 
L 18.109375 46.1875 
Q 20.953125 51.171875 25.484375 53.578125 
Q 30.03125 56 36.53125 56 
Q 37.453125 56 38.578125 55.875 
Q 39.703125 55.765625 41.0625 55.515625 
z
" id="BitstreamVeraSans-Roman-72"/>
      <path d="M 44.28125 53.078125 
L 44.28125 44.578125 
Q 40.484375 46.53125 36.375 47.5 
Q 32.28125 48.484375 27.875 48.484375 
Q 21.1875 48.484375 17.84375 46.4375 
Q 14.5 44.390625 14.5 40.28125 
Q 14.5 37.15625 16.890625 35.375 
Q 19.28125 33.59375 26.515625 31.984375 
L 29.59375 31.296875 
Q 39.15625 29.25 43.1875 25.515625 
Q 47.21875 21.78125 47.21875 15.09375 
Q 47.21875 7.46875 41.1875 3.015625 
Q 35.15625 -1.421875 24.609375 -1.421875 
Q 20.21875 -1.421875 15.453125 -0.5625 
Q 10.6875 0.296875 5.421875 2 
L 5.421875 11.28125 
Q 10.40625 8.6875 15.234375 7.390625 
Q 20.0625 6.109375 24.8125 6.109375 
Q 31.15625 6.109375 34.5625 8.28125 
Q 37.984375 10.453125 37.984375 14.40625 
Q 37.984375 18.0625 35.515625 20.015625 
Q 33.0625 21.96875 24.703125 23.78125 
L 21.578125 24.515625 
Q 13.234375 26.265625 9.515625 29.90625 
Q 5.8125 33.546875 5.8125 39.890625 
Q 5.8125 47.609375 11.28125 51.796875 
Q 16.75 56 26.8125 56 
Q 31.78125 56 36.171875 55.265625 
Q 40.578125 54.546875 44.28125 53.078125 
" id="BitstreamVeraSans-Roman-73"/>
     </defs>
     <g transform="translate(27.0171875 162.9046875)rotate(-90.0)scale(0.1 -0.1)">
      <use xlink:href="#BitstreamVeraSans-Roman-50"/>
      <use x="60.287109375" xlink:href="#BitstreamVeraSans-Roman-72"/>
      <use x="101.369140625" xlink:href="#BitstreamVeraSans-Roman-65"/>
      <use x="162.892578125" xlink:href="#BitstreamVeraSans-Roman-63"/>
      <use x="217.873046875" xlink:href="#BitstreamVeraSans-Roman-69"/>
      <use x="245.65625" xlink:href="#BitstreamVeraSans-Roman-73"/>
      <use x="297.755859375" xlink:href="#BitstreamVeraSans-Roman-69"/>
      <use x="325.5390625" xlink:href="#BitstreamVeraSans-Roman-6f"/>
      <use x="386.720703125" xlink:href="#BitstreamVeraSans-Roman-6e"/>
     </g>
    </g>
   </g>
   <g id="text_15">
    <!-- Avg of 9 line's AUC=0.78 -->
    <defs>
     <path id="BitstreamVeraSans-Roman-20"/>
     <path d="M 10.59375 45.40625 
L 73.1875 45.40625 
L 73.1875 37.203125 
L 10.59375 37.203125 
z
M 10.59375 25.484375 
L 73.1875 25.484375 
L 73.1875 17.1875 
L 10.59375 17.1875 
z
" id="BitstreamVeraSans-Roman-3d"/>
     <path d="M 17.921875 72.90625 
L 17.921875 45.796875 
L 9.625 45.796875 
L 9.625 72.90625 
z
" id="BitstreamVeraSans-Roman-27"/>
     <path d="M 10.984375 1.515625 
L 10.984375 10.5 
Q 14.703125 8.734375 18.5 7.8125 
Q 22.3125 6.890625 25.984375 6.890625 
Q 35.75 6.890625 40.890625 13.453125 
Q 46.046875 20.015625 46.78125 33.40625 
Q 43.953125 29.203125 39.59375 26.953125 
Q 35.25 24.703125 29.984375 24.703125 
Q 19.046875 24.703125 12.671875 31.3125 
Q 6.296875 37.9375 6.296875 49.421875 
Q 6.296875 60.640625 12.9375 67.421875 
Q 19.578125 74.21875 30.609375 74.21875 
Q 43.265625 74.21875 49.921875 64.515625 
Q 56.59375 54.828125 56.59375 36.375 
Q 56.59375 19.140625 48.40625 8.859375 
Q 40.234375 -1.421875 26.421875 -1.421875 
Q 22.703125 -1.421875 18.890625 -0.6875 
Q 15.09375 0.046875 10.984375 1.515625 
M 30.609375 32.421875 
Q 37.25 32.421875 41.125 36.953125 
Q 45.015625 41.5 45.015625 49.421875 
Q 45.015625 57.28125 41.125 61.84375 
Q 37.25 66.40625 30.609375 66.40625 
Q 23.96875 66.40625 20.09375 61.84375 
Q 16.21875 57.28125 16.21875 49.421875 
Q 16.21875 41.5 20.09375 36.953125 
Q 23.96875 32.421875 30.609375 32.421875 
" id="BitstreamVeraSans-Roman-39"/>
     <path d="M 64.40625 67.28125 
L 64.40625 56.890625 
Q 59.421875 61.53125 53.78125 63.8125 
Q 48.140625 66.109375 41.796875 66.109375 
Q 29.296875 66.109375 22.65625 58.46875 
Q 16.015625 50.828125 16.015625 36.375 
Q 16.015625 21.96875 22.65625 14.328125 
Q 29.296875 6.6875 41.796875 6.6875 
Q 48.140625 6.6875 53.78125 8.984375 
Q 59.421875 11.28125 64.40625 15.921875 
L 64.40625 5.609375 
Q 59.234375 2.09375 53.4375 0.328125 
Q 47.65625 -1.421875 41.21875 -1.421875 
Q 24.65625 -1.421875 15.125 8.703125 
Q 5.609375 18.84375 5.609375 36.375 
Q 5.609375 53.953125 15.125 64.078125 
Q 24.65625 74.21875 41.21875 74.21875 
Q 47.75 74.21875 53.53125 72.484375 
Q 59.328125 70.75 64.40625 67.28125 
" id="BitstreamVeraSans-Roman-43"/>
     <path d="M 8.6875 72.90625 
L 18.609375 72.90625 
L 18.609375 28.609375 
Q 18.609375 16.890625 22.84375 11.734375 
Q 27.09375 6.59375 36.625 6.59375 
Q 46.09375 6.59375 50.34375 11.734375 
Q 54.59375 16.890625 54.59375 28.609375 
L 54.59375 72.90625 
L 64.5 72.90625 
L 64.5 27.390625 
Q 64.5 13.140625 57.4375 5.859375 
Q 50.390625 -1.421875 36.625 -1.421875 
Q 22.796875 -1.421875 15.734375 5.859375 
Q 8.6875 13.140625 8.6875 27.390625 
z
" id="BitstreamVeraSans-Roman-55"/>
     <path d="M 34.1875 63.1875 
L 20.796875 26.90625 
L 47.609375 26.90625 
z
M 28.609375 72.90625 
L 39.796875 72.90625 
L 67.578125 0 
L 57.328125 0 
L 50.6875 18.703125 
L 17.828125 18.703125 
L 11.1875 0 
L 0.78125 0 
z
" id="BitstreamVeraSans-Roman-41"/>
     <path d="M 2.984375 54.6875 
L 12.5 54.6875 
L 29.59375 8.796875 
L 46.6875 54.6875 
L 56.203125 54.6875 
L 35.6875 0 
L 23.484375 0 
z
" id="BitstreamVeraSans-Roman-76"/>
     <path d="M 45.40625 27.984375 
Q 45.40625 37.75 41.375 43.109375 
Q 37.359375 48.484375 30.078125 48.484375 
Q 22.859375 48.484375 18.828125 43.109375 
Q 14.796875 37.75 14.796875 27.984375 
Q 14.796875 18.265625 18.828125 12.890625 
Q 22.859375 7.515625 30.078125 7.515625 
Q 37.359375 7.515625 41.375 12.890625 
Q 45.40625 18.265625 45.40625 27.984375 
M 54.390625 6.78125 
Q 54.390625 -7.171875 48.1875 -13.984375 
Q 42 -20.796875 29.203125 -20.796875 
Q 24.46875 -20.796875 20.265625 -20.09375 
Q 16.0625 -19.390625 12.109375 -17.921875 
L 12.109375 -9.1875 
Q 16.0625 -11.328125 19.921875 -12.34375 
Q 23.78125 -13.375 27.78125 -13.375 
Q 36.625 -13.375 41.015625 -8.765625 
Q 45.40625 -4.15625 45.40625 5.171875 
L 45.40625 9.625 
Q 42.625 4.78125 38.28125 2.390625 
Q 33.9375 0 27.875 0 
Q 17.828125 0 11.671875 7.65625 
Q 5.515625 15.328125 5.515625 27.984375 
Q 5.515625 40.671875 11.671875 48.328125 
Q 17.828125 56 27.875 56 
Q 33.9375 56 38.28125 53.609375 
Q 42.625 51.21875 45.40625 46.390625 
L 45.40625 54.6875 
L 54.390625 54.6875 
z
" id="BitstreamVeraSans-Roman-67"/>
     <path d="M 37.109375 75.984375 
L 37.109375 68.5 
L 28.515625 68.5 
Q 23.6875 68.5 21.796875 66.546875 
Q 19.921875 64.59375 19.921875 59.515625 
L 19.921875 54.6875 
L 34.71875 54.6875 
L 34.71875 47.703125 
L 19.921875 47.703125 
L 19.921875 0 
L 10.890625 0 
L 10.890625 47.703125 
L 2.296875 47.703125 
L 2.296875 54.6875 
L 10.890625 54.6875 
L 10.890625 58.5 
Q 10.890625 67.625 15.140625 71.796875 
Q 19.390625 75.984375 28.609375 75.984375 
z
" id="BitstreamVeraSans-Roman-66"/>
     <path d="M 8.203125 72.90625 
L 55.078125 72.90625 
L 55.078125 68.703125 
L 28.609375 0 
L 18.3125 0 
L 43.21875 64.59375 
L 8.203125 64.59375 
z
" id="BitstreamVeraSans-Roman-37"/>
    </defs>
    <g transform="translate(146.03625 23.8)scale(0.12 -0.12)">
     <use xlink:href="#BitstreamVeraSans-Roman-41"/>
     <use x="68.330078125" xlink:href="#BitstreamVeraSans-Roman-76"/>
     <use x="127.509765625" xlink:href="#BitstreamVeraSans-Roman-67"/>
     <use x="190.986328125" xlink:href="#BitstreamVeraSans-Roman-20"/>
     <use x="222.7734375" xlink:href="#BitstreamVeraSans-Roman-6f"/>
     <use x="283.955078125" xlink:href="#BitstreamVeraSans-Roman-66"/>
     <use x="319.16015625" xlink:href="#BitstreamVeraSans-Roman-20"/>
     <use x="350.947265625" xlink:href="#BitstreamVeraSans-Roman-39"/>
     <use x="414.5703125" xlink:href="#BitstreamVeraSans-Roman-20"/>
     <use x="446.357421875" xlink:href="#BitstreamVeraSans-Roman-6c"/>
     <use x="474.140625" xlink:href="#BitstreamVeraSans-Roman-69"/>
     <use x="501.923828125" xlink:href="#BitstreamVeraSans-Roman-6e"/>
     <use x="565.302734375" xlink:href="#BitstreamVeraSans-Roman-65"/>
     <use x="626.826171875" xlink:href="#BitstreamVeraSans-Roman-27"/>
     <use x="654.31640625" xlink:href="#BitstreamVeraSans-Roman-73"/>
     <use x="706.416015625" xlink:href="#BitstreamVeraSans-Roman-20"/>
     <use x="738.203125" xlink:href="#BitstreamVeraSans-Roman-41"/>
     <use x="806.611328125" xlink:href="#BitstreamVeraSans-Roman-55"/>
     <use x="879.8046875" xlink:href="#BitstreamVeraSans-Roman-43"/>
     <use x="949.62890625" xlink:href="#BitstreamVeraSans-Roman-3d"/>
     <use x="1033.41796875" xlink:href="#BitstreamVeraSans-Roman-30"/>
     <use x="1097.04101562" xlink:href="#BitstreamVeraSans-Roman-2e"/>
     <use x="1128.828125" xlink:href="#BitstreamVeraSans-Roman-37"/>
     <use x="1192.45117188" xlink:href="#BitstreamVeraSans-Roman-38"/>
    </g>
   </g>
   <g id="legend_1">
    <g id="patch_7">
     <path d="M 54 252 
L 321.84 252 
L 321.84 195.55875 
L 54 195.55875 
z
" style="fill:#ffffff;stroke:#000000;stroke-linejoin:miter;"/>
    </g>
    <g id="line2d_46">
     <path d="M 62.4 205.276875 
L 79.2 205.276875 
" style="fill:none;stroke:#ff0000;stroke-linecap:square;"/>
    </g>
    <g id="line2d_47"/>
    <g id="text_16">
     <!-- MY4 -->
     <defs>
      <path d="M -0.203125 72.90625 
L 10.40625 72.90625 
L 30.609375 42.921875 
L 50.6875 72.90625 
L 61.28125 72.90625 
L 35.5 34.71875 
L 35.5 0 
L 25.59375 0 
L 25.59375 34.71875 
z
" id="BitstreamVeraSans-Roman-59"/>
      <path d="M 9.8125 72.90625 
L 24.515625 72.90625 
L 43.109375 23.296875 
L 61.8125 72.90625 
L 76.515625 72.90625 
L 76.515625 0 
L 66.890625 0 
L 66.890625 64.015625 
L 48.09375 14.015625 
L 38.1875 14.015625 
L 19.390625 64.015625 
L 19.390625 0 
L 9.8125 0 
z
" id="BitstreamVeraSans-Roman-4d"/>
     </defs>
     <g transform="translate(92.4 209.476875)scale(0.12 -0.12)">
      <use xlink:href="#BitstreamVeraSans-Roman-4d"/>
      <use x="86.279296875" xlink:href="#BitstreamVeraSans-Roman-59"/>
      <use x="147.36328125" xlink:href="#BitstreamVeraSans-Roman-34"/>
     </g>
    </g>
    <g id="line2d_48">
     <path d="M 62.4 222.890625 
L 79.2 222.890625 
" style="fill:none;stroke:#0000ff;stroke-linecap:square;"/>
    </g>
    <g id="line2d_49"/>
    <g id="text_17">
     <!-- ME1 -->
     <defs>
      <path d="M 9.8125 72.90625 
L 55.90625 72.90625 
L 55.90625 64.59375 
L 19.671875 64.59375 
L 19.671875 43.015625 
L 54.390625 43.015625 
L 54.390625 34.71875 
L 19.671875 34.71875 
L 19.671875 8.296875 
L 56.78125 8.296875 
L 56.78125 0 
L 9.8125 0 
z
" id="BitstreamVeraSans-Roman-45"/>
     </defs>
     <g transform="translate(92.4 227.090625)scale(0.12 -0.12)">
      <use xlink:href="#BitstreamVeraSans-Roman-4d"/>
      <use x="86.279296875" xlink:href="#BitstreamVeraSans-Roman-45"/>
      <use x="149.462890625" xlink:href="#BitstreamVeraSans-Roman-31"/>
     </g>
    </g>
    <g id="line2d_50">
     <path d="M 62.4 240.504375 
L 79.2 240.504375 
" style="fill:none;stroke:#000000;stroke-linecap:square;"/>
    </g>
    <g id="line2d_51"/>
    <g id="text_18">
     <!-- FT -->
     <defs>
      <path d="M 9.8125 72.90625 
L 51.703125 72.90625 
L 51.703125 64.59375 
L 19.671875 64.59375 
L 19.671875 43.109375 
L 48.578125 43.109375 
L 48.578125 34.8125 
L 19.671875 34.8125 
L 19.671875 0 
L 9.8125 0 
z
" id="BitstreamVeraSans-Roman-46"/>
      <path d="M -0.296875 72.90625 
L 61.375 72.90625 
L 61.375 64.59375 
L 35.5 64.59375 
L 35.5 0 
L 25.59375 0 
L 25.59375 64.59375 
L -0.296875 64.59375 
z
" id="BitstreamVeraSans-Roman-54"/>
     </defs>
     <g transform="translate(92.4 244.704375)scale(0.12 -0.12)">
      <use xlink:href="#BitstreamVeraSans-Roman-46"/>
      <use x="57.50390625" xlink:href="#BitstreamVeraSans-Roman-54"/>
     </g>
    </g>
    <g id="line2d_52">
     <path d="M 155.289375 205.276875 
L 172.089375 205.276875 
" style="fill:none;stroke:#008000;stroke-linecap:square;"/>
    </g>
    <g id="line2d_53"/>
    <g id="text_19">
     <!-- GC -->
     <defs>
      <path d="M 59.515625 10.40625 
L 59.515625 29.984375 
L 43.40625 29.984375 
L 43.40625 38.09375 
L 69.28125 38.09375 
L 69.28125 6.78125 
Q 63.578125 2.734375 56.6875 0.65625 
Q 49.8125 -1.421875 42 -1.421875 
Q 24.90625 -1.421875 15.25 8.5625 
Q 5.609375 18.5625 5.609375 36.375 
Q 5.609375 54.25 15.25 64.234375 
Q 24.90625 74.21875 42 74.21875 
Q 49.125 74.21875 55.546875 72.453125 
Q 61.96875 70.703125 67.390625 67.28125 
L 67.390625 56.78125 
Q 61.921875 61.421875 55.765625 63.765625 
Q 49.609375 66.109375 42.828125 66.109375 
Q 29.4375 66.109375 22.71875 58.640625 
Q 16.015625 51.171875 16.015625 36.375 
Q 16.015625 21.625 22.71875 14.15625 
Q 29.4375 6.6875 42.828125 6.6875 
Q 48.046875 6.6875 52.140625 7.59375 
Q 56.25 8.5 59.515625 10.40625 
" id="BitstreamVeraSans-Roman-47"/>
     </defs>
     <g transform="translate(185.289375 209.476875)scale(0.12 -0.12)">
      <use xlink:href="#BitstreamVeraSans-Roman-47"/>
      <use x="77.490234375" xlink:href="#BitstreamVeraSans-Roman-43"/>
     </g>
    </g>
    <g id="line2d_54">
     <path d="M 155.289375 222.890625 
L 172.089375 222.890625 
" style="fill:none;stroke:#00bfbf;stroke-linecap:square;"/>
    </g>
    <g id="line2d_55"/>
    <g id="text_20">
     <!-- RC -->
     <g transform="translate(185.289375 227.090625)scale(0.12 -0.12)">
      <use xlink:href="#BitstreamVeraSans-Roman-52"/>
      <use x="69.404296875" xlink:href="#BitstreamVeraSans-Roman-43"/>
     </g>
    </g>
    <g id="line2d_56">
     <path d="M 155.289375 240.504375 
L 172.089375 240.504375 
" style="fill:none;stroke:#bfbf00;stroke-linecap:square;"/>
    </g>
    <g id="line2d_57"/>
    <g id="text_21">
     <!-- DRFI -->
     <defs>
      <path d="M 19.671875 64.796875 
L 19.671875 8.109375 
L 31.59375 8.109375 
Q 46.6875 8.109375 53.6875 14.9375 
Q 60.6875 21.78125 60.6875 36.53125 
Q 60.6875 51.171875 53.6875 57.984375 
Q 46.6875 64.796875 31.59375 64.796875 
z
M 9.8125 72.90625 
L 30.078125 72.90625 
Q 51.265625 72.90625 61.171875 64.09375 
Q 71.09375 55.28125 71.09375 36.53125 
Q 71.09375 17.671875 61.125 8.828125 
Q 51.171875 0 30.078125 0 
L 9.8125 0 
z
" id="BitstreamVeraSans-Roman-44"/>
      <path d="M 9.8125 72.90625 
L 19.671875 72.90625 
L 19.671875 0 
L 9.8125 0 
z
" id="BitstreamVeraSans-Roman-49"/>
     </defs>
     <g transform="translate(185.289375 244.704375)scale(0.12 -0.12)">
      <use xlink:href="#BitstreamVeraSans-Roman-44"/>
      <use x="77.001953125" xlink:href="#BitstreamVeraSans-Roman-52"/>
      <use x="146.484375" xlink:href="#BitstreamVeraSans-Roman-46"/>
      <use x="204.00390625" xlink:href="#BitstreamVeraSans-Roman-49"/>
     </g>
    </g>
    <g id="line2d_58">
     <path d="M 250.6275 205.276875 
L 267.4275 205.276875 
" style="fill:none;stroke:#bf00bf;stroke-linecap:square;"/>
    </g>
    <g id="line2d_59"/>
    <g id="text_22">
     <!-- GMR -->
     <g transform="translate(280.6275 209.476875)scale(0.12 -0.12)">
      <use xlink:href="#BitstreamVeraSans-Roman-47"/>
      <use x="77.490234375" xlink:href="#BitstreamVeraSans-Roman-4d"/>
      <use x="163.76953125" xlink:href="#BitstreamVeraSans-Roman-52"/>
     </g>
    </g>
    <g id="line2d_60">
     <path d="M 250.6275 222.890625 
L 267.4275 222.890625 
" style="fill:none;stroke:#ff0000;stroke-dasharray:6.000000,6.000000;stroke-dashoffset:0.0;"/>
    </g>
    <g id="line2d_61"/>
    <g id="text_23">
     <!-- QCUT -->
     <defs>
      <path d="M 39.40625 66.21875 
Q 28.65625 66.21875 22.328125 58.203125 
Q 16.015625 50.203125 16.015625 36.375 
Q 16.015625 22.609375 22.328125 14.59375 
Q 28.65625 6.59375 39.40625 6.59375 
Q 50.140625 6.59375 56.421875 14.59375 
Q 62.703125 22.609375 62.703125 36.375 
Q 62.703125 50.203125 56.421875 58.203125 
Q 50.140625 66.21875 39.40625 66.21875 
M 53.21875 1.3125 
L 66.21875 -12.890625 
L 54.296875 -12.890625 
L 43.5 -1.21875 
Q 41.890625 -1.3125 41.03125 -1.359375 
Q 40.1875 -1.421875 39.40625 -1.421875 
Q 24.03125 -1.421875 14.8125 8.859375 
Q 5.609375 19.140625 5.609375 36.375 
Q 5.609375 53.65625 14.8125 63.9375 
Q 24.03125 74.21875 39.40625 74.21875 
Q 54.734375 74.21875 63.90625 63.9375 
Q 73.09375 53.65625 73.09375 36.375 
Q 73.09375 23.6875 67.984375 14.640625 
Q 62.890625 5.609375 53.21875 1.3125 
" id="BitstreamVeraSans-Roman-51"/>
     </defs>
     <g transform="translate(280.6275 227.090625)scale(0.12 -0.12)">
      <use xlink:href="#BitstreamVeraSans-Roman-51"/>
      <use x="78.7109375" xlink:href="#BitstreamVeraSans-Roman-43"/>
      <use x="148.53515625" xlink:href="#BitstreamVeraSans-Roman-55"/>
      <use x="221.728515625" xlink:href="#BitstreamVeraSans-Roman-54"/>
     </g>
    </g>
    <g id="line2d_62">
     <path d="M 250.6275 240.504375 
L 267.4275 240.504375 
" style="fill:none;stroke:#0000ff;stroke-dasharray:6.000000,6.000000;stroke-dashoffset:0.0;"/>
    </g>
    <g id="line2d_63"/>
    <g id="text_24">
     <!-- DISC2 -->
     <defs>
      <path d="M 53.515625 70.515625 
L 53.515625 60.890625 
Q 47.90625 63.578125 42.921875 64.890625 
Q 37.9375 66.21875 33.296875 66.21875 
Q 25.25 66.21875 20.875 63.09375 
Q 16.5 59.96875 16.5 54.203125 
Q 16.5 49.359375 19.40625 46.890625 
Q 22.3125 44.4375 30.421875 42.921875 
L 36.375 41.703125 
Q 47.40625 39.59375 52.65625 34.296875 
Q 57.90625 29 57.90625 20.125 
Q 57.90625 9.515625 50.796875 4.046875 
Q 43.703125 -1.421875 29.984375 -1.421875 
Q 24.8125 -1.421875 18.96875 -0.25 
Q 13.140625 0.921875 6.890625 3.21875 
L 6.890625 13.375 
Q 12.890625 10.015625 18.65625 8.296875 
Q 24.421875 6.59375 29.984375 6.59375 
Q 38.421875 6.59375 43.015625 9.90625 
Q 47.609375 13.234375 47.609375 19.390625 
Q 47.609375 24.75 44.3125 27.78125 
Q 41.015625 30.8125 33.5 32.328125 
L 27.484375 33.5 
Q 16.453125 35.6875 11.515625 40.375 
Q 6.59375 45.0625 6.59375 53.421875 
Q 6.59375 63.09375 13.40625 68.65625 
Q 20.21875 74.21875 32.171875 74.21875 
Q 37.3125 74.21875 42.625 73.28125 
Q 47.953125 72.359375 53.515625 70.515625 
" id="BitstreamVeraSans-Roman-53"/>
     </defs>
     <g transform="translate(280.6275 244.704375)scale(0.12 -0.12)">
      <use xlink:href="#BitstreamVeraSans-Roman-44"/>
      <use x="77.001953125" xlink:href="#BitstreamVeraSans-Roman-49"/>
      <use x="106.494140625" xlink:href="#BitstreamVeraSans-Roman-53"/>
      <use x="169.970703125" xlink:href="#BitstreamVeraSans-Roman-43"/>
      <use x="239.794921875" xlink:href="#BitstreamVeraSans-Roman-32"/>
     </g>
    </g>
   </g>
  </g>
 </g>
 <defs>
  <clipPath id="p0309a5166b">
   <rect height="223.2" width="334.8" x="54.0" y="28.8"/>
  </clipPath>
 </defs>
</svg>
