<?xml version="1.0" encoding="utf-8" standalone="no"?>
<!DOCTYPE svg PUBLIC "-//W3C//DTD SVG 1.1//EN"
  "http://www.w3.org/Graphics/SVG/1.1/DTD/svg11.dtd">
<!-- Created with matplotlib (http://matplotlib.org/) -->
<svg height="288pt" version="1.1" viewBox="0 0 432 288" width="432pt" xmlns="http://www.w3.org/2000/svg" xmlns:xlink="http://www.w3.org/1999/xlink">
 <defs>
  <style type="text/css">
*{stroke-linecap:butt;stroke-linejoin:round;stroke-miterlimit:100000;}
  </style>
 </defs>
 <g id="figure_1">
  <g id="patch_1">
   <path d="M 0 288 
L 432 288 
L 432 0 
L 0 0 
z
" style="fill:#ffffff;"/>
  </g>
  <g id="axes_1">
   <g id="patch_2">
    <path d="M 54 252 
L 388.8 252 
L 388.8 28.8 
L 54 28.8 
z
" style="fill:#ffffff;"/>
   </g>
   <g id="line2d_1">
    <path clip-path="url(#p443992de82)" d="M 388.8 196.21581 
L 388.756691 186.622835 
L 388.562698 183.851354 
L 388.517018 174.343706 
L 388.388059 169.520222 
L 388.338936 164.14976 
L 388.146678 155.536944 
L 388.014665 146.625513 
L 387.758426 141.752458 
L 387.37125 139.447007 
L 387.231001 132.534001 
L 387.005489 130.326785 
L 386.803825 125.893446 
L 384.538257 102.160659 
L 384.245683 100.498955 
L 384.101024 98.4859 
L 383.363193 95.706145 
L 383.183058 94.172271 
L 382.866524 92.527842 
L 382.598798 89.438236 
L 382.33335 88.06103 
L 381.588785 81.532363 
L 380.913516 78.517906 
L 380.525101 77.654539 
L 380.307422 75.923235 
L 380.105659 75.044752 
L 379.758799 74.507971 
L 379.640354 73.714258 
L 378.291329 71.560583 
L 377.952807 70.216594 
L 377.527862 69.719694 
L 377.33569 69.054813 
L 377.011975 68.438733 
L 376.660265 66.939463 
L 374.928707 63.605306 
L 374.582896 62.730018 
L 373.746496 61.633987 
L 373.20062 61.221534 
L 372.436568 60.829138 
L 372.218242 60.075374 
L 370.291471 57.805813 
L 369.37875 57.022625 
L 369.012231 56.429303 
L 368.633673 56.368345 
L 367.436494 55.179549 
L 366.723968 54.813729 
L 366.463663 54.16768 
L 366.053389 53.640022 
L 365.514776 53.233153 
L 364.697417 53.068133 
L 363.973701 52.667716 
L 362.172921 51.0818 
L 361.440499 50.770329 
L 360.855312 50.333673 
L 359.895888 50.123937 
L 357.16223 48.289128 
L 354.852697 47.553012 
L 353.260132 46.503543 
L 351.893335 46.253431 
L 351.304963 45.907997 
L 342.709251 43.918992 
L 341.566684 43.486633 
L 331.264598 42.000748 
L 329.630655 41.615837 
L 327.788584 41.464781 
L 326.794553 41.133915 
L 321.61665 40.348847 
L 316.376013 39.783487 
L 314.162975 39.254266 
L 312.577168 39.027829 
L 309.154492 38.904301 
L 307.606754 38.487868 
L 303.863527 38.21402 
L 299.874256 37.71249 
L 297.874212 37.662831 
L 294.079339 36.617176 
L 291.88807 36.743691 
L 289.813316 36.030844 
L 287.874474 35.920408 
L 285.775921 35.62781 
L 283.852302 35.537976 
L 282.24293 35.268265 
L 280.331601 34.518281 
L 278.595232 34.244202 
L 276.599656 33.795279 
L 273.885372 33.031061 
L 268.535559 32.874349 
L 265.827153 32.087121 
L 263.477576 31.963065 
L 247.3131 31.774707 
L 244.946021 31.445861 
L 216.513029 31.008042 
L 211.280068 30.965352 
L 202.853512 30.459701 
L 190.193287 30.473512 
L 185.89556 30.100829 
L 156.881957 29.8538 
L 154.730176 29.751143 
L 151.884604 29.77748 
L 149.838164 29.539418 
L 141.936643 29.519587 
L 139.782172 29.543962 
L 136.700974 29.228817 
L 105.096777 29.142587 
L 87.027207 29.09181 
L 82.944787 28.894953 
L 66.796172 28.965559 
L 63.428533 29.093839 
L 59.275015 28.8 
L 55.760644 28.8 
L 55.760644 28.8 
" style="fill:none;stroke:#ff0000;stroke-linecap:square;"/>
   </g>
   <g id="line2d_2">
    <path clip-path="url(#p443992de82)" d="M 388.8 196.21581 
L 388.785042 189.164017 
L 388.658404 187.041179 
L 388.598859 169.032678 
L 388.521215 164.92239 
L 388.365008 150.862685 
L 388.026076 139.504273 
L 387.82809 135.201823 
L 386.213943 114.985907 
L 385.767481 107.277722 
L 385.265839 103.717833 
L 384.922446 101.986048 
L 384.80077 100.236231 
L 384.252502 96.69149 
L 383.821402 95.192379 
L 383.759476 93.607412 
L 383.14626 89.831655 
L 382.816042 88.760287 
L 382.185888 85.56894 
L 381.903007 84.730378 
L 381.668428 83.671768 
L 381.177174 82.133787 
L 380.806857 80.403508 
L 380.514196 78.859397 
L 380.234894 77.19978 
L 380.002377 76.551117 
L 379.923337 75.652649 
L 377.825664 69.552655 
L 377.529136 69.134966 
L 377.061126 68.710225 
L 376.171864 66.760246 
L 375.653288 66.261661 
L 374.443542 64.752483 
L 373.842142 64.363079 
L 372.614325 62.634316 
L 372.402943 62.281608 
L 371.790123 61.000912 
L 371.326431 60.371529 
L 370.601014 60.072357 
L 370.070195 59.716695 
L 367.299653 57.044798 
L 366.707567 56.761068 
L 364.784992 55.088899 
L 364.347338 53.865924 
L 362.598967 53.225689 
L 361.163875 52.514584 
L 359.9971 51.673353 
L 356.944146 50.498723 
L 356.348732 50.195593 
L 355.720825 50.103105 
L 354.541995 49.293505 
L 351.265351 48.301152 
L 350.215506 48.304901 
L 348.477815 48.127603 
L 347.359636 48.019471 
L 346.198075 47.757254 
L 345.365494 47.420688 
L 339.135002 46.987074 
L 336.937353 46.673206 
L 330.409638 46.28193 
L 328.953701 46.243342 
L 327.757281 45.929155 
L 326.157173 45.957576 
L 324.652446 45.720205 
L 323.483795 45.219616 
L 319.645478 45.010616 
L 307.959926 43.871895 
L 306.20154 43.375238 
L 304.4141 43.234148 
L 293.285408 41.758904 
L 288.935689 41.469792 
L 286.879294 41.248762 
L 282.720698 39.869823 
L 280.051873 38.674525 
L 274.892177 37.830952 
L 272.785279 37.367811 
L 270.266499 37.043489 
L 267.92296 36.085119 
L 260.6603 35.417324 
L 254.479419 35.319197 
L 249.31892 35.223335 
L 246.839177 35.278781 
L 244.067688 35.120893 
L 240.693025 35.194562 
L 235.32853 35.073421 
L 229.990212 35.060408 
L 224.794595 35.198615 
L 217.103051 34.923242 
L 211.945953 34.793098 
L 209.226879 34.724077 
L 206.506316 34.511337 
L 203.632508 34.42058 
L 200.467827 34.079921 
L 198.001896 33.449254 
L 194.659616 32.937838 
L 191.403286 32.575017 
L 188.456213 31.862701 
L 181.958416 30.874876 
L 178.979005 30.922646 
L 176.272134 30.829823 
L 173.976097 30.175324 
L 171.021129 29.969664 
L 136.024553 29.758796 
L 132.724175 29.394403 
L 121.046684 29.265154 
L 107.638814 29.321907 
L 102.931181 29.031149 
L 87.196143 29.069034 
L 83.935263 28.898747 
L 77.498924 28.832059 
L 54.848073 28.8 
L 54.848073 28.8 
" style="fill:none;stroke:#0000ff;stroke-linecap:square;"/>
   </g>
   <g id="line2d_3">
    <path clip-path="url(#p443992de82)" d="M 388.8 196.21581 
L 388.711431 171.777699 
L 388.397251 168.629381 
L 388.207285 161.766687 
L 387.614279 157.064627 
L 386.747666 151.18636 
L 385.284338 145.749423 
L 384.970316 143.32798 
L 384.762 138.854528 
L 384.650208 136.61292 
L 383.849077 131.474417 
L 383.092385 121.246058 
L 382.788091 119.806034 
L 382.707814 118.277154 
L 381.637623 115.177801 
L 380.537366 110.161378 
L 380.195877 107.95037 
L 379.9786 103.176878 
L 378.704802 99.226256 
L 377.703796 94.486761 
L 377.335876 93.670527 
L 377.013887 90.81399 
L 376.126038 88.421145 
L 375.831813 85.896324 
L 375.599081 83.429513 
L 375.274363 81.661849 
L 375.102051 80.244026 
L 374.328054 76.777334 
L 373.952695 76.112133 
L 373.390573 74.451052 
L 373.171388 73.095973 
L 371.892238 69.890524 
L 371.477452 69.419094 
L 371.139532 68.454423 
L 370.306493 67.83651 
L 369.553586 67.512229 
L 369.351484 66.993181 
L 368.864731 66.603447 
L 368.576036 66.176702 
L 368.457819 65.787683 
L 368.049132 65.185848 
L 366.991686 63.668123 
L 366.532943 63.205324 
L 366.234197 62.903136 
L 365.164489 62.583632 
L 364.11138 61.404753 
L 363.430454 60.848584 
L 362.285609 60.318756 
L 361.771237 60.036501 
L 360.870515 59.782374 
L 360.661406 59.317433 
L 359.617694 58.396837 
L 358.833688 57.862238 
L 357.727338 57.518329 
L 357.454182 57.119054 
L 353.348036 55.605203 
L 352.61704 55.54526 
L 352.270956 55.200843 
L 351.189138 55.079072 
L 350.532531 54.880175 
L 350.098092 54.620466 
L 349.212313 54.568377 
L 348.52337 54.207824 
L 347.727934 54.073885 
L 346.188259 53.170057 
L 344.059197 53.003384 
L 341.333233 51.734466 
L 338.81983 51.263798 
L 338.42289 51.098923 
L 337.300361 50.348159 
L 335.385629 49.765294 
L 333.852547 49.58262 
L 332.049554 49.141068 
L 326.904308 49.170058 
L 325.784407 48.912614 
L 321.77804 48.849185 
L 318.415265 48.645437 
L 317.029169 48.343459 
L 307.810461 48.542514 
L 305.906573 48.797082 
L 301.530505 48.653947 
L 293.635852 47.93744 
L 285.152873 47.667338 
L 279.102438 47.147276 
L 276.431171 47.128661 
L 274.898054 46.81886 
L 272.488731 46.866849 
L 270.461028 46.41673 
L 260.319726 46.408718 
L 257.811145 46.620216 
L 253.113911 46.356047 
L 250.90701 46.55742 
L 248.725032 46.133375 
L 241.600656 45.996407 
L 239.227755 46.072076 
L 237.872755 45.484991 
L 235.420642 45.299215 
L 233.142023 44.712266 
L 227.057052 45.468462 
L 222.518533 45.668908 
L 220.155674 45.428922 
L 216.2205 45.723335 
L 213.922972 45.606683 
L 208.500623 45.66247 
L 206.578858 46.209501 
L 204.158104 46.675855 
L 199.916799 46.635857 
L 197.593434 46.970972 
L 193.639969 47.034138 
L 190.070821 46.908157 
L 184.251091 47.103134 
L 178.414985 47.609142 
L 172.602229 46.450526 
L 166.944779 45.994257 
L 158.266824 43.916757 
L 151.658746 42.487058 
L 132.711396 42.404631 
L 124.216713 42.449638 
L 112.96412 42.723808 
L 109.084172 42.568463 
L 102.982982 42.703333 
L 97.641715 42.280461 
L 75.572591 41.866706 
L 69.204144 42.063305 
L 63.539926 41.874306 
L 60.557387 42.507094 
L 58.080297 43.378354 
L 56.250253 46.746407 
L 55.425743 47.486111 
L 54.861968 44.07433 
L 54.861968 44.07433 
" style="fill:none;stroke:#000000;stroke-linecap:square;"/>
   </g>
   <g id="line2d_4">
    <path clip-path="url(#p443992de82)" d="M 388.8 196.21581 
L 388.701132 168.607596 
L 388.339555 160.576298 
L 388.247808 155.527651 
L 388.096632 150.208021 
L 387.901524 139.455814 
L 387.671624 134.411575 
L 387.049468 124.558634 
L 386.096485 115.081285 
L 385.72592 110.831317 
L 385.300742 107.026859 
L 384.560766 99.127661 
L 384.456019 97.276308 
L 384.20699 95.55514 
L 383.845077 93.900313 
L 383.449466 89.452302 
L 382.676984 84.252159 
L 382.353986 82.917777 
L 382.148114 80.512196 
L 381.503223 78.447933 
L 380.248276 72.952111 
L 379.446302 71.356784 
L 379.307014 70.682847 
L 377.475788 66.236292 
L 377.023712 65.70552 
L 375.591158 63.213123 
L 374.482013 62.241885 
L 372.423006 60.15032 
L 370.47785 58.130195 
L 369.358841 57.225927 
L 368.693222 56.247851 
L 368.210775 55.859423 
L 367.851936 55.326646 
L 366.908634 54.98657 
L 365.188928 53.410808 
L 364.557871 52.940685 
L 363.818766 52.589154 
L 363.317175 51.907767 
L 362.551535 51.380388 
L 361.35821 50.984222 
L 361.039082 50.628454 
L 360.432969 50.237985 
L 359.852547 49.043706 
L 356.926888 48.255542 
L 355.487119 47.579457 
L 353.780126 47.152256 
L 352.063081 46.010448 
L 351.037293 45.824543 
L 350.246038 45.502654 
L 349.223651 45.234035 
L 347.122696 44.919607 
L 345.9594 44.593075 
L 343.053431 44.120171 
L 341.845684 43.679993 
L 340.318207 43.712462 
L 338.252479 43.27303 
L 331.73783 43.053309 
L 328.87693 42.532413 
L 325.284301 42.361571 
L 324.162707 42.148278 
L 322.493647 42.006199 
L 318.854901 41.94265 
L 315.214855 41.660048 
L 311.453409 41.482531 
L 307.881093 40.93459 
L 306.205231 40.574222 
L 304.008438 40.37531 
L 302.530112 39.96835 
L 300.131949 39.676793 
L 298.368824 39.584482 
L 292.57728 38.725318 
L 290.695383 38.233362 
L 289.079105 37.563375 
L 284.975902 36.941238 
L 282.548392 36.769111 
L 280.002104 36.274047 
L 273.3698 35.284654 
L 270.999773 35.166145 
L 265.145619 34.412971 
L 262.376892 34.295054 
L 259.828346 33.622213 
L 257.130818 33.533744 
L 254.819321 33.248512 
L 252.971128 32.595978 
L 250.234579 31.92246 
L 248.673894 31.712498 
L 244.733219 31.585825 
L 237.634794 31.626624 
L 232.965045 31.44279 
L 216.619405 31.104086 
L 214.036227 31.109705 
L 212.589385 30.926239 
L 205.905567 30.941091 
L 198.983808 30.910889 
L 197.016837 30.678774 
L 172.744087 30.742453 
L 167.506483 30.577394 
L 161.997688 30.573973 
L 156.396422 30.086728 
L 154.040869 30.126467 
L 151.626704 29.831227 
L 143.541768 29.822104 
L 140.76895 29.688999 
L 135.031841 29.679641 
L 132.818669 29.718635 
L 126.704048 29.663435 
L 124.698002 29.664161 
L 121.763831 29.480052 
L 118.550807 29.472262 
L 114.760809 29.346846 
L 102.216814 29.305149 
L 97.912316 29.164962 
L 88.551376 29.098867 
L 84.416582 29.09321 
L 80.099743 29.265478 
L 76.773648 29.265557 
L 73.624147 29.396405 
L 69.86246 28.80164 
L 54.922769 28.8 
L 54.922769 28.8 
" style="fill:none;stroke:#008000;stroke-linecap:square;"/>
   </g>
   <g id="line2d_5">
    <path clip-path="url(#p443992de82)" d="M 388.8 196.21581 
L 388.723342 175.878227 
L 388.534089 173.744973 
L 388.363125 164.769974 
L 387.995941 158.563831 
L 387.663843 150.811717 
L 387.485243 148.725386 
L 387.285638 140.793297 
L 386.959587 136.399417 
L 386.685441 134.175011 
L 386.326555 129.097691 
L 386.236396 126.594503 
L 386.022214 124.214143 
L 385.782071 119.594054 
L 385.273871 113.081374 
L 384.896682 110.952268 
L 384.736828 109.020384 
L 384.455747 107.12859 
L 384.07416 100.005375 
L 383.504232 92.78122 
L 382.756716 87.381833 
L 381.546358 81.967 
L 381.108747 80.808247 
L 380.970874 79.818812 
L 380.612322 78.771938 
L 380.286031 76.978319 
L 380.005916 76.033215 
L 379.368158 73.185664 
L 379.100821 72.406671 
L 377.265125 69.11914 
L 377.009463 68.341872 
L 376.224856 67.70699 
L 375.8231 67.222625 
L 373.941443 63.979326 
L 373.365318 63.580604 
L 372.968684 62.939111 
L 372.045813 61.885413 
L 371.866091 61.146481 
L 370.564203 60.132363 
L 369.773969 59.05788 
L 366.634265 55.778865 
L 365.509255 55.15091 
L 365.032886 54.423007 
L 364.371327 54.079612 
L 363.605713 53.361154 
L 362.860632 53.181582 
L 362.432769 52.79214 
L 359.480755 51.805003 
L 359.126059 51.460929 
L 357.69505 50.899971 
L 356.636503 50.289498 
L 353.892132 49.231973 
L 351.714353 48.767068 
L 349.657613 48.043326 
L 344.59871 47.1253 
L 342.575624 46.508815 
L 341.562315 46.016527 
L 340.416282 45.879343 
L 338.757848 45.044134 
L 337.500031 44.72142 
L 334.344737 44.372478 
L 330.20344 43.727253 
L 328.363953 43.566412 
L 326.669805 43.210555 
L 318.266697 42.087649 
L 316.696152 41.636895 
L 314.753276 41.331824 
L 312.787235 40.642618 
L 311.095212 40.463631 
L 306.968287 39.684811 
L 304.606871 39.676722 
L 302.841268 39.427492 
L 297.17882 37.922398 
L 295.445918 37.863039 
L 293.592634 37.600634 
L 291.636165 37.074189 
L 290.039066 36.522836 
L 286.617407 35.983347 
L 285.00356 35.666393 
L 275.169992 34.919345 
L 272.769631 34.838857 
L 270.283004 34.58888 
L 267.83134 33.142114 
L 265.273366 33.069387 
L 263.023013 32.732545 
L 257.78855 32.531148 
L 254.539487 32.512848 
L 248.015864 32.159944 
L 236.671336 32.12483 
L 231.321124 32.014145 
L 228.786453 31.955684 
L 223.190216 31.556939 
L 220.01341 31.471558 
L 213.900852 31.523612 
L 210.894816 31.428798 
L 207.178045 31.509078 
L 196.011486 31.199402 
L 192.92773 30.911904 
L 187.580008 30.940358 
L 184.981643 30.537865 
L 168.463584 30.553364 
L 166.047679 30.411351 
L 163.8293 30.418043 
L 160.986545 30.156066 
L 154.819082 30.181167 
L 129.638085 30.187316 
L 126.306324 29.834517 
L 87.979299 29.360025 
L 84.055035 29.133548 
L 55.818522 29.134382 
L 55.244207 28.8 
L 55.244207 28.8 
" style="fill:none;stroke:#00bfbf;stroke-linecap:square;"/>
   </g>
   <g id="line2d_6">
    <path clip-path="url(#p443992de82)" d="M 388.8 196.21581 
L 388.69009 160.05237 
L 388.601199 154.287295 
L 388.523892 135.697672 
L 388.224993 120.208083 
L 387.413117 106.262396 
L 387.368868 103.658707 
L 386.982387 98.746498 
L 386.407786 91.089812 
L 385.893356 86.573581 
L 385.627887 85.21448 
L 385.497401 83.780946 
L 384.742804 80.2957 
L 383.064973 72.669703 
L 382.734933 70.983658 
L 382.349857 69.589562 
L 381.700276 66.624823 
L 381.133253 64.511449 
L 380.853289 63.872488 
L 380.598899 62.607354 
L 379.273424 59.859095 
L 378.811141 59.267783 
L 378.134849 58.735932 
L 377.886927 57.997908 
L 377.469293 57.459417 
L 376.681404 55.567857 
L 375.885087 54.373123 
L 375.407664 52.94495 
L 375.133226 52.506528 
L 374.483319 51.713292 
L 373.795944 50.798595 
L 372.810075 50.02495 
L 372.378577 49.561232 
L 370.973217 48.499032 
L 369.237629 47.906539 
L 367.599713 46.88491 
L 365.472606 45.409078 
L 362.52654 44.422261 
L 361.088322 43.848983 
L 357.758009 43.033223 
L 357.124989 42.80803 
L 355.010896 42.484544 
L 351.652345 41.409149 
L 348.402364 40.325428 
L 347.522327 39.994065 
L 346.719774 39.833367 
L 345.12661 39.198113 
L 342.769417 38.782331 
L 334.988263 37.856206 
L 333.728004 37.643562 
L 332.320943 37.523635 
L 330.094884 37.076218 
L 326.663704 36.793493 
L 321.052618 36.137757 
L 316.500916 35.703937 
L 314.278019 35.126288 
L 313.167892 34.830821 
L 311.961201 34.353829 
L 310.162059 34.074641 
L 306.93236 33.37443 
L 305.465821 33.046501 
L 301.443358 32.719731 
L 297.896912 32.124389 
L 295.67375 32.045959 
L 291.596144 31.669751 
L 287.021493 31.437084 
L 284.956929 31.440331 
L 282.676067 31.265912 
L 278.15017 30.583977 
L 269.592269 30.38193 
L 240.383258 30.073755 
L 229.604386 29.964551 
L 203.673265 29.927845 
L 197.474052 29.773746 
L 188.834311 29.810883 
L 185.904121 29.652077 
L 164.274996 29.665734 
L 144.805157 29.548357 
L 123.37042 29.553884 
L 120.473102 29.361703 
L 111.605319 29.329449 
L 102.919005 29.328292 
L 99.495877 29.038294 
L 88.281946 29.171662 
L 80.311401 29.118857 
L 61.851224 29.179592 
L 58.498196 28.8 
L 55.360384 28.8 
L 55.360384 28.8 
" style="fill:none;stroke:#bfbf00;stroke-linecap:square;"/>
   </g>
   <g id="line2d_7">
    <path clip-path="url(#p443992de82)" d="M 388.8 196.21581 
L 386.507391 85.631474 
L 384.781546 73.839751 
L 383.249297 66.668625 
L 381.974989 62.133328 
L 380.963335 59.526807 
L 379.830181 57.420378 
L 378.363434 55.82069 
L 375.664523 52.643425 
L 374.363589 51.489201 
L 372.628891 49.174768 
L 370.516144 47.295797 
L 369.780119 46.301254 
L 366.997267 44.876725 
L 357.392533 41.964194 
L 356.276943 41.416965 
L 355.272024 41.078386 
L 352.65773 40.471249 
L 351.358388 40.329434 
L 350.43673 40.110282 
L 349.594019 39.790293 
L 347.430997 39.18208 
L 344.595334 38.292145 
L 342.886253 37.851454 
L 340.776964 37.490096 
L 337.785835 37.244075 
L 326.284798 36.353747 
L 323.824853 36.305029 
L 320.686488 35.907951 
L 319.782825 35.873712 
L 318.882285 35.694784 
L 311.939303 35.339725 
L 308.511656 34.710791 
L 304.538729 33.72996 
L 300.234457 32.852761 
L 297.356564 32.778952 
L 296.082908 32.497881 
L 292.660688 32.218859 
L 291.212378 31.873447 
L 286.983887 31.733405 
L 285.236311 31.607225 
L 283.671518 31.610856 
L 282.316655 31.411445 
L 279.5106 31.261256 
L 272.067149 30.386142 
L 265.777976 30.275401 
L 186.277211 29.778732 
L 183.571859 29.677351 
L 157.470016 29.647527 
L 154.303789 29.544385 
L 146.603061 29.557155 
L 126.508325 29.553895 
L 121.187535 29.544657 
L 120.189012 29.365279 
L 119.038073 29.410523 
L 116.896691 29.296723 
L 100.79993 29.341126 
L 99.61763 29.040783 
L 93.326714 29.165684 
L 80.114358 29.118857 
L 58.571798 29.222727 
L 57.64017 28.8 
L 54.763542 28.8 
L 54.763542 28.8 
" style="fill:none;stroke:#bf00bf;stroke-linecap:square;"/>
   </g>
   <g id="line2d_8">
    <path clip-path="url(#p443992de82)" d="M 388.8 196.21581 
L 388.759069 134.157614 
L 388.066916 130.291097 
L 387.810283 112.505142 
L 387.426219 110.079025 
L 387.235457 100.0158 
L 386.937191 95.255215 
L 386.910635 93.196377 
L 386.591862 90.466826 
L 386.406378 83.192138 
L 383.662381 72.985608 
L 383.181523 71.551172 
L 382.756614 70.730664 
L 382.485203 67.823952 
L 382.002703 67.170439 
L 381.170151 64.335252 
L 381.009736 63.037684 
L 380.215282 61.631121 
L 379.42933 60.964775 
L 379.002013 60.291466 
L 378.728256 59.510386 
L 378.13697 58.865491 
L 376.899788 56.039217 
L 376.496569 55.280151 
L 375.605889 52.804591 
L 375.036153 52.234094 
L 374.690239 51.545087 
L 374.509282 50.905996 
L 372.916039 49.477949 
L 372.574532 48.937402 
L 371.895418 48.566452 
L 369.458444 47.634157 
L 368.957249 46.875435 
L 368.161794 46.164744 
L 367.476972 45.589 
L 366.499953 45.328804 
L 366.158146 44.797099 
L 365.79728 44.483724 
L 364.971122 44.236535 
L 364.63521 43.905915 
L 364.138499 43.615389 
L 363.378523 43.328675 
L 361.261656 42.892131 
L 360.609166 42.499722 
L 360.103414 42.307289 
L 359.443565 42.222576 
L 359.231894 42.046296 
L 358.531664 42.011161 
L 358.113927 41.865586 
L 356.85898 41.685072 
L 354.93846 41.147762 
L 353.481182 40.632497 
L 352.231853 40.494009 
L 351.632123 40.247839 
L 350.383601 40.120807 
L 348.987585 39.773828 
L 348.258583 39.547741 
L 344.991806 39.251272 
L 344.224458 38.849954 
L 338.287499 38.073552 
L 337.608508 37.660599 
L 335.592839 37.572741 
L 331.261595 37.456159 
L 324.040649 37.302088 
L 321.901315 37.163436 
L 319.874853 37.109786 
L 316.526177 37.090581 
L 315.189741 36.991659 
L 311.257743 36.544118 
L 309.740078 36.571279 
L 308.827251 36.669598 
L 307.638274 36.585662 
L 305.750125 36.565165 
L 305.223245 36.382367 
L 302.918533 36.337705 
L 302.233092 36.161203 
L 301.029724 36.125494 
L 300.00648 35.80153 
L 298.741469 35.75306 
L 297.806641 35.325349 
L 295.9222 35.344729 
L 293.551268 35.34419 
L 292.667987 33.897539 
L 292.206453 33.847753 
L 291.512047 32.454901 
L 290.314646 31.475839 
L 287.948547 31.365144 
L 284.736957 31.27135 
L 283.286181 31.054327 
L 269.091244 30.790965 
L 264.573635 30.571727 
L 248.783988 30.561436 
L 233.786074 30.402167 
L 230.853837 30.306398 
L 206.098196 30.112347 
L 203.396138 30.093344 
L 198.832777 29.751953 
L 161.332132 29.738225 
L 157.29254 29.52312 
L 141.16061 29.472764 
L 132.562397 29.431182 
L 130.283954 29.258935 
L 127.505076 29.301355 
L 115.798091 29.32018 
L 111.028344 29.409691 
L 104.842967 29.411943 
L 94.924472 29.182018 
L 91.379462 28.98054 
L 60.029903 28.938936 
L 55.614373 28.874699 
L 55.614373 28.874699 
" style="fill:none;stroke:#ff0000;stroke-dasharray:6.000000,6.000000;stroke-dashoffset:0.0;"/>
   </g>
   <g id="line2d_9">
    <path clip-path="url(#p443992de82)" d="M 388.8 196.21581 
L 388.739708 169.887004 
L 388.558252 155.560834 
L 388.458602 131.744656 
L 388.386731 127.34208 
L 387.683187 123.880375 
L 387.440476 118.830015 
L 387.313287 113.007451 
L 386.597434 100.363872 
L 385.973867 98.563031 
L 385.74886 93.816184 
L 385.006008 91.666356 
L 383.934774 90.276708 
L 383.762098 88.306475 
L 382.728676 87.037267 
L 382.392784 83.535477 
L 382.010126 82.523207 
L 381.296567 78.371235 
L 380.483247 74.743198 
L 378.922736 74.121722 
L 378.431712 72.683664 
L 378.364692 71.971536 
L 377.572276 71.223209 
L 376.158786 70.745898 
L 376.026214 70.166119 
L 375.51168 69.301047 
L 375.062382 68.259036 
L 374.298849 67.758766 
L 373.69816 66.516113 
L 373.527513 65.431078 
L 373.087279 65.026174 
L 372.930113 64.165667 
L 372.586017 63.561744 
L 372.024587 63.285515 
L 370.873224 63.01238 
L 370.777238 62.420672 
L 369.730168 61.768636 
L 369.130191 61.150668 
L 368.821611 60.231153 
L 368.477675 59.748579 
L 368.106295 59.474217 
L 367.402489 58.144704 
L 365.93837 57.797901 
L 365.179924 57.141843 
L 364.502441 55.616471 
L 363.314054 54.669334 
L 362.234624 54.562319 
L 361.973355 54.090772 
L 361.752097 54.001399 
L 360.956918 53.094201 
L 359.992922 52.601004 
L 359.575328 51.998533 
L 358.965135 51.805758 
L 356.953221 51.620992 
L 356.450906 51.249213 
L 355.363469 50.962101 
L 354.888012 49.664407 
L 354.040086 49.477036 
L 353.034926 49.377824 
L 352.778709 49.152216 
L 351.937735 49.034146 
L 351.364365 48.776765 
L 350.765194 48.729859 
L 349.968124 48.46651 
L 349.212178 48.378356 
L 348.490493 47.660329 
L 347.930271 47.339817 
L 346.727605 46.957959 
L 345.502907 46.798032 
L 345.228962 46.586635 
L 344.64041 46.289919 
L 343.118797 45.909824 
L 342.745025 45.644646 
L 341.774806 45.453279 
L 340.933188 45.462176 
L 337.692307 45.027059 
L 337.316722 44.872973 
L 336.71336 43.950868 
L 336.524303 43.734209 
L 333.767549 43.171071 
L 333.289287 42.428168 
L 326.624488 41.56313 
L 326.056614 41.11531 
L 324.516724 41.05178 
L 324.031189 40.806747 
L 323.236575 40.639257 
L 322.313473 39.937768 
L 321.697349 39.61177 
L 320.913149 39.459955 
L 320.213105 39.448107 
L 319.180767 39.299203 
L 318.50901 39.079952 
L 316.580532 39.045201 
L 315.918654 38.875175 
L 314.986033 38.810271 
L 310.072129 38.816681 
L 309.304026 38.456295 
L 292.443624 37.805515 
L 281.777924 37.945452 
L 281.043456 37.620275 
L 279.98706 37.610126 
L 276.864756 38.343445 
L 275.658618 38.368881 
L 274.915048 38.211882 
L 272.408223 38.124939 
L 268.381827 38.854972 
L 262.501516 38.79776 
L 253.281908 39.252471 
L 251.922895 40.160331 
L 251.143259 40.40007 
L 250.267699 39.98048 
L 249.386727 32.554143 
L 248.342209 32.279625 
L 234.69478 32.158263 
L 233.646316 31.630803 
L 229.607245 31.485562 
L 226.52795 31.426306 
L 223.16783 31.097895 
L 217.607819 30.810644 
L 212.955701 30.752792 
L 205.357317 30.887152 
L 198.828957 30.592714 
L 187.876115 30.490343 
L 181.00462 30.437517 
L 177.336021 30.376046 
L 173.527666 30.049274 
L 167.30806 29.973272 
L 153.254796 29.885222 
L 139.531477 29.934833 
L 136.730348 29.876323 
L 129.274417 29.91933 
L 116.81522 29.574366 
L 114.79057 29.590691 
L 112.233967 29.162808 
L 101.920394 28.962313 
L 81.203753 28.928013 
L 75.670401 28.961101 
L 73.822197 28.842852 
L 58.060908 28.911712 
L 58.060908 28.911712 
" style="fill:none;stroke:#0000ff;stroke-dasharray:6.000000,6.000000;stroke-dashoffset:0.0;"/>
   </g>
   <g id="line2d_10">
    <path clip-path="url(#p443992de82)" d="M 388.8 196.21581 
L 387.555712 165.839659 
L 386.42252 141.145132 
L 383.392315 124.841915 
L 378.962464 109.114161 
L 374.192148 99.869371 
L 372.471631 95.55615 
L 368.874874 92.186049 
L 368.778515 89.934137 
L 367.166768 85.285077 
L 366.879893 84.109127 
L 366.65634 82.20422 
L 366.080014 80.378285 
L 365.208907 78.970661 
L 364.604123 78.369343 
L 364.296528 76.75079 
L 363.768741 75.453363 
L 363.060943 74.037028 
L 362.932108 73.228804 
L 361.530748 72.137047 
L 359.498632 69.564038 
L 359.226577 68.486975 
L 357.80709 67.2817 
L 356.587861 66.738439 
L 356.306981 65.630228 
L 355.476849 64.958924 
L 355.422814 64.366881 
L 354.646403 63.442465 
L 354.627699 62.664099 
L 353.191066 62.189788 
L 352.247261 61.621115 
L 351.993783 60.540932 
L 351.486642 59.720635 
L 351.405143 58.110892 
L 350.74108 56.870253 
L 350.046361 56.905307 
L 350.029134 56.640819 
L 349.63282 56.410986 
L 349.203811 55.633443 
L 348.450465 55.245643 
L 347.769516 55.185085 
L 347.767081 54.888009 
L 347.122608 54.483692 
L 346.629992 53.301025 
L 346.09753 52.708736 
L 345.066757 52.335764 
L 344.742888 51.697101 
L 344.740915 50.40395 
L 344.740915 50.40395 
L 343.595011 50.134841 
L 343.431275 49.869407 
L 340.421801 49.144489 
L 340.421801 49.144489 
L 339.638693 49.11493 
L 339.638693 49.11493 
L 339.439765 48.854284 
L 339.071236 48.710222 
L 339.032688 48.002637 
L 339.032688 48.002637 
L 338.285879 48.008116 
L 338.285879 48.008116 
L 337.504731 47.617927 
L 336.91734 46.98473 
L 336.670025 46.942435 
L 336.399669 46.76799 
L 336.399669 46.76799 
L 335.822891 46.672312 
L 334.794038 46.692474 
L 334.541346 46.321772 
L 333.638775 46.103934 
L 331.276448 46.153073 
L 329.662667 45.517696 
L 328.685303 44.19994 
L 327.788022 42.794501 
L 323.669317 42.769782 
L 323.053164 42.291413 
L 320.799129 42.192258 
L 318.49714 41.496084 
L 316.733128 41.0062 
L 314.846993 40.954772 
L 314.296786 40.748397 
L 314.293912 40.543856 
L 311.99344 39.667784 
L 311.445829 39.70209 
L 311.337456 39.429954 
L 310.778006 39.467496 
L 310.573663 39.187141 
L 309.906582 39.187141 
L 309.059494 39.017906 
L 308.37817 38.980019 
L 307.599463 38.701071 
L 306.852584 37.986027 
L 306.781923 37.98623 
L 306.076965 37.670156 
L 305.550891 37.568469 
L 303.119144 37.479953 
L 302.528045 37.045793 
L 302.528045 37.045793 
L 302.239942 37.009691 
L 301.466381 36.588608 
L 298.941896 36.60948 
L 296.283792 36.517974 
L 294.835686 35.837539 
L 291.49427 35.396988 
L 291.142361 34.35283 
L 290.477341 33.828532 
L 289.175604 33.834786 
L 287.432893 33.414841 
L 286.448277 33.336697 
L 267.965443 33.310552 
L 261.51197 33.355378 
L 249.936325 33.587426 
L 248.922628 33.652013 
L 246.028865 33.607057 
L 244.460872 33.114557 
L 240.139975 33.080496 
L 236.71354 33.14218 
L 232.263517 33.20316 
L 232.140127 33.164699 
L 232.140127 33.164699 
L 230.336571 32.832399 
L 223.991039 32.618577 
L 217.610474 32.369667 
L 216.652396 32.401814 
L 214.322996 31.947829 
L 210.688597 31.823146 
L 194.287177 31.835031 
L 192.575675 31.687812 
L 188.361054 31.862967 
L 184.035502 31.711105 
L 168.759188 31.627644 
L 166.691404 31.857356 
L 160.971671 31.808383 
L 157.789155 31.812241 
L 156.283271 31.702268 
L 153.228609 32.052165 
L 147.042397 32.097655 
L 132.795205 32.307714 
L 128.361201 31.770486 
L 124.968319 31.811272 
L 122.52775 32.393515 
L 120.740213 31.781478 
L 115.329343 31.962281 
L 111.638911 32.100367 
L 101.407664 32.122112 
L 98.04313 31.672549 
L 95.448609 31.673351 
L 88.124156 31.475691 
L 82.365585 32.138611 
L 71.147573 31.543862 
L 71.147573 31.543862 
" style="fill:none;stroke:#000000;stroke-dasharray:6.000000,6.000000;stroke-dashoffset:0.0;"/>
   </g>
   <g id="patch_3">
    <path d="M 54 28.8 
L 388.8 28.8 
" style="fill:none;stroke:#000000;stroke-linecap:square;stroke-linejoin:miter;"/>
   </g>
   <g id="patch_4">
    <path d="M 388.8 252 
L 388.8 28.8 
" style="fill:none;stroke:#000000;stroke-linecap:square;stroke-linejoin:miter;"/>
   </g>
   <g id="patch_5">
    <path d="M 54 252 
L 388.8 252 
" style="fill:none;stroke:#000000;stroke-linecap:square;stroke-linejoin:miter;"/>
   </g>
   <g id="patch_6">
    <path d="M 54 252 
L 54 28.8 
" style="fill:none;stroke:#000000;stroke-linecap:square;stroke-linejoin:miter;"/>
   </g>
   <g id="matplotlib.axis_1">
    <g id="xtick_1">
     <g id="line2d_11">
      <path clip-path="url(#p443992de82)" d="M 54 252 
L 54 28.8 
" style="fill:none;stroke:#000000;stroke-dasharray:1.000000,3.000000;stroke-dashoffset:0.0;stroke-width:0.5;"/>
     </g>
     <g id="line2d_12">
      <defs>
       <path d="M 0 0 
L 0 -4 
" id="me28db8c552" style="stroke:#000000;stroke-width:0.5;"/>
      </defs>
      <g>
       <use style="stroke:#000000;stroke-width:0.5;" x="54.0" xlink:href="#me28db8c552" y="252.0"/>
      </g>
     </g>
     <g id="line2d_13">
      <defs>
       <path d="M 0 0 
L 0 4 
" id="m429f33f74e" style="stroke:#000000;stroke-width:0.5;"/>
      </defs>
      <g>
       <use style="stroke:#000000;stroke-width:0.5;" x="54.0" xlink:href="#m429f33f74e" y="28.8"/>
      </g>
     </g>
     <g id="text_1">
      <!-- 0.0 -->
      <defs>
       <path d="M 31.78125 66.40625 
Q 24.171875 66.40625 20.328125 58.90625 
Q 16.5 51.421875 16.5 36.375 
Q 16.5 21.390625 20.328125 13.890625 
Q 24.171875 6.390625 31.78125 6.390625 
Q 39.453125 6.390625 43.28125 13.890625 
Q 47.125 21.390625 47.125 36.375 
Q 47.125 51.421875 43.28125 58.90625 
Q 39.453125 66.40625 31.78125 66.40625 
M 31.78125 74.21875 
Q 44.046875 74.21875 50.515625 64.515625 
Q 56.984375 54.828125 56.984375 36.375 
Q 56.984375 17.96875 50.515625 8.265625 
Q 44.046875 -1.421875 31.78125 -1.421875 
Q 19.53125 -1.421875 13.0625 8.265625 
Q 6.59375 17.96875 6.59375 36.375 
Q 6.59375 54.828125 13.0625 64.515625 
Q 19.53125 74.21875 31.78125 74.21875 
" id="BitstreamVeraSans-Roman-30"/>
       <path d="M 10.6875 12.40625 
L 21 12.40625 
L 21 0 
L 10.6875 0 
z
" id="BitstreamVeraSans-Roman-2e"/>
      </defs>
      <g transform="translate(46.0484375 263.5984375)scale(0.1 -0.1)">
       <use xlink:href="#BitstreamVeraSans-Roman-30"/>
       <use x="63.623046875" xlink:href="#BitstreamVeraSans-Roman-2e"/>
       <use x="95.41015625" xlink:href="#BitstreamVeraSans-Roman-30"/>
      </g>
     </g>
    </g>
    <g id="xtick_2">
     <g id="line2d_14">
      <path clip-path="url(#p443992de82)" d="M 120.96 252 
L 120.96 28.8 
" style="fill:none;stroke:#000000;stroke-dasharray:1.000000,3.000000;stroke-dashoffset:0.0;stroke-width:0.5;"/>
     </g>
     <g id="line2d_15">
      <g>
       <use style="stroke:#000000;stroke-width:0.5;" x="120.96" xlink:href="#me28db8c552" y="252.0"/>
      </g>
     </g>
     <g id="line2d_16">
      <g>
       <use style="stroke:#000000;stroke-width:0.5;" x="120.96" xlink:href="#m429f33f74e" y="28.8"/>
      </g>
     </g>
     <g id="text_2">
      <!-- 0.2 -->
      <defs>
       <path d="M 19.1875 8.296875 
L 53.609375 8.296875 
L 53.609375 0 
L 7.328125 0 
L 7.328125 8.296875 
Q 12.9375 14.109375 22.625 23.890625 
Q 32.328125 33.6875 34.8125 36.53125 
Q 39.546875 41.84375 41.421875 45.53125 
Q 43.3125 49.21875 43.3125 52.78125 
Q 43.3125 58.59375 39.234375 62.25 
Q 35.15625 65.921875 28.609375 65.921875 
Q 23.96875 65.921875 18.8125 64.3125 
Q 13.671875 62.703125 7.8125 59.421875 
L 7.8125 69.390625 
Q 13.765625 71.78125 18.9375 73 
Q 24.125 74.21875 28.421875 74.21875 
Q 39.75 74.21875 46.484375 68.546875 
Q 53.21875 62.890625 53.21875 53.421875 
Q 53.21875 48.921875 51.53125 44.890625 
Q 49.859375 40.875 45.40625 35.40625 
Q 44.1875 33.984375 37.640625 27.21875 
Q 31.109375 20.453125 19.1875 8.296875 
" id="BitstreamVeraSans-Roman-32"/>
      </defs>
      <g transform="translate(113.0084375 263.5984375)scale(0.1 -0.1)">
       <use xlink:href="#BitstreamVeraSans-Roman-30"/>
       <use x="63.623046875" xlink:href="#BitstreamVeraSans-Roman-2e"/>
       <use x="95.41015625" xlink:href="#BitstreamVeraSans-Roman-32"/>
      </g>
     </g>
    </g>
    <g id="xtick_3">
     <g id="line2d_17">
      <path clip-path="url(#p443992de82)" d="M 187.92 252 
L 187.92 28.8 
" style="fill:none;stroke:#000000;stroke-dasharray:1.000000,3.000000;stroke-dashoffset:0.0;stroke-width:0.5;"/>
     </g>
     <g id="line2d_18">
      <g>
       <use style="stroke:#000000;stroke-width:0.5;" x="187.92" xlink:href="#me28db8c552" y="252.0"/>
      </g>
     </g>
     <g id="line2d_19">
      <g>
       <use style="stroke:#000000;stroke-width:0.5;" x="187.92" xlink:href="#m429f33f74e" y="28.8"/>
      </g>
     </g>
     <g id="text_3">
      <!-- 0.4 -->
      <defs>
       <path d="M 37.796875 64.3125 
L 12.890625 25.390625 
L 37.796875 25.390625 
z
M 35.203125 72.90625 
L 47.609375 72.90625 
L 47.609375 25.390625 
L 58.015625 25.390625 
L 58.015625 17.1875 
L 47.609375 17.1875 
L 47.609375 0 
L 37.796875 0 
L 37.796875 17.1875 
L 4.890625 17.1875 
L 4.890625 26.703125 
z
" id="BitstreamVeraSans-Roman-34"/>
      </defs>
      <g transform="translate(179.9684375 263.5984375)scale(0.1 -0.1)">
       <use xlink:href="#BitstreamVeraSans-Roman-30"/>
       <use x="63.623046875" xlink:href="#BitstreamVeraSans-Roman-2e"/>
       <use x="95.41015625" xlink:href="#BitstreamVeraSans-Roman-34"/>
      </g>
     </g>
    </g>
    <g id="xtick_4">
     <g id="line2d_20">
      <path clip-path="url(#p443992de82)" d="M 254.88 252 
L 254.88 28.8 
" style="fill:none;stroke:#000000;stroke-dasharray:1.000000,3.000000;stroke-dashoffset:0.0;stroke-width:0.5;"/>
     </g>
     <g id="line2d_21">
      <g>
       <use style="stroke:#000000;stroke-width:0.5;" x="254.88" xlink:href="#me28db8c552" y="252.0"/>
      </g>
     </g>
     <g id="line2d_22">
      <g>
       <use style="stroke:#000000;stroke-width:0.5;" x="254.88" xlink:href="#m429f33f74e" y="28.8"/>
      </g>
     </g>
     <g id="text_4">
      <!-- 0.6 -->
      <defs>
       <path d="M 33.015625 40.375 
Q 26.375 40.375 22.484375 35.828125 
Q 18.609375 31.296875 18.609375 23.390625 
Q 18.609375 15.53125 22.484375 10.953125 
Q 26.375 6.390625 33.015625 6.390625 
Q 39.65625 6.390625 43.53125 10.953125 
Q 47.40625 15.53125 47.40625 23.390625 
Q 47.40625 31.296875 43.53125 35.828125 
Q 39.65625 40.375 33.015625 40.375 
M 52.59375 71.296875 
L 52.59375 62.3125 
Q 48.875 64.0625 45.09375 64.984375 
Q 41.3125 65.921875 37.59375 65.921875 
Q 27.828125 65.921875 22.671875 59.328125 
Q 17.53125 52.734375 16.796875 39.40625 
Q 19.671875 43.65625 24.015625 45.921875 
Q 28.375 48.1875 33.59375 48.1875 
Q 44.578125 48.1875 50.953125 41.515625 
Q 57.328125 34.859375 57.328125 23.390625 
Q 57.328125 12.15625 50.6875 5.359375 
Q 44.046875 -1.421875 33.015625 -1.421875 
Q 20.359375 -1.421875 13.671875 8.265625 
Q 6.984375 17.96875 6.984375 36.375 
Q 6.984375 53.65625 15.1875 63.9375 
Q 23.390625 74.21875 37.203125 74.21875 
Q 40.921875 74.21875 44.703125 73.484375 
Q 48.484375 72.75 52.59375 71.296875 
" id="BitstreamVeraSans-Roman-36"/>
      </defs>
      <g transform="translate(246.9284375 263.5984375)scale(0.1 -0.1)">
       <use xlink:href="#BitstreamVeraSans-Roman-30"/>
       <use x="63.623046875" xlink:href="#BitstreamVeraSans-Roman-2e"/>
       <use x="95.41015625" xlink:href="#BitstreamVeraSans-Roman-36"/>
      </g>
     </g>
    </g>
    <g id="xtick_5">
     <g id="line2d_23">
      <path clip-path="url(#p443992de82)" d="M 321.84 252 
L 321.84 28.8 
" style="fill:none;stroke:#000000;stroke-dasharray:1.000000,3.000000;stroke-dashoffset:0.0;stroke-width:0.5;"/>
     </g>
     <g id="line2d_24">
      <g>
       <use style="stroke:#000000;stroke-width:0.5;" x="321.84" xlink:href="#me28db8c552" y="252.0"/>
      </g>
     </g>
     <g id="line2d_25">
      <g>
       <use style="stroke:#000000;stroke-width:0.5;" x="321.84" xlink:href="#m429f33f74e" y="28.8"/>
      </g>
     </g>
     <g id="text_5">
      <!-- 0.8 -->
      <defs>
       <path d="M 31.78125 34.625 
Q 24.75 34.625 20.71875 30.859375 
Q 16.703125 27.09375 16.703125 20.515625 
Q 16.703125 13.921875 20.71875 10.15625 
Q 24.75 6.390625 31.78125 6.390625 
Q 38.8125 6.390625 42.859375 10.171875 
Q 46.921875 13.96875 46.921875 20.515625 
Q 46.921875 27.09375 42.890625 30.859375 
Q 38.875 34.625 31.78125 34.625 
M 21.921875 38.8125 
Q 15.578125 40.375 12.03125 44.71875 
Q 8.5 49.078125 8.5 55.328125 
Q 8.5 64.0625 14.71875 69.140625 
Q 20.953125 74.21875 31.78125 74.21875 
Q 42.671875 74.21875 48.875 69.140625 
Q 55.078125 64.0625 55.078125 55.328125 
Q 55.078125 49.078125 51.53125 44.71875 
Q 48 40.375 41.703125 38.8125 
Q 48.828125 37.15625 52.796875 32.3125 
Q 56.78125 27.484375 56.78125 20.515625 
Q 56.78125 9.90625 50.3125 4.234375 
Q 43.84375 -1.421875 31.78125 -1.421875 
Q 19.734375 -1.421875 13.25 4.234375 
Q 6.78125 9.90625 6.78125 20.515625 
Q 6.78125 27.484375 10.78125 32.3125 
Q 14.796875 37.15625 21.921875 38.8125 
M 18.3125 54.390625 
Q 18.3125 48.734375 21.84375 45.5625 
Q 25.390625 42.390625 31.78125 42.390625 
Q 38.140625 42.390625 41.71875 45.5625 
Q 45.3125 48.734375 45.3125 54.390625 
Q 45.3125 60.0625 41.71875 63.234375 
Q 38.140625 66.40625 31.78125 66.40625 
Q 25.390625 66.40625 21.84375 63.234375 
Q 18.3125 60.0625 18.3125 54.390625 
" id="BitstreamVeraSans-Roman-38"/>
      </defs>
      <g transform="translate(313.8884375 263.5984375)scale(0.1 -0.1)">
       <use xlink:href="#BitstreamVeraSans-Roman-30"/>
       <use x="63.623046875" xlink:href="#BitstreamVeraSans-Roman-2e"/>
       <use x="95.41015625" xlink:href="#BitstreamVeraSans-Roman-38"/>
      </g>
     </g>
    </g>
    <g id="xtick_6">
     <g id="line2d_26">
      <path clip-path="url(#p443992de82)" d="M 388.8 252 
L 388.8 28.8 
" style="fill:none;stroke:#000000;stroke-dasharray:1.000000,3.000000;stroke-dashoffset:0.0;stroke-width:0.5;"/>
     </g>
     <g id="line2d_27">
      <g>
       <use style="stroke:#000000;stroke-width:0.5;" x="388.8" xlink:href="#me28db8c552" y="252.0"/>
      </g>
     </g>
     <g id="line2d_28">
      <g>
       <use style="stroke:#000000;stroke-width:0.5;" x="388.8" xlink:href="#m429f33f74e" y="28.8"/>
      </g>
     </g>
     <g id="text_6">
      <!-- 1.0 -->
      <defs>
       <path d="M 12.40625 8.296875 
L 28.515625 8.296875 
L 28.515625 63.921875 
L 10.984375 60.40625 
L 10.984375 69.390625 
L 28.421875 72.90625 
L 38.28125 72.90625 
L 38.28125 8.296875 
L 54.390625 8.296875 
L 54.390625 0 
L 12.40625 0 
z
" id="BitstreamVeraSans-Roman-31"/>
      </defs>
      <g transform="translate(380.8484375 263.5984375)scale(0.1 -0.1)">
       <use xlink:href="#BitstreamVeraSans-Roman-31"/>
       <use x="63.623046875" xlink:href="#BitstreamVeraSans-Roman-2e"/>
       <use x="95.41015625" xlink:href="#BitstreamVeraSans-Roman-30"/>
      </g>
     </g>
    </g>
    <g id="text_7">
     <!-- Recall -->
     <defs>
      <path d="M 56.203125 29.59375 
L 56.203125 25.203125 
L 14.890625 25.203125 
Q 15.484375 15.921875 20.484375 11.0625 
Q 25.484375 6.203125 34.421875 6.203125 
Q 39.59375 6.203125 44.453125 7.46875 
Q 49.3125 8.734375 54.109375 11.28125 
L 54.109375 2.78125 
Q 49.265625 0.734375 44.1875 -0.34375 
Q 39.109375 -1.421875 33.890625 -1.421875 
Q 20.796875 -1.421875 13.15625 6.1875 
Q 5.515625 13.8125 5.515625 26.8125 
Q 5.515625 40.234375 12.765625 48.109375 
Q 20.015625 56 32.328125 56 
Q 43.359375 56 49.78125 48.890625 
Q 56.203125 41.796875 56.203125 29.59375 
M 47.21875 32.234375 
Q 47.125 39.59375 43.09375 43.984375 
Q 39.0625 48.390625 32.421875 48.390625 
Q 24.90625 48.390625 20.390625 44.140625 
Q 15.875 39.890625 15.1875 32.171875 
z
" id="BitstreamVeraSans-Roman-65"/>
      <path d="M 44.390625 34.1875 
Q 47.5625 33.109375 50.5625 29.59375 
Q 53.5625 26.078125 56.59375 19.921875 
L 66.609375 0 
L 56 0 
L 46.6875 18.703125 
Q 43.0625 26.03125 39.671875 28.421875 
Q 36.28125 30.8125 30.421875 30.8125 
L 19.671875 30.8125 
L 19.671875 0 
L 9.8125 0 
L 9.8125 72.90625 
L 32.078125 72.90625 
Q 44.578125 72.90625 50.734375 67.671875 
Q 56.890625 62.453125 56.890625 51.90625 
Q 56.890625 45.015625 53.6875 40.46875 
Q 50.484375 35.9375 44.390625 34.1875 
M 19.671875 64.796875 
L 19.671875 38.921875 
L 32.078125 38.921875 
Q 39.203125 38.921875 42.84375 42.21875 
Q 46.484375 45.515625 46.484375 51.90625 
Q 46.484375 58.296875 42.84375 61.546875 
Q 39.203125 64.796875 32.078125 64.796875 
z
" id="BitstreamVeraSans-Roman-52"/>
      <path d="M 34.28125 27.484375 
Q 23.390625 27.484375 19.1875 25 
Q 14.984375 22.515625 14.984375 16.5 
Q 14.984375 11.71875 18.140625 8.90625 
Q 21.296875 6.109375 26.703125 6.109375 
Q 34.1875 6.109375 38.703125 11.40625 
Q 43.21875 16.703125 43.21875 25.484375 
L 43.21875 27.484375 
z
M 52.203125 31.203125 
L 52.203125 0 
L 43.21875 0 
L 43.21875 8.296875 
Q 40.140625 3.328125 35.546875 0.953125 
Q 30.953125 -1.421875 24.3125 -1.421875 
Q 15.921875 -1.421875 10.953125 3.296875 
Q 6 8.015625 6 15.921875 
Q 6 25.140625 12.171875 29.828125 
Q 18.359375 34.515625 30.609375 34.515625 
L 43.21875 34.515625 
L 43.21875 35.40625 
Q 43.21875 41.609375 39.140625 45 
Q 35.0625 48.390625 27.6875 48.390625 
Q 23 48.390625 18.546875 47.265625 
Q 14.109375 46.140625 10.015625 43.890625 
L 10.015625 52.203125 
Q 14.9375 54.109375 19.578125 55.046875 
Q 24.21875 56 28.609375 56 
Q 40.484375 56 46.34375 49.84375 
Q 52.203125 43.703125 52.203125 31.203125 
" id="BitstreamVeraSans-Roman-61"/>
      <path d="M 9.421875 75.984375 
L 18.40625 75.984375 
L 18.40625 0 
L 9.421875 0 
z
" id="BitstreamVeraSans-Roman-6c"/>
      <path d="M 48.78125 52.59375 
L 48.78125 44.1875 
Q 44.96875 46.296875 41.140625 47.34375 
Q 37.3125 48.390625 33.40625 48.390625 
Q 24.65625 48.390625 19.8125 42.84375 
Q 14.984375 37.3125 14.984375 27.296875 
Q 14.984375 17.28125 19.8125 11.734375 
Q 24.65625 6.203125 33.40625 6.203125 
Q 37.3125 6.203125 41.140625 7.25 
Q 44.96875 8.296875 48.78125 10.40625 
L 48.78125 2.09375 
Q 45.015625 0.34375 40.984375 -0.53125 
Q 36.96875 -1.421875 32.421875 -1.421875 
Q 20.0625 -1.421875 12.78125 6.34375 
Q 5.515625 14.109375 5.515625 27.296875 
Q 5.515625 40.671875 12.859375 48.328125 
Q 20.21875 56 33.015625 56 
Q 37.15625 56 41.109375 55.140625 
Q 45.0625 54.296875 48.78125 52.59375 
" id="BitstreamVeraSans-Roman-63"/>
     </defs>
     <g transform="translate(206.2609375 278.2765625)scale(0.1 -0.1)">
      <use xlink:href="#BitstreamVeraSans-Roman-52"/>
      <use x="69.419921875" xlink:href="#BitstreamVeraSans-Roman-65"/>
      <use x="130.943359375" xlink:href="#BitstreamVeraSans-Roman-63"/>
      <use x="185.923828125" xlink:href="#BitstreamVeraSans-Roman-61"/>
      <use x="247.203125" xlink:href="#BitstreamVeraSans-Roman-6c"/>
      <use x="274.986328125" xlink:href="#BitstreamVeraSans-Roman-6c"/>
     </g>
    </g>
   </g>
   <g id="matplotlib.axis_2">
    <g id="ytick_1">
     <g id="line2d_29">
      <path clip-path="url(#p443992de82)" d="M 54 252 
L 388.8 252 
" style="fill:none;stroke:#000000;stroke-dasharray:1.000000,3.000000;stroke-dashoffset:0.0;stroke-width:0.5;"/>
     </g>
     <g id="line2d_30">
      <defs>
       <path d="M 0 0 
L 4 0 
" id="mc08b4dc9c0" style="stroke:#000000;stroke-width:0.5;"/>
      </defs>
      <g>
       <use style="stroke:#000000;stroke-width:0.5;" x="54.0" xlink:href="#mc08b4dc9c0" y="252.0"/>
      </g>
     </g>
     <g id="line2d_31">
      <defs>
       <path d="M 0 0 
L -4 0 
" id="m5c84ce89a4" style="stroke:#000000;stroke-width:0.5;"/>
      </defs>
      <g>
       <use style="stroke:#000000;stroke-width:0.5;" x="388.8" xlink:href="#m5c84ce89a4" y="252.0"/>
      </g>
     </g>
     <g id="text_8">
      <!-- 0.0 -->
      <g transform="translate(34.096875 254.759375)scale(0.1 -0.1)">
       <use xlink:href="#BitstreamVeraSans-Roman-30"/>
       <use x="63.623046875" xlink:href="#BitstreamVeraSans-Roman-2e"/>
       <use x="95.41015625" xlink:href="#BitstreamVeraSans-Roman-30"/>
      </g>
     </g>
    </g>
    <g id="ytick_2">
     <g id="line2d_32">
      <path clip-path="url(#p443992de82)" d="M 54 207.36 
L 388.8 207.36 
" style="fill:none;stroke:#000000;stroke-dasharray:1.000000,3.000000;stroke-dashoffset:0.0;stroke-width:0.5;"/>
     </g>
     <g id="line2d_33">
      <g>
       <use style="stroke:#000000;stroke-width:0.5;" x="54.0" xlink:href="#mc08b4dc9c0" y="207.36"/>
      </g>
     </g>
     <g id="line2d_34">
      <g>
       <use style="stroke:#000000;stroke-width:0.5;" x="388.8" xlink:href="#m5c84ce89a4" y="207.36"/>
      </g>
     </g>
     <g id="text_9">
      <!-- 0.2 -->
      <g transform="translate(34.096875 210.119375)scale(0.1 -0.1)">
       <use xlink:href="#BitstreamVeraSans-Roman-30"/>
       <use x="63.623046875" xlink:href="#BitstreamVeraSans-Roman-2e"/>
       <use x="95.41015625" xlink:href="#BitstreamVeraSans-Roman-32"/>
      </g>
     </g>
    </g>
    <g id="ytick_3">
     <g id="line2d_35">
      <path clip-path="url(#p443992de82)" d="M 54 162.72 
L 388.8 162.72 
" style="fill:none;stroke:#000000;stroke-dasharray:1.000000,3.000000;stroke-dashoffset:0.0;stroke-width:0.5;"/>
     </g>
     <g id="line2d_36">
      <g>
       <use style="stroke:#000000;stroke-width:0.5;" x="54.0" xlink:href="#mc08b4dc9c0" y="162.72"/>
      </g>
     </g>
     <g id="line2d_37">
      <g>
       <use style="stroke:#000000;stroke-width:0.5;" x="388.8" xlink:href="#m5c84ce89a4" y="162.72"/>
      </g>
     </g>
     <g id="text_10">
      <!-- 0.4 -->
      <g transform="translate(34.096875 165.479375)scale(0.1 -0.1)">
       <use xlink:href="#BitstreamVeraSans-Roman-30"/>
       <use x="63.623046875" xlink:href="#BitstreamVeraSans-Roman-2e"/>
       <use x="95.41015625" xlink:href="#BitstreamVeraSans-Roman-34"/>
      </g>
     </g>
    </g>
    <g id="ytick_4">
     <g id="line2d_38">
      <path clip-path="url(#p443992de82)" d="M 54 118.08 
L 388.8 118.08 
" style="fill:none;stroke:#000000;stroke-dasharray:1.000000,3.000000;stroke-dashoffset:0.0;stroke-width:0.5;"/>
     </g>
     <g id="line2d_39">
      <g>
       <use style="stroke:#000000;stroke-width:0.5;" x="54.0" xlink:href="#mc08b4dc9c0" y="118.08"/>
      </g>
     </g>
     <g id="line2d_40">
      <g>
       <use style="stroke:#000000;stroke-width:0.5;" x="388.8" xlink:href="#m5c84ce89a4" y="118.08"/>
      </g>
     </g>
     <g id="text_11">
      <!-- 0.6 -->
      <g transform="translate(34.096875 120.839375)scale(0.1 -0.1)">
       <use xlink:href="#BitstreamVeraSans-Roman-30"/>
       <use x="63.623046875" xlink:href="#BitstreamVeraSans-Roman-2e"/>
       <use x="95.41015625" xlink:href="#BitstreamVeraSans-Roman-36"/>
      </g>
     </g>
    </g>
    <g id="ytick_5">
     <g id="line2d_41">
      <path clip-path="url(#p443992de82)" d="M 54 73.44 
L 388.8 73.44 
" style="fill:none;stroke:#000000;stroke-dasharray:1.000000,3.000000;stroke-dashoffset:0.0;stroke-width:0.5;"/>
     </g>
     <g id="line2d_42">
      <g>
       <use style="stroke:#000000;stroke-width:0.5;" x="54.0" xlink:href="#mc08b4dc9c0" y="73.44"/>
      </g>
     </g>
     <g id="line2d_43">
      <g>
       <use style="stroke:#000000;stroke-width:0.5;" x="388.8" xlink:href="#m5c84ce89a4" y="73.44"/>
      </g>
     </g>
     <g id="text_12">
      <!-- 0.8 -->
      <g transform="translate(34.096875 76.199375)scale(0.1 -0.1)">
       <use xlink:href="#BitstreamVeraSans-Roman-30"/>
       <use x="63.623046875" xlink:href="#BitstreamVeraSans-Roman-2e"/>
       <use x="95.41015625" xlink:href="#BitstreamVeraSans-Roman-38"/>
      </g>
     </g>
    </g>
    <g id="ytick_6">
     <g id="line2d_44">
      <path clip-path="url(#p443992de82)" d="M 54 28.8 
L 388.8 28.8 
" style="fill:none;stroke:#000000;stroke-dasharray:1.000000,3.000000;stroke-dashoffset:0.0;stroke-width:0.5;"/>
     </g>
     <g id="line2d_45">
      <g>
       <use style="stroke:#000000;stroke-width:0.5;" x="54.0" xlink:href="#mc08b4dc9c0" y="28.8"/>
      </g>
     </g>
     <g id="line2d_46">
      <g>
       <use style="stroke:#000000;stroke-width:0.5;" x="388.8" xlink:href="#m5c84ce89a4" y="28.8"/>
      </g>
     </g>
     <g id="text_13">
      <!-- 1.0 -->
      <g transform="translate(34.096875 31.559375)scale(0.1 -0.1)">
       <use xlink:href="#BitstreamVeraSans-Roman-31"/>
       <use x="63.623046875" xlink:href="#BitstreamVeraSans-Roman-2e"/>
       <use x="95.41015625" xlink:href="#BitstreamVeraSans-Roman-30"/>
      </g>
     </g>
    </g>
    <g id="text_14">
     <!-- Precision -->
     <defs>
      <path d="M 54.890625 33.015625 
L 54.890625 0 
L 45.90625 0 
L 45.90625 32.71875 
Q 45.90625 40.484375 42.875 44.328125 
Q 39.84375 48.1875 33.796875 48.1875 
Q 26.515625 48.1875 22.3125 43.546875 
Q 18.109375 38.921875 18.109375 30.90625 
L 18.109375 0 
L 9.078125 0 
L 9.078125 54.6875 
L 18.109375 54.6875 
L 18.109375 46.1875 
Q 21.34375 51.125 25.703125 53.5625 
Q 30.078125 56 35.796875 56 
Q 45.21875 56 50.046875 50.171875 
Q 54.890625 44.34375 54.890625 33.015625 
" id="BitstreamVeraSans-Roman-6e"/>
      <path d="M 30.609375 48.390625 
Q 23.390625 48.390625 19.1875 42.75 
Q 14.984375 37.109375 14.984375 27.296875 
Q 14.984375 17.484375 19.15625 11.84375 
Q 23.34375 6.203125 30.609375 6.203125 
Q 37.796875 6.203125 41.984375 11.859375 
Q 46.1875 17.53125 46.1875 27.296875 
Q 46.1875 37.015625 41.984375 42.703125 
Q 37.796875 48.390625 30.609375 48.390625 
M 30.609375 56 
Q 42.328125 56 49.015625 48.375 
Q 55.71875 40.765625 55.71875 27.296875 
Q 55.71875 13.875 49.015625 6.21875 
Q 42.328125 -1.421875 30.609375 -1.421875 
Q 18.84375 -1.421875 12.171875 6.21875 
Q 5.515625 13.875 5.515625 27.296875 
Q 5.515625 40.765625 12.171875 48.375 
Q 18.84375 56 30.609375 56 
" id="BitstreamVeraSans-Roman-6f"/>
      <path d="M 19.671875 64.796875 
L 19.671875 37.40625 
L 32.078125 37.40625 
Q 38.96875 37.40625 42.71875 40.96875 
Q 46.484375 44.53125 46.484375 51.125 
Q 46.484375 57.671875 42.71875 61.234375 
Q 38.96875 64.796875 32.078125 64.796875 
z
M 9.8125 72.90625 
L 32.078125 72.90625 
Q 44.34375 72.90625 50.609375 67.359375 
Q 56.890625 61.8125 56.890625 51.125 
Q 56.890625 40.328125 50.609375 34.8125 
Q 44.34375 29.296875 32.078125 29.296875 
L 19.671875 29.296875 
L 19.671875 0 
L 9.8125 0 
z
" id="BitstreamVeraSans-Roman-50"/>
      <path d="M 9.421875 54.6875 
L 18.40625 54.6875 
L 18.40625 0 
L 9.421875 0 
z
M 9.421875 75.984375 
L 18.40625 75.984375 
L 18.40625 64.59375 
L 9.421875 64.59375 
z
" id="BitstreamVeraSans-Roman-69"/>
      <path d="M 41.109375 46.296875 
Q 39.59375 47.171875 37.8125 47.578125 
Q 36.03125 48 33.890625 48 
Q 26.265625 48 22.1875 43.046875 
Q 18.109375 38.09375 18.109375 28.8125 
L 18.109375 0 
L 9.078125 0 
L 9.078125 54.6875 
L 18.109375 54.6875 
L 18.109375 46.1875 
Q 20.953125 51.171875 25.484375 53.578125 
Q 30.03125 56 36.53125 56 
Q 37.453125 56 38.578125 55.875 
Q 39.703125 55.765625 41.0625 55.515625 
z
" id="BitstreamVeraSans-Roman-72"/>
      <path d="M 44.28125 53.078125 
L 44.28125 44.578125 
Q 40.484375 46.53125 36.375 47.5 
Q 32.28125 48.484375 27.875 48.484375 
Q 21.1875 48.484375 17.84375 46.4375 
Q 14.5 44.390625 14.5 40.28125 
Q 14.5 37.15625 16.890625 35.375 
Q 19.28125 33.59375 26.515625 31.984375 
L 29.59375 31.296875 
Q 39.15625 29.25 43.1875 25.515625 
Q 47.21875 21.78125 47.21875 15.09375 
Q 47.21875 7.46875 41.1875 3.015625 
Q 35.15625 -1.421875 24.609375 -1.421875 
Q 20.21875 -1.421875 15.453125 -0.5625 
Q 10.6875 0.296875 5.421875 2 
L 5.421875 11.28125 
Q 10.40625 8.6875 15.234375 7.390625 
Q 20.0625 6.109375 24.8125 6.109375 
Q 31.15625 6.109375 34.5625 8.28125 
Q 37.984375 10.453125 37.984375 14.40625 
Q 37.984375 18.0625 35.515625 20.015625 
Q 33.0625 21.96875 24.703125 23.78125 
L 21.578125 24.515625 
Q 13.234375 26.265625 9.515625 29.90625 
Q 5.8125 33.546875 5.8125 39.890625 
Q 5.8125 47.609375 11.28125 51.796875 
Q 16.75 56 26.8125 56 
Q 31.78125 56 36.171875 55.265625 
Q 40.578125 54.546875 44.28125 53.078125 
" id="BitstreamVeraSans-Roman-73"/>
     </defs>
     <g transform="translate(27.0171875 162.9046875)rotate(-90.0)scale(0.1 -0.1)">
      <use xlink:href="#BitstreamVeraSans-Roman-50"/>
      <use x="60.287109375" xlink:href="#BitstreamVeraSans-Roman-72"/>
      <use x="101.369140625" xlink:href="#BitstreamVeraSans-Roman-65"/>
      <use x="162.892578125" xlink:href="#BitstreamVeraSans-Roman-63"/>
      <use x="217.873046875" xlink:href="#BitstreamVeraSans-Roman-69"/>
      <use x="245.65625" xlink:href="#BitstreamVeraSans-Roman-73"/>
      <use x="297.755859375" xlink:href="#BitstreamVeraSans-Roman-69"/>
      <use x="325.5390625" xlink:href="#BitstreamVeraSans-Roman-6f"/>
      <use x="386.720703125" xlink:href="#BitstreamVeraSans-Roman-6e"/>
     </g>
    </g>
   </g>
   <g id="text_15">
    <!-- Avg of 10 line's AUC=0.96 -->
    <defs>
     <path id="BitstreamVeraSans-Roman-20"/>
     <path d="M 10.59375 45.40625 
L 73.1875 45.40625 
L 73.1875 37.203125 
L 10.59375 37.203125 
z
M 10.59375 25.484375 
L 73.1875 25.484375 
L 73.1875 17.1875 
L 10.59375 17.1875 
z
" id="BitstreamVeraSans-Roman-3d"/>
     <path d="M 17.921875 72.90625 
L 17.921875 45.796875 
L 9.625 45.796875 
L 9.625 72.90625 
z
" id="BitstreamVeraSans-Roman-27"/>
     <path d="M 10.984375 1.515625 
L 10.984375 10.5 
Q 14.703125 8.734375 18.5 7.8125 
Q 22.3125 6.890625 25.984375 6.890625 
Q 35.75 6.890625 40.890625 13.453125 
Q 46.046875 20.015625 46.78125 33.40625 
Q 43.953125 29.203125 39.59375 26.953125 
Q 35.25 24.703125 29.984375 24.703125 
Q 19.046875 24.703125 12.671875 31.3125 
Q 6.296875 37.9375 6.296875 49.421875 
Q 6.296875 60.640625 12.9375 67.421875 
Q 19.578125 74.21875 30.609375 74.21875 
Q 43.265625 74.21875 49.921875 64.515625 
Q 56.59375 54.828125 56.59375 36.375 
Q 56.59375 19.140625 48.40625 8.859375 
Q 40.234375 -1.421875 26.421875 -1.421875 
Q 22.703125 -1.421875 18.890625 -0.6875 
Q 15.09375 0.046875 10.984375 1.515625 
M 30.609375 32.421875 
Q 37.25 32.421875 41.125 36.953125 
Q 45.015625 41.5 45.015625 49.421875 
Q 45.015625 57.28125 41.125 61.84375 
Q 37.25 66.40625 30.609375 66.40625 
Q 23.96875 66.40625 20.09375 61.84375 
Q 16.21875 57.28125 16.21875 49.421875 
Q 16.21875 41.5 20.09375 36.953125 
Q 23.96875 32.421875 30.609375 32.421875 
" id="BitstreamVeraSans-Roman-39"/>
     <path d="M 64.40625 67.28125 
L 64.40625 56.890625 
Q 59.421875 61.53125 53.78125 63.8125 
Q 48.140625 66.109375 41.796875 66.109375 
Q 29.296875 66.109375 22.65625 58.46875 
Q 16.015625 50.828125 16.015625 36.375 
Q 16.015625 21.96875 22.65625 14.328125 
Q 29.296875 6.6875 41.796875 6.6875 
Q 48.140625 6.6875 53.78125 8.984375 
Q 59.421875 11.28125 64.40625 15.921875 
L 64.40625 5.609375 
Q 59.234375 2.09375 53.4375 0.328125 
Q 47.65625 -1.421875 41.21875 -1.421875 
Q 24.65625 -1.421875 15.125 8.703125 
Q 5.609375 18.84375 5.609375 36.375 
Q 5.609375 53.953125 15.125 64.078125 
Q 24.65625 74.21875 41.21875 74.21875 
Q 47.75 74.21875 53.53125 72.484375 
Q 59.328125 70.75 64.40625 67.28125 
" id="BitstreamVeraSans-Roman-43"/>
     <path d="M 8.6875 72.90625 
L 18.609375 72.90625 
L 18.609375 28.609375 
Q 18.609375 16.890625 22.84375 11.734375 
Q 27.09375 6.59375 36.625 6.59375 
Q 46.09375 6.59375 50.34375 11.734375 
Q 54.59375 16.890625 54.59375 28.609375 
L 54.59375 72.90625 
L 64.5 72.90625 
L 64.5 27.390625 
Q 64.5 13.140625 57.4375 5.859375 
Q 50.390625 -1.421875 36.625 -1.421875 
Q 22.796875 -1.421875 15.734375 5.859375 
Q 8.6875 13.140625 8.6875 27.390625 
z
" id="BitstreamVeraSans-Roman-55"/>
     <path d="M 34.1875 63.1875 
L 20.796875 26.90625 
L 47.609375 26.90625 
z
M 28.609375 72.90625 
L 39.796875 72.90625 
L 67.578125 0 
L 57.328125 0 
L 50.6875 18.703125 
L 17.828125 18.703125 
L 11.1875 0 
L 0.78125 0 
z
" id="BitstreamVeraSans-Roman-41"/>
     <path d="M 2.984375 54.6875 
L 12.5 54.6875 
L 29.59375 8.796875 
L 46.6875 54.6875 
L 56.203125 54.6875 
L 35.6875 0 
L 23.484375 0 
z
" id="BitstreamVeraSans-Roman-76"/>
     <path d="M 45.40625 27.984375 
Q 45.40625 37.75 41.375 43.109375 
Q 37.359375 48.484375 30.078125 48.484375 
Q 22.859375 48.484375 18.828125 43.109375 
Q 14.796875 37.75 14.796875 27.984375 
Q 14.796875 18.265625 18.828125 12.890625 
Q 22.859375 7.515625 30.078125 7.515625 
Q 37.359375 7.515625 41.375 12.890625 
Q 45.40625 18.265625 45.40625 27.984375 
M 54.390625 6.78125 
Q 54.390625 -7.171875 48.1875 -13.984375 
Q 42 -20.796875 29.203125 -20.796875 
Q 24.46875 -20.796875 20.265625 -20.09375 
Q 16.0625 -19.390625 12.109375 -17.921875 
L 12.109375 -9.1875 
Q 16.0625 -11.328125 19.921875 -12.34375 
Q 23.78125 -13.375 27.78125 -13.375 
Q 36.625 -13.375 41.015625 -8.765625 
Q 45.40625 -4.15625 45.40625 5.171875 
L 45.40625 9.625 
Q 42.625 4.78125 38.28125 2.390625 
Q 33.9375 0 27.875 0 
Q 17.828125 0 11.671875 7.65625 
Q 5.515625 15.328125 5.515625 27.984375 
Q 5.515625 40.671875 11.671875 48.328125 
Q 17.828125 56 27.875 56 
Q 33.9375 56 38.28125 53.609375 
Q 42.625 51.21875 45.40625 46.390625 
L 45.40625 54.6875 
L 54.390625 54.6875 
z
" id="BitstreamVeraSans-Roman-67"/>
     <path d="M 37.109375 75.984375 
L 37.109375 68.5 
L 28.515625 68.5 
Q 23.6875 68.5 21.796875 66.546875 
Q 19.921875 64.59375 19.921875 59.515625 
L 19.921875 54.6875 
L 34.71875 54.6875 
L 34.71875 47.703125 
L 19.921875 47.703125 
L 19.921875 0 
L 10.890625 0 
L 10.890625 47.703125 
L 2.296875 47.703125 
L 2.296875 54.6875 
L 10.890625 54.6875 
L 10.890625 58.5 
Q 10.890625 67.625 15.140625 71.796875 
Q 19.390625 75.984375 28.609375 75.984375 
z
" id="BitstreamVeraSans-Roman-66"/>
    </defs>
    <g transform="translate(142.21875 23.8)scale(0.12 -0.12)">
     <use xlink:href="#BitstreamVeraSans-Roman-41"/>
     <use x="68.330078125" xlink:href="#BitstreamVeraSans-Roman-76"/>
     <use x="127.509765625" xlink:href="#BitstreamVeraSans-Roman-67"/>
     <use x="190.986328125" xlink:href="#BitstreamVeraSans-Roman-20"/>
     <use x="222.7734375" xlink:href="#BitstreamVeraSans-Roman-6f"/>
     <use x="283.955078125" xlink:href="#BitstreamVeraSans-Roman-66"/>
     <use x="319.16015625" xlink:href="#BitstreamVeraSans-Roman-20"/>
     <use x="350.947265625" xlink:href="#BitstreamVeraSans-Roman-31"/>
     <use x="414.5703125" xlink:href="#BitstreamVeraSans-Roman-30"/>
     <use x="478.193359375" xlink:href="#BitstreamVeraSans-Roman-20"/>
     <use x="509.98046875" xlink:href="#BitstreamVeraSans-Roman-6c"/>
     <use x="537.763671875" xlink:href="#BitstreamVeraSans-Roman-69"/>
     <use x="565.546875" xlink:href="#BitstreamVeraSans-Roman-6e"/>
     <use x="628.92578125" xlink:href="#BitstreamVeraSans-Roman-65"/>
     <use x="690.44921875" xlink:href="#BitstreamVeraSans-Roman-27"/>
     <use x="717.939453125" xlink:href="#BitstreamVeraSans-Roman-73"/>
     <use x="770.0390625" xlink:href="#BitstreamVeraSans-Roman-20"/>
     <use x="801.826171875" xlink:href="#BitstreamVeraSans-Roman-41"/>
     <use x="870.234375" xlink:href="#BitstreamVeraSans-Roman-55"/>
     <use x="943.427734375" xlink:href="#BitstreamVeraSans-Roman-43"/>
     <use x="1013.25195312" xlink:href="#BitstreamVeraSans-Roman-3d"/>
     <use x="1097.04101562" xlink:href="#BitstreamVeraSans-Roman-30"/>
     <use x="1160.6640625" xlink:href="#BitstreamVeraSans-Roman-2e"/>
     <use x="1192.45117188" xlink:href="#BitstreamVeraSans-Roman-39"/>
     <use x="1256.07421875" xlink:href="#BitstreamVeraSans-Roman-36"/>
    </g>
   </g>
   <g id="legend_1">
    <g id="patch_7">
     <path d="M 54 252 
L 321.84 252 
L 321.84 177.945 
L 54 177.945 
z
" style="fill:#ffffff;stroke:#000000;stroke-linejoin:miter;"/>
    </g>
    <g id="line2d_47">
     <path d="M 62.4 187.663125 
L 79.2 187.663125 
" style="fill:none;stroke:#ff0000;stroke-linecap:square;"/>
    </g>
    <g id="line2d_48"/>
    <g id="text_16">
     <!-- MY1 -->
     <defs>
      <path d="M -0.203125 72.90625 
L 10.40625 72.90625 
L 30.609375 42.921875 
L 50.6875 72.90625 
L 61.28125 72.90625 
L 35.5 34.71875 
L 35.5 0 
L 25.59375 0 
L 25.59375 34.71875 
z
" id="BitstreamVeraSans-Roman-59"/>
      <path d="M 9.8125 72.90625 
L 24.515625 72.90625 
L 43.109375 23.296875 
L 61.8125 72.90625 
L 76.515625 72.90625 
L 76.515625 0 
L 66.890625 0 
L 66.890625 64.015625 
L 48.09375 14.015625 
L 38.1875 14.015625 
L 19.390625 64.015625 
L 19.390625 0 
L 9.8125 0 
z
" id="BitstreamVeraSans-Roman-4d"/>
     </defs>
     <g transform="translate(92.4 191.863125)scale(0.12 -0.12)">
      <use xlink:href="#BitstreamVeraSans-Roman-4d"/>
      <use x="86.279296875" xlink:href="#BitstreamVeraSans-Roman-59"/>
      <use x="147.36328125" xlink:href="#BitstreamVeraSans-Roman-31"/>
     </g>
    </g>
    <g id="line2d_49">
     <path d="M 62.4 205.276875 
L 79.2 205.276875 
" style="fill:none;stroke:#0000ff;stroke-linecap:square;"/>
    </g>
    <g id="line2d_50"/>
    <g id="text_17">
     <!-- MY2 -->
     <g transform="translate(92.4 209.476875)scale(0.12 -0.12)">
      <use xlink:href="#BitstreamVeraSans-Roman-4d"/>
      <use x="86.279296875" xlink:href="#BitstreamVeraSans-Roman-59"/>
      <use x="147.36328125" xlink:href="#BitstreamVeraSans-Roman-32"/>
     </g>
    </g>
    <g id="line2d_51">
     <path d="M 62.4 222.890625 
L 79.2 222.890625 
" style="fill:none;stroke:#000000;stroke-linecap:square;"/>
    </g>
    <g id="line2d_52"/>
    <g id="text_18">
     <!-- MY3 -->
     <defs>
      <path d="M 40.578125 39.3125 
Q 47.65625 37.796875 51.625 33 
Q 55.609375 28.21875 55.609375 21.1875 
Q 55.609375 10.40625 48.1875 4.484375 
Q 40.765625 -1.421875 27.09375 -1.421875 
Q 22.515625 -1.421875 17.65625 -0.515625 
Q 12.796875 0.390625 7.625 2.203125 
L 7.625 11.71875 
Q 11.71875 9.328125 16.59375 8.109375 
Q 21.484375 6.890625 26.8125 6.890625 
Q 36.078125 6.890625 40.9375 10.546875 
Q 45.796875 14.203125 45.796875 21.1875 
Q 45.796875 27.640625 41.28125 31.265625 
Q 36.765625 34.90625 28.71875 34.90625 
L 20.21875 34.90625 
L 20.21875 43.015625 
L 29.109375 43.015625 
Q 36.375 43.015625 40.234375 45.921875 
Q 44.09375 48.828125 44.09375 54.296875 
Q 44.09375 59.90625 40.109375 62.90625 
Q 36.140625 65.921875 28.71875 65.921875 
Q 24.65625 65.921875 20.015625 65.03125 
Q 15.375 64.15625 9.8125 62.3125 
L 9.8125 71.09375 
Q 15.4375 72.65625 20.34375 73.4375 
Q 25.25 74.21875 29.59375 74.21875 
Q 40.828125 74.21875 47.359375 69.109375 
Q 53.90625 64.015625 53.90625 55.328125 
Q 53.90625 49.265625 50.4375 45.09375 
Q 46.96875 40.921875 40.578125 39.3125 
" id="BitstreamVeraSans-Roman-33"/>
     </defs>
     <g transform="translate(92.4 227.090625)scale(0.12 -0.12)">
      <use xlink:href="#BitstreamVeraSans-Roman-4d"/>
      <use x="86.279296875" xlink:href="#BitstreamVeraSans-Roman-59"/>
      <use x="147.36328125" xlink:href="#BitstreamVeraSans-Roman-33"/>
     </g>
    </g>
    <g id="line2d_53">
     <path d="M 62.4 240.504375 
L 79.2 240.504375 
" style="fill:none;stroke:#008000;stroke-linecap:square;"/>
    </g>
    <g id="line2d_54"/>
    <g id="text_19">
     <!-- MY4 -->
     <g transform="translate(92.4 244.704375)scale(0.12 -0.12)">
      <use xlink:href="#BitstreamVeraSans-Roman-4d"/>
      <use x="86.279296875" xlink:href="#BitstreamVeraSans-Roman-59"/>
      <use x="147.36328125" xlink:href="#BitstreamVeraSans-Roman-34"/>
     </g>
    </g>
    <g id="line2d_55">
     <path d="M 157.032187 187.663125 
L 173.832188 187.663125 
" style="fill:none;stroke:#00bfbf;stroke-linecap:square;"/>
    </g>
    <g id="line2d_56"/>
    <g id="text_20">
     <!-- MY5 -->
     <defs>
      <path d="M 10.796875 72.90625 
L 49.515625 72.90625 
L 49.515625 64.59375 
L 19.828125 64.59375 
L 19.828125 46.734375 
Q 21.96875 47.46875 24.109375 47.828125 
Q 26.265625 48.1875 28.421875 48.1875 
Q 40.625 48.1875 47.75 41.5 
Q 54.890625 34.8125 54.890625 23.390625 
Q 54.890625 11.625 47.5625 5.09375 
Q 40.234375 -1.421875 26.90625 -1.421875 
Q 22.3125 -1.421875 17.546875 -0.640625 
Q 12.796875 0.140625 7.71875 1.703125 
L 7.71875 11.625 
Q 12.109375 9.234375 16.796875 8.0625 
Q 21.484375 6.890625 26.703125 6.890625 
Q 35.15625 6.890625 40.078125 11.328125 
Q 45.015625 15.765625 45.015625 23.390625 
Q 45.015625 31 40.078125 35.4375 
Q 35.15625 39.890625 26.703125 39.890625 
Q 22.75 39.890625 18.8125 39.015625 
Q 14.890625 38.140625 10.796875 36.28125 
z
" id="BitstreamVeraSans-Roman-35"/>
     </defs>
     <g transform="translate(187.0321875 191.863125)scale(0.12 -0.12)">
      <use xlink:href="#BitstreamVeraSans-Roman-4d"/>
      <use x="86.279296875" xlink:href="#BitstreamVeraSans-Roman-59"/>
      <use x="147.36328125" xlink:href="#BitstreamVeraSans-Roman-35"/>
     </g>
    </g>
    <g id="line2d_57">
     <path d="M 157.032187 205.276875 
L 173.832188 205.276875 
" style="fill:none;stroke:#bfbf00;stroke-linecap:square;"/>
    </g>
    <g id="line2d_58"/>
    <g id="text_21">
     <!-- ME1 -->
     <defs>
      <path d="M 9.8125 72.90625 
L 55.90625 72.90625 
L 55.90625 64.59375 
L 19.671875 64.59375 
L 19.671875 43.015625 
L 54.390625 43.015625 
L 54.390625 34.71875 
L 19.671875 34.71875 
L 19.671875 8.296875 
L 56.78125 8.296875 
L 56.78125 0 
L 9.8125 0 
z
" id="BitstreamVeraSans-Roman-45"/>
     </defs>
     <g transform="translate(187.0321875 209.476875)scale(0.12 -0.12)">
      <use xlink:href="#BitstreamVeraSans-Roman-4d"/>
      <use x="86.279296875" xlink:href="#BitstreamVeraSans-Roman-45"/>
      <use x="149.462890625" xlink:href="#BitstreamVeraSans-Roman-31"/>
     </g>
    </g>
    <g id="line2d_59">
     <path d="M 157.032187 222.890625 
L 173.832188 222.890625 
" style="fill:none;stroke:#bf00bf;stroke-linecap:square;"/>
    </g>
    <g id="line2d_60"/>
    <g id="text_22">
     <!-- ME2 -->
     <g transform="translate(187.0321875 227.090625)scale(0.12 -0.12)">
      <use xlink:href="#BitstreamVeraSans-Roman-4d"/>
      <use x="86.279296875" xlink:href="#BitstreamVeraSans-Roman-45"/>
      <use x="149.462890625" xlink:href="#BitstreamVeraSans-Roman-32"/>
     </g>
    </g>
    <g id="line2d_61">
     <path d="M 251.9175 187.663125 
L 268.7175 187.663125 
" style="fill:none;stroke:#ff0000;stroke-dasharray:6.000000,6.000000;stroke-dashoffset:0.0;"/>
    </g>
    <g id="line2d_62"/>
    <g id="text_23">
     <!-- MEAN -->
     <defs>
      <path d="M 9.8125 72.90625 
L 23.09375 72.90625 
L 55.421875 11.921875 
L 55.421875 72.90625 
L 64.984375 72.90625 
L 64.984375 0 
L 51.703125 0 
L 19.390625 60.984375 
L 19.390625 0 
L 9.8125 0 
z
" id="BitstreamVeraSans-Roman-4e"/>
     </defs>
     <g transform="translate(281.9175 191.863125)scale(0.12 -0.12)">
      <use xlink:href="#BitstreamVeraSans-Roman-4d"/>
      <use x="86.279296875" xlink:href="#BitstreamVeraSans-Roman-45"/>
      <use x="149.462890625" xlink:href="#BitstreamVeraSans-Roman-41"/>
      <use x="217.87109375" xlink:href="#BitstreamVeraSans-Roman-4e"/>
     </g>
    </g>
    <g id="line2d_63">
     <path d="M 251.9175 205.276875 
L 268.7175 205.276875 
" style="fill:none;stroke:#0000ff;stroke-dasharray:6.000000,6.000000;stroke-dashoffset:0.0;"/>
    </g>
    <g id="line2d_64"/>
    <g id="text_24">
     <!-- DRFI -->
     <defs>
      <path d="M 9.8125 72.90625 
L 51.703125 72.90625 
L 51.703125 64.59375 
L 19.671875 64.59375 
L 19.671875 43.109375 
L 48.578125 43.109375 
L 48.578125 34.8125 
L 19.671875 34.8125 
L 19.671875 0 
L 9.8125 0 
z
" id="BitstreamVeraSans-Roman-46"/>
      <path d="M 19.671875 64.796875 
L 19.671875 8.109375 
L 31.59375 8.109375 
Q 46.6875 8.109375 53.6875 14.9375 
Q 60.6875 21.78125 60.6875 36.53125 
Q 60.6875 51.171875 53.6875 57.984375 
Q 46.6875 64.796875 31.59375 64.796875 
z
M 9.8125 72.90625 
L 30.078125 72.90625 
Q 51.265625 72.90625 61.171875 64.09375 
Q 71.09375 55.28125 71.09375 36.53125 
Q 71.09375 17.671875 61.125 8.828125 
Q 51.171875 0 30.078125 0 
L 9.8125 0 
z
" id="BitstreamVeraSans-Roman-44"/>
      <path d="M 9.8125 72.90625 
L 19.671875 72.90625 
L 19.671875 0 
L 9.8125 0 
z
" id="BitstreamVeraSans-Roman-49"/>
     </defs>
     <g transform="translate(281.9175 209.476875)scale(0.12 -0.12)">
      <use xlink:href="#BitstreamVeraSans-Roman-44"/>
      <use x="77.001953125" xlink:href="#BitstreamVeraSans-Roman-52"/>
      <use x="146.484375" xlink:href="#BitstreamVeraSans-Roman-46"/>
      <use x="204.00390625" xlink:href="#BitstreamVeraSans-Roman-49"/>
     </g>
    </g>
    <g id="line2d_65">
     <path d="M 251.9175 222.890625 
L 268.7175 222.890625 
" style="fill:none;stroke:#000000;stroke-dasharray:6.000000,6.000000;stroke-dashoffset:0.0;"/>
    </g>
    <g id="line2d_66"/>
    <g id="text_25">
     <!-- GMR -->
     <defs>
      <path d="M 59.515625 10.40625 
L 59.515625 29.984375 
L 43.40625 29.984375 
L 43.40625 38.09375 
L 69.28125 38.09375 
L 69.28125 6.78125 
Q 63.578125 2.734375 56.6875 0.65625 
Q 49.8125 -1.421875 42 -1.421875 
Q 24.90625 -1.421875 15.25 8.5625 
Q 5.609375 18.5625 5.609375 36.375 
Q 5.609375 54.25 15.25 64.234375 
Q 24.90625 74.21875 42 74.21875 
Q 49.125 74.21875 55.546875 72.453125 
Q 61.96875 70.703125 67.390625 67.28125 
L 67.390625 56.78125 
Q 61.921875 61.421875 55.765625 63.765625 
Q 49.609375 66.109375 42.828125 66.109375 
Q 29.4375 66.109375 22.71875 58.640625 
Q 16.015625 51.171875 16.015625 36.375 
Q 16.015625 21.625 22.71875 14.15625 
Q 29.4375 6.6875 42.828125 6.6875 
Q 48.046875 6.6875 52.140625 7.59375 
Q 56.25 8.5 59.515625 10.40625 
" id="BitstreamVeraSans-Roman-47"/>
     </defs>
     <g transform="translate(281.9175 227.090625)scale(0.12 -0.12)">
      <use xlink:href="#BitstreamVeraSans-Roman-47"/>
      <use x="77.490234375" xlink:href="#BitstreamVeraSans-Roman-4d"/>
      <use x="163.76953125" xlink:href="#BitstreamVeraSans-Roman-52"/>
     </g>
    </g>
   </g>
  </g>
 </g>
 <defs>
  <clipPath id="p443992de82">
   <rect height="223.2" width="334.8" x="54.0" y="28.8"/>
  </clipPath>
 </defs>
</svg>
