<?xml version="1.0" encoding="utf-8" standalone="no"?>
<!DOCTYPE svg PUBLIC "-//W3C//DTD SVG 1.1//EN"
  "http://www.w3.org/Graphics/SVG/1.1/DTD/svg11.dtd">
<!-- Created with matplotlib (http://matplotlib.org/) -->
<svg height="288pt" version="1.1" viewBox="0 0 432 288" width="432pt" xmlns="http://www.w3.org/2000/svg" xmlns:xlink="http://www.w3.org/1999/xlink">
 <defs>
  <style type="text/css">
*{stroke-linecap:butt;stroke-linejoin:round;stroke-miterlimit:100000;}
  </style>
 </defs>
 <g id="figure_1">
  <g id="patch_1">
   <path d="M 0 288 
L 432 288 
L 432 0 
L 0 0 
z
" style="fill:#ffffff;"/>
  </g>
  <g id="axes_1">
   <g id="patch_2">
    <path d="M 54 252 
L 388.8 252 
L 388.8 28.8 
L 54 28.8 
z
" style="fill:#ffffff;"/>
   </g>
   <g id="line2d_1">
    <path clip-path="url(#p9ea03e5c3f)" d="M 388.8 218.213883 
L 388.388752 218.060804 
L 387.961691 217.550494 
L 387.637843 217.162515 
L 386.673135 215.143519 
L 386.175405 213.636977 
L 384.961546 209.272695 
L 383.562179 204.99754 
L 380.646253 196.758438 
L 378.616532 192.316767 
L 375.466254 186.228679 
L 371.204001 179.42987 
L 370.279475 178.587579 
L 369.704838 177.734291 
L 368.866314 176.918796 
L 367.771722 175.294467 
L 366.146969 173.751835 
L 364.874643 172.130033 
L 363.589292 170.592321 
L 362.987765 169.777449 
L 361.227426 168.237721 
L 356.209334 162.757179 
L 355.508368 162.021384 
L 354.525663 161.276059 
L 352.042888 159.024304 
L 347.151128 155.490538 
L 345.008799 154.1292 
L 343.059198 152.751328 
L 340.75006 151.434355 
L 339.578715 150.862565 
L 337.275705 149.548298 
L 331.5255 146.474088 
L 327.669491 144.57771 
L 325.206776 143.438063 
L 320.88143 141.755631 
L 318.257278 140.599574 
L 316.648365 140.028319 
L 313.823381 138.795421 
L 311.86899 138.307457 
L 310.256983 137.743868 
L 308.921758 137.146698 
L 305.710177 136.086464 
L 295.660364 132.998659 
L 292.540447 131.98718 
L 281.356961 129.25693 
L 278.970484 128.818778 
L 277.117502 128.339257 
L 275.109667 127.95082 
L 273.523509 127.468352 
L 267.93552 126.169907 
L 264.388463 125.323966 
L 255.195227 123.097708 
L 251.519301 122.094124 
L 245.763107 120.807647 
L 243.605197 120.493523 
L 235.386714 118.927388 
L 225.716217 117.179268 
L 221.950258 116.421891 
L 215.723716 115.501903 
L 209.486096 114.594621 
L 207.618686 114.113524 
L 195.390503 112.112833 
L 193.310939 111.612014 
L 191.477161 111.422828 
L 187.299802 110.564638 
L 185.259842 110.385689 
L 178.941245 109.501763 
L 176.602564 109.398458 
L 172.470423 108.745724 
L 168.195985 108.289985 
L 159.531847 107.366293 
L 155.280146 106.758228 
L 153.019116 106.637637 
L 150.89233 106.408059 
L 143.728471 106.073565 
L 141.329285 105.833635 
L 138.748593 105.395392 
L 136.546077 105.247338 
L 134.133613 105.274522 
L 129.592099 104.601431 
L 127.439605 104.28048 
L 118.068574 103.763713 
L 115.613794 103.836309 
L 112.869192 103.693334 
L 110.566112 103.37724 
L 101.169979 103.057332 
L 96.392485 102.733112 
L 91.947237 102.439 
L 89.673161 102.425396 
L 87.577032 102.232836 
L 83.513818 102.215716 
L 81.489178 102.398092 
L 79.362343 102.018502 
L 77.377573 102.188167 
L 73.681516 102.004599 
L 69.961743 102.041251 
L 68.490559 102.215711 
L 66.83966 102.27815 
L 65.404153 102.02817 
L 63.04497 102.21133 
L 61.915524 102.020684 
L 60.774468 102.267707 
L 59.769981 102.003511 
L 58.992271 102.344153 
L 58.176318 102.918065 
L 57.371935 103.047946 
L 56.579816 102.791787 
L 56.065625 102.753564 
L 56.065625 102.753564 
" style="fill:none;stroke:#ff0000;stroke-linecap:square;"/>
   </g>
   <g id="line2d_2">
    <path clip-path="url(#p9ea03e5c3f)" d="M 388.8 218.213883 
L 388.615489 217.998763 
L 388.053929 216.258447 
L 386.923027 213.072367 
L 384.555468 205.74658 
L 381.589772 198.915303 
L 380.459979 196.567583 
L 379.902796 195.798578 
L 377.337054 191.158042 
L 374.017715 185.968916 
L 373.321068 185.237639 
L 371.510705 182.162961 
L 369.602878 179.202925 
L 366.073866 174.845601 
L 360.254808 169.511224 
L 357.257515 166.858276 
L 355.02468 164.747839 
L 353.973994 164.050908 
L 352.415014 162.61806 
L 349.572384 160.389885 
L 347.678477 159.010923 
L 346.932213 158.249882 
L 344.941411 156.968102 
L 343.926453 156.349483 
L 341.242521 154.344911 
L 340.015832 153.772275 
L 336.9184 151.949583 
L 333.470432 150.06649 
L 332.337513 149.451494 
L 331.013776 148.873859 
L 329.939609 148.231973 
L 327.538975 147.042162 
L 324.737309 145.913112 
L 317.695964 142.963222 
L 313.063506 141.180552 
L 308.922855 139.449654 
L 307.344102 138.940626 
L 304.34018 137.766564 
L 301.036143 136.699598 
L 299.549722 136.141128 
L 294.643729 134.642232 
L 291.850004 133.597251 
L 288.3513 132.650069 
L 278.344997 129.76517 
L 273.650748 128.193426 
L 269.019607 126.667101 
L 258.449773 123.887808 
L 246.481919 121.548168 
L 244.306663 121.266294 
L 240.534361 120.496816 
L 234.440907 119.519505 
L 224.263996 117.512496 
L 222.116566 117.206073 
L 218.416485 116.377305 
L 212.124557 115.379223 
L 210.070877 114.782859 
L 198.02108 112.647444 
L 192.05145 111.401519 
L 187.772967 110.872185 
L 181.212968 110.187323 
L 176.829561 109.683999 
L 174.451247 109.518135 
L 172.254864 109.248623 
L 170.027742 109.139225 
L 165.379438 108.36466 
L 144.045685 105.958636 
L 141.578363 105.617808 
L 138.968936 105.407565 
L 136.64057 105.065078 
L 133.997201 105.011258 
L 131.403381 104.643541 
L 128.674764 104.487499 
L 126.05249 104.572052 
L 123.528805 104.373156 
L 121.056254 103.871781 
L 112.809705 103.923596 
L 110.448501 103.60626 
L 108.107518 103.638929 
L 105.905725 103.321623 
L 101.347319 103.150335 
L 96.85593 102.755011 
L 94.744462 102.406399 
L 92.315822 102.269613 
L 89.961866 102.023373 
L 87.677449 102.109253 
L 85.546622 101.829072 
L 81.127149 101.803701 
L 79.058075 101.71842 
L 74.822845 102.179837 
L 72.911497 101.842051 
L 71.209714 101.24746 
L 66.100491 101.648341 
L 64.775224 101.887708 
L 63.540809 100.839754 
L 62.293824 100.483001 
L 61.107896 100.937605 
L 59.872364 100.83692 
L 57.748494 101.808547 
L 57.046562 101.571169 
L 56.360583 101.219329 
L 56.360583 101.219329 
" style="fill:none;stroke:#0000ff;stroke-linecap:square;"/>
   </g>
   <g id="line2d_3">
    <path clip-path="url(#p9ea03e5c3f)" d="M 388.8 218.213883 
L 388.543255 217.739305 
L 387.677312 215.210185 
L 387.347658 214.596706 
L 387.091451 213.86952 
L 386.000649 211.566605 
L 385.288397 209.886839 
L 383.685171 205.060204 
L 383.475898 204.14697 
L 382.893736 202.344531 
L 382.042131 199.534655 
L 380.917463 196.878532 
L 380.306857 195.993758 
L 378.952884 193.217602 
L 377.863932 191.517681 
L 375.672252 188.139951 
L 374.321595 186.545732 
L 372.202699 184.107801 
L 370.957352 182.468437 
L 370.071105 181.665437 
L 368.117038 179.261571 
L 367.578235 178.415209 
L 366.02242 176.828411 
L 364.62871 176.150164 
L 363.152087 174.714589 
L 362.510914 173.923896 
L 361.591992 173.257657 
L 360.840192 172.544426 
L 358.849655 171.080274 
L 357.251821 169.518055 
L 349.719201 163.383766 
L 349.14373 162.728949 
L 347.963486 162.128222 
L 342.371726 158.024096 
L 341.184529 157.413402 
L 340.224745 156.770669 
L 339.0359 156.117093 
L 337.441006 155.4553 
L 334.17608 153.527294 
L 330.731287 150.779772 
L 327.201624 149.066067 
L 324.351391 147.289886 
L 321.276974 145.611096 
L 319.158128 144.536685 
L 311.731324 140.522149 
L 310.398932 139.921377 
L 309.397285 139.317341 
L 308.098678 138.690207 
L 306.677333 138.1503 
L 305.57974 137.540978 
L 304.06726 136.934863 
L 301.970975 135.507764 
L 295.77529 133.04453 
L 293.289167 132.123691 
L 292.035217 131.519469 
L 290.842518 131.088304 
L 286.665982 129.969027 
L 282.572257 128.714283 
L 281.418712 128.189403 
L 278.621893 127.269437 
L 271.614702 124.864383 
L 264.011983 122.977875 
L 262.420547 122.704338 
L 259.627304 122.023603 
L 253.412889 120.753574 
L 251.990186 120.302697 
L 247.233622 119.314685 
L 244.189399 118.575729 
L 241.121346 117.923149 
L 239.555792 117.679362 
L 236.477356 116.909847 
L 235.022859 116.631694 
L 228.302121 115.725833 
L 226.525262 115.396472 
L 224.693309 115.244445 
L 219.884443 114.449194 
L 216.582908 113.676759 
L 186.63371 110.219422 
L 185.020314 109.860453 
L 182.813451 109.811686 
L 176.168615 108.872716 
L 174.100321 108.594679 
L 172.236315 108.512368 
L 170.383553 108.302732 
L 168.394567 108.371376 
L 157.314389 106.78584 
L 155.525405 106.631658 
L 145.971796 106.808535 
L 143.680486 106.684534 
L 141.258191 107.096948 
L 139.202929 107.248312 
L 137.181958 107.103782 
L 135.213227 107.215049 
L 128.996608 106.41968 
L 126.600852 106.570485 
L 121.718504 106.401338 
L 119.397557 106.614729 
L 116.711203 107.112792 
L 112.040705 107.480372 
L 109.616423 107.868269 
L 99.861112 107.244921 
L 96.789401 107.407573 
L 91.362265 107.246558 
L 83.876764 107.935933 
L 81.125383 108.313587 
L 78.665427 109.288966 
L 76.52932 109.129058 
L 74.33038 109.632683 
L 72.072138 109.933203 
L 70.02466 110.078193 
L 68.037946 110.432182 
L 65.903708 109.977829 
L 63.913333 109.715525 
L 62.052407 109.678391 
L 60.12106 109.115626 
L 58.518135 109.761116 
L 57.533744 109.778086 
L 56.710405 111.414141 
L 55.781579 111.445318 
L 55.781579 111.445318 
" style="fill:none;stroke:#000000;stroke-linecap:square;"/>
   </g>
   <g id="line2d_4">
    <path clip-path="url(#p9ea03e5c3f)" d="M 388.8 218.213883 
L 388.522328 217.952733 
L 388.163671 217.596866 
L 387.825407 217.020062 
L 387.26132 216.138944 
L 385.98478 211.111099 
L 385.849436 210.48584 
L 385.402121 209.210453 
L 383.917329 204.193862 
L 382.262705 199.321009 
L 381.626758 197.600913 
L 379.704521 193.217586 
L 379.07533 192.327936 
L 378.274911 190.495604 
L 373.501262 181.576277 
L 372.027161 179.027797 
L 371.565257 178.134221 
L 367.44654 172.309635 
L 366.656781 171.529327 
L 365.367315 169.93418 
L 362.654103 166.954737 
L 359.736012 163.940372 
L 358.830833 163.201963 
L 357.506568 161.662219 
L 356.351839 160.862264 
L 353.057894 158.019603 
L 351.144803 156.671849 
L 350.14753 156.018363 
L 348.426432 154.681211 
L 345.745802 152.792623 
L 341.658486 150.410947 
L 335.528857 147.411224 
L 334.564679 146.791922 
L 332.120374 145.641362 
L 329.684386 144.501074 
L 327.132845 143.2887 
L 323.314121 141.604371 
L 322.051474 141.020449 
L 319.176463 139.952863 
L 317.794078 139.461894 
L 316.43086 138.815925 
L 310.357102 136.734557 
L 306.995136 135.709869 
L 304.384848 134.620748 
L 302.146463 134.117465 
L 298.83699 133.04845 
L 293.868327 131.601292 
L 291.744996 131.22361 
L 288.248086 130.323831 
L 286.832925 129.780758 
L 279.762927 128.068663 
L 263.624061 124.158346 
L 261.244536 123.81821 
L 253.74012 122.145717 
L 238.947228 119.698201 
L 222.148818 117.196409 
L 217.493293 116.372629 
L 215.643232 116.080381 
L 212.047429 115.188298 
L 205.938282 114.12238 
L 203.685528 113.834333 
L 199.226702 113.08004 
L 194.920287 112.534898 
L 192.864158 112.169282 
L 190.660262 111.654481 
L 186.40026 111.158598 
L 179.557589 110.126173 
L 176.820336 109.875 
L 170.04209 108.900807 
L 165.158934 108.235719 
L 147.850599 105.430552 
L 143.144141 105.016803 
L 140.684905 104.854791 
L 137.842976 104.809404 
L 130.644747 104.180195 
L 128.271632 104.118941 
L 123.661246 103.665157 
L 121.26562 103.729117 
L 118.75432 103.494321 
L 116.228951 103.399614 
L 108.569642 103.336356 
L 106.041424 103.070844 
L 98.943401 102.867148 
L 96.615565 102.556439 
L 94.505231 102.556633 
L 92.067468 102.256818 
L 89.893486 102.476131 
L 87.730277 102.207905 
L 85.717665 102.146235 
L 83.553789 101.860421 
L 79.139494 101.861573 
L 75.064383 101.227942 
L 71.360231 101.55718 
L 69.698513 101.397549 
L 66.56951 101.413962 
L 65.289875 100.927025 
L 63.877158 101.294204 
L 62.583451 101.434888 
L 61.299141 101.406183 
L 60.140279 100.695159 
L 58.268885 101.039538 
L 57.51237 101.330987 
L 56.825855 101.272746 
L 56.193022 101.346001 
L 55.725632 100.736261 
L 55.725632 100.736261 
" style="fill:none;stroke:#008000;stroke-linecap:square;"/>
   </g>
   <g id="line2d_5">
    <path clip-path="url(#p9ea03e5c3f)" d="M 388.8 218.213883 
L 388.59585 217.995076 
L 388.368111 217.580014 
L 387.849717 216.707246 
L 387.531606 215.700048 
L 386.882063 213.013443 
L 386.131009 210.127061 
L 385.4047 207.503525 
L 383.999094 203.087992 
L 381.28038 196.113315 
L 379.826582 192.949934 
L 379.000913 191.332371 
L 376.55182 186.408662 
L 375.340104 184.024322 
L 374.72656 183.274205 
L 374.293698 182.464655 
L 373.159023 180.946571 
L 372.181738 179.354446 
L 371.707038 178.605427 
L 370.829033 177.812351 
L 369.138818 175.566177 
L 368.448158 174.810982 
L 363.852971 168.402382 
L 360.415343 164.551061 
L 357.464309 161.569835 
L 355.686471 160.153937 
L 353.793986 158.782047 
L 350.230581 156.001321 
L 349.334657 155.334949 
L 347.86999 154.708715 
L 344.734722 152.715984 
L 343.793657 152.068333 
L 342.505428 151.421319 
L 340.443214 150.142647 
L 339.311118 149.506877 
L 336.771397 148.229433 
L 329.779548 144.580346 
L 328.491465 143.95713 
L 325.819237 142.828176 
L 323.282425 141.622786 
L 319.301704 139.856652 
L 310.295366 136.537532 
L 302.544233 133.916897 
L 301.129828 133.369155 
L 299.246029 132.922206 
L 297.890887 132.426289 
L 288.348787 129.948341 
L 284.503552 129.066337 
L 282.667419 128.545565 
L 276.330076 127.301252 
L 274.198304 126.932123 
L 270.455101 125.901151 
L 266.028258 124.987086 
L 251.97001 122.02483 
L 241.144467 120.033782 
L 238.824994 119.677288 
L 236.76703 119.20182 
L 232.404769 118.430694 
L 230.076792 118.02311 
L 225.030878 117.356167 
L 210.797657 115.380771 
L 206.237858 114.718477 
L 199.289583 113.756214 
L 194.542646 113.165597 
L 189.892826 112.539054 
L 187.800356 112.21383 
L 185.672967 111.739077 
L 181.080099 111.015422 
L 170.944728 109.900106 
L 163.296664 108.963022 
L 160.582288 108.885628 
L 155.305594 108.360275 
L 149.688022 107.981593 
L 141.735058 107.702342 
L 139.143072 107.712479 
L 136.665435 107.429969 
L 133.827699 107.257104 
L 131.219932 106.920788 
L 123.404212 106.608856 
L 120.907953 106.278474 
L 116.294753 106.018296 
L 111.310136 106.215898 
L 106.703945 106.006352 
L 104.386804 106.03224 
L 102.023908 105.94614 
L 99.612184 106.152737 
L 97.386081 106.128479 
L 95.22641 106.294237 
L 92.566992 106.222985 
L 90.397902 106.295109 
L 87.978946 106.656532 
L 85.70552 106.626011 
L 83.462134 106.372527 
L 81.426275 106.455844 
L 79.639801 106.177419 
L 75.751064 106.625359 
L 73.97468 106.602708 
L 72.13106 106.057297 
L 70.685428 105.118674 
L 68.999277 105.497884 
L 67.48646 105.181107 
L 66.228773 105.091445 
L 63.645208 105.289459 
L 61.442109 104.155552 
L 60.201784 104.329528 
L 59.28033 103.988706 
L 58.320349 104.221589 
L 57.025104 104.134304 
L 56.431756 104.321736 
L 55.787282 103.806826 
L 55.403023 103.238069 
L 55.403023 103.238069 
" style="fill:none;stroke:#00bfbf;stroke-linecap:square;"/>
   </g>
   <g id="line2d_6">
    <path clip-path="url(#p9ea03e5c3f)" d="M 388.8 218.213883 
L 388.553903 216.867304 
L 388.232308 216.008425 
L 387.374899 210.857461 
L 386.640106 205.842876 
L 384.254312 194.352732 
L 383.254934 190.772697 
L 382.281828 187.259413 
L 380.693452 182.279725 
L 378.814897 177.601414 
L 377.442776 174.626425 
L 376.60588 173.25472 
L 374.402623 168.93065 
L 372.992342 166.149976 
L 369.694327 161.000472 
L 368.620689 159.745183 
L 367.010114 157.24752 
L 366.228715 156.002899 
L 364.56017 153.61726 
L 362.005064 150.217646 
L 358.582842 145.805957 
L 357.790958 144.700066 
L 351.534121 137.473609 
L 345.246071 130.961012 
L 344.303165 130.111661 
L 343.209137 129.28692 
L 341.2813 127.571484 
L 334.860085 122.894682 
L 329.213037 119.452117 
L 327.930646 118.745055 
L 324.805431 116.642814 
L 321.40082 114.705149 
L 316.282872 112.212965 
L 314.696763 111.702489 
L 309.703621 109.459401 
L 307.30125 108.273826 
L 302.432062 106.035196 
L 300.248177 104.841616 
L 298.744658 104.286338 
L 294.891985 102.389669 
L 292.382118 101.266281 
L 282.201483 97.45844 
L 278.087126 96.235135 
L 274.168701 95.12532 
L 270.362614 93.831061 
L 262.337487 91.753579 
L 258.718027 90.585253 
L 254.957196 89.597677 
L 250.97361 88.527395 
L 242.997469 86.616516 
L 240.35364 86.169418 
L 236.396115 85.625693 
L 233.797464 85.196892 
L 231.147117 84.747847 
L 228.289433 84.346831 
L 224.069948 84.006572 
L 205.195942 80.466491 
L 202.399624 79.65866 
L 190.637358 77.585359 
L 189.331637 77.196196 
L 186.539754 76.664236 
L 180.69883 75.941209 
L 179.294323 75.468413 
L 177.678275 75.265099 
L 174.531086 74.64648 
L 173.138564 74.438938 
L 170.044848 73.837937 
L 160.874572 73.261324 
L 153.760472 73.018197 
L 146.234053 72.416673 
L 144.449335 72.480887 
L 140.711848 72.324943 
L 138.80629 72.026549 
L 131.27612 71.561121 
L 129.364005 71.48678 
L 127.350211 71.276209 
L 118.629585 71.121976 
L 114.175515 71.144394 
L 111.88116 71.111665 
L 103.813415 70.624338 
L 101.179047 70.596413 
L 98.44259 70.419131 
L 95.569798 70.506919 
L 89.430597 70.04986 
L 76.480335 70.399145 
L 73.23851 70.832365 
L 70.314789 70.996872 
L 64.910808 71.112657 
L 61.964792 71.673731 
L 59.522151 71.294973 
L 57.634364 71.728864 
L 56.00342 71.703989 
L 56.00342 71.703989 
" style="fill:none;stroke:#bfbf00;stroke-linecap:square;"/>
   </g>
   <g id="line2d_7">
    <path clip-path="url(#p9ea03e5c3f)" d="M 388.8 218.213883 
L 352.014549 136.658035 
L 341.227748 125.826929 
L 333.764344 120.081411 
L 327.858363 116.532869 
L 323.296847 113.334935 
L 319.151476 110.685398 
L 315.421854 108.620726 
L 312.375525 106.519859 
L 305.521024 103.661226 
L 302.690411 102.788461 
L 293.772017 99.266695 
L 287.138162 97.139737 
L 285.346761 96.462535 
L 279.017591 94.794353 
L 275.254252 93.958815 
L 273.628683 93.659709 
L 267.455656 92.085056 
L 261.534956 90.746151 
L 255.966938 89.554816 
L 244.996235 87.247118 
L 239.428994 85.932443 
L 228.052944 83.668456 
L 224.951149 82.919227 
L 222.799345 82.689 
L 220.938244 82.40196 
L 217.958635 81.909372 
L 215.283609 81.448784 
L 211.67217 81.042231 
L 207.173985 80.537346 
L 204.447284 80.075427 
L 202.49736 79.674882 
L 201.624246 79.447338 
L 200.672995 78.8629 
L 195.641008 78.116882 
L 189.163699 76.927021 
L 184.075417 76.221573 
L 180.746107 75.584374 
L 179.751922 75.530523 
L 177.234406 75.024817 
L 176.523778 74.770416 
L 173.336107 74.412774 
L 169.44365 74.127734 
L 167.800825 73.895356 
L 166.106752 73.696727 
L 165.088401 73.857464 
L 157.264081 73.516617 
L 154.664468 73.268542 
L 152.197119 73.16194 
L 151.404374 72.965148 
L 144.811644 72.524691 
L 142.353547 72.535058 
L 140.749106 72.169096 
L 138.326735 71.982649 
L 137.4432 72.000757 
L 135.902959 71.737491 
L 132.258726 71.639266 
L 131.428679 71.695908 
L 128.297983 71.551156 
L 127.431712 71.596232 
L 126.607773 71.509951 
L 123.958775 71.481637 
L 120.421008 71.381733 
L 117.675088 71.336479 
L 116.835132 71.223457 
L 111.383398 71.140802 
L 110.473687 71.379774 
L 108.231556 71.412661 
L 105.506771 71.216441 
L 102.533782 71.410302 
L 99.45386 71.169537 
L 98.418874 71.201859 
L 95.505073 70.990505 
L 93.441083 71.058191 
L 84.562952 71.212563 
L 83.409986 71.116884 
L 82.367207 71.210997 
L 80.279741 71.238084 
L 78.002881 71.396587 
L 76.696343 71.67569 
L 71.535525 71.251514 
L 70.524902 71.367163 
L 66.698966 71.370161 
L 65.826891 71.519824 
L 63.743515 71.370258 
L 60.307975 71.227541 
L 59.507654 71.342889 
L 58.308481 71.182169 
L 57.777454 71.389989 
L 56.491921 70.995071 
L 56.001134 71.095849 
L 55.603977 71.012573 
L 55.104737 71.592956 
L 55.104737 71.592956 
" style="fill:none;stroke:#bf00bf;stroke-linecap:square;"/>
   </g>
   <g id="line2d_8">
    <path clip-path="url(#p9ea03e5c3f)" d="M 388.8 218.213883 
L 388.696952 216.947387 
L 385.091901 195.400554 
L 382.815593 185.714497 
L 381.413848 181.521279 
L 379.165084 175.793945 
L 376.682302 170.396907 
L 374.901136 166.944485 
L 372.110153 162.083485 
L 371.194491 160.552345 
L 369.24902 157.663349 
L 368.305631 156.220973 
L 367.085109 154.723454 
L 365.267551 152.04548 
L 359.79476 144.521638 
L 357.570516 142.149201 
L 355.577203 139.840169 
L 353.444532 137.475013 
L 346.640032 130.068408 
L 344.576734 128.361438 
L 342.385825 126.68972 
L 341.422752 125.793981 
L 339.147754 124.164989 
L 334.733393 121.15492 
L 333.575524 120.342463 
L 330.183984 118.310999 
L 324.594905 114.925894 
L 322.240236 113.581437 
L 319.311591 112.285677 
L 318.127542 111.576318 
L 315.587084 110.401049 
L 314.496771 109.699867 
L 308.274221 106.769849 
L 307.089473 106.285933 
L 302.785911 104.062924 
L 301.693402 103.588238 
L 300.568522 102.962268 
L 292.234233 99.920768 
L 285.399622 97.607401 
L 283.336689 96.879291 
L 282.255979 96.556638 
L 280.335512 96.239282 
L 279.325517 95.780041 
L 277.027843 94.99816 
L 275.698244 94.716637 
L 273.39236 93.909274 
L 270.025968 92.995376 
L 266.536328 92.261017 
L 255.071501 89.549848 
L 252.547313 89.1751 
L 247.879454 88.079117 
L 236.349847 85.415056 
L 227.953012 83.667618 
L 223.16333 82.48961 
L 220.676029 82.223798 
L 214.081049 80.616446 
L 212.963182 80.306741 
L 210.61517 79.416961 
L 209.513022 79.159602 
L 206.025263 78.859923 
L 204.839443 78.677875 
L 203.605215 78.656899 
L 201.355612 78.239501 
L 190.887227 76.130859 
L 188.359034 75.785993 
L 181.660986 74.690381 
L 175.849933 73.80907 
L 170.84342 73.059542 
L 169.369097 72.791125 
L 165.991206 72.542322 
L 162.924921 72.52579 
L 158.606867 72.041634 
L 153.883711 71.401211 
L 152.39021 71.296328 
L 150.777654 71.433832 
L 139.304735 70.941795 
L 130.187006 71.041835 
L 128.419502 70.819102 
L 126.733198 70.482815 
L 124.971709 70.256254 
L 123.199052 70.346966 
L 121.483082 70.24754 
L 119.582806 70.32098 
L 117.624905 70.256461 
L 115.461235 70.320968 
L 113.329243 70.066767 
L 106.280775 69.704405 
L 103.528897 69.798064 
L 100.773346 69.616992 
L 97.765412 70.034924 
L 94.533836 70.144786 
L 91.372135 69.638733 
L 84.143638 69.435092 
L 76.679456 69.553136 
L 73.014546 69.582151 
L 69.497485 69.400983 
L 62.19427 70.42959 
L 58.992294 70.345371 
L 56.395431 70.06016 
L 56.395431 70.06016 
" style="fill:none;stroke:#ff0000;stroke-dasharray:6.000000,6.000000;stroke-dashoffset:0.0;"/>
   </g>
   <g id="line2d_9">
    <path clip-path="url(#p9ea03e5c3f)" d="M 388.8 218.213883 
L 387.486399 204.41598 
L 386.928861 201.064007 
L 385.585591 195.305095 
L 384.836264 192.668844 
L 383.776161 190.202687 
L 382.224873 185.324192 
L 381.356335 183.170174 
L 380.000524 178.722211 
L 379.090701 176.633136 
L 377.946968 174.594177 
L 377.075287 172.68584 
L 376.281199 170.67083 
L 375.399605 168.775348 
L 373.659033 165.459497 
L 371.484577 162.276374 
L 370.36802 160.820406 
L 369.597271 159.420381 
L 368.425783 158.032377 
L 366.666859 155.296503 
L 365.78184 153.853061 
L 362.81989 149.995493 
L 360.78216 147.408429 
L 357.735259 143.475894 
L 355.410446 141.252509 
L 350.86084 136.054153 
L 347.915579 133.27642 
L 347.141211 132.327219 
L 346.16103 131.379938 
L 342.835598 128.754053 
L 340.773664 126.983657 
L 338.898048 125.196013 
L 337.02694 123.476889 
L 336.044046 122.734206 
L 334.858082 122.077919 
L 331.662284 119.905129 
L 325.402905 115.835437 
L 320.863669 113.697748 
L 318.916271 112.612736 
L 311.498884 109.268689 
L 310.599793 108.800651 
L 304.61545 106.64783 
L 303.691299 106.090006 
L 297.351292 103.157914 
L 293.813634 101.973102 
L 289.061725 100.86793 
L 285.72493 99.919004 
L 283.718973 99.165758 
L 279.361221 97.573706 
L 278.422364 97.074052 
L 274.997167 96.245176 
L 268.745914 94.613574 
L 265.381979 93.482205 
L 262.055356 92.408759 
L 258.48933 91.672744 
L 252.193961 89.919377 
L 242.872798 87.497337 
L 241.845423 87.175047 
L 239.684203 86.693601 
L 237.635753 86.131699 
L 214.702394 81.850836 
L 213.651541 81.523935 
L 206.498325 80.223575 
L 201.699557 79.465808 
L 195.342728 78.652655 
L 193.786779 78.257422 
L 192.314746 78.270833 
L 190.829682 78.041534 
L 188.019177 77.814037 
L 180.216884 76.54743 
L 179.063394 76.202337 
L 173.776253 75.453015 
L 172.530357 75.14466 
L 171.109909 75.073894 
L 161.556309 73.871141 
L 160.159206 73.373824 
L 145.321367 72.614589 
L 137.148439 72.125115 
L 133.680993 72.069005 
L 132.111941 71.909387 
L 128.245018 71.066435 
L 126.525421 71.031045 
L 124.569306 71.167605 
L 122.790574 70.969855 
L 121.018694 70.944695 
L 119.316105 70.796788 
L 113.382728 70.807309 
L 111.203353 71.159233 
L 109.016276 71.739836 
L 106.70469 71.69846 
L 104.337205 72.020829 
L 99.453338 72.125139 
L 96.916826 72.042406 
L 91.962052 72.131922 
L 89.492754 72.030627 
L 86.860083 72.43386 
L 84.045543 72.187347 
L 78.382783 72.526197 
L 75.093858 72.441117 
L 71.879678 73.378506 
L 67.956742 73.299022 
L 64.663649 73.050857 
L 60.256856 73.102428 
L 60.256856 73.102428 
" style="fill:none;stroke:#0000ff;stroke-dasharray:6.000000,6.000000;stroke-dashoffset:0.0;"/>
   </g>
   <g id="line2d_10">
    <path clip-path="url(#p9ea03e5c3f)" d="M 388.8 218.213883 
L 388.00245 213.22717 
L 387.593591 209.83378 
L 387.167178 204.21729 
L 386.261495 199.255579 
L 385.608167 196.940434 
L 384.792093 192.286226 
L 381.858396 182.639913 
L 381.138376 180.839408 
L 378.449928 175.530801 
L 376.283284 171.184566 
L 375.228917 169.74236 
L 373.970394 168.474449 
L 372.986402 167.238943 
L 371.431569 164.482363 
L 370.450516 163.211778 
L 368.656294 162.11423 
L 367.657955 161.007545 
L 366.875581 159.813136 
L 365.826761 158.636533 
L 364.974313 157.484268 
L 364.320261 156.322265 
L 362.738793 153.97466 
L 361.744532 152.939518 
L 361.040213 151.802652 
L 359.675745 150.721146 
L 358.560094 149.598624 
L 356.269789 147.783751 
L 354.531215 145.903746 
L 352.683577 144.172167 
L 352.034901 143.302413 
L 349.270269 140.844505 
L 347.901908 140.280183 
L 346.856462 139.455843 
L 346.033241 138.450541 
L 342.7181 135.939916 
L 341.351501 135.203259 
L 340.571416 134.373132 
L 339.345946 133.593028 
L 337.508582 132.141291 
L 336.467193 131.430273 
L 333.745491 130.242005 
L 331.568154 128.88138 
L 330.013288 128.354619 
L 326.532261 125.954867 
L 321.740501 124.313992 
L 320.051762 123.726141 
L 318.581198 123.040727 
L 317.323778 122.593506 
L 316.148186 121.872252 
L 315.205626 121.094856 
L 313.014946 119.96441 
L 311.43233 119.579921 
L 309.638681 118.326734 
L 308.675132 117.890056 
L 307.908187 117.004576 
L 307.077366 116.386461 
L 303.916853 114.861451 
L 302.011525 113.953701 
L 299.854719 113.097099 
L 296.374041 111.913227 
L 295.530786 111.337669 
L 293.658611 110.421076 
L 292.254627 109.977377 
L 291.314919 109.477215 
L 287.796786 108.065284 
L 286.778012 107.513323 
L 286.015409 106.958114 
L 284.842989 106.613029 
L 283.478393 106.410577 
L 282.296705 105.950998 
L 278.481098 104.831108 
L 277.39373 104.491299 
L 276.077122 104.207587 
L 273.764014 103.404699 
L 269.968148 102.488717 
L 268.247068 102.307847 
L 266.341402 101.615914 
L 262.750167 100.974107 
L 261.639375 100.589044 
L 260.936234 100.16544 
L 259.876059 99.975262 
L 258.652719 99.482607 
L 257.543199 99.178912 
L 255.014954 98.724491 
L 254.014048 98.350851 
L 252.789252 98.130094 
L 251.512637 97.644953 
L 249.060298 97.407033 
L 247.298956 96.784932 
L 246.169064 96.718674 
L 243.162729 95.89845 
L 241.313509 95.330509 
L 233.259525 94.801599 
L 232.223641 94.60541 
L 229.037208 94.221663 
L 227.452683 93.997199 
L 226.274515 93.661814 
L 225.253289 93.530681 
L 224.046237 93.217298 
L 214.682848 92.250833 
L 212.473924 91.771626 
L 209.843828 91.369784 
L 208.690556 91.093359 
L 207.787023 91.055975 
L 206.564535 90.822673 
L 205.813405 90.465251 
L 204.754146 90.223933 
L 196.491792 89.310735 
L 195.085875 89.382725 
L 194.072883 89.118364 
L 188.221492 88.185325 
L 186.545089 88.038702 
L 185.319406 87.726791 
L 182.359829 87.611769 
L 179.722907 87.586457 
L 176.050128 87.025869 
L 172.581216 87.152847 
L 170.845961 86.899335 
L 169.282699 86.79934 
L 167.824673 87.092792 
L 166.48961 86.892704 
L 164.931679 86.963434 
L 161.139349 86.363658 
L 158.842983 86.269888 
L 157.817773 85.849471 
L 154.669604 85.271688 
L 152.74583 85.71564 
L 151.59412 85.685276 
L 150.060394 85.445944 
L 148.513278 85.603019 
L 147.054621 85.227763 
L 144.923243 85.723069 
L 142.828828 85.255568 
L 141.114006 85.492501 
L 139.570848 85.346956 
L 137.979093 84.964826 
L 136.283713 85.092817 
L 135.037625 84.812457 
L 133.639136 84.856975 
L 131.490524 84.802566 
L 129.608099 84.612225 
L 125.756501 83.871053 
L 124.227628 84.12988 
L 122.840131 83.805496 
L 121.490312 83.923429 
L 119.937996 83.785068 
L 117.862904 84.106681 
L 115.746116 83.725849 
L 114.28217 83.337769 
L 112.638122 83.315432 
L 111.062404 83.612517 
L 109.227015 84.137028 
L 107.320193 84.202753 
L 105.937724 84.528332 
L 104.330251 83.960989 
L 96.437817 83.576502 
L 91.43965 83.948503 
L 89.486017 83.516551 
L 87.494609 83.665147 
L 85.113338 83.102789 
L 82.592737 83.034164 
L 80.260805 82.848712 
L 78.304449 83.215355 
L 75.845533 83.888984 
L 73.089041 83.80618 
L 70.867616 83.936392 
L 66.836186 83.837005 
L 66.836186 83.837005 
" style="fill:none;stroke:#000000;stroke-dasharray:6.000000,6.000000;stroke-dashoffset:0.0;"/>
   </g>
   <g id="line2d_11">
    <path clip-path="url(#p9ea03e5c3f)" d="M 388.8 218.213883 
L 384.574853 211.968063 
L 379.983357 205.512814 
L 376.960075 200.835635 
L 374.079469 197.134347 
L 371.661575 194.234148 
L 369.209896 191.72669 
L 364.245341 184.285506 
L 359.334481 178.672435 
L 356.21455 175.63213 
L 355.148765 174.389667 
L 351.183964 170.708082 
L 349.811931 169.816957 
L 348.626446 168.893433 
L 346.879888 167.914469 
L 345.912462 167.028751 
L 343.472087 165.096184 
L 342.210943 164.069311 
L 339.838351 162.435399 
L 338.892877 161.600498 
L 334.405874 158.254629 
L 333.278578 157.290677 
L 330.911884 155.798124 
L 327.979487 153.486083 
L 326.630843 152.766471 
L 325.978291 152.076454 
L 325.072511 151.388344 
L 323.398082 150.819932 
L 321.827939 149.542274 
L 318.88254 147.646284 
L 317.803437 146.860131 
L 316.157459 146.257743 
L 313.837188 144.400558 
L 312.666049 143.730748 
L 311.694592 142.896606 
L 310.775722 142.256003 
L 309.647211 141.717645 
L 308.293532 141.343494 
L 307.206995 140.904713 
L 306.344516 140.380205 
L 305.289687 139.939614 
L 304.316627 139.32425 
L 303.646341 138.710065 
L 301.533931 137.818368 
L 300.50013 137.210908 
L 299.815356 136.515665 
L 298.597938 136.185426 
L 297.727618 135.5877 
L 297.052501 134.860629 
L 296.377449 134.353305 
L 295.379894 133.369269 
L 293.297322 132.418103 
L 292.085022 131.236866 
L 289.720442 130.074604 
L 287.687098 129.24501 
L 283.518046 127.260525 
L 281.947935 127.135948 
L 281.085329 126.80503 
L 280.058804 126.642548 
L 278.591744 125.737665 
L 277.739019 125.324219 
L 277.114411 124.68723 
L 276.639653 124.010069 
L 275.952101 123.557482 
L 275.05775 123.139809 
L 274.325598 122.579089 
L 272.535566 121.662962 
L 271.277112 121.339579 
L 269.963869 120.525801 
L 269.398463 120.085609 
L 268.316796 119.699947 
L 266.991936 118.673312 
L 264.506824 118.448768 
L 263.549507 118.164515 
L 262.689207 117.775824 
L 261.32226 117.479062 
L 260.630465 117.013814 
L 258.262863 115.996124 
L 255.54844 114.955308 
L 253.881239 114.338936 
L 253.182832 113.89247 
L 252.111895 113.779659 
L 249.638331 112.932993 
L 248.532336 112.813119 
L 248.146347 112.365445 
L 246.781601 111.883909 
L 245.054709 111.363057 
L 242.633371 110.476014 
L 241.853659 110.027287 
L 239.223264 108.88916 
L 238.569312 108.598064 
L 237.742777 108.581169 
L 237.263425 108.383243 
L 236.050064 108.143708 
L 232.701606 106.500342 
L 228.406407 105.416486 
L 223.89062 103.964033 
L 223.042123 103.615125 
L 220.490309 103.274891 
L 218.911111 103.314405 
L 216.591767 102.848665 
L 215.120652 101.928313 
L 212.036489 100.816 
L 210.637634 100.159786 
L 207.45476 99.292515 
L 202.80534 98.969567 
L 202.122478 98.694196 
L 201.120222 98.572893 
L 200.12333 98.251168 
L 197.626643 97.859742 
L 195.173484 97.179894 
L 192.623125 96.774291 
L 190.629674 96.434095 
L 189.869786 96.039651 
L 182.279042 95.137485 
L 181.12996 94.942966 
L 179.993857 95.168395 
L 176.556974 94.876215 
L 175.383314 94.899227 
L 171.381371 94.471595 
L 168.29101 94.238441 
L 167.047412 93.955979 
L 165.101262 94.063712 
L 163.407097 94.339241 
L 162.085766 94.09551 
L 160.466521 94.142946 
L 159.05156 94.06261 
L 155.678795 94.578253 
L 153.089211 94.3638 
L 148.075682 94.798469 
L 146.416327 94.656763 
L 143.989409 94.810517 
L 142.43564 94.581241 
L 140.602922 94.460079 
L 138.613621 94.1233 
L 132.287756 93.918743 
L 130.452414 94.356906 
L 128.60358 94.134326 
L 121.927654 94.196948 
L 116.89993 94.743397 
L 114.778867 94.930048 
L 112.130157 95.306154 
L 109.836575 95.172881 
L 107.069177 95.34101 
L 103.848054 95.295699 
L 101.248325 95.49785 
L 98.337129 95.138091 
L 80.522781 95.141039 
L 73.446968 94.898006 
L 73.446968 94.898006 
" style="fill:none;stroke:#008000;stroke-dasharray:6.000000,6.000000;stroke-dashoffset:0.0;"/>
   </g>
   <g id="line2d_12">
    <path clip-path="url(#p9ea03e5c3f)" d="M 388.8 218.213883 
L 382.719693 201.505047 
L 372.833013 180.224234 
L 370.472515 173.979196 
L 363.349044 160.085569 
L 361.186085 156.328818 
L 359.230571 153.286587 
L 357.329891 150.571626 
L 353.367176 145.802365 
L 351.815813 143.721208 
L 349.985873 141.640926 
L 348.159688 139.851494 
L 346.113094 138.076065 
L 343.609953 136.182056 
L 341.737642 134.325666 
L 339.7885 132.936613 
L 337.778033 131.34858 
L 330.235187 124.521371 
L 329.116778 123.390121 
L 326.391073 121.337396 
L 322.617084 118.067139 
L 319.700278 116.180226 
L 314.922861 112.949511 
L 313.517214 112.07808 
L 311.683001 111.373431 
L 309.671484 110.159146 
L 308.526948 109.654088 
L 307.010358 109.251865 
L 305.940804 108.738057 
L 304.827697 108.049815 
L 302.811951 107.11455 
L 297.056644 104.281404 
L 292.218302 102.398069 
L 289.90866 101.242109 
L 287.118784 100.266826 
L 283.658124 98.902829 
L 280.444543 97.685586 
L 279.748344 97.264144 
L 277.982164 96.579671 
L 272.791635 95.094291 
L 271.322357 94.507792 
L 269.764094 93.878877 
L 268.252135 93.237493 
L 266.309994 92.63523 
L 265.352817 92.337374 
L 264.305756 92.162618 
L 262.491406 91.659026 
L 260.693116 91.261623 
L 259.860505 90.911865 
L 249.403722 88.237039 
L 246.850326 87.438992 
L 245.003326 86.684576 
L 235.424545 84.436826 
L 234.504623 83.96066 
L 233.662759 83.900202 
L 232.783708 83.620826 
L 226.673782 82.395384 
L 225.305647 81.909911 
L 223.043892 81.308309 
L 222.252985 80.939122 
L 220.470635 80.555096 
L 219.571621 80.378265 
L 218.741681 80.073177 
L 210.390626 78.542381 
L 208.682215 78.034459 
L 207.620592 77.836126 
L 205.912927 77.279656 
L 201.308487 76.236572 
L 194.949722 75.705737 
L 192.076984 75.326106 
L 190.365006 74.830992 
L 188.290332 74.591661 
L 181.66353 73.13049 
L 179.530996 72.908429 
L 177.348465 72.831824 
L 175.476724 72.549397 
L 173.243875 72.569078 
L 168.508153 72.091915 
L 164.208461 72.04328 
L 158.964028 71.427633 
L 158.042119 71.312593 
L 154.494005 71.112801 
L 148.412465 70.823966 
L 147.277478 70.950328 
L 146.131869 70.850864 
L 145.052728 70.5914 
L 143.938955 70.438342 
L 142.640768 70.435304 
L 141.352014 70.705024 
L 140.128034 70.806727 
L 138.959333 70.753438 
L 135.607632 70.078858 
L 134.548492 70.009737 
L 132.424211 70.157142 
L 129.810961 70.223374 
L 127.072864 70.090751 
L 125.646045 70.077578 
L 124.216082 70.1935 
L 122.555241 70.511523 
L 118.864387 70.325378 
L 117.261681 70.547806 
L 115.517823 70.33153 
L 113.653432 70.346964 
L 111.941427 70.67179 
L 110.330275 70.739342 
L 106.00105 71.382344 
L 103.579885 71.392124 
L 98.764368 72.05602 
L 96.617799 71.733858 
L 94.258339 71.52441 
L 91.86679 71.020149 
L 89.202733 71.497995 
L 85.973419 71.354028 
L 82.617645 71.604809 
L 78.910658 71.339298 
L 74.786738 70.873822 
L 63.197942 70.805003 
L 63.197942 70.805003 
" style="fill:none;stroke:#00bfbf;stroke-dasharray:6.000000,6.000000;stroke-dashoffset:0.0;"/>
   </g>
   <g id="line2d_13">
    <path clip-path="url(#p9ea03e5c3f)" d="M 388.8 218.213883 
L 371.623747 165.029013 
L 366.600593 156.588685 
L 364.30832 153.110078 
L 362.187209 150.187216 
L 359.560416 146.934296 
L 355.955404 143.055759 
L 352.182005 139.45924 
L 348.659399 136.518512 
L 342.626782 131.897839 
L 339.022699 129.454973 
L 333.272843 125.890834 
L 329.214099 123.609897 
L 325.000712 121.452424 
L 317.833305 118.095763 
L 307.230987 113.79361 
L 301.996969 111.844752 
L 292.256684 108.534012 
L 280.466255 104.948859 
L 270.785739 102.196535 
L 259.817776 99.289035 
L 246.371817 95.807899 
L 237.384164 93.69503 
L 226.851359 91.351045 
L 213.779437 88.991025 
L 202.144532 87.243935 
L 196.875232 86.466717 
L 158.88856 81.924457 
L 137.54698 80.080259 
L 126.660984 79.557281 
L 111.886437 79.30215 
L 111.886437 79.30215 
" style="fill:none;stroke:#bfbf00;stroke-dasharray:6.000000,6.000000;stroke-dashoffset:0.0;"/>
   </g>
   <g id="patch_3">
    <path d="M 54 28.8 
L 388.8 28.8 
" style="fill:none;stroke:#000000;stroke-linecap:square;stroke-linejoin:miter;"/>
   </g>
   <g id="patch_4">
    <path d="M 388.8 252 
L 388.8 28.8 
" style="fill:none;stroke:#000000;stroke-linecap:square;stroke-linejoin:miter;"/>
   </g>
   <g id="patch_5">
    <path d="M 54 252 
L 388.8 252 
" style="fill:none;stroke:#000000;stroke-linecap:square;stroke-linejoin:miter;"/>
   </g>
   <g id="patch_6">
    <path d="M 54 252 
L 54 28.8 
" style="fill:none;stroke:#000000;stroke-linecap:square;stroke-linejoin:miter;"/>
   </g>
   <g id="matplotlib.axis_1">
    <g id="xtick_1">
     <g id="line2d_14">
      <path clip-path="url(#p9ea03e5c3f)" d="M 54 252 
L 54 28.8 
" style="fill:none;stroke:#000000;stroke-dasharray:1.000000,3.000000;stroke-dashoffset:0.0;stroke-width:0.5;"/>
     </g>
     <g id="line2d_15">
      <defs>
       <path d="M 0 0 
L 0 -4 
" id="m99a92d94a1" style="stroke:#000000;stroke-width:0.5;"/>
      </defs>
      <g>
       <use style="stroke:#000000;stroke-width:0.5;" x="54.0" xlink:href="#m99a92d94a1" y="252.0"/>
      </g>
     </g>
     <g id="line2d_16">
      <defs>
       <path d="M 0 0 
L 0 4 
" id="m65fe3aca2c" style="stroke:#000000;stroke-width:0.5;"/>
      </defs>
      <g>
       <use style="stroke:#000000;stroke-width:0.5;" x="54.0" xlink:href="#m65fe3aca2c" y="28.8"/>
      </g>
     </g>
     <g id="text_1">
      <!-- 0.0 -->
      <defs>
       <path d="M 31.78125 66.40625 
Q 24.171875 66.40625 20.328125 58.90625 
Q 16.5 51.421875 16.5 36.375 
Q 16.5 21.390625 20.328125 13.890625 
Q 24.171875 6.390625 31.78125 6.390625 
Q 39.453125 6.390625 43.28125 13.890625 
Q 47.125 21.390625 47.125 36.375 
Q 47.125 51.421875 43.28125 58.90625 
Q 39.453125 66.40625 31.78125 66.40625 
M 31.78125 74.21875 
Q 44.046875 74.21875 50.515625 64.515625 
Q 56.984375 54.828125 56.984375 36.375 
Q 56.984375 17.96875 50.515625 8.265625 
Q 44.046875 -1.421875 31.78125 -1.421875 
Q 19.53125 -1.421875 13.0625 8.265625 
Q 6.59375 17.96875 6.59375 36.375 
Q 6.59375 54.828125 13.0625 64.515625 
Q 19.53125 74.21875 31.78125 74.21875 
" id="BitstreamVeraSans-Roman-30"/>
       <path d="M 10.6875 12.40625 
L 21 12.40625 
L 21 0 
L 10.6875 0 
z
" id="BitstreamVeraSans-Roman-2e"/>
      </defs>
      <g transform="translate(46.0484375 263.5984375)scale(0.1 -0.1)">
       <use xlink:href="#BitstreamVeraSans-Roman-30"/>
       <use x="63.623046875" xlink:href="#BitstreamVeraSans-Roman-2e"/>
       <use x="95.41015625" xlink:href="#BitstreamVeraSans-Roman-30"/>
      </g>
     </g>
    </g>
    <g id="xtick_2">
     <g id="line2d_17">
      <path clip-path="url(#p9ea03e5c3f)" d="M 120.96 252 
L 120.96 28.8 
" style="fill:none;stroke:#000000;stroke-dasharray:1.000000,3.000000;stroke-dashoffset:0.0;stroke-width:0.5;"/>
     </g>
     <g id="line2d_18">
      <g>
       <use style="stroke:#000000;stroke-width:0.5;" x="120.96" xlink:href="#m99a92d94a1" y="252.0"/>
      </g>
     </g>
     <g id="line2d_19">
      <g>
       <use style="stroke:#000000;stroke-width:0.5;" x="120.96" xlink:href="#m65fe3aca2c" y="28.8"/>
      </g>
     </g>
     <g id="text_2">
      <!-- 0.2 -->
      <defs>
       <path d="M 19.1875 8.296875 
L 53.609375 8.296875 
L 53.609375 0 
L 7.328125 0 
L 7.328125 8.296875 
Q 12.9375 14.109375 22.625 23.890625 
Q 32.328125 33.6875 34.8125 36.53125 
Q 39.546875 41.84375 41.421875 45.53125 
Q 43.3125 49.21875 43.3125 52.78125 
Q 43.3125 58.59375 39.234375 62.25 
Q 35.15625 65.921875 28.609375 65.921875 
Q 23.96875 65.921875 18.8125 64.3125 
Q 13.671875 62.703125 7.8125 59.421875 
L 7.8125 69.390625 
Q 13.765625 71.78125 18.9375 73 
Q 24.125 74.21875 28.421875 74.21875 
Q 39.75 74.21875 46.484375 68.546875 
Q 53.21875 62.890625 53.21875 53.421875 
Q 53.21875 48.921875 51.53125 44.890625 
Q 49.859375 40.875 45.40625 35.40625 
Q 44.1875 33.984375 37.640625 27.21875 
Q 31.109375 20.453125 19.1875 8.296875 
" id="BitstreamVeraSans-Roman-32"/>
      </defs>
      <g transform="translate(113.0084375 263.5984375)scale(0.1 -0.1)">
       <use xlink:href="#BitstreamVeraSans-Roman-30"/>
       <use x="63.623046875" xlink:href="#BitstreamVeraSans-Roman-2e"/>
       <use x="95.41015625" xlink:href="#BitstreamVeraSans-Roman-32"/>
      </g>
     </g>
    </g>
    <g id="xtick_3">
     <g id="line2d_20">
      <path clip-path="url(#p9ea03e5c3f)" d="M 187.92 252 
L 187.92 28.8 
" style="fill:none;stroke:#000000;stroke-dasharray:1.000000,3.000000;stroke-dashoffset:0.0;stroke-width:0.5;"/>
     </g>
     <g id="line2d_21">
      <g>
       <use style="stroke:#000000;stroke-width:0.5;" x="187.92" xlink:href="#m99a92d94a1" y="252.0"/>
      </g>
     </g>
     <g id="line2d_22">
      <g>
       <use style="stroke:#000000;stroke-width:0.5;" x="187.92" xlink:href="#m65fe3aca2c" y="28.8"/>
      </g>
     </g>
     <g id="text_3">
      <!-- 0.4 -->
      <defs>
       <path d="M 37.796875 64.3125 
L 12.890625 25.390625 
L 37.796875 25.390625 
z
M 35.203125 72.90625 
L 47.609375 72.90625 
L 47.609375 25.390625 
L 58.015625 25.390625 
L 58.015625 17.1875 
L 47.609375 17.1875 
L 47.609375 0 
L 37.796875 0 
L 37.796875 17.1875 
L 4.890625 17.1875 
L 4.890625 26.703125 
z
" id="BitstreamVeraSans-Roman-34"/>
      </defs>
      <g transform="translate(179.9684375 263.5984375)scale(0.1 -0.1)">
       <use xlink:href="#BitstreamVeraSans-Roman-30"/>
       <use x="63.623046875" xlink:href="#BitstreamVeraSans-Roman-2e"/>
       <use x="95.41015625" xlink:href="#BitstreamVeraSans-Roman-34"/>
      </g>
     </g>
    </g>
    <g id="xtick_4">
     <g id="line2d_23">
      <path clip-path="url(#p9ea03e5c3f)" d="M 254.88 252 
L 254.88 28.8 
" style="fill:none;stroke:#000000;stroke-dasharray:1.000000,3.000000;stroke-dashoffset:0.0;stroke-width:0.5;"/>
     </g>
     <g id="line2d_24">
      <g>
       <use style="stroke:#000000;stroke-width:0.5;" x="254.88" xlink:href="#m99a92d94a1" y="252.0"/>
      </g>
     </g>
     <g id="line2d_25">
      <g>
       <use style="stroke:#000000;stroke-width:0.5;" x="254.88" xlink:href="#m65fe3aca2c" y="28.8"/>
      </g>
     </g>
     <g id="text_4">
      <!-- 0.6 -->
      <defs>
       <path d="M 33.015625 40.375 
Q 26.375 40.375 22.484375 35.828125 
Q 18.609375 31.296875 18.609375 23.390625 
Q 18.609375 15.53125 22.484375 10.953125 
Q 26.375 6.390625 33.015625 6.390625 
Q 39.65625 6.390625 43.53125 10.953125 
Q 47.40625 15.53125 47.40625 23.390625 
Q 47.40625 31.296875 43.53125 35.828125 
Q 39.65625 40.375 33.015625 40.375 
M 52.59375 71.296875 
L 52.59375 62.3125 
Q 48.875 64.0625 45.09375 64.984375 
Q 41.3125 65.921875 37.59375 65.921875 
Q 27.828125 65.921875 22.671875 59.328125 
Q 17.53125 52.734375 16.796875 39.40625 
Q 19.671875 43.65625 24.015625 45.921875 
Q 28.375 48.1875 33.59375 48.1875 
Q 44.578125 48.1875 50.953125 41.515625 
Q 57.328125 34.859375 57.328125 23.390625 
Q 57.328125 12.15625 50.6875 5.359375 
Q 44.046875 -1.421875 33.015625 -1.421875 
Q 20.359375 -1.421875 13.671875 8.265625 
Q 6.984375 17.96875 6.984375 36.375 
Q 6.984375 53.65625 15.1875 63.9375 
Q 23.390625 74.21875 37.203125 74.21875 
Q 40.921875 74.21875 44.703125 73.484375 
Q 48.484375 72.75 52.59375 71.296875 
" id="BitstreamVeraSans-Roman-36"/>
      </defs>
      <g transform="translate(246.9284375 263.5984375)scale(0.1 -0.1)">
       <use xlink:href="#BitstreamVeraSans-Roman-30"/>
       <use x="63.623046875" xlink:href="#BitstreamVeraSans-Roman-2e"/>
       <use x="95.41015625" xlink:href="#BitstreamVeraSans-Roman-36"/>
      </g>
     </g>
    </g>
    <g id="xtick_5">
     <g id="line2d_26">
      <path clip-path="url(#p9ea03e5c3f)" d="M 321.84 252 
L 321.84 28.8 
" style="fill:none;stroke:#000000;stroke-dasharray:1.000000,3.000000;stroke-dashoffset:0.0;stroke-width:0.5;"/>
     </g>
     <g id="line2d_27">
      <g>
       <use style="stroke:#000000;stroke-width:0.5;" x="321.84" xlink:href="#m99a92d94a1" y="252.0"/>
      </g>
     </g>
     <g id="line2d_28">
      <g>
       <use style="stroke:#000000;stroke-width:0.5;" x="321.84" xlink:href="#m65fe3aca2c" y="28.8"/>
      </g>
     </g>
     <g id="text_5">
      <!-- 0.8 -->
      <defs>
       <path d="M 31.78125 34.625 
Q 24.75 34.625 20.71875 30.859375 
Q 16.703125 27.09375 16.703125 20.515625 
Q 16.703125 13.921875 20.71875 10.15625 
Q 24.75 6.390625 31.78125 6.390625 
Q 38.8125 6.390625 42.859375 10.171875 
Q 46.921875 13.96875 46.921875 20.515625 
Q 46.921875 27.09375 42.890625 30.859375 
Q 38.875 34.625 31.78125 34.625 
M 21.921875 38.8125 
Q 15.578125 40.375 12.03125 44.71875 
Q 8.5 49.078125 8.5 55.328125 
Q 8.5 64.0625 14.71875 69.140625 
Q 20.953125 74.21875 31.78125 74.21875 
Q 42.671875 74.21875 48.875 69.140625 
Q 55.078125 64.0625 55.078125 55.328125 
Q 55.078125 49.078125 51.53125 44.71875 
Q 48 40.375 41.703125 38.8125 
Q 48.828125 37.15625 52.796875 32.3125 
Q 56.78125 27.484375 56.78125 20.515625 
Q 56.78125 9.90625 50.3125 4.234375 
Q 43.84375 -1.421875 31.78125 -1.421875 
Q 19.734375 -1.421875 13.25 4.234375 
Q 6.78125 9.90625 6.78125 20.515625 
Q 6.78125 27.484375 10.78125 32.3125 
Q 14.796875 37.15625 21.921875 38.8125 
M 18.3125 54.390625 
Q 18.3125 48.734375 21.84375 45.5625 
Q 25.390625 42.390625 31.78125 42.390625 
Q 38.140625 42.390625 41.71875 45.5625 
Q 45.3125 48.734375 45.3125 54.390625 
Q 45.3125 60.0625 41.71875 63.234375 
Q 38.140625 66.40625 31.78125 66.40625 
Q 25.390625 66.40625 21.84375 63.234375 
Q 18.3125 60.0625 18.3125 54.390625 
" id="BitstreamVeraSans-Roman-38"/>
      </defs>
      <g transform="translate(313.8884375 263.5984375)scale(0.1 -0.1)">
       <use xlink:href="#BitstreamVeraSans-Roman-30"/>
       <use x="63.623046875" xlink:href="#BitstreamVeraSans-Roman-2e"/>
       <use x="95.41015625" xlink:href="#BitstreamVeraSans-Roman-38"/>
      </g>
     </g>
    </g>
    <g id="xtick_6">
     <g id="line2d_29">
      <path clip-path="url(#p9ea03e5c3f)" d="M 388.8 252 
L 388.8 28.8 
" style="fill:none;stroke:#000000;stroke-dasharray:1.000000,3.000000;stroke-dashoffset:0.0;stroke-width:0.5;"/>
     </g>
     <g id="line2d_30">
      <g>
       <use style="stroke:#000000;stroke-width:0.5;" x="388.8" xlink:href="#m99a92d94a1" y="252.0"/>
      </g>
     </g>
     <g id="line2d_31">
      <g>
       <use style="stroke:#000000;stroke-width:0.5;" x="388.8" xlink:href="#m65fe3aca2c" y="28.8"/>
      </g>
     </g>
     <g id="text_6">
      <!-- 1.0 -->
      <defs>
       <path d="M 12.40625 8.296875 
L 28.515625 8.296875 
L 28.515625 63.921875 
L 10.984375 60.40625 
L 10.984375 69.390625 
L 28.421875 72.90625 
L 38.28125 72.90625 
L 38.28125 8.296875 
L 54.390625 8.296875 
L 54.390625 0 
L 12.40625 0 
z
" id="BitstreamVeraSans-Roman-31"/>
      </defs>
      <g transform="translate(380.8484375 263.5984375)scale(0.1 -0.1)">
       <use xlink:href="#BitstreamVeraSans-Roman-31"/>
       <use x="63.623046875" xlink:href="#BitstreamVeraSans-Roman-2e"/>
       <use x="95.41015625" xlink:href="#BitstreamVeraSans-Roman-30"/>
      </g>
     </g>
    </g>
    <g id="text_7">
     <!-- Recall -->
     <defs>
      <path d="M 56.203125 29.59375 
L 56.203125 25.203125 
L 14.890625 25.203125 
Q 15.484375 15.921875 20.484375 11.0625 
Q 25.484375 6.203125 34.421875 6.203125 
Q 39.59375 6.203125 44.453125 7.46875 
Q 49.3125 8.734375 54.109375 11.28125 
L 54.109375 2.78125 
Q 49.265625 0.734375 44.1875 -0.34375 
Q 39.109375 -1.421875 33.890625 -1.421875 
Q 20.796875 -1.421875 13.15625 6.1875 
Q 5.515625 13.8125 5.515625 26.8125 
Q 5.515625 40.234375 12.765625 48.109375 
Q 20.015625 56 32.328125 56 
Q 43.359375 56 49.78125 48.890625 
Q 56.203125 41.796875 56.203125 29.59375 
M 47.21875 32.234375 
Q 47.125 39.59375 43.09375 43.984375 
Q 39.0625 48.390625 32.421875 48.390625 
Q 24.90625 48.390625 20.390625 44.140625 
Q 15.875 39.890625 15.1875 32.171875 
z
" id="BitstreamVeraSans-Roman-65"/>
      <path d="M 44.390625 34.1875 
Q 47.5625 33.109375 50.5625 29.59375 
Q 53.5625 26.078125 56.59375 19.921875 
L 66.609375 0 
L 56 0 
L 46.6875 18.703125 
Q 43.0625 26.03125 39.671875 28.421875 
Q 36.28125 30.8125 30.421875 30.8125 
L 19.671875 30.8125 
L 19.671875 0 
L 9.8125 0 
L 9.8125 72.90625 
L 32.078125 72.90625 
Q 44.578125 72.90625 50.734375 67.671875 
Q 56.890625 62.453125 56.890625 51.90625 
Q 56.890625 45.015625 53.6875 40.46875 
Q 50.484375 35.9375 44.390625 34.1875 
M 19.671875 64.796875 
L 19.671875 38.921875 
L 32.078125 38.921875 
Q 39.203125 38.921875 42.84375 42.21875 
Q 46.484375 45.515625 46.484375 51.90625 
Q 46.484375 58.296875 42.84375 61.546875 
Q 39.203125 64.796875 32.078125 64.796875 
z
" id="BitstreamVeraSans-Roman-52"/>
      <path d="M 34.28125 27.484375 
Q 23.390625 27.484375 19.1875 25 
Q 14.984375 22.515625 14.984375 16.5 
Q 14.984375 11.71875 18.140625 8.90625 
Q 21.296875 6.109375 26.703125 6.109375 
Q 34.1875 6.109375 38.703125 11.40625 
Q 43.21875 16.703125 43.21875 25.484375 
L 43.21875 27.484375 
z
M 52.203125 31.203125 
L 52.203125 0 
L 43.21875 0 
L 43.21875 8.296875 
Q 40.140625 3.328125 35.546875 0.953125 
Q 30.953125 -1.421875 24.3125 -1.421875 
Q 15.921875 -1.421875 10.953125 3.296875 
Q 6 8.015625 6 15.921875 
Q 6 25.140625 12.171875 29.828125 
Q 18.359375 34.515625 30.609375 34.515625 
L 43.21875 34.515625 
L 43.21875 35.40625 
Q 43.21875 41.609375 39.140625 45 
Q 35.0625 48.390625 27.6875 48.390625 
Q 23 48.390625 18.546875 47.265625 
Q 14.109375 46.140625 10.015625 43.890625 
L 10.015625 52.203125 
Q 14.9375 54.109375 19.578125 55.046875 
Q 24.21875 56 28.609375 56 
Q 40.484375 56 46.34375 49.84375 
Q 52.203125 43.703125 52.203125 31.203125 
" id="BitstreamVeraSans-Roman-61"/>
      <path d="M 9.421875 75.984375 
L 18.40625 75.984375 
L 18.40625 0 
L 9.421875 0 
z
" id="BitstreamVeraSans-Roman-6c"/>
      <path d="M 48.78125 52.59375 
L 48.78125 44.1875 
Q 44.96875 46.296875 41.140625 47.34375 
Q 37.3125 48.390625 33.40625 48.390625 
Q 24.65625 48.390625 19.8125 42.84375 
Q 14.984375 37.3125 14.984375 27.296875 
Q 14.984375 17.28125 19.8125 11.734375 
Q 24.65625 6.203125 33.40625 6.203125 
Q 37.3125 6.203125 41.140625 7.25 
Q 44.96875 8.296875 48.78125 10.40625 
L 48.78125 2.09375 
Q 45.015625 0.34375 40.984375 -0.53125 
Q 36.96875 -1.421875 32.421875 -1.421875 
Q 20.0625 -1.421875 12.78125 6.34375 
Q 5.515625 14.109375 5.515625 27.296875 
Q 5.515625 40.671875 12.859375 48.328125 
Q 20.21875 56 33.015625 56 
Q 37.15625 56 41.109375 55.140625 
Q 45.0625 54.296875 48.78125 52.59375 
" id="BitstreamVeraSans-Roman-63"/>
     </defs>
     <g transform="translate(206.2609375 278.2765625)scale(0.1 -0.1)">
      <use xlink:href="#BitstreamVeraSans-Roman-52"/>
      <use x="69.419921875" xlink:href="#BitstreamVeraSans-Roman-65"/>
      <use x="130.943359375" xlink:href="#BitstreamVeraSans-Roman-63"/>
      <use x="185.923828125" xlink:href="#BitstreamVeraSans-Roman-61"/>
      <use x="247.203125" xlink:href="#BitstreamVeraSans-Roman-6c"/>
      <use x="274.986328125" xlink:href="#BitstreamVeraSans-Roman-6c"/>
     </g>
    </g>
   </g>
   <g id="matplotlib.axis_2">
    <g id="ytick_1">
     <g id="line2d_32">
      <path clip-path="url(#p9ea03e5c3f)" d="M 54 252 
L 388.8 252 
" style="fill:none;stroke:#000000;stroke-dasharray:1.000000,3.000000;stroke-dashoffset:0.0;stroke-width:0.5;"/>
     </g>
     <g id="line2d_33">
      <defs>
       <path d="M 0 0 
L 4 0 
" id="ma219e84f56" style="stroke:#000000;stroke-width:0.5;"/>
      </defs>
      <g>
       <use style="stroke:#000000;stroke-width:0.5;" x="54.0" xlink:href="#ma219e84f56" y="252.0"/>
      </g>
     </g>
     <g id="line2d_34">
      <defs>
       <path d="M 0 0 
L -4 0 
" id="m624a7bcc8e" style="stroke:#000000;stroke-width:0.5;"/>
      </defs>
      <g>
       <use style="stroke:#000000;stroke-width:0.5;" x="388.8" xlink:href="#m624a7bcc8e" y="252.0"/>
      </g>
     </g>
     <g id="text_8">
      <!-- 0.0 -->
      <g transform="translate(34.096875 254.759375)scale(0.1 -0.1)">
       <use xlink:href="#BitstreamVeraSans-Roman-30"/>
       <use x="63.623046875" xlink:href="#BitstreamVeraSans-Roman-2e"/>
       <use x="95.41015625" xlink:href="#BitstreamVeraSans-Roman-30"/>
      </g>
     </g>
    </g>
    <g id="ytick_2">
     <g id="line2d_35">
      <path clip-path="url(#p9ea03e5c3f)" d="M 54 207.36 
L 388.8 207.36 
" style="fill:none;stroke:#000000;stroke-dasharray:1.000000,3.000000;stroke-dashoffset:0.0;stroke-width:0.5;"/>
     </g>
     <g id="line2d_36">
      <g>
       <use style="stroke:#000000;stroke-width:0.5;" x="54.0" xlink:href="#ma219e84f56" y="207.36"/>
      </g>
     </g>
     <g id="line2d_37">
      <g>
       <use style="stroke:#000000;stroke-width:0.5;" x="388.8" xlink:href="#m624a7bcc8e" y="207.36"/>
      </g>
     </g>
     <g id="text_9">
      <!-- 0.2 -->
      <g transform="translate(34.096875 210.119375)scale(0.1 -0.1)">
       <use xlink:href="#BitstreamVeraSans-Roman-30"/>
       <use x="63.623046875" xlink:href="#BitstreamVeraSans-Roman-2e"/>
       <use x="95.41015625" xlink:href="#BitstreamVeraSans-Roman-32"/>
      </g>
     </g>
    </g>
    <g id="ytick_3">
     <g id="line2d_38">
      <path clip-path="url(#p9ea03e5c3f)" d="M 54 162.72 
L 388.8 162.72 
" style="fill:none;stroke:#000000;stroke-dasharray:1.000000,3.000000;stroke-dashoffset:0.0;stroke-width:0.5;"/>
     </g>
     <g id="line2d_39">
      <g>
       <use style="stroke:#000000;stroke-width:0.5;" x="54.0" xlink:href="#ma219e84f56" y="162.72"/>
      </g>
     </g>
     <g id="line2d_40">
      <g>
       <use style="stroke:#000000;stroke-width:0.5;" x="388.8" xlink:href="#m624a7bcc8e" y="162.72"/>
      </g>
     </g>
     <g id="text_10">
      <!-- 0.4 -->
      <g transform="translate(34.096875 165.479375)scale(0.1 -0.1)">
       <use xlink:href="#BitstreamVeraSans-Roman-30"/>
       <use x="63.623046875" xlink:href="#BitstreamVeraSans-Roman-2e"/>
       <use x="95.41015625" xlink:href="#BitstreamVeraSans-Roman-34"/>
      </g>
     </g>
    </g>
    <g id="ytick_4">
     <g id="line2d_41">
      <path clip-path="url(#p9ea03e5c3f)" d="M 54 118.08 
L 388.8 118.08 
" style="fill:none;stroke:#000000;stroke-dasharray:1.000000,3.000000;stroke-dashoffset:0.0;stroke-width:0.5;"/>
     </g>
     <g id="line2d_42">
      <g>
       <use style="stroke:#000000;stroke-width:0.5;" x="54.0" xlink:href="#ma219e84f56" y="118.08"/>
      </g>
     </g>
     <g id="line2d_43">
      <g>
       <use style="stroke:#000000;stroke-width:0.5;" x="388.8" xlink:href="#m624a7bcc8e" y="118.08"/>
      </g>
     </g>
     <g id="text_11">
      <!-- 0.6 -->
      <g transform="translate(34.096875 120.839375)scale(0.1 -0.1)">
       <use xlink:href="#BitstreamVeraSans-Roman-30"/>
       <use x="63.623046875" xlink:href="#BitstreamVeraSans-Roman-2e"/>
       <use x="95.41015625" xlink:href="#BitstreamVeraSans-Roman-36"/>
      </g>
     </g>
    </g>
    <g id="ytick_5">
     <g id="line2d_44">
      <path clip-path="url(#p9ea03e5c3f)" d="M 54 73.44 
L 388.8 73.44 
" style="fill:none;stroke:#000000;stroke-dasharray:1.000000,3.000000;stroke-dashoffset:0.0;stroke-width:0.5;"/>
     </g>
     <g id="line2d_45">
      <g>
       <use style="stroke:#000000;stroke-width:0.5;" x="54.0" xlink:href="#ma219e84f56" y="73.44"/>
      </g>
     </g>
     <g id="line2d_46">
      <g>
       <use style="stroke:#000000;stroke-width:0.5;" x="388.8" xlink:href="#m624a7bcc8e" y="73.44"/>
      </g>
     </g>
     <g id="text_12">
      <!-- 0.8 -->
      <g transform="translate(34.096875 76.199375)scale(0.1 -0.1)">
       <use xlink:href="#BitstreamVeraSans-Roman-30"/>
       <use x="63.623046875" xlink:href="#BitstreamVeraSans-Roman-2e"/>
       <use x="95.41015625" xlink:href="#BitstreamVeraSans-Roman-38"/>
      </g>
     </g>
    </g>
    <g id="ytick_6">
     <g id="line2d_47">
      <path clip-path="url(#p9ea03e5c3f)" d="M 54 28.8 
L 388.8 28.8 
" style="fill:none;stroke:#000000;stroke-dasharray:1.000000,3.000000;stroke-dashoffset:0.0;stroke-width:0.5;"/>
     </g>
     <g id="line2d_48">
      <g>
       <use style="stroke:#000000;stroke-width:0.5;" x="54.0" xlink:href="#ma219e84f56" y="28.8"/>
      </g>
     </g>
     <g id="line2d_49">
      <g>
       <use style="stroke:#000000;stroke-width:0.5;" x="388.8" xlink:href="#m624a7bcc8e" y="28.8"/>
      </g>
     </g>
     <g id="text_13">
      <!-- 1.0 -->
      <g transform="translate(34.096875 31.559375)scale(0.1 -0.1)">
       <use xlink:href="#BitstreamVeraSans-Roman-31"/>
       <use x="63.623046875" xlink:href="#BitstreamVeraSans-Roman-2e"/>
       <use x="95.41015625" xlink:href="#BitstreamVeraSans-Roman-30"/>
      </g>
     </g>
    </g>
    <g id="text_14">
     <!-- Precision -->
     <defs>
      <path d="M 54.890625 33.015625 
L 54.890625 0 
L 45.90625 0 
L 45.90625 32.71875 
Q 45.90625 40.484375 42.875 44.328125 
Q 39.84375 48.1875 33.796875 48.1875 
Q 26.515625 48.1875 22.3125 43.546875 
Q 18.109375 38.921875 18.109375 30.90625 
L 18.109375 0 
L 9.078125 0 
L 9.078125 54.6875 
L 18.109375 54.6875 
L 18.109375 46.1875 
Q 21.34375 51.125 25.703125 53.5625 
Q 30.078125 56 35.796875 56 
Q 45.21875 56 50.046875 50.171875 
Q 54.890625 44.34375 54.890625 33.015625 
" id="BitstreamVeraSans-Roman-6e"/>
      <path d="M 30.609375 48.390625 
Q 23.390625 48.390625 19.1875 42.75 
Q 14.984375 37.109375 14.984375 27.296875 
Q 14.984375 17.484375 19.15625 11.84375 
Q 23.34375 6.203125 30.609375 6.203125 
Q 37.796875 6.203125 41.984375 11.859375 
Q 46.1875 17.53125 46.1875 27.296875 
Q 46.1875 37.015625 41.984375 42.703125 
Q 37.796875 48.390625 30.609375 48.390625 
M 30.609375 56 
Q 42.328125 56 49.015625 48.375 
Q 55.71875 40.765625 55.71875 27.296875 
Q 55.71875 13.875 49.015625 6.21875 
Q 42.328125 -1.421875 30.609375 -1.421875 
Q 18.84375 -1.421875 12.171875 6.21875 
Q 5.515625 13.875 5.515625 27.296875 
Q 5.515625 40.765625 12.171875 48.375 
Q 18.84375 56 30.609375 56 
" id="BitstreamVeraSans-Roman-6f"/>
      <path d="M 19.671875 64.796875 
L 19.671875 37.40625 
L 32.078125 37.40625 
Q 38.96875 37.40625 42.71875 40.96875 
Q 46.484375 44.53125 46.484375 51.125 
Q 46.484375 57.671875 42.71875 61.234375 
Q 38.96875 64.796875 32.078125 64.796875 
z
M 9.8125 72.90625 
L 32.078125 72.90625 
Q 44.34375 72.90625 50.609375 67.359375 
Q 56.890625 61.8125 56.890625 51.125 
Q 56.890625 40.328125 50.609375 34.8125 
Q 44.34375 29.296875 32.078125 29.296875 
L 19.671875 29.296875 
L 19.671875 0 
L 9.8125 0 
z
" id="BitstreamVeraSans-Roman-50"/>
      <path d="M 9.421875 54.6875 
L 18.40625 54.6875 
L 18.40625 0 
L 9.421875 0 
z
M 9.421875 75.984375 
L 18.40625 75.984375 
L 18.40625 64.59375 
L 9.421875 64.59375 
z
" id="BitstreamVeraSans-Roman-69"/>
      <path d="M 41.109375 46.296875 
Q 39.59375 47.171875 37.8125 47.578125 
Q 36.03125 48 33.890625 48 
Q 26.265625 48 22.1875 43.046875 
Q 18.109375 38.09375 18.109375 28.8125 
L 18.109375 0 
L 9.078125 0 
L 9.078125 54.6875 
L 18.109375 54.6875 
L 18.109375 46.1875 
Q 20.953125 51.171875 25.484375 53.578125 
Q 30.03125 56 36.53125 56 
Q 37.453125 56 38.578125 55.875 
Q 39.703125 55.765625 41.0625 55.515625 
z
" id="BitstreamVeraSans-Roman-72"/>
      <path d="M 44.28125 53.078125 
L 44.28125 44.578125 
Q 40.484375 46.53125 36.375 47.5 
Q 32.28125 48.484375 27.875 48.484375 
Q 21.1875 48.484375 17.84375 46.4375 
Q 14.5 44.390625 14.5 40.28125 
Q 14.5 37.15625 16.890625 35.375 
Q 19.28125 33.59375 26.515625 31.984375 
L 29.59375 31.296875 
Q 39.15625 29.25 43.1875 25.515625 
Q 47.21875 21.78125 47.21875 15.09375 
Q 47.21875 7.46875 41.1875 3.015625 
Q 35.15625 -1.421875 24.609375 -1.421875 
Q 20.21875 -1.421875 15.453125 -0.5625 
Q 10.6875 0.296875 5.421875 2 
L 5.421875 11.28125 
Q 10.40625 8.6875 15.234375 7.390625 
Q 20.0625 6.109375 24.8125 6.109375 
Q 31.15625 6.109375 34.5625 8.28125 
Q 37.984375 10.453125 37.984375 14.40625 
Q 37.984375 18.0625 35.515625 20.015625 
Q 33.0625 21.96875 24.703125 23.78125 
L 21.578125 24.515625 
Q 13.234375 26.265625 9.515625 29.90625 
Q 5.8125 33.546875 5.8125 39.890625 
Q 5.8125 47.609375 11.28125 51.796875 
Q 16.75 56 26.8125 56 
Q 31.78125 56 36.171875 55.265625 
Q 40.578125 54.546875 44.28125 53.078125 
" id="BitstreamVeraSans-Roman-73"/>
     </defs>
     <g transform="translate(27.0171875 162.9046875)rotate(-90.0)scale(0.1 -0.1)">
      <use xlink:href="#BitstreamVeraSans-Roman-50"/>
      <use x="60.287109375" xlink:href="#BitstreamVeraSans-Roman-72"/>
      <use x="101.369140625" xlink:href="#BitstreamVeraSans-Roman-65"/>
      <use x="162.892578125" xlink:href="#BitstreamVeraSans-Roman-63"/>
      <use x="217.873046875" xlink:href="#BitstreamVeraSans-Roman-69"/>
      <use x="245.65625" xlink:href="#BitstreamVeraSans-Roman-73"/>
      <use x="297.755859375" xlink:href="#BitstreamVeraSans-Roman-69"/>
      <use x="325.5390625" xlink:href="#BitstreamVeraSans-Roman-6f"/>
      <use x="386.720703125" xlink:href="#BitstreamVeraSans-Roman-6e"/>
     </g>
    </g>
   </g>
   <g id="text_15">
    <!-- Avg of 13 line's AUC=0.68 -->
    <defs>
     <path id="BitstreamVeraSans-Roman-20"/>
     <path d="M 10.59375 45.40625 
L 73.1875 45.40625 
L 73.1875 37.203125 
L 10.59375 37.203125 
z
M 10.59375 25.484375 
L 73.1875 25.484375 
L 73.1875 17.1875 
L 10.59375 17.1875 
z
" id="BitstreamVeraSans-Roman-3d"/>
     <path d="M 17.921875 72.90625 
L 17.921875 45.796875 
L 9.625 45.796875 
L 9.625 72.90625 
z
" id="BitstreamVeraSans-Roman-27"/>
     <path d="M 40.578125 39.3125 
Q 47.65625 37.796875 51.625 33 
Q 55.609375 28.21875 55.609375 21.1875 
Q 55.609375 10.40625 48.1875 4.484375 
Q 40.765625 -1.421875 27.09375 -1.421875 
Q 22.515625 -1.421875 17.65625 -0.515625 
Q 12.796875 0.390625 7.625 2.203125 
L 7.625 11.71875 
Q 11.71875 9.328125 16.59375 8.109375 
Q 21.484375 6.890625 26.8125 6.890625 
Q 36.078125 6.890625 40.9375 10.546875 
Q 45.796875 14.203125 45.796875 21.1875 
Q 45.796875 27.640625 41.28125 31.265625 
Q 36.765625 34.90625 28.71875 34.90625 
L 20.21875 34.90625 
L 20.21875 43.015625 
L 29.109375 43.015625 
Q 36.375 43.015625 40.234375 45.921875 
Q 44.09375 48.828125 44.09375 54.296875 
Q 44.09375 59.90625 40.109375 62.90625 
Q 36.140625 65.921875 28.71875 65.921875 
Q 24.65625 65.921875 20.015625 65.03125 
Q 15.375 64.15625 9.8125 62.3125 
L 9.8125 71.09375 
Q 15.4375 72.65625 20.34375 73.4375 
Q 25.25 74.21875 29.59375 74.21875 
Q 40.828125 74.21875 47.359375 69.109375 
Q 53.90625 64.015625 53.90625 55.328125 
Q 53.90625 49.265625 50.4375 45.09375 
Q 46.96875 40.921875 40.578125 39.3125 
" id="BitstreamVeraSans-Roman-33"/>
     <path d="M 64.40625 67.28125 
L 64.40625 56.890625 
Q 59.421875 61.53125 53.78125 63.8125 
Q 48.140625 66.109375 41.796875 66.109375 
Q 29.296875 66.109375 22.65625 58.46875 
Q 16.015625 50.828125 16.015625 36.375 
Q 16.015625 21.96875 22.65625 14.328125 
Q 29.296875 6.6875 41.796875 6.6875 
Q 48.140625 6.6875 53.78125 8.984375 
Q 59.421875 11.28125 64.40625 15.921875 
L 64.40625 5.609375 
Q 59.234375 2.09375 53.4375 0.328125 
Q 47.65625 -1.421875 41.21875 -1.421875 
Q 24.65625 -1.421875 15.125 8.703125 
Q 5.609375 18.84375 5.609375 36.375 
Q 5.609375 53.953125 15.125 64.078125 
Q 24.65625 74.21875 41.21875 74.21875 
Q 47.75 74.21875 53.53125 72.484375 
Q 59.328125 70.75 64.40625 67.28125 
" id="BitstreamVeraSans-Roman-43"/>
     <path d="M 8.6875 72.90625 
L 18.609375 72.90625 
L 18.609375 28.609375 
Q 18.609375 16.890625 22.84375 11.734375 
Q 27.09375 6.59375 36.625 6.59375 
Q 46.09375 6.59375 50.34375 11.734375 
Q 54.59375 16.890625 54.59375 28.609375 
L 54.59375 72.90625 
L 64.5 72.90625 
L 64.5 27.390625 
Q 64.5 13.140625 57.4375 5.859375 
Q 50.390625 -1.421875 36.625 -1.421875 
Q 22.796875 -1.421875 15.734375 5.859375 
Q 8.6875 13.140625 8.6875 27.390625 
z
" id="BitstreamVeraSans-Roman-55"/>
     <path d="M 34.1875 63.1875 
L 20.796875 26.90625 
L 47.609375 26.90625 
z
M 28.609375 72.90625 
L 39.796875 72.90625 
L 67.578125 0 
L 57.328125 0 
L 50.6875 18.703125 
L 17.828125 18.703125 
L 11.1875 0 
L 0.78125 0 
z
" id="BitstreamVeraSans-Roman-41"/>
     <path d="M 2.984375 54.6875 
L 12.5 54.6875 
L 29.59375 8.796875 
L 46.6875 54.6875 
L 56.203125 54.6875 
L 35.6875 0 
L 23.484375 0 
z
" id="BitstreamVeraSans-Roman-76"/>
     <path d="M 45.40625 27.984375 
Q 45.40625 37.75 41.375 43.109375 
Q 37.359375 48.484375 30.078125 48.484375 
Q 22.859375 48.484375 18.828125 43.109375 
Q 14.796875 37.75 14.796875 27.984375 
Q 14.796875 18.265625 18.828125 12.890625 
Q 22.859375 7.515625 30.078125 7.515625 
Q 37.359375 7.515625 41.375 12.890625 
Q 45.40625 18.265625 45.40625 27.984375 
M 54.390625 6.78125 
Q 54.390625 -7.171875 48.1875 -13.984375 
Q 42 -20.796875 29.203125 -20.796875 
Q 24.46875 -20.796875 20.265625 -20.09375 
Q 16.0625 -19.390625 12.109375 -17.921875 
L 12.109375 -9.1875 
Q 16.0625 -11.328125 19.921875 -12.34375 
Q 23.78125 -13.375 27.78125 -13.375 
Q 36.625 -13.375 41.015625 -8.765625 
Q 45.40625 -4.15625 45.40625 5.171875 
L 45.40625 9.625 
Q 42.625 4.78125 38.28125 2.390625 
Q 33.9375 0 27.875 0 
Q 17.828125 0 11.671875 7.65625 
Q 5.515625 15.328125 5.515625 27.984375 
Q 5.515625 40.671875 11.671875 48.328125 
Q 17.828125 56 27.875 56 
Q 33.9375 56 38.28125 53.609375 
Q 42.625 51.21875 45.40625 46.390625 
L 45.40625 54.6875 
L 54.390625 54.6875 
z
" id="BitstreamVeraSans-Roman-67"/>
     <path d="M 37.109375 75.984375 
L 37.109375 68.5 
L 28.515625 68.5 
Q 23.6875 68.5 21.796875 66.546875 
Q 19.921875 64.59375 19.921875 59.515625 
L 19.921875 54.6875 
L 34.71875 54.6875 
L 34.71875 47.703125 
L 19.921875 47.703125 
L 19.921875 0 
L 10.890625 0 
L 10.890625 47.703125 
L 2.296875 47.703125 
L 2.296875 54.6875 
L 10.890625 54.6875 
L 10.890625 58.5 
Q 10.890625 67.625 15.140625 71.796875 
Q 19.390625 75.984375 28.609375 75.984375 
z
" id="BitstreamVeraSans-Roman-66"/>
    </defs>
    <g transform="translate(142.21875 23.8)scale(0.12 -0.12)">
     <use xlink:href="#BitstreamVeraSans-Roman-41"/>
     <use x="68.330078125" xlink:href="#BitstreamVeraSans-Roman-76"/>
     <use x="127.509765625" xlink:href="#BitstreamVeraSans-Roman-67"/>
     <use x="190.986328125" xlink:href="#BitstreamVeraSans-Roman-20"/>
     <use x="222.7734375" xlink:href="#BitstreamVeraSans-Roman-6f"/>
     <use x="283.955078125" xlink:href="#BitstreamVeraSans-Roman-66"/>
     <use x="319.16015625" xlink:href="#BitstreamVeraSans-Roman-20"/>
     <use x="350.947265625" xlink:href="#BitstreamVeraSans-Roman-31"/>
     <use x="414.5703125" xlink:href="#BitstreamVeraSans-Roman-33"/>
     <use x="478.193359375" xlink:href="#BitstreamVeraSans-Roman-20"/>
     <use x="509.98046875" xlink:href="#BitstreamVeraSans-Roman-6c"/>
     <use x="537.763671875" xlink:href="#BitstreamVeraSans-Roman-69"/>
     <use x="565.546875" xlink:href="#BitstreamVeraSans-Roman-6e"/>
     <use x="628.92578125" xlink:href="#BitstreamVeraSans-Roman-65"/>
     <use x="690.44921875" xlink:href="#BitstreamVeraSans-Roman-27"/>
     <use x="717.939453125" xlink:href="#BitstreamVeraSans-Roman-73"/>
     <use x="770.0390625" xlink:href="#BitstreamVeraSans-Roman-20"/>
     <use x="801.826171875" xlink:href="#BitstreamVeraSans-Roman-41"/>
     <use x="870.234375" xlink:href="#BitstreamVeraSans-Roman-55"/>
     <use x="943.427734375" xlink:href="#BitstreamVeraSans-Roman-43"/>
     <use x="1013.25195312" xlink:href="#BitstreamVeraSans-Roman-3d"/>
     <use x="1097.04101562" xlink:href="#BitstreamVeraSans-Roman-30"/>
     <use x="1160.6640625" xlink:href="#BitstreamVeraSans-Roman-2e"/>
     <use x="1192.45117188" xlink:href="#BitstreamVeraSans-Roman-36"/>
     <use x="1256.07421875" xlink:href="#BitstreamVeraSans-Roman-38"/>
    </g>
   </g>
   <g id="legend_1">
    <g id="patch_7">
     <path d="M 54 252 
L 321.84 252 
L 321.84 160.33125 
L 54 160.33125 
z
" style="fill:#ffffff;stroke:#000000;stroke-linejoin:miter;"/>
    </g>
    <g id="line2d_50">
     <path d="M 62.4 170.049375 
L 79.2 170.049375 
" style="fill:none;stroke:#ff0000;stroke-linecap:square;"/>
    </g>
    <g id="line2d_51"/>
    <g id="text_16">
     <!-- MY1 -->
     <defs>
      <path d="M -0.203125 72.90625 
L 10.40625 72.90625 
L 30.609375 42.921875 
L 50.6875 72.90625 
L 61.28125 72.90625 
L 35.5 34.71875 
L 35.5 0 
L 25.59375 0 
L 25.59375 34.71875 
z
" id="BitstreamVeraSans-Roman-59"/>
      <path d="M 9.8125 72.90625 
L 24.515625 72.90625 
L 43.109375 23.296875 
L 61.8125 72.90625 
L 76.515625 72.90625 
L 76.515625 0 
L 66.890625 0 
L 66.890625 64.015625 
L 48.09375 14.015625 
L 38.1875 14.015625 
L 19.390625 64.015625 
L 19.390625 0 
L 9.8125 0 
z
" id="BitstreamVeraSans-Roman-4d"/>
     </defs>
     <g transform="translate(92.4 174.249375)scale(0.12 -0.12)">
      <use xlink:href="#BitstreamVeraSans-Roman-4d"/>
      <use x="86.279296875" xlink:href="#BitstreamVeraSans-Roman-59"/>
      <use x="147.36328125" xlink:href="#BitstreamVeraSans-Roman-31"/>
     </g>
    </g>
    <g id="line2d_52">
     <path d="M 62.4 187.663125 
L 79.2 187.663125 
" style="fill:none;stroke:#0000ff;stroke-linecap:square;"/>
    </g>
    <g id="line2d_53"/>
    <g id="text_17">
     <!-- MY2 -->
     <g transform="translate(92.4 191.863125)scale(0.12 -0.12)">
      <use xlink:href="#BitstreamVeraSans-Roman-4d"/>
      <use x="86.279296875" xlink:href="#BitstreamVeraSans-Roman-59"/>
      <use x="147.36328125" xlink:href="#BitstreamVeraSans-Roman-32"/>
     </g>
    </g>
    <g id="line2d_54">
     <path d="M 62.4 205.276875 
L 79.2 205.276875 
" style="fill:none;stroke:#000000;stroke-linecap:square;"/>
    </g>
    <g id="line2d_55"/>
    <g id="text_18">
     <!-- MY3 -->
     <g transform="translate(92.4 209.476875)scale(0.12 -0.12)">
      <use xlink:href="#BitstreamVeraSans-Roman-4d"/>
      <use x="86.279296875" xlink:href="#BitstreamVeraSans-Roman-59"/>
      <use x="147.36328125" xlink:href="#BitstreamVeraSans-Roman-33"/>
     </g>
    </g>
    <g id="line2d_56">
     <path d="M 62.4 222.890625 
L 79.2 222.890625 
" style="fill:none;stroke:#008000;stroke-linecap:square;"/>
    </g>
    <g id="line2d_57"/>
    <g id="text_19">
     <!-- MY4 -->
     <g transform="translate(92.4 227.090625)scale(0.12 -0.12)">
      <use xlink:href="#BitstreamVeraSans-Roman-4d"/>
      <use x="86.279296875" xlink:href="#BitstreamVeraSans-Roman-59"/>
      <use x="147.36328125" xlink:href="#BitstreamVeraSans-Roman-34"/>
     </g>
    </g>
    <g id="line2d_58">
     <path d="M 62.4 240.504375 
L 79.2 240.504375 
" style="fill:none;stroke:#00bfbf;stroke-linecap:square;"/>
    </g>
    <g id="line2d_59"/>
    <g id="text_20">
     <!-- MY5 -->
     <defs>
      <path d="M 10.796875 72.90625 
L 49.515625 72.90625 
L 49.515625 64.59375 
L 19.828125 64.59375 
L 19.828125 46.734375 
Q 21.96875 47.46875 24.109375 47.828125 
Q 26.265625 48.1875 28.421875 48.1875 
Q 40.625 48.1875 47.75 41.5 
Q 54.890625 34.8125 54.890625 23.390625 
Q 54.890625 11.625 47.5625 5.09375 
Q 40.234375 -1.421875 26.90625 -1.421875 
Q 22.3125 -1.421875 17.546875 -0.640625 
Q 12.796875 0.140625 7.71875 1.703125 
L 7.71875 11.625 
Q 12.109375 9.234375 16.796875 8.0625 
Q 21.484375 6.890625 26.703125 6.890625 
Q 35.15625 6.890625 40.078125 11.328125 
Q 45.015625 15.765625 45.015625 23.390625 
Q 45.015625 31 40.078125 35.4375 
Q 35.15625 39.890625 26.703125 39.890625 
Q 22.75 39.890625 18.8125 39.015625 
Q 14.890625 38.140625 10.796875 36.28125 
z
" id="BitstreamVeraSans-Roman-35"/>
     </defs>
     <g transform="translate(92.4 244.704375)scale(0.12 -0.12)">
      <use xlink:href="#BitstreamVeraSans-Roman-4d"/>
      <use x="86.279296875" xlink:href="#BitstreamVeraSans-Roman-59"/>
      <use x="147.36328125" xlink:href="#BitstreamVeraSans-Roman-35"/>
     </g>
    </g>
    <g id="line2d_60">
     <path d="M 151.611562 170.049375 
L 168.411562 170.049375 
" style="fill:none;stroke:#bfbf00;stroke-linecap:square;"/>
    </g>
    <g id="line2d_61"/>
    <g id="text_21">
     <!-- ME1 -->
     <defs>
      <path d="M 9.8125 72.90625 
L 55.90625 72.90625 
L 55.90625 64.59375 
L 19.671875 64.59375 
L 19.671875 43.015625 
L 54.390625 43.015625 
L 54.390625 34.71875 
L 19.671875 34.71875 
L 19.671875 8.296875 
L 56.78125 8.296875 
L 56.78125 0 
L 9.8125 0 
z
" id="BitstreamVeraSans-Roman-45"/>
     </defs>
     <g transform="translate(181.6115625 174.249375)scale(0.12 -0.12)">
      <use xlink:href="#BitstreamVeraSans-Roman-4d"/>
      <use x="86.279296875" xlink:href="#BitstreamVeraSans-Roman-45"/>
      <use x="149.462890625" xlink:href="#BitstreamVeraSans-Roman-31"/>
     </g>
    </g>
    <g id="line2d_62">
     <path d="M 151.611562 187.663125 
L 168.411562 187.663125 
" style="fill:none;stroke:#bf00bf;stroke-linecap:square;"/>
    </g>
    <g id="line2d_63"/>
    <g id="text_22">
     <!-- ME2 -->
     <g transform="translate(181.6115625 191.863125)scale(0.12 -0.12)">
      <use xlink:href="#BitstreamVeraSans-Roman-4d"/>
      <use x="86.279296875" xlink:href="#BitstreamVeraSans-Roman-45"/>
      <use x="149.462890625" xlink:href="#BitstreamVeraSans-Roman-32"/>
     </g>
    </g>
    <g id="line2d_64">
     <path d="M 151.611562 205.276875 
L 168.411562 205.276875 
" style="fill:none;stroke:#ff0000;stroke-dasharray:6.000000,6.000000;stroke-dashoffset:0.0;"/>
    </g>
    <g id="line2d_65"/>
    <g id="text_23">
     <!-- ME3 -->
     <g transform="translate(181.6115625 209.476875)scale(0.12 -0.12)">
      <use xlink:href="#BitstreamVeraSans-Roman-4d"/>
      <use x="86.279296875" xlink:href="#BitstreamVeraSans-Roman-45"/>
      <use x="149.462890625" xlink:href="#BitstreamVeraSans-Roman-33"/>
     </g>
    </g>
    <g id="line2d_66">
     <path d="M 151.611562 222.890625 
L 168.411562 222.890625 
" style="fill:none;stroke:#0000ff;stroke-dasharray:6.000000,6.000000;stroke-dashoffset:0.0;"/>
    </g>
    <g id="line2d_67"/>
    <g id="text_24">
     <!-- MEAN -->
     <defs>
      <path d="M 9.8125 72.90625 
L 23.09375 72.90625 
L 55.421875 11.921875 
L 55.421875 72.90625 
L 64.984375 72.90625 
L 64.984375 0 
L 51.703125 0 
L 19.390625 60.984375 
L 19.390625 0 
L 9.8125 0 
z
" id="BitstreamVeraSans-Roman-4e"/>
     </defs>
     <g transform="translate(181.6115625 227.090625)scale(0.12 -0.12)">
      <use xlink:href="#BitstreamVeraSans-Roman-4d"/>
      <use x="86.279296875" xlink:href="#BitstreamVeraSans-Roman-45"/>
      <use x="149.462890625" xlink:href="#BitstreamVeraSans-Roman-41"/>
      <use x="217.87109375" xlink:href="#BitstreamVeraSans-Roman-4e"/>
     </g>
    </g>
    <g id="line2d_68">
     <path d="M 250.6275 170.049375 
L 267.4275 170.049375 
" style="fill:none;stroke:#000000;stroke-dasharray:6.000000,6.000000;stroke-dashoffset:0.0;"/>
    </g>
    <g id="line2d_69"/>
    <g id="text_25">
     <!-- DRFI -->
     <defs>
      <path d="M 9.8125 72.90625 
L 51.703125 72.90625 
L 51.703125 64.59375 
L 19.671875 64.59375 
L 19.671875 43.109375 
L 48.578125 43.109375 
L 48.578125 34.8125 
L 19.671875 34.8125 
L 19.671875 0 
L 9.8125 0 
z
" id="BitstreamVeraSans-Roman-46"/>
      <path d="M 19.671875 64.796875 
L 19.671875 8.109375 
L 31.59375 8.109375 
Q 46.6875 8.109375 53.6875 14.9375 
Q 60.6875 21.78125 60.6875 36.53125 
Q 60.6875 51.171875 53.6875 57.984375 
Q 46.6875 64.796875 31.59375 64.796875 
z
M 9.8125 72.90625 
L 30.078125 72.90625 
Q 51.265625 72.90625 61.171875 64.09375 
Q 71.09375 55.28125 71.09375 36.53125 
Q 71.09375 17.671875 61.125 8.828125 
Q 51.171875 0 30.078125 0 
L 9.8125 0 
z
" id="BitstreamVeraSans-Roman-44"/>
      <path d="M 9.8125 72.90625 
L 19.671875 72.90625 
L 19.671875 0 
L 9.8125 0 
z
" id="BitstreamVeraSans-Roman-49"/>
     </defs>
     <g transform="translate(280.6275 174.249375)scale(0.12 -0.12)">
      <use xlink:href="#BitstreamVeraSans-Roman-44"/>
      <use x="77.001953125" xlink:href="#BitstreamVeraSans-Roman-52"/>
      <use x="146.484375" xlink:href="#BitstreamVeraSans-Roman-46"/>
      <use x="204.00390625" xlink:href="#BitstreamVeraSans-Roman-49"/>
     </g>
    </g>
    <g id="line2d_70">
     <path d="M 250.6275 187.663125 
L 267.4275 187.663125 
" style="fill:none;stroke:#008000;stroke-dasharray:6.000000,6.000000;stroke-dashoffset:0.0;"/>
    </g>
    <g id="line2d_71"/>
    <g id="text_26">
     <!-- GMR -->
     <defs>
      <path d="M 59.515625 10.40625 
L 59.515625 29.984375 
L 43.40625 29.984375 
L 43.40625 38.09375 
L 69.28125 38.09375 
L 69.28125 6.78125 
Q 63.578125 2.734375 56.6875 0.65625 
Q 49.8125 -1.421875 42 -1.421875 
Q 24.90625 -1.421875 15.25 8.5625 
Q 5.609375 18.5625 5.609375 36.375 
Q 5.609375 54.25 15.25 64.234375 
Q 24.90625 74.21875 42 74.21875 
Q 49.125 74.21875 55.546875 72.453125 
Q 61.96875 70.703125 67.390625 67.28125 
L 67.390625 56.78125 
Q 61.921875 61.421875 55.765625 63.765625 
Q 49.609375 66.109375 42.828125 66.109375 
Q 29.4375 66.109375 22.71875 58.640625 
Q 16.015625 51.171875 16.015625 36.375 
Q 16.015625 21.625 22.71875 14.15625 
Q 29.4375 6.6875 42.828125 6.6875 
Q 48.046875 6.6875 52.140625 7.59375 
Q 56.25 8.5 59.515625 10.40625 
" id="BitstreamVeraSans-Roman-47"/>
     </defs>
     <g transform="translate(280.6275 191.863125)scale(0.12 -0.12)">
      <use xlink:href="#BitstreamVeraSans-Roman-47"/>
      <use x="77.490234375" xlink:href="#BitstreamVeraSans-Roman-4d"/>
      <use x="163.76953125" xlink:href="#BitstreamVeraSans-Roman-52"/>
     </g>
    </g>
    <g id="line2d_72">
     <path d="M 250.6275 205.276875 
L 267.4275 205.276875 
" style="fill:none;stroke:#00bfbf;stroke-dasharray:6.000000,6.000000;stroke-dashoffset:0.0;"/>
    </g>
    <g id="line2d_73"/>
    <g id="text_27">
     <!-- QCUT -->
     <defs>
      <path d="M 39.40625 66.21875 
Q 28.65625 66.21875 22.328125 58.203125 
Q 16.015625 50.203125 16.015625 36.375 
Q 16.015625 22.609375 22.328125 14.59375 
Q 28.65625 6.59375 39.40625 6.59375 
Q 50.140625 6.59375 56.421875 14.59375 
Q 62.703125 22.609375 62.703125 36.375 
Q 62.703125 50.203125 56.421875 58.203125 
Q 50.140625 66.21875 39.40625 66.21875 
M 53.21875 1.3125 
L 66.21875 -12.890625 
L 54.296875 -12.890625 
L 43.5 -1.21875 
Q 41.890625 -1.3125 41.03125 -1.359375 
Q 40.1875 -1.421875 39.40625 -1.421875 
Q 24.03125 -1.421875 14.8125 8.859375 
Q 5.609375 19.140625 5.609375 36.375 
Q 5.609375 53.65625 14.8125 63.9375 
Q 24.03125 74.21875 39.40625 74.21875 
Q 54.734375 74.21875 63.90625 63.9375 
Q 73.09375 53.65625 73.09375 36.375 
Q 73.09375 23.6875 67.984375 14.640625 
Q 62.890625 5.609375 53.21875 1.3125 
" id="BitstreamVeraSans-Roman-51"/>
      <path d="M -0.296875 72.90625 
L 61.375 72.90625 
L 61.375 64.59375 
L 35.5 64.59375 
L 35.5 0 
L 25.59375 0 
L 25.59375 64.59375 
L -0.296875 64.59375 
z
" id="BitstreamVeraSans-Roman-54"/>
     </defs>
     <g transform="translate(280.6275 209.476875)scale(0.12 -0.12)">
      <use xlink:href="#BitstreamVeraSans-Roman-51"/>
      <use x="78.7109375" xlink:href="#BitstreamVeraSans-Roman-43"/>
      <use x="148.53515625" xlink:href="#BitstreamVeraSans-Roman-55"/>
      <use x="221.728515625" xlink:href="#BitstreamVeraSans-Roman-54"/>
     </g>
    </g>
    <g id="line2d_74">
     <path d="M 250.6275 222.890625 
L 267.4275 222.890625 
" style="fill:none;stroke:#bfbf00;stroke-dasharray:6.000000,6.000000;stroke-dashoffset:0.0;"/>
    </g>
    <g id="line2d_75"/>
    <g id="text_28">
     <!-- DISC2 -->
     <defs>
      <path d="M 53.515625 70.515625 
L 53.515625 60.890625 
Q 47.90625 63.578125 42.921875 64.890625 
Q 37.9375 66.21875 33.296875 66.21875 
Q 25.25 66.21875 20.875 63.09375 
Q 16.5 59.96875 16.5 54.203125 
Q 16.5 49.359375 19.40625 46.890625 
Q 22.3125 44.4375 30.421875 42.921875 
L 36.375 41.703125 
Q 47.40625 39.59375 52.65625 34.296875 
Q 57.90625 29 57.90625 20.125 
Q 57.90625 9.515625 50.796875 4.046875 
Q 43.703125 -1.421875 29.984375 -1.421875 
Q 24.8125 -1.421875 18.96875 -0.25 
Q 13.140625 0.921875 6.890625 3.21875 
L 6.890625 13.375 
Q 12.890625 10.015625 18.65625 8.296875 
Q 24.421875 6.59375 29.984375 6.59375 
Q 38.421875 6.59375 43.015625 9.90625 
Q 47.609375 13.234375 47.609375 19.390625 
Q 47.609375 24.75 44.3125 27.78125 
Q 41.015625 30.8125 33.5 32.328125 
L 27.484375 33.5 
Q 16.453125 35.6875 11.515625 40.375 
Q 6.59375 45.0625 6.59375 53.421875 
Q 6.59375 63.09375 13.40625 68.65625 
Q 20.21875 74.21875 32.171875 74.21875 
Q 37.3125 74.21875 42.625 73.28125 
Q 47.953125 72.359375 53.515625 70.515625 
" id="BitstreamVeraSans-Roman-53"/>
     </defs>
     <g transform="translate(280.6275 227.090625)scale(0.12 -0.12)">
      <use xlink:href="#BitstreamVeraSans-Roman-44"/>
      <use x="77.001953125" xlink:href="#BitstreamVeraSans-Roman-49"/>
      <use x="106.494140625" xlink:href="#BitstreamVeraSans-Roman-53"/>
      <use x="169.970703125" xlink:href="#BitstreamVeraSans-Roman-43"/>
      <use x="239.794921875" xlink:href="#BitstreamVeraSans-Roman-32"/>
     </g>
    </g>
   </g>
  </g>
 </g>
 <defs>
  <clipPath id="p9ea03e5c3f">
   <rect height="223.2" width="334.8" x="54.0" y="28.8"/>
  </clipPath>
 </defs>
</svg>
